<svg xmlns="http://www.w3.org/2000/svg" viewBox="0 0 335.07 1300.36"><defs><style>.cls-2{fill:#f59f1f}.cls-3{fill:#dc1f86}</style></defs><g id="Laag_2" data-name="Laag 2"><g id="Error_page" data-name="Error page"><path d="M103.23 702.24c5.33-19.25-1.5-3-1.13 4.65.81-2.16 1.46-2.42 1.13-4.65zm84.06-339.5c-.92-3 2.63-11.92 3.46-17.24.73 4.14-1.05 10.5-3.46 17.24zM54.23 915.48c-.81 7.43-3.59 20.6-5.73 26.56.58-8.71 2.93-17.17 5.73-26.56zM198 327.55c-1.22-3.55 2.59-9.64 3.4-14 1.26 3.76-2.88 7.98-3.4 14zM89.43 782.7c.5 7.74-3.32 22.58-7 37.74-.49-8.9 3.62-23.81 7-37.74zm-29.6 127.57c-.48-2.94 2.75-16.22 4.53-18.61-2.59 8.2-2.08 13.52-4.53 18.61zM202.26 336.8c-2.45 5.08-1.94 10.41-4.53 18.61-.73-2.41 1.41-18.1 4.53-18.61zm3.47-17.24c-.35-2.25 2.46-17.88 4.84-16.9-1.95 6.68-1.32 8.1-4.84 16.9zM67.85 889.21c2.11-2.7-3.1 13.17-2.42 15.85-3.22 6.37-5.14 20.1-7.86 29.32-.06-6.63 4.42-19.18 6.12-28.1.79-2.62-.19-4.31 1.13-4.65zm-42 223.17c2.82-.87-.54 6.34-.9 9.64-1.74-.6-.13-5.53.86-9.64zm222.22-892.65c.24 5.69-1.72 9.47-2 14.31-2.25-2.54.48-9.18 2-14.31zm23.82-38.57c-1.64-3.32 2-10.66 4.69-10.36-1.92 4.81-1.75 6.75-4.69 10.36zM41.24 1203.24c1 1.91-2.68 14.28-4.61 21.89-.11-8.24.79-10.74 4.61-21.89zm2.2 23.55c1.36 1-1.58 7.72-2 11-.44-2.39.06-8.48 2-11zm6.73-24.66c1.15 1.67-1.37 8.13-.22 9.8-2.79 3.89-2.1-6.35.22-9.8zm-1 31c-1.8.24-.79-3.19-3-2.38.59-2.19 1.18-4.37.45-4.82.72-2.06 2-.87 3.1-.88-1.72 4.61 1.08 3.4-.59 8.05zm47.32-108.46c-.62-1.39 2-15.59 4.08-13.8-2.57 5.21-1.66 7.91-4.12 13.77zm7.42-9.7c-.77-.6.06-3.26.75-3.1l1.36.33-3.77 15.51c-.68-4.43 1.53-10.19 2.72-14.13-.56-.45-.83.42-1.1 1.36zm-4 69.7c.68 3-.49 8.39-2 14.31-.25-3.65.92-9.06 1.99-14.34zm15.27-24.22c-1.89 1.73 3.2-14.71 4.23-20.34 3.91-13.19-1.93 14.18-4.24 20.31zm13.3-57.59c-2.62 19.85-6.31 22.43 0 0zm12.69-31.42c1.15 2-2.11 9.82-2.71 14.14-1.31 2.42 1.54-13.22 2.7-14.17zm12.92-41.22c-1.6 2-2.53 7.78-3.7 12.24-1.83 4.76 1.61-15.28 3.69-12.27zm50.38-183.34c.92 3-2.62 11.91-3.46 17.23-.38-6.11 1.23-9.41 3.45-17.26zm1.07-1.38c-1-2.53 2.38-10.87 3.09-15.69 1.02 2.51-2.38 10.83-3.1 15.66zm-32 143.42c-6.33 18.91-9.19 37.6-14.66 57.24.25-1.57-2-4.91-.22-5 5.48-15.04 7.09-35.56 14.86-52.27zm15.4-60.35c-1.76 2.3-2.75 9-4.08 13.8-.86-3.24 1.14-13.58 4.06-13.83zm-59.51 238.63c.06 4.87-1.28 11.55-3.16 18.95.11-5.15 1.44-11.82 3.14-18.98zm61.17-251.38c0-4.06 3.35-7.16 1.88-7.75 3.03-6.86.16 11.05-1.9 7.72zm48.64-196.9c.82 7.34-8.92 41.68-3.4 14 .62-3.33 2.21-8.82 3.38-14.03zm61.32-243.13c-.23 8.88-8.29 38-11.33 46.56 3.6-13.07 5.62-30.41 11.31-46.59zm-161.7 667.38c.29 3.51-.57 8.51-2 14.3-.32-3.47.54-8.47 2-14.3zm62.55-844.39c-.07-3.06 4-13.87 6.19-16.57.16 3.53-4.67 10.28-6.19 16.57zM100.22 714.64c1.15-1.09-1.38 11.63-2.8 17.41.05-4.64 1.41-11.05 2.8-17.41zM70.84 847.21c3.63-18.8 13-60.09 22.28-91.55.74.45-.11 3-.45 4.81l-1.13 4.66c-2.8 15.26-7.12 25.5-7.32 36-5.57 4.39-1.13 22.38-5.58 34.8-2.81-.91 2.57-12.53 1.73-16-3.92 4.73-5 15-7 22.94-.7-3.7-1.59.05-2.53 4.34zm-39.71 166.2c-2.33-2.38 1.9-11 3.09-15.69.03 5.87-2.97 8.99-3.09 15.69zm25.3-104c-.37-1.2.85-6.33 2.33-12.57.79 3.64.57 9.7-2.33 12.6zm110.86-449.64c.19-1.35.62-1.4 1.06-1.38 2.76.26-1.21 10.65-2 14.29-8 35-21.87 77.94-28.92 113 9.02-47.81 19.71-81.93 29.86-125.91zm-35 152.57c2.53-5.68 5.58-16.94 4.91-20.17l2.05.49c3.35-24.21 11.5-53.38 20.46-87.06-.67-.12-1 1.77-1.43 2.94 5-21.78 19.1-63.14 23.33-92.94.45 2.08.93.86 2.05.49 2.39-15.85 5.93-30.28 10.79-53.25 0 4.45 3.88.55 1.14 10.14-1.25-.48.77-5.24-.91-5.15-5.47 21.78-4 26-9.52 42.07 1.05-.26 1.52-3.75 2.2-6-1.45 12.67-8.48 35.27-12.54 54.48 10.13-35 18.07-72.54 26.67-103.63 1.14-4.15 4.12-11.94 4.22-20.34 1.67-3.46.51 5.58-.9 9.64 5.26-10.95 2.32-15.51 5.43-28.27 1.54.1-1 5.59-1.2 7.93 7.23-16.55 17.68-56.37 24-78 .65.56-.28 3.2.62 3.44 2.28-.53.15-3.48 1.51-6.21 4.11-2.53 6.78-13.26 9.44-24 1.63-6.77 1.24 0-.07 3.28.32 3.8-3.43 12.95-1.35 14.46-2.33 4.73-2.38 8.33-3.4 14 2.07-1.77 2.88-10.74 4.45-15.36 2.54-.85-.28 5.3.54 6.7 4.19-10.85 6-24 7.32-36-.68-.11-1 1.77-1.44 2.95.77-6 7.76-32 11.72-33.31-2.36 22.33-11 53.89-17.37 86.17 5.49-22 19.57-49.64 19.34-67.61 1.39-4.47 3.32-5.86 5-8.65.36 5.3 1.32 8.82-1.72 16 1.46-.32 2-5.89 3.86-4 .78 1.78.7 4.71-.91 9.64 4.11-10 7.13-26 11.41-35 2.17 1 1.46 5.83 1.14 10.12 1.66-2.9 3.49-4.86 5-8.63-2.46 22.31-5.51 45.92-13.29 72.37 5.87-11.87 11.18-35.35 15.12-47.27-.39 7.72-7.3 32.69-7.86 29.3-1.06 4.57.16 6.16.84 8.44 2.42-12.47 4.32-17.48 8.16-27.61.49 8.83 2.2-10 4.83-16.9a36 36 0 0 1-2.71 14.12c-.31 2 1 1.9 1.36.34-2.84 13.51-5.57 35.29-8.37 52.21 4.16-8.8 7.09-30.2 9.74-37.08-1.17 9.63-3.63 21-6.57 32.91 3.41-4.8 6.45-16.16 7.41-24.49.74.44-.11 3-.45 4.82.86-.06 1.26-2.68 1.81-4.49.06 6.62-4.41 19.18-6.11 28.1.06 1.68 1.18 2 .23 5 2.28-.53.16-3.48 1.51-6.21 1.3.78.35 4.47.53 6.7 4.33-6.38 1.87-12 5.67-23.27.32-3.49 3.09-9.71 1.43-2.94-5.81 14.6-.7 17.58-.9 9.64 0 1.59-.59 5.38-1.65 12.75 2.35-2.65 3.88-10 5.51-16.74.43 12.73 2.85-8.33 5.52-16.74 2.21-4.49-1 6.88-1.58 9.48-.68 3.7-.35 6.08-2 11 2.72-1.84 4-11.63 5.89-18.29.56 15.39-7 29.69-10.34 48.43 2.3-4.37 8-29.52 3.63-9-.9 3.65.06 4.86-1.58 9.47 4.68-12.14 8.39-34.78 11.93-43.11.51 2.16 0 5.66-.91 9.65 2.83-.81 1.54-4.48 3-9.15 2 1.28 3.08-2.21 5.14-.4.76 7.48-4.53 22.86-6.94 34.48 1.66-4.14 3.5-7.22 5.06-11.91.12 6.19-2.23 15.6-2.56 22.38 3-6.42 3-11.76 3.78-15.51 2.3-11.72 0 .16-.6 11.35-.28 3.19 1.22 4.06 1.21 6.87-1.72 11.08-6.14 25.66-7.31 36 8.52-10.66 11.47-44.87 19.33-67.61-1.67 22.51-1.08 37.9-9 66.84 2.51 3.12 2.11-10.22 4.62-7.11-11.93 36.92-23.21 90.6-29.76 119.33.86-.06 1.26-2.69 1.81-4.49-1.07 6.3-6.47 19.88-8.61 32.42 2.32-3.92 7.35-28.34 7-22.94-1.55 11.54-7.2 28.45-7 37.73 9.92-33.74 17.25-69.13 27.49-110l2.65-10.87c.87-5.73 2.54-5.33.67.17l-2.64 10.86c-4.17 25.11-17.18 69.25-24.68 107.4 11.23-42.95 23.41-91 35.71-140.88 1.26 1.53-1.85 8.77-2.33 12.59-.64 6.45-3.69 20.6-6.42 26.37 1.65 1.33 1.37 2.73-.6 11.36-.32-6.55-.79.57-2.8 2.61 1.85-.68-.24 4.6.16 8.26-.9 3.63-1.73-1-.61-3.44-8 30.72-19.12 72.82-28.09 106.57l-3.4 14c-1.72.78 3.73-16.85 5-23.44-10.51 29.24-9.91 50-18.05 71.21 1-.25 1.51-3.75 2.19-6-4.81 24-8.2 36.92-14.65 57.25-1.56 6.1 1.47 9.29-2.34 12.58.5-15.42 13.53-55.58 16.83-78.08a3766.55 3766.55 0 0 0-19.25 79.13c0 2.48 1.12-.18 2.35 2.22-2 11.89-5.85 13.7-7.79 26 1-.25 1.51-3.74 2.19-6 1.21 5.54-6.72 14.24-3.84 18.79-1.37 7.23-5.83 21.86-8.31 34.13-2 9.91-5.23 30.35-.84 6.37-2.46 3.29-3.63 13.87-5.58 20-.94 2.3-.74-.08-.31-1.71 6.4-26.77 9.1-38.42 13.29-57.59-7.45 25.18-14.75 59-16.38 73.27-.31 8.16-5.18 22.28-7.25 32.74-1.4-.67 4.54-20 6.12-28.09-6.85 20.74-15.37 56.64-21.38 81.91-.65-.2-.06-2 .07-3.27-15.49 48.3-27.1 104-44.63 171.58 4.66-6.22-1.62 9-3.32 10.69.06-7.13 4.66-20.2 6.48-29.64-3.66 3.49-5.86 29.91-9.89 28.81l3-12.4c-4 9.68-7.77 31.14-10.43 36.9-.31-5.59 3.91-17.1 5.36-25-9.63 26.09-13.17 44.86-22.29 76.77-1.25-1.53 1.86-8.77 2.34-12.57-5.88 6.93-7 31.07-12.09 34.85 1.42-3.76 2.22-6.21 1.59-9.48.38-1.5 1.12-1 1.74-1.22 2.21-7.41 8.68-47.22 13.66-59.13-.26.62-.91 5.93-2 14.3-2.39 5.84-5.6 19.29-5.67 23.27 6.29-20.05 13.45-55 17.07-73.09-4.34 7.78-6.57 28.44-10.88 26.93-3.27 11.43-5 18.84-7.48 27.77-.56-4.57 3.39-15 4.6-21.89-6.51 19-13.17 46.56-17.29 68.11-3.55 9.37 1.41-7.86 1.2-7.93-1.61-.54-4.17 17.13-4.15 17.07-3.54 13.27-16.9 57.37-17 69.83-.51-2.51 0-6.4 1.28-11.2-1.95 1.27-2.63 9.7-4.08 13.8-1.73-4 2.64-10.26 3.85-18.78-2.47.34-2.4 5.62-3 9.14-2.06 1.6 1.77-13.55 3.55-20.5 1.43-2.27-.78 9.13-2 11 15.41-51.07 26.47-102.3 36.7-139-5.53 11-9.53 31.42-13.44 49.32.14-10.28-4.67 13.28-6.57 18.12.7-11 7.28-24.77 5.58-34.79 1.22 1 2.56-3.69 4-10.54-5.35 9.78-7.75 22.46-10.73 35.19-.45-9.5 4.62-18.81 5.89-33.08-.94 4.86-6 16.27-5.67 23.27-4.28.68 1.51-11.85 2.11-17.56-3.58 6.26-5.67 16.59-4.61 21.89-2.34 5.54 1-4.6-.6-3.44-3.28 9.94-4.93 26.89-9.52 42.06.86-15.05 6-36 9.51-56.85-2.9 7-7.29 25-7.93 32.58 1.18-.42.21-2 1.13-4.65-1.17 9.19-4.41 12.49-4 25.33.3-3.58-1.25-4.71.22-9.81-8 28-17.79 62.38-22.28 91.55-1.42-1.67-.18-6.81-.46-10-1.35-.13-.46 5.39-2.26 9.31.38-8.44 2.36-24 4.82-31.7-.73-.44-1.3 0-1.74 1.23 3.32-17.47 10.08-33.86 11.85-54.64.65.2.07 2-.07 3.26 9.43-27.31 17.75-63.19 23.64-91.21-9.4 16.6-9.2 48.12-19.79 72.43 2.28-10.46 8.13-32.65 11.7-48.11-4 1.82-3 19.46-6.57 18.14-.05 3.58.21 6.76-1.66 12.74-.87-7-4.37 7.92-1.89 7.75-7 15-6.9 28.55-13 44.51-.35 2.48 1.52-1.07 1 1.88-3.14 7.32-3.88 11.71-6.88 16.4 9.32-36.08 17.42-68 28.93-112.94-1.93 1.39-2.54 10.22-4.69 10.36 2.14 2.71-8.47 24.49-8 35.86-.5-3.17-2.16.19-3.79.72.28 1.75.59 3.46.91 5.16-2.77-1.76-5.22 17.78-5.28 21.72-.86 4.94-2.84 3.65-3.94 7.26-.33 1.85.93 1.61 1.67 2-2.24 4.83-4 18.74-6.2 16.57-.91 3.1.18 10.43-1.73 16-1.87-1.83-1.08-1.68-3.1.88 5.2 3.9-8.87 35.3-8.75 53.76 2.72-1.85 4.14-11 6.2-16.57-1 .25-1.51 3.75-2.19 6 .08-7.87 2-18.06 5.13-30 1.15 4.26-.08 7.6-2.79 17.4 2 2.05 2.11-9 3.86-4-.67-6.15 3.37-12.65 2.48-19.12-1 .25-1.51 3.75-2.19 6-2.13-1.08 1.11-9.19 2-14.28 2.06-4.09 2.24 4 3.48-2.45.08 9.53-3 17.79-4.76 28.43 1.69-.3 2.14-7.58 3.33-10.7.49 8.75-5.45 25.53-4.07 28.59-.68 1.09-1.28 16.42-5.14 15.2 2.21-6.78 1.36-9.54 3.1-15.69-2.51 5.16-2.65 4.43-.62-3.43-8.64 12.17-3.14 22.89-6.63 36.18-.54-2.08.82-7.89-1.67-2.05-.25-4.33 1.47-5.2.9-9.64-4.71 8.71-6.63 27.29-4.61 7.1 1.12-3.83 3.82-4.56 2.94-9.15-1.54 3-.28 1.37-2.11 2.77-.61-7.39 3.24-21.09 3.69-27-2.48-.13-1 4.2-2.5 4.32-1.82-1.26 2.24-6.32 1.66-12.76 1.11.68.91 3-.15 6.55 2.87-12 6.9-24.9 8.39-37.4-1 .08-2.84 6.12-1.37-.34-2.31.82-.81 5.1-1.89 7.76-1.15-1 .93-6.14-1.59-5.32-2.48 9.93.44 11-4.67 25.16 3.68-3.53 4.77-16 6.95-19.68-3.75 19.53-13.68 45.4-13.44 64.12 3.34-7.92 2.47-20.55 5.74-26.55-.73 7.76-2.75 29.42-6.12 28.1-1.19 7.83-5.4 20.79-3.4 14 1.49-4-.68-3.34-.91-5.15 3.16-6.15 3.75-10.91 4.53-18.62-2.25 4.22-1.06 11.14-4.46 15.34-3 1.83.88-5.36-.9-5.14-.94.92-3 7.68-5.68 8.48 5.77-8.2 8.21-19.83 11.27-28.49.73.45-.12 3-.46 4.82 4.23-7.68-.26-13 3.62-23.78-1.69.31-2.14 7.59-3.32 10.7-.89-6.47 4.21-18.32 4.75-28.43-3.63 6.12-2.72 15.49-5.22 18.46-1.15-1.67 1.38-8.14.23-9.81 1.87-.57 1.27-.68 2.57-7.6-3.13 2.74-4.16 4.73-7.49 13q.42 2.64.91 5.17c-3.13 1.15-2.19 10.19-4.53 18.61-2.38.65.47-5.55-2.65-3.93 1.74-9 4.94-17.3 6.79-27.93-.72-.44-1.29 0-1.73 1.21-.2-4.38 3-1.75 3.32-10.69-1 .26-1.51 3.76-2.19 6-.7-1.56.23-5.24.53-8.09-3 4.32-3.72 14.69-1.74 16-1.48 6.58-1-.27-2-.49.48 7.59-.52 9.32-3.55 20.5.92-10.66.64-7.74 2.49-19.11-4.84 10.06-4.79 18.91-8.68 35.69-.87-4.87 1-13.25 3.24-22.23-1.51.07-1.85 6.78-3.26 7.43-.85-2.51 2-5.18 1.59-9.48l2 .5c4.83-31 8.68-52.21 12.75-79.08-2.65 8.45-6.28 27.72-8.24 30.87-.79 14.15-1.81 28.83-5 38.24-.58-1.63 1.31-13.88-1.29-3.6-.57-4.68 3.93-12.07 4.91-20.17-6.88 16-6 30-9.51 42.06 3.39-7.62 3.38-14.52 5.89-18.29-.64 8.35-3.28 14.45-6 21.56 1.12 3.1 1.06 7.77.38 13.24-.89 3.63-1.72-1-.6-3.44-1.68 4.51-5.38 16-4.61 21.9-.41-5-5.65 9.33-1.89 7.76-5.82-3.48 3.79-30.15 3.76-45.11-1.41-.62-1.65 5.43-2.57 7.59-2.12 3 2.33-11.45 3.1-15.69.8.71-.38 4-.84 6.37 3.58-11.26 4.63-21.88 6.95-34.46-3.74 3.92 3-18.82 1.27-26-.2-1 4.1-11.84 4.08-13.8.26-2.37-1 .4-2-.49 2-7 3.72-8.57 5.59-20-1.27 1.52-1.73 1-1-1.88-1.91.29-2.77 6.42-4.61 7.09 2.17-7.06 5.94-25.26 10.73-35.2-1.69-4.52 4.53-21.53 7.32-36-1.42 5.61-6.94 14.31-4.84 16.9-4.93-1.14-5.57 21.19-9 19.18-4.53 26.58-11.13 50.28-13.14 65.83q2.13 1 3.18-4.16c.47 10.92-6.26 28.42-7.4 39.29-1.38-3 .93-5 .53-8.09-2.85 4.14-4.28 15.44-1.73 16-1.46 6.49-2.92 13-5.14 15.18 3.16 6.84-3.25 19.73-1 27.71-3.5-.63-.66 2.56-1.58 9.48.68.12 1-1.77 1.43-2.94 2.27 1.62-2.24 6.92-.22 9.81-1 1.6-1.56-.77-3.18 4.16-.26 2.37 1-.4 2.05.5-.79 4.13-2.94.57-3.56 5.7-1.72 1 .57-8.23-1.28-3.6.8-2.64.26-13.4 4.15-17.06-1.24-4.75-5.72 11.93-5.52 16.73-1.47-4.69-3.73 11.61-5.81 15-.43-1 0-4.56-1-1.88 1.26-9.26 3.56-17.39 5.81-29.82-4.88 7.54 2.89-13.52.75-17.9 2.54 3.73-2 16.66.91 20 4.14-2.21 2-8.41 5.37-10.2 1.52-4.81-1.23-4 .91-9.64-.87.8-3.39 3-1.67-2.05-1.93.92-1.9 8-1.59 9.47-5.08 5.2 1.76-19.87-.61-18.22 4.51-17.68 1.63-28 8-50.65-2.12-.37-1.57-5 .3-13.08a16.66 16.66 0 0 1 .23 5c2 .25 2.82-6.17 4-10.54-1.56-.16-1.9 6.52-3 9.15-.37-3.38-1.06-6.35-.08-11.52.73.44 1.3 0 1.75-1.23 4-32.71 12.43-49.73 15.92-83.23-3.54 1.78-2.26 10.92-5.22 18.45.8-11.6 3.52-20.06 7.93-32.59q1 2.35-.52 8.1c1.55.16 1.89-6.52 3-9.14-.46-1.82-1.53-2-2-3.77.78-5.28 2-2.16 2.42-1.06.46-13.63 5.76-38.29 12.38-62.73-6.8 16.32-9.41 33.19-14.44 47.44 4-6.66-1.6 18.13-4.3 23.6-1.36-1 1.59-7.7 2-11-12.28 45-18.3 78.62-25.74 123.58-.48-.42-.31-1.72-1-1.88-2.1 11.14-1.82 17.56-5.43 28.26-.27 2.37 1-.4 2 .5-2.41 12.94-9 28.42-9.51 42.06-.27 1.13 4.42-23.4 1.89-7.76 2.48 5.91-2.95 22.2-3.47 32-1.85-6-1.09-18.09-1.76-28.37 6.18-14.29 5-33.89 9.59-45.33 8.4-20.92 7.11-47.42 15.4-75.15-2.69.8-1.35 6.28-4 10.53 3.2-24.2 11-53.38 15.63-70.15-9.28 26.9-18.22 65.67-24.77 95.87 3.43-5.74 3.91-11.58 7-22.94 1 9.24-5.25 22.69-6.5 29.65-.74-.45.11-3 .46-4.83-2.34 2.79-3.39 12.84-5.22 18.46 12.4-67 28.21-135.79 42.2-200.11 1-2.64 1.39-9.32 2.94-9.15l-2.64 10.86c-6.11 26.69-9.42 49.71-15.77 76.7 2.9-3.3 4.38-14.54 7.25-18 .22-2.49-.69-.28-1.06 1.38A8144.42 8144.42 0 0 0 78 850.59c7.18-31.78 13.67-53.1 22.28-91.55-5.57 13.75-7.14 30-11.86 39.84 6.73-34.42 17.3-68 24.92-102.42-1.6 2-2.9 5.71-4 10.53 2.34-15.59 7-36.85 13.14-51-5.28 8.66 5-27.09.53-8.09 3.86-18.57 8.29-37.4 13.36-60.86 1.71 2.65-4.18 17.8-4.05 25.3zM122.49 988c-3.9 1.31-4.69 20.16-8.09 24.33 5.22-3.79 3.69-13.74 8.09-24.33zm-62 150.92c.06 6.9-5 12.78-4.6 21.89 1.14-2.13 2.22-4.67 3.86-4-.7-6.33 3.25-17.65.75-17.91zm-29.83-13.84a220.26 220.26 0 0 1-2.66 25.63c.55-1.79 1-4.42 1.81-4.48-.19 1-.34 1.87.31 1.71.62-5.08 2-5.74 3.25-7.42-1.16-1.3 1.71-7.88-1.22-6.87-.68 2.3-1.14 5.78-2.19 6 1.85-5 .61-10.12 2.19-6 .14-7.38-.33-3.05 1.89-7.76-1.04-1.37-1.58-6.06-3.37-.83zm123-579.84c-.72 4.82-4.13 13.16-3.1 15.68.78-4.83 4.18-13.17 3.15-15.7zm-89.2 387.52c2.56-14.35 8.14-24.18 6.88-31.19-1.82 9.07-8.05 29.54-6.88 31.19zM5 1215.79c3.45-2.91 1.13-14-.53-6.71 3.26-1.83-1.42 6.76.53 6.71zm27.87-111.57c-1.21 11.47 1.15-8.68 4.68-10.36-.14 1.24-.72 3.07-.07 3.27 1.39-5.34.45-7.63.59-11.35a53.29 53.29 0 0 0-5.22 18.44zm9.81-40.33c-.47 2.75-3.8 7.26-2.26 9.3 1.83-2.32 3.58-6.51 2.24-9.3zM23.8 1171.06c1.84-7.7 4.6-16.59 2.49-19.12-.13 5.45-3.61 15.3-2.49 19.12zm.61 3.43c-.8-.71-.76-2.52-2.35-2.21-1.15 4.06-2.14 13.27.84 8.43-.52-.58-.13-7.33.83-6.38-.21.86.12 1.9.68.16zm28.68-25.89c1-5.63 6.12-22.06 4.23-20.34-1.32 3.61-1.89 11.47-3.71 12.25.62-3.37 4.56-16.43 2.34-12.58-1.85 8.07-5.1 17.97-2.86 20.67zm29.54-94.72c-1.78 2.41-5 15.67-4.53 18.63 1.9-4.41 2.12-10.64 4.53-18.63zm3.57 9.12c-2.39.23-6 12.68-5.52 16.73 1.77-5.99 3.5-12.18 5.52-16.73zm-25.45 110.5c1.28-7 3.34-14.94 3.55-20.5-1.1 3-5.11 17.53-3.55 20.47zm16.85-63.29c.4-3 3.2-9.12.52-8.09l-1.89 7.76zm10.64-46.71c3.15-13.83-1.39-2.16-2.64 10.86-.38 3.79 1.4-5.23 2.64-10.89zm194.85-785.9c.65-4.74 1.47-9.7-.09-11.53.31 3.44-1.79 10.07.09 11.5zM76.62 1123.09c2.57-2.82 2-5.91 3.62-9-4.58-3.53-4.57 18.18-3.62 9zm2.79-17.39c-.69 4.89-.25 3.09-1.89 7.75 1.96 2.74 5.8-9.65 1.89-7.75zm-4.53 18.62c-6.45 21.26 1.28 7.11 0 0zm10.87-41.74c.94-8.48-4.72 14.09-5.29 21.73 3.67-8.54 4.95-18.59 5.29-21.73zm30-40.36c3.41-13.63 7.22-27.65 11.33-46.54 1.88-8.64 4-29.26 7.7-37.58 2.81-6.25 0 5.2.76-3.1.55-6.24 4.54-13.65 4.53-18.62-4.95 3.59-5.64 26-9.46 24-9.12 54-29.2 107.46-42.73 178.61 5.59-20.09 9.62-42.92 16.47-61.74-5.57 21.22-4.14 21.66-.08 3.28.37-5.91 3.3-10.46 2.42-15.86 4.71-5.77 9.62-40.21 16-56.91-1.24 10.77-7.14 22.46-6.91 34.46zm-32.63 125.2c1.21-6.86 5.17-17.33 4.61-21.89-2.35 6.47-5.52 20.82-4.58 21.89zm44.37-128.91c1.08-6.7 5.72-18.07 3.55-20.51-.51 4.52-1.95 3.8-2.58 7.6 3.31-1.15-4.33 11.93-.94 12.91zm-59-163.93c-6.75 26.64-2.13 7.4.53-8.08 2.33-2.79 3.38-12.84 5.21-18.46 3.09-6.84-2.96 19.96-5.72 26.54zM6.45 1150.4c2.33-1.71 4.61-12.17 6.65-21.39 1.18 5.88-6.74 29.51-6.33 37.91-2.7-2.58.48-10.62-.32-16.52zm-1.73 16c1.19 4.55-2.09 11.41-4.3 23.6-1.64 7.73 1.88-15.71 4.3-23.58zM26 1105.84l3-12.41c1.73 3.73-3.12 11.3-1 12.91-.85 2.22-.72-.83-2-.5zm-17.53 122.3c-.19 3.43 1 5.09-.22 9.81-2.92-.4-1.45-6.56-1.82-10.31 1.81-3.19 1.19 2.36 2.42-1.05.7.49 0 1.64-.38 1.55zM42 1108.1a24.6 24.6 0 0 0-2.27 9.31c-1.32-6.31-1.33-10.75 3.93-22.05.9 3.22-5.17 10.15-1.66 12.74zm231-928.33c.85 1.7-.27 6 1.21 6.88-2.73 2.57-5.31 3.97-1.21-6.88zM21.88 1241.26c-1.56-2.21 1.45-1.41.3 1.72 1.05-1.79 5.08-5.2 3.94-7.26 1.83-.6 1.74 10.38-.07 18.06a41.58 41.58 0 0 1-.39-13.24c-.62.17-1.05 1.39-1.73 1.22 0 1.46-.09 2.92.6 3.44-1.41 3.44-3-1.59-2.65-3.94zm13-14.91c2.11.16 1.06 6.12-.52 8.09 1.46-.35 2.3-4.13 4.16-2.27-1.72-1.78 2.62-8.24 4.08-13.8 1.78.86-5.36 12.32-1.66 12.74-1.27 2.56-3 5.61-3.49 2.45-1.78 4.8-.08 5.06-.52 8.08.67 8-.49-4.5-1.28-3.6-2.74 3.15-4.8 22.86-.69-.16-1 .26-1.51 3.75-2.19 6 .25-5.25-.72-8.9 0-14.79a4.69 4.69 0 0 0 2.12-2.74zm7.78-26c.56-1.73.89-.69.68.17.86-.06 1.27-2.69 1.82-4.49l3.4.83c-.67 2.64-.47 4.15.24 5-.57 1.73-.89.69-.68-.17-1.05 1.39-2.8 6.59-.83 6.37-3 2.55-.75 2.42-1.89 7.76-.48-2.73-3.31 0-4.55 3.83-1.73-1.48 1-10.36 2.2-6l1.51-6.2a4.73 4.73 0 0 0-2.12 2.77c-1.31-4.11 3.14-6.57 3.7-12.25-1.33 1.07-2.2 4.76-3.25 7.43-.89-.7.9-4.8-.22-5.1zm7.19.11c.17-8 5.25-17.36 6.35-23.1.07 4.83-3.39 14.29 2.13 12-.74 1.35-2.47 1.88-1.44 2.93-.82 2.67-2-2.94-2.65-3.92-2.91 2.33-1.64 7.06-4.38 12.04zm10.38 10.74c1.07 2.13-2.43 10.26-.6 11.36-1.87 2.44-2.06-7.39.61-11.41zm23.47-7.43c-2.19-6.67 4.09-33.55 5.19-48 1.65 8.42-2.67 24.65-3.91 36.85 3.2-3.4 1.47-13.09 4.83-16.9 4.89-.54-5.56 31.78-.22 9.81a18.15 18.15 0 0 1 .83-6.38c-2.93 4.36-5.96 21.23-6.71 24.57zm6.63-51c-.94-.81 1.26-2.59.07-3.27l5.29-21.73c.67 4.07-3.15 14-4.23 20.35.33 2.2-.32 2.46-1.12 4.61zm3.71 2.55c.43-3.3 3.18-13.19 6.72-24.66-.19 4.5-3.71 25.3-7.92 32.58-.93-2 3.25-5.88 3.69-12.25a16.82 16.82 0 0 0-2.48 4.29zm2.6 36.79c-3.35 5.68.61-10.29 2-11 1.21 1.05-2.64 8.45-1.99 10.96zm78.82-214.21c.49-1.44 1.49-16.88 5.37-25 1.97 4.1-3.53 18.84-5.36 24.96zM307 449.39c-1 .24-1.51 3.74-2.19 6-.59-4.91 4.51-15.74 6.79-27.93 1.59 7.84-3.6 12.76-3.92 22.06-.6 1.75-.93.73-.68-.13zM66 864.11c-1.18 0 1.21-9.83 2.26-9.31.67 6.28-.34 15.11-3.54 20.51 0-3.26 1.43-7.18 2.71-14.14-.66-.11-.98 1.83-1.43 2.94z" fill="#553f92"/><path class="cls-2" d="M188.61 703.23c-.36 6.88-4.3 13.67-3.5 16.56 2-5.89 4.62-9.56 6.84-14.72-1.13-1.5-1.63-2.62-3.34-1.84zm45.1-195.9c-.1.85-.41.87-.75.85-.9 2.82-2.55 12.59-3.1 10.5 1.38-3.36 1.58-11.49 3.85-11.35zM213 583.2c1.89-3.89 3-10.79 4.52-16.31.69-.54-2.25 15.87-4.52 16.31zm41.6-168.08c-.56-2.17-.68-4.85.59-9.07.81 1.95-.13 5.74-.59 9.07zm-5.75 19.09c-1.92 4.42-3.2 11.42-5 16.18.07-4.09 2.83-14.02 5-16.18zm-53.09 217.5c-.22-4.65 1.55-11.55 2.71-17.77 1.18 3.58-1.95 12.06-2.71 17.77zM191.44 665c.83 1.62-1.45 6.78-1.85 9.79-.84-1.62 1.41-6.79 1.85-9.79zm34.17-155.55c-.83-1.62 1.45-6.78 1.86-9.79 1.26 2.9-.99 4.9-1.86 9.79zm-30.23 121.68c.17-10.61 3.39-17.17 6.05-29.25-.1 7.5-4.43 18.79-6.05 29.25zm35.19-155.29c-.84-1.63 1.45-6.78 1.84-9.8.8 2.86-.52 5.5-1.84 9.8zm-12.51 51.23c.23 5.45-3.61 14.54-4.52 16.31-.02-6.87 2.29-10.77 4.52-16.31zm7.51-33c-1.06-.43-1.06 3.37-1.68 4.71-1.62.52 2.06-7.34 2.59-10.63.9 4.36-2.59 13.65-3.93 20.54-.48.08-.4-.49-.28-1.09-1.17-.79.26 5.15-2 3.62-1.2 3.5-1.69 9.79-3.34 11.47l2.83-11.59c1.8-3.07.94-4.51 2.39-7.61.22-.48.28 2.69-.19 3 1.95-1.33 1.66-6.57 3.61-12.41zm47.19-193.34c-2.79-1.06 1.81-10.45 1.27-14 1.97 2.01-.21 8.62-1.27 14.01zm-62 243c-.51-1.75-.05-4.62.87-8 .5 1.77.03 4.63-.88 7.99zm89.7-378.6c.47 3.21-2.25 10-3 14.63-.46-3.23 2.22-10.03 2.99-14.64zm1-13.06c-1.05-1.39.26-5.44 1.1-8.95.33 2.2-.17 5.33-1.08 8.94zm19.7-87.38c1.17-12.22 2.4-4.36 0 0zM313.1 15.6c-1.53-4.56 2-9.29 3.27-15.59-.49 6.65-1.67 9.57-3.25 15.58zm-45.06 144.7c1.18 5.5-3.54 15.73-.71 2.9.26-.98.5-1.94.73-2.91zm23.5-116.17c.16-2.87 0-6.2-1.53-.37-1.49-2.15 2.19-7.88 3.57-12.45 2-6.45 4.71-19.57 2.16-6.64-.43 6.72-2.04 11.97-4.2 19.46zm-1.81-14.78c-2.25-.26 1.95-11 2.72-17.78 1.07 3.85-2.7 11.53-2.72 17.78zm-18.44 60c-.92-2 1.95-4.83 2.13-8.71 1.39-2.23-1.15 8.18-2.13 8.74zm-3.89-4c.33 2.71-2 11.16-3.3 13.54-.42-3.03 2.08-10.69 3.3-13.54zm-42.31 75.72c.32 4.08-1.48 10.56-3 16.68.28-4.75 2.08-11.2 3-16.68zm3.78-15.47c1 1-1.13 5.47-1.38 7.86-.44.44-.14-5.87.59-9.08.35.67.13 2.89.79 1.22zm15.49-67.92c.34 1.43-1.31 11.2-3.1 10.51 1.98-2.19 1.98-9.3 3.1-10.51zM192.07 671.3c1.85-5.18 3-11.75 3.77-15.47 1.02-1.45-1.3 13.78-3.77 15.47zm6.09-40.51c-.83.11 3.84-17.78 5.62-25.26 1.52-2.76-.57 4.3-.9 5.92 1.74-.07 1.26-8.92 3.43-7.35l-1.89 7.73c1.32-1.7 2-5.9 3.14-8.45-1 7.72-3 16.49-5.11 25.38-1.56.36 1.48-4.47-.08-4.12-2.64 2.29.49 6.31-2.12 8.71-.27-2.51.41-6.07-.16-8.24-1.16-.11-1.22 4.05-1.93 5.68zm-13 66.48c-1.83 12.44-7.89 24.53-11.25 37.2-.36 2 2.18.82 2.09 2.56-2.19 4.67-5.62 4.38-7.71 9.39-1-1.64.1-5.72-.16-8.23.66 2.79 2-.22 3-1.31a4.46 4.46 0 0 0-.59-4.24c1 2.51 2.82-2.19 4.44-7.11-1.63-3.64-3.64 2-6.57 2.49-.74-3.82 3.7-13.51.24-14.28 1.92-4.44 3.29-11 5.31-15.09 1.1 2.06-1.55 5.08-1.88 7.73 11.07-13.48 15.89-47 22-72.47-1.32 13.29-3.28 20.46-2.48 30.12-.5-.14-.12-1.28-.05-2.06-7 19.54-7.9 35.47-14.2 55.95 3.31-4.32 5.65-12.35 7.84-20.65zm-13.66 16.12c.8-2.65 3.7-6.77 3.15-8.44-.91 2.24-4.11 5.05-3.15 8.44zm73.82-304.63c-5.29 8.36-6.63 20.2-9.6 30.43-3.95 13.62-7.65 25.95-11.68 41.2 1.31-1.82 2.31-4.83 3.15-8.45-1.41 10.17-9.08 28.53-9.16 39.76-4.89 6.73-8.07 31.09-10.51 36.36.49 1.32-.37 4.17 1.11 4.37-2.83 7.9-6.35 21.89-6.57 29.12 2.06-4.73 5.4-16.83 7.63-26.82.13 9.67-4.11 23.22-6.42 37.36-.61-.47.18-2.52.44-4-5 17.3-11.38 36.89-13.49 53 1.3.62-.44-4.08 1.73-2.65-1.61 4.85-1 7.2-2.32 11.73-.91-.38.49-3.35-.08-4.12-7 26.79-16 45.74-21.78 71.51-2.89 3.13-4.64 10.78-7.35 14.59.4-3.41-1.46-.27.94-3.86-3.41-4.77-11.76 7.48-17.06-1.1-2.06 3.06-2.86.91-5.54 2.75 1.68-6.58-4.63-4.14-4.25-9.23-1.33.41-1.49 5.47-3.22 4.33.06-2.14-3-1.12-5.15-3.3-1.17.42-2 2.24-2.71 4.46-1.72-.87-.53-5-.91-7.39-2.81 5.35-4.8 0-8.29 5.14-7-7-14.55 2.13-18.56-12.72-1-.09-1.11 3.19-2 3.61 1.09-11.6-5.25-17.13-11.75-16.18 3.58-12-4.8-10.48-.95-22.77.42-2.33-1.64.74-2 1.57 5.68-18.35 13.39-49.87 19.49-71 1.42-1.35.63.25 2 .5 19.35-70.37 31.21-142.08 49.9-211.11 2.54-9.36 5.22-18.43 7.87-27.79 11.93-42.11 23.24-85.57 35.23-126.6 2.5-8.54 6.41-23.7 8-32.87.36-1.11 1.13-.59 1.78-.59-.38-2.85 1.75-8.52 2.55-12.7.91-.28-1.76 9.45-1.3 12 1.61-2.3 1.44-7.94 3.54-14.5.44 2.06-.15 5.29-.35 8.1 4.81-10.43 3.85-17.85 8.29-31.78.27-2.12 1.18-1.66 2-1.56 1.64-7 2.23-12.78 4.44-20.42 1.51 10.21-4.69 29.12-8.3 45.09 4.61-11.54 7.81-28.64 11.92-42.16-1.48 14.54-5.73 29.12-9.17 39.76 1.31 1.35 1.44-1.94 2-3.62-1 6.15-5.63 22.57-7.12 27 .78 2.43.64 7.2.2 10.28-2.93 3-5.1 16.91-7.91 25.73 2.52-2.71 3.87-10 5.55-16.06.41-.22.2 2.55-.2 3 4.79-5.78 8.18-34.08 12.9-44l3.06-12.57c1.72-7.3 1.13-.75-.19 3-1.88 8.52-4 14.75-5.19 21.26 2.1-7.58 7.63-20.83 10.38-29.22.33-1 3.35-15.17 2.63-8.57-.69 7.89-5 16.73-5.62 25.25 1.12-3.25 4.52-7.34 3.85-11.35 8.26-14.17 11.87-46.8 18.84-66.07.55-1.8 2-9.64 2.16-6.64-4.2 15.31-8.2 31.6-12.2 48.24 1.79-2.39 2.93-7.41 4.09-12.32 1.27.21-.92 10.68 1.34 3.4-1 8.79-4.91 25.13-8.41 38.92 7.1-14 15.34-54.05 19.66-62.81.79-4.17 1.85-8.63 1.8-11.85 2.17-3.28.18 3.93-.39 6 2.82-4.35 2.06-3.71 3.89-9.29 1.46 2.6-3.14 9-3.77 15.47 1-9.6-1.82 1.25-.43 4a69.84 69.84 0 0 0 3.37-9.42c1.1.39-.78 4.15-.9 5.92 3.69-6.5 6.66-23.16 9.12-28.5.2-2 2.21-7.53 1.22-2.77-1.89 8.41-7.28 22.37-5.85 26.23 6.51-16.09 12.71-39 16.94-58.35.91-5.43 2.65-7.4.75-.85-.19 1.56 1.11-.62.79 1.22-3.84 22.35-10.46 40.33-17 67.54 1.93-1.84 2.18-10.38 4.09-12.31-.25 3.21-4 20.76-7.08 29 2.87-4.27-5.47 15.64-4.68 21.39 3.15-9.27 8.12-23.46 9.47-36.61 7.73-17.11 16.73-45.12 22.5-74.41.37.29.27 1.1.79 1.22 1.13-4.87 5.7-22.19 3.84-11.35-2.64 15.47-15.15 57.33-19.38 77.21-.5-.37.12-2-.55-2.18-1.84 5.11-.54 6.68-1.57 10.88-1.19 2.39.28-4 .15-5.08-3.47 5.32-2.73 13-3.22 17.65-1.2 11.21-10.07 30.78-6.41 37.35-4.34 3-.58 7-3.3 13.54-1.73.08.69-4.53-.35-5.2-1.4-.52-.46 5.09-1 1.8-.24 16-8.79 32.17-11 51.61 4-9.69 7.41-25.75 12-38 1 .69-1 4.81-1.14 6.89 4.09-6.62 6.34-20.52 9.32-31.53l1.42-5.8c.52-2.41 1-1.49.5.12l-2.36 9.67c.06 3.05-2.39 9.85-2.51 14.75-.25 2.21-1.31 1.14-1.74 2.65a103.33 103.33 0 0 1-3 14.63c2-2 3-8.35 4.33-13.29 2.2.07-.71 2-.68 5 1.48 1.41 1.54-2.81 2.21-4.58.31 4.66-2.52 9.15-2.79 13.66 4.05-7.37 5.25-19.92 7.08-29-2.07 3.68-3.63 12.59-3.82 13.41-.9-6.45 4.49-20 6.05-29.24.95 1.27 0 4.7-.86 8 1.25-.14 1.38-4.72 2.16-6.64.58 8.6-4.19 20.53-6.49 33.24 4.23-9.28 3.93-18.94 7.4-25.85.6-3.23-.39 6.16-1.85 9.78.78.58 1.14-.51 1.49-1.68-.63 9.07-6.06 24.8-8.69 37.83 4-5.85 6-19.22 8.85-29.6 2.88-12.77 2.38-5.78-.2 3 4.47-12.25 7.15-25.12 10.74-37.34 1.6 3.34-1.15 10.32-3 18.75 1.54-1.51 2.47-5.44 3.38-9.42-1.75 13.58-9.25 35.62-12.23 52.33 2.76-10.14 6.86-19 7.12-26.94 2.48-.57.54-5.48 2.74-2.41 4.31-23.3 8.87-55.42 17.15-74.68 1.66-5-.77 7.57-.86 8-5 22.81-12.18 56.46-19.27 83.39 1.89-2.64 2.61-9.92 4.05-14.37 1.41-1.32-1.77 8.5-2.32 11.73 5.66-12.38 8.92-27.94 14.16-44.7.77.16-.67 5.93.78 1.22-.69 12.77-4.45 22.45-7.16 38.21 1.81-2.33 2.46-9.28 3.82-13.41 2.36-8.75.21 2.52-.91 5.92-3.68 13.78-5.79 26.25-12 51.36 1.25-.14 1.36-4.71 2.16-6.64-2.89 12.53-3.11 27.37-7.35 41.22-2.18-.58 0-6.13.82-10-5.77 18.3-12.38 46.48-10 61.06-2.5 9-3.26 13.43-5.66 23.2-.58 2.48-.67 1.08-1.26.72-3.46 23.59-15.17 53.85-18.92 75.27 3.5-9.19 4.57-16.24 7.91-25.72.62 1.17-.73 4.56.35 5.21-7.05 12-10.15 39.62-17.06 52.17 3.36-9.14 4.74-15.32 8.57-30.69-.79-.56-1.15.52-1.49 1.69.54-8.61 4.98-17.03 5.86-26.33zm7.71-36c-1.49 8.07-3.67 17.07-2.92 20.79.74-7.72 3.2-13.72 2.89-20.8zm3.06-25.89a36.41 36.41 0 0 0-.31 10.17c1.59-4.64.8-10.22.31-10.18zm-10.5 49.67c.7-4.74 4.17-12.63 2.52-14.75-.04 2.45-4.89 20.47-2.52 14.74zm5.58-27.31c.41-3 2.69-8.17 1.86-9.79-.4 3-2.69 8.16-1.86 9.78zm8.71-144.35c1-.17.95 1.75 1.53.37-1-1.65 2.59-9.93 1.34-9.92-1.36 1.61-1.93 6.29-2.87 9.54zm-.36-5.21c.87 1.6-1.87 7.25-.35 8.11-.05-2.1 2.54-10.78.35-8.12zm-9.31-21.74c-1 4.76 1-.73 1.22-2.77 1.21-6.45 4.13-14.67 4.48-18.37-.59-.37-.67-1.76-1.25.72-2.9 8.4-1.95 11.2-4.45 20.41zm-42.68 403.4c-2.68 2.51 2.06-9.31 1.05-11 2.53-1.86-1.85 10.44-1.05 10.99zm56.58-247.38c2.6 1.51-1.18 10.22-.75 14.16-2.29 2.38-2.55 6.74-3.89 9.29-3.37 12.79.15-3.93 1.62-8.82-3.18 4.19 3.45-11.26 3.02-14.64zm8.46-36.86c.28.61.59 1.21 1.29 1.34 3.23-19.47-.75 9.61-3.22 17.64-.49-.36.12-2-.55-2.17-1.5 3.84-3 10.73-4.25 17.4-.34-.67-.11-2.88-.78-1.22.15-2.3 1.71-7.22.82-10 2.06 1.79 3.57-8 5.59-14 0-.12.42 2.27-.2 3 3.02-3.72.73-8.92 1.3-12zm-4.32 13.28c-1.44.1 1.12-16.13.35-21.42 4.62 1.15.79 13.54-.35 21.41zM233.44 453c1.5 1.29-.09 2.27-.94 3.87-.8 1.92-.92 6.5-2.16 6.64l1.88-7.73c1.29-.29-.22-1.69 1.22-2.78zm45.11-302.42c.78-.13 1-2.32 1.46-3.74 1.26-.91-1.08 8.19-1.06 11a38.46 38.46 0 0 1-.43-9.33c.82-1.68.41.7.03 2.05zm-1.76.59c-2.24-.49.34-10.72 2-14.87 1.33 4-2.33 10.88-2 14.85zm-9.12 28.5l-1.42 5.8c-1.27-.67.74-5-.11-6.18.57-1.39.55.53 1.53.36zm1.89-21.05c-1.22-1.24 1.31-9.52 2-14.87.58 3.53-1.65 10.25-2 14.85zm-20.17-30.52c1.3 1.21-1.54 1.15-1.45 3.74-.55-2.89 2.09-9.37 2.79-13.66 1.88-8.7 1.93-4 0 2.06-.61 3.76-.07 7-2.13 8.7.4.26.61-.28.79-.86zM73.31 698.65c.44-5.32 3.63-9.59 3.35-11.48 1.67-.38.49 12.52-3.35 11.48zM113.24 1277.63c.17 4-3.16 7.5-2.17 9.33 1.53-3.21 3.78-5 5.55-7.76-1.21-1.05-1.77-1.79-3.38-1.57zm29.27-109.8c0 .49-.34.46-.66.4-.67 1.54-1.54 7.1-2.24 5.79 1.1-1.8.68-6.6 2.9-6.19zm-14.45 42.07c1.54-2 2.14-6 3.18-9 .6-.26-1.04 9.1-3.18 9zm27.94-93.8a5.94 5.94 0 0 1-.09-5.3c.83 1.26.25 3.39.09 5.3zm-4.16 10.5c-1.53 2.35-2.26 6.32-3.68 8.89-.26-2.42 1.68-7.91 3.63-8.89zm-35.42 121.48c-.55-2.79.65-6.63 1.32-10.15 1.35 2.29-1.06 6.85-1.37 10.15zm-3.21 7.27c.93 1.08-.91 3.81-1.07 5.55-.99-1.09.86-3.82 1.02-5.55zm21.65-87.42c-.93-1.08.91-3.81 1.08-5.54 1.39 1.9-.65 2.76-1.13 5.54zm-20.33 67.88c-.62-6.27 2-9.7 3.71-16.49.4 4.44-3 10.51-3.76 16.49zm22.65-87.12c-.93-1.08.91-3.81 1.07-5.55.94 1.86-.16 3.19-1.12 5.55zm-8.34 28.62c.63 3.26-2.43 8.1-3.18 9-.58-4.06 1.34-6.04 3.13-9zm4.84-18.51c-1.06-.41-.78 1.85-1.28 2.55-1.53.09 1.46-4.06 1.73-5.93 1.19 2.71-1.51 7.73-2.3 11.63-.46 0-.42-.35-.35-.69-1.19-.64.63 3.09-1.64 1.87-.89 1.9-.91 5.57-2.39 6.33l1.89-6.48c1.52-1.56.58-2.54 1.76-4.17.18-.25.47 1.63 0 1.76 1.74-.53 1.07-3.67 2.53-6.87zm31.49-108c-2.78-1 1-6 .19-8.15 1.97 1.5.39 5.12-.24 8.17zm-42.19 135.32c-.63-1.12-.39-2.75.25-4.61.57 1.14.33 2.77-.3 4.63zm59-211.85c.69 2-1.44 5.63-1.86 8.25-.71-1.95 1.42-5.6 1.88-8.23zm0-7.6c-1.11-1-.15-3.19.41-5.15a8.7 8.7 0 0 1-.39 5.17zm12.66-49c.22-7.08 2-2.24 0 0zm-11.45-30.28c-1.82-2.93 1.22-5.23 2-8.79.01 3.86-.92 5.4-2 8.77zm-33 79.42c1.55 3.43-2.27 8.83-.47 1.62.14-.56.28-1.1.45-1.64zm14.19-65.58c-.05-1.68-.46-3.68-1.51-.44-1.6-1.49 1.54-4.36 2.54-6.87 1.43-3.55 3.13-10.94 1.61-3.64.05 3.91-1.12 6.8-2.66 10.93zm-2.85-9c-2.2-.48 1.08-6.23 1.32-10.16 1.3 2.39-1.78 6.4-1.34 10.11zm-13.45 33c-1-1.31 1.53-2.58 1.42-4.85 1.16-1.22-.5 4.62-1.44 4.78zm-4.08-3.01c.52 1.66-1.09 6.34-2.2 7.56-.64-1.86 1.2-6.05 2.2-7.56zm-35.46 38.88c.62 2.47-.66 6-1.66 9.47-.1-2.77 1.18-6.35 1.66-9.47zm2.52-8.64c1 .73-.69 3.08-.75 4.46-.4.2-.57-3.5-.1-5.3.38.45.33 1.73.85.84zm10-38.09c.43.89-.44 6.45-2.24 5.79 1.77-1.01 1.25-5.24 2.25-5.79zm-6.83 344.81c1.41-2.81 2.06-6.54 2.52-8.64.88-.72-.24 7.99-2.51 8.64zm2.91-23.17c-.8 0 2.41-10 3.59-14.18 1.26-1.43-.24 2.47-.44 3.38 1.69.21.57-5.12 2.78-3.88l-1.26 4.32c1.16-.81 1.53-3.21 2.42-4.56a90.25 90.25 0 0 1-3.08 14.33c-1.48 0 1.11-2.44-.38-2.46-2.4 1 1 3.82-1.42 4.87-.44-1.53 0-3.55-.76-4.91-1.13-.26-.87 2.23-1.44 3.08zm-7.67 37.6c-.85 7.12-5.84 13.43-8.16 20.46-.2 1.17 2.17.8 2.21 1.82-1.77 2.46-5.12 1.8-6.78 4.47-1.13-1.12-.33-3.38-.76-4.91.84 1.75 1.9.16 2.84-.34.48-1.33-.28-1.92-.88-2.6 1.19 1.64 2.56-.9 3.78-3.59-1.85-2.39-3.39.68-6.19.54-1-2.37 2.59-7.49-.82-8.44 1.53-2.36 2.37-6.08 4-8.2 1.22 1.38-1.13 2.8-1.26 4.33 9.75-6.42 11.94-25.63 16-39.86-.3 7.7-1.67 11.67-.18 17.52-.49-.16-.21-.78-.2-1.23-5.35 10.59-5 19.92-9.63 31.17 2.86-2.1 4.49-6.54 6.04-11.14zm-12.08 7.61c.57-1.47 3.08-3.49 2.42-4.57-.7 1.2-3.59 2.44-2.41 4.57zM146.48 1111c-4.51 4.21-4.93 11-7.06 16.69-2.83 7.52-5.5 14.3-8.28 22.78a8.63 8.63 0 0 0 2.43-4.57c-.62 5.84-6.7 15.64-5.95 22.29-4.25 3.29-5.53 17.29-7.5 20.07.57.85-.06 2.42 1.39 2.75-2.16 4.29-4.53 12.08-4.21 16.35 1.64-2.52 4-9.22 5.41-14.83.84 5.76-2.27 13.19-3.46 21.26-.63-.37 0-1.48.13-2.31-3.6 9.54-8.31 20.26-9.17 29.55 1.31.55-.73-2.49 1.48-1.33-1.2 2.65-.43 4.13-1.37 6.63-.91-.36.22-1.92-.39-2.46-4.77 14.9-12.13 24.86-15.84 39.32-2.58 1.44-3.71 5.74-6 7.61.13-2-1.44-.37.62-2.16-3.65-3.32-10.85 2.76-16.63-3.1-1.77 1.52-2.71.13-5.17.84 1.14-3.66-4.8-3.11-4.81-6.08-1.26 0-1 3-2.8 2.11-.1-1.27-3-1.1-5.24-2.7-1.11.08-1.77 1-2.3 2.26-1.73-.77-.88-3.06-1.43-4.52-2.33 2.77-4.65-.68-7.66 1.87-7.35-5.19-14-.82-18.95-10.21-1-.2-.84 1.73-1.63 1.86.2-6.73-6.37-10.92-12.6-11.29 2.59-6.6-5.43-6.9-2.6-13.64.23-1.33-1.54.2-1.82.64 4.15-10.08 9.3-27.68 13.66-39.37 1.27-.61.63.23 2 .59 13.57-39 19.77-79.86 32.8-118.15 1.77-5.19 3.7-10.19 5.58-15.36 8.46-23.28 16.22-47.46 24.82-70.09a121.6 121.6 0 0 0 5.35-18.36c.27-.61 1-.19 1.68-.1-.58-1.74 1.07-4.8 1.53-7.17.86 0-1 5.36-.37 6.93 1.39-1.13.81-4.51 2.36-8.1.58 1.29.25 3.12.26 4.76 3.9-5.5 2.42-10 5.69-17.67.11-1.22 1-.82 1.84-.64 1.07-3.92 1.21-7.27 2.8-11.49 2.22 6.28-2.41 16.61-4.72 25.58 3.62-6.19 5.46-15.88 8.44-23.32-.35 8.42-3.4 16.46-6 22.29 1.37 1 1.25-1 1.64-1.87-.5 3.51-3.79 12.59-4.91 15a11.42 11.42 0 0 1 .95 6.14c-2.62 1.34-3.69 9.3-5.77 14.13 2.24-1.25 3-5.38 4.2-8.73.38-.07.38 1.54 0 1.76 4.22-2.74 5.42-19 9.26-24.25l2-7c1.13-4.09 1-.29 0 1.77-1.2 4.78-2.76 8.18-3.47 11.87 1.48-4.2 5.87-11.27 7.92-15.85.24-.55 2.12-8.53 1.92-4.71-.09 4.58-3.63 9.21-3.59 14.18.84-1.77 3.84-3.71 2.9-6.18 7-7.23 8-26.08 13.39-36.52.4-1 1.21-5.43 1.6-3.63-3 8.46-5.76 17.54-8.37 26.85 1.56-1.17 2.29-4 3-6.73 1.25.31-.11 6.21 1.55 2.21-.29 5.08-2.9 14.21-5.28 21.89 5.85-7.29 10.89-29.87 14.43-34.45.46-2.36 1.16-4.86.87-6.78 1.86-1.64.47 2.36.07 3.54 2.41-2.18 1.72-1.91 3.09-5 1.6 1.75-2.39 4.87-2.52 8.64.26-5.55-1.67.48-.12 2.3a23.1 23.1 0 0 0 2.58-5.1c1.09.39-.46 2.35-.45 3.38 3.11-3.32 4.75-12.79 6.75-15.6 0-1.19 1.59-4.16 1-1.47-1.21 4.72-5.41 12.23-3.74 14.72 5.12-8.61 9.44-21.34 12.12-32.2.48-3.09 2-4 .66-.39-.06.9 1-.22.86.83-2.07 12.72-7.16 22.44-11.53 37.65 1.74-.82 1.35-5.85 3.06-6.73 0 1.88-2.33 11.76-4.72 16.2 2.46-2.12-4.15 8.5-3 12 2.37-5 6.15-12.76 6.48-20.37 6.23-9 12.89-24.38 16.32-40.94.38.22.35.69.86.83.74-2.72 3.89-12.35 2.89-6.18-1.42 8.8-10.46 31.85-13.09 43-.52-.3 0-1.17-.7-1.38-1.4 2.77 0 3.89-.72 6.24-1 1.25 0-2.32-.22-3-3 2.67-1.69 7.36-1.82 10-.34 6.48-7.5 16.82-3.46 21.25-4 1.14 0 4.07-2.2 7.56-1.67-.2.33-2.59-.73-3.14-1.39-.51-.07 3-.83.93.95 9.47-6.15 17.83-6.82 29.06 3.2-5.18 5.28-14.22 8.81-20.86 1.07.56-.57 2.71-.59 3.92 3.48-3.34 4.63-11.27 6.71-17.37.32-1.08.63-2.16 1-3.24.32-1.36.88-.74.49.14-.52 1.8-1 3.6-1.57 5.4.28 1.82-1.59 5.5-1.35 8.4-.07 1.28-1.18.49-1.48 1.32a33.07 33.07 0 0 1-1.86 8.25c1.85-.9 2.31-4.52 3.22-7.27 2.14.36-.54 1.1-.29 2.85 1.54 1 1.28-1.45 1.8-2.4.66 2.81-1.77 5.07-1.69 7.7 3.38-3.79 3.62-11.06 4.72-16.2-1.73 1.89-2.59 6.95-2.71 7.41-1.35-4 2.87-11.23 3.71-16.49 1 .9.32 2.79-.25 4.62 1.2.1 1-2.6 1.61-3.63 1.19 5.18-2.55 11.58-3.84 18.8 3.41-4.91 2.41-10.68 5.26-14.29.35-1.83.08 3.6-1.07 5.55.8.45 1.07-.15 1.33-.79.06 5.29-4.05 13.85-5.64 21.21 3.41-2.91 4.43-10.55 6.4-16.3 1.85-7.17 1.88-3.09 0 1.77 3.43-6.63 5.07-13.88 7.66-20.62 1.8 2.21-.36 6-1.48 10.71 1.38-.68 2-2.88 2.59-5.11-.7 7.81-6.35 19.81-8 29.3 1.93-5.62 5.25-10.28 4.91-15 2.37 0 .12-3.17 2.49-1 2.45-13.21 4.5-31.62 11.11-41.87 1.25-2.69-.19 4.38-.25 4.61-3.13 12.82-7.64 31.77-12.52 46.73 1.64-1.29 1.8-5.51 2.87-8 1.27-.58-1.09 4.8-1.39 6.63 4.57-6.54 6.59-15.3 10.43-24.5.76.21-.21 3.42.85.84.27 7.48-2.66 12.69-4.12 21.65 1.58-1.12 1.7-5.16 2.71-7.42 1.64-4.85.39 1.53-.44 3.39-2.55 7.65-3.68 14.75-7.84 28.76 1.2.1 1-2.6 1.61-3.63-1.88 7-1 15.8-4.09 23.41-2.16-.65-.4-3.63.06-5.84-4.25 10-8.57 25.81-5.21 34.8-1.77 5-2.18 7.5-3.78 13-.38 1.39-.57.55-1.17.25-1.62 13.5-10.74 29.78-12.78 42 2.7-5 3.22-9 5.77-14.13.68.78-.38 2.6.72 3.14-6 6.09-6.92 22.06-12.7 28.52 2.59-4.94 3.47-8.41 6.05-17-.8-.44-1.08.15-1.32.79.11-4.9 3.76-9.26 3.92-14.65zm4.82-20.27c-.84 4.58-2.3 9.61-1.29 11.93.15-4.48 2.08-7.66 1.29-11.94zm1.06-14.92a13.55 13.55 0 0 0 .44 6c1.2-2.54.03-5.96-.44-6.01zm-6.52 28c.33-2.72 3.11-6.9 1.35-8.4.15 1.43-3.19 11.43-1.35 8.37zm3.4-15.41c.17-1.73 2-4.47 1.07-5.55-.15 1.7-2 4.44-1.07 5.52zm-2.24-84.46c.93 0 1.06 1.18 1.51.44-1.1-1.12 1.78-5.52.57-5.69-1.19.76-1.4 3.46-2.08 5.25zm-.74-3.14c1 1.07-1.27 4 .27 4.76-.2-1.24 1.68-6.02-.26-4.76zm-10.63-14.23c-.61 2.68 1-.29 1-1.47.7-3.66 2.92-8.12 3-10.27-.61-.3-.79-1.13-1.17.25-2.21 4.58-1.08 6.38-2.82 11.49zm-11.58 233.29c-2.41 1.11 1.31-5.23.21-6.38 2.32-.73-1.02 5.94-.2 6.38zm36.6-138.71c2.63 1.27-.39 5.9.32 8.3-2 1.08-2 3.64-3.09 5-2.32 7.11-.14-2.3.92-5-2.8 1.99 2.52-6.23 1.86-8.3zm5.48-20.66a2.41 2.41 0 0 0 1.35 1c1.7-11.09 0 5.59-1.82 10-.5-.29 0-1.17-.69-1.37-1.18 2.06-2.13 5.94-2.84 9.72-.38-.45-.32-1.73-.85-.84 0-1.34 1.13-4 .06-5.84 2.13 1.36 2.87-4.22 4.38-7.51 0-.07.58 1.41 0 1.77 2.7-1.77.1-5.18.42-6.93zm-3.21 7.26c-1.39-.14-.11-9.42-1.24-12.66 4.57 1.35 1.78 8.15 1.25 12.66zm-24.7 67.79c1.55 1 .08 1.33-.63 2.16-.63 1-.41 3.72-1.61 3.63l1.26-4.32c1.24-.01-.35-1.01.99-1.47zm21.4-173c.74 0 .82-1.23 1.14-2 1.15-.37-.45 4.7-.21 6.38a15.43 15.43 0 0 1-1.11-5.6c.68-.9.45.45.19 1.2zm-1.67.09c-2.21-.6-.46-6.31.85-8.54 1.59 2.56-1.45 6.12-.8 8.52zm-6.74 15.61l-.94 3.24c-1.28-.58.34-2.88-.57-3.68.46-.75.59.38 1.52.42zm.29-12.24c-1.28-.91.57-5.46.85-8.54.82 2.19-.85 5.86-.85 8.54zm-21.82-21c1.35.9-1.41.46-1.14 2-.74-1.8 1.34-5.26 1.7-7.71 1.18-4.9 1.58-2.07.19 1.23-.31 2.14.45 4.13-1.42 4.86.41.23.54-.07.67-.38zM1.05 1258.4c0-3.1 2.81-5.17 2.39-6.33 1.56 0 1.41 7.49-2.39 6.33z"/><path class="cls-3" d="M228.25 408.07c-.32.23-.87 2.25-1.32 3.58.29.58.65-2.07 1.32-3.58zM98.68 888.61c.32-.87.65-1.9.83-1.74a39.14 39.14 0 0 1-1 5c-.62.54.66-3.44.17-3.26zM231.24 399c.36-.33 1.08-3.49 1.41-3.56-.69 1.93-1.26 4.41-1.65 5.47-.25.15.38-1.78.24-1.91zm14.65-47.93c.9-4.29 2.81-9.48 3.63-12.81-.83 4.08-2.44 8.24-3.63 12.83zm6.36-21.92c-.76 3.61-3.28 12.28-1.15 4.28zm-12 53.24a39.52 39.52 0 0 1 1.48-5.51c-.21 1.38-.73 2.97-1.47 5.53zM246.2 361c.34-.21-.08 1.38-.57 3.13a14.5 14.5 0 0 1 .57-3.13zm-8.65 33.78c.27 0-1.09 3.76-.82 3.72-.73 1.95.54-3.25.82-3.69zm-18.76 79c.35.39-1.37 6.12-1.89 7.36a74.68 74.68 0 0 1 1.89-7.33zM123 786.81c0 .86-.9 3.91-1.23 5.57a37.56 37.56 0 0 1 1.23-5.57zm-13.33 54.84c0 .14.14-.21.25-.59 2.65-9.21 6.44-23.7 8.5-30.54-4.06 14.9-7.87 29.4-11.4 40.27-2.08 6.41-4.06 11.32-4.79 17.1a19.8 19.8 0 0 1 .64-5.09c1.46-6.09 4.23-11.85 6-18.08.94-3.36.92-4.61 2-8-.26 1.1-.87 3.28-1.25 4.93zM230.5 402.1c.42-.12-.64 2.68-.91 3.7a13.57 13.57 0 0 0 1.25-3.6 15.32 15.32 0 0 1-.41 2.51c2-5.54 2.31-7.65 3.89-12.74.05.18-.27 1.24-.16 1.27a214.1 214.1 0 0 0 4.7-17.12 10.44 10.44 0 0 1-.65 3.11c.39-.43 1.7-6.05 1.25-3 1.19-4.46.84-3.79 2.06-8-1 4.44-1 5.35-2.47 10.5a27.88 27.88 0 0 0 1-3c0 1-.79 2.66-1.15 4.28 2.33-7.2 4.59-15.56 6.86-23.76-.47 2.28-1.81 7.64-3.13 12.29 1-3 2.28-7.85 3.39-11.56-.81 3.74.39-.6 1-2.36-5.21 19.47-6.82 25.82-12.37 47.23 1-3.69 1.79-6.09 2.47-9.18.18-.75.82-2.05.42-.55.24-.33.5-3 1.08-3.65-.08 2.63-2.81 11.52-3.7 16.07.2-.22.59-1.9.67-1.13.7-2.64-.62.78.57-3.13-.08 3-1.85 8.18-2.8 11.73-.82 3.05-1.63 6.65-2.89 11 1-2.35 2.55-9.08 3.8-13.42.37-1.1 0 .38-.24 1.24-2.06 8.07-5.71 22.16-7.67 29.45 1.2-2.84 1.89-6.69 3.39-12.21a9.83 9.83 0 0 1-.41 1.85 894.44 894.44 0 0 0 9-34.35c.76-3.14 1.16-5.5 1.81-8.05a102.22 102.22 0 0 0 2.55-11.13 47 47 0 0 0 1.89-8c.18-.09-.06 1.1.25.07.61-2 0-.94.16-1.93a26 26 0 0 0 1.41-4.88c.3.53 1.15-4.25 2.06-8-.48 1.25-1.14 3.92-1.5 4.19 1.33-6 3.09-11.25 4.79-17.75-1 4.66-3.11 11.68-4.46 16.53.49-.63 1.37-4.32 2.07-6.66-5.43 26.87-17.2 74.89-26.84 109.64-.44-.29-2.56 7-4 12.06.23-1.48-.11-.57 0-2 .39-1 .89-3.59 1.65-6.12-.9 2.32-2.87 10.7-4.37 15.89.15.16.62-2.16.91-3s-1.29 5.09-1.4 6.18c1.38-4.21 1.81-6.23 2.73-9.77.26.93-3.34 11.95-4 15.35-.63 1.94-.09-.65.32-1.88a419.68 419.68 0 0 0-4.7 17.12c.53-1.77 2.09-7.37 3.55-12.83-.61 3.76-3.07 11.06-4.54 17.16-.34.21.08-1.38.57-3.13-.65 1.41-1.25 4.58-.9 4.35a46 46 0 0 0-1.57 6.15c2.31-9.16 5.55-18.79 7.94-28.07a14.87 14.87 0 0 0-.75 2.43c0-1.09 1.85-6.73 3-11.66a18.5 18.5 0 0 1-.32 1.88c1.26-3.73 3-11.47 4.29-15.25-6.13 22.94-12 45.51-18.74 68.49.55-3.46 2.79-10.88 3.79-15.4-.69 2.11-2.8 9.94-3.55 12.84.7-4.26 3.38-12.09 4.62-17.8-7.85 28.12-14 50.92-21.87 81.44 3.47-12.42 5.46-20.63 8.17-30.63a6 6 0 0 1-.33 1.88c1.83-6.45 5.16-19.49 7.18-26.3.07.51-.89 3.44-1.23 4.92.91-2.85 1.92-6.46 3-10.36-3.74 15.91-8.08 32-12.27 49.22-.2.23-.59 1.91-.67 1.13-10.31 37.85-20.56 77.71-29.71 110.2-.31 1.25-.1 1.26-.41 2.51-5.62 19-11 42.41-17.25 63.64-1.94 6.55-3.36 13.7-5.29 18.93-4.45 17.4-11.64 45.19-16.1 58.05l-1.32 4.9a27.82 27.82 0 0 0-1.5 3.53c-.52 3.29-2.09 7.73-3.63 12.81-.17.84-.13 1.19 0 1.31.29-2.35.41-1.48 1.49-5.51.26-.52-1.13 4.73-1.65 6.79.2-1.56-.84 1.19-.17-1.37a148.65 148.65 0 0 0-4 13.38c-.14-.63.35-1.37.49-2.49-1.1 3.17-2.19 5.29-3 9.7-.4-1.12-2.74 8-3.34 6.32-.16-.15-.63 2.16-.91 3-.2-1-1.9 4.55-2.27 2.67 1.18-4.43-.2-4.7.12-7.85-.41.3-.6 3.16-.83 2.41a70 70 0 0 0 1.88-10 56.32 56.32 0 0 1 2.41-7.23c1.19-5.87 1.51-8.92 3.53-16.12.46-1.66.86-2.89 1.24-4.27a7.4 7.4 0 0 0 .32-1.88c.19-.71.67-1.78 1-3 .52-2 .61-3.82.89-5s1.25-3.95 1.49-4.85c1-3.69 1.89-7.55 3-11.68 6.08-23.11 13.88-51.33 20.63-77.17 1.85-7.09 3.82-14.59 5.69-21.45a8256.74 8256.74 0 0 0 22.78-85.14c.2-.76 1.89-6.61 3-11C182.1 573.78 201.2 501.32 217.57 442c.29-.42.55-1.81.42-.54.31-1 .25-1.18.16-1.28 1-3 1-3.13 2-6 2.19-6.75 5-17.37 6.62-21.19-3.15 10.49-6.91 22.46-9.84 33.46 2.36-6.51 5.46-18.77 7.71-23.53.75-3.78 1.82-5.65 2.06-8 .84-.48 2.63-9.52 3.8-12.82zm14.11-39.53l-1.61 6.12c.05.88 1.76-6.45 1.61-6.12zm-8.15 33.92c.33-1.86.93-3 .82-3.72-.51 1.93-1.21 3.59-.82 3.72zM212 464.09c-.74 2.74-.6 2.77-1.32 4.9.26.26 1.4-4.7 1.32-4.9zm1.81-6.74a38.83 38.83 0 0 0-1.07 4.31 18 18 0 0 0 1.04-4.31zM113.37 859.74c.8-2.84 2.84-8.93 2.3-9.23-.92 3.49-2.01 7.26-2.3 9.23zM233 393.58c.13-.92.52-1.33 1-3.68.46-.49-.53 2.45-.82 3.72-.01-.39.02-.78-.18-.04zm3.65-10.18c0-.36.17-.64.25-.59-.13 1.06-.9 3.61-1.4 5.53-.34-.34 1.11-3.66 1.13-4.94zm7.67-16.32c.14.74-1 3.63-1 4.33-.67 1.76.5-2.66.98-4.33zM105.84 884.63c.26-1.33 2.25-6.78 2.24-6-.77 2.22-1.42 3.37-2.24 6zM242 118.07c-.32.23-.87 2.25-1.33 3.58.25.58.61-2.07 1.33-3.58zM112.38 598.61c.31-.87.65-1.9.83-1.74a39.14 39.14 0 0 1-1 5c-.63.54.65-3.44.17-3.26zM244.93 109c.37-.33 1.09-3.49 1.42-3.56-.7 1.93-1.26 4.41-1.66 5.47-.24.15.39-1.78.24-1.91zm14.65-47.93c.91-4.29 2.81-9.48 3.64-12.81-.84 4.08-2.44 8.24-3.64 12.83zm6.42-21.9c-.76 3.61-3.28 12.28-1.16 4.28.33-1.45.71-2.79 1.16-4.28zm-12 53.24a39.58 39.58 0 0 1 1.49-5.51c-.27 1.36-.81 2.95-1.49 5.51zM259.9 71c.34-.21-.08 1.38-.57 3.13a13.31 13.31 0 0 1 .57-3.13zm-8.66 33.78c.27 0-1.08 3.76-.82 3.72-.69 1.95.58-3.25.82-3.69zm-18.75 79c.35.39-1.38 6.12-1.9 7.36a74.83 74.83 0 0 1 1.9-7.33zm-95.84 313c0 .86-.91 3.91-1.23 5.57a35.09 35.09 0 0 1 1.23-5.54zm-13.34 54.84c0 .14.15-.21.25-.59 2.66-9.21 6.45-23.7 8.51-30.54-4.06 14.9-7.87 29.4-11.4 40.27-2.08 6.41-4.07 11.32-4.79 17.1a19.36 19.36 0 0 1 .64-5.09c1.45-6.09 4.23-11.85 6-18.08.93-3.36.92-4.61 2-8-.21 1.13-.82 3.31-1.21 4.96zM244.19 112.1c.42-.12-.64 2.68-.9 3.7a13.68 13.68 0 0 0 1.24-3.6 15.05 15.05 0 0 1-.4 2.51c2-5.54 2.3-7.65 3.88-12.74.06.18-.27 1.24-.16 1.27a213.94 213.94 0 0 0 4.71-17.12 10.26 10.26 0 0 1-.66 3.11c.4-.43 1.71-6 1.25-3 1.2-4.46.84-3.79 2.06-8-1 4.44-1 5.35-2.46 10.5a30.32 30.32 0 0 0 1-3c0 1-.79 2.66-1.15 4.28 2.32-7.2 4.59-15.56 6.86-23.76-.48 2.28-1.82 7.64-3.14 12.29 1-3 2.28-7.85 3.39-11.56-.81 3.74.4-.6 1-2.36-5.2 19.47-6.81 25.82-12.37 47.23 1-3.69 1.8-6.09 2.48-9.18.17-.75.81-2 .42-.55.24-.33.5-3 1.07-3.65-.07 2.63-2.8 11.52-3.7 16.07.21-.22.6-1.9.67-1.13.7-2.64-.62.78.57-3.13-.07 3-1.85 8.18-2.79 11.73-.82 3.05-1.63 6.65-2.89 11 1-2.35 2.55-9.08 3.8-13.42.37-1.1 0 .38-.25 1.24a3098.9 3098.9 0 0 1-7.66 29.45c1.2-2.84 1.88-6.69 3.38-12.21A9.83 9.83 0 0 1 243 140c2.26-7.63 6.5-23.88 9-34.35.75-3.14 1.16-5.5 1.81-8a107.12 107.12 0 0 0 2.55-11.13 49 49 0 0 0 1.89-8c.18-.09-.06 1.1.25.07.61-2 0-.94.16-1.93a26.05 26.05 0 0 0 1.4-4.88c.3.53 1.16-4.25 2.06-8-.47 1.25-1.13 3.92-1.49 4.19 1.32-6 3.08-11.25 4.79-17.75-1 4.66-3.11 11.68-4.46 16.53.49-.63 1.36-4.32 2.07-6.66-5.42 26.84-17.19 74.91-26.83 109.61-.45-.29-2.57 7-4 12.06.22-1.48-.11-.57 0-2 .39-1 .89-3.59 1.65-6.12-.91 2.32-2.87 10.7-4.38 15.89.16.16.63-2.16.91-3s-1.28 5.09-1.4 6.18c1.38-4.21 1.82-6.23 2.73-9.77.27.93-3.34 11.95-4 15.35-.62 1.94-.08-.65.33-1.88-1.73 6-3.53 12.23-4.71 17.12.54-1.77 2.1-7.37 3.55-12.83-.6 3.76-3.06 11.06-4.53 17.16-.34.21.08-1.38.57-3.13-.65 1.41-1.26 4.58-.9 4.35a43.17 43.17 0 0 0-1.57 6.15c2.31-9.16 5.55-18.79 7.93-28.07a16.28 16.28 0 0 0-.74 2.43c0-1.09 1.84-6.73 3.05-11.66a16.4 16.4 0 0 1-.33 1.88c1.26-3.73 3-11.47 4.3-15.25-6.13 22.94-12 45.51-18.74 68.49.55-3.46 2.79-10.88 3.79-15.4a411.3 411.3 0 0 0-3.56 12.84c.71-4.26 3.38-12.09 4.62-17.8-7.84 28.12-14 50.92-21.87 81.44 3.48-12.42 5.47-20.63 8.17-30.63a6.17 6.17 0 0 1-.32 1.88c1.83-6.45 5.15-19.49 7.18-26.3a49.25 49.25 0 0 1-1.24 4.92c.92-2.85 1.93-6.46 3-10.36-3.74 15.91-8.09 31.95-12.28 49.22-.2.23-.59 1.91-.66 1.13-10.32 37.85-20.57 77.71-29.72 110.2-.31 1.25-.09 1.26-.4 2.51-5.62 19-11 42.41-17.25 63.64-1.94 6.55-3.36 13.7-5.29 18.93-4.46 17.4-11.65 45.19-16.1 58.05l-1.32 4.9a27.82 27.82 0 0 0-1.5 3.53c-.53 3.29-2.1 7.73-3.64 12.81-.16.84-.12 1.19 0 1.31.29-2.35.41-1.48 1.49-5.51.25-.52-1.13 4.73-1.65 6.79.2-1.56-.85 1.19-.18-1.37a155.59 155.59 0 0 0-4 13.38c-.13-.63.36-1.37.49-2.49-1.1 3.17-2.18 5.29-3 9.7-.39-1.12-2.73 8-3.34 6.32-.15-.15-.62 2.16-.91 3-.19-1-1.9 4.55-2.26 2.67 1.17-4.43-.2-4.7.12-7.85-.41.3-.61 3.16-.83 2.41a71.38 71.38 0 0 0 1.88-10 58.27 58.27 0 0 1 2.4-7.23c1.19-5.87 1.52-8.92 3.53-16.12.47-1.66.87-2.89 1.24-4.27a7.23 7.23 0 0 0 .33-1.88c.19-.71.67-1.78 1-3 .52-2 .62-3.82.9-5s1.24-3.95 1.49-4.85c1-3.69 1.88-7.55 3-11.68 6.08-23.11 13.87-51.33 20.62-77.17 1.86-7.09 3.82-14.59 5.7-21.45a8258.07 8258.07 0 0 0 22.77-85.14c.2-.76 1.9-6.61 3.06-11 14.42-54.35 33.51-126.81 49.89-186.13.28-.42.55-1.81.42-.54.31-1 .24-1.18.16-1.28l2-6c2.18-6.75 5-17.37 6.62-21.19-3.15 10.49-6.91 22.46-9.84 33.46 2.36-6.51 5.46-18.77 7.71-23.53.74-3.78 1.82-5.65 2.06-8 .84-.48 2.6-9.52 3.79-12.82zm14.11-39.53l-1.65 6.12c.09.88 1.81-6.45 1.65-6.12zm-8.14 33.92c.32-1.86.92-3 .82-3.72-.51 1.93-1.21 3.59-.82 3.72zm-24.5 67.6c-.74 2.74-.59 2.77-1.32 4.9.29.26 1.44-4.7 1.32-4.9zm1.82-6.74a38.83 38.83 0 0 0-1.07 4.31 19.06 19.06 0 0 0 1.07-4.31zM127.06 569.74c.81-2.84 2.84-8.93 2.31-9.23-.92 3.49-2.01 7.26-2.31 9.23zm119.61-466.16c.13-.92.52-1.33 1-3.68.47-.49-.53 2.45-.82 3.72.02-.39.04-.78-.18-.04zm3.66-10.18c-.05-.36.16-.64.25-.59-.14 1.06-.91 3.61-1.41 5.53-.32-.34 1.14-3.66 1.16-4.94zM258 77.08c.14.74-1 3.63-1 4.33-.65 1.76.52-2.66 1-4.33zM119.53 594.63c.26-1.33 2.26-6.78 2.25-6-.78 2.22-1.42 3.37-2.25 6zM115.74 1004.43c-.27.05-.5.84-.75 1.34.37.3.33-.77.75-1.34zm-54.38 187.19c.17-.33.34-.72.54-.61a6.05 6.05 0 0 1-.22 2c-.53.13.12-1.38-.32-1.39zM117.29 1001c.3-.08.53-1.33.83-1.3-.38.72-.56 1.7-.79 2.09-.21.02.11-.71-.04-.79zm7.07-18.37c.24-1.71 1.32-3.65 1.62-5-.21 1.67-1.14 3.21-1.62 5zm2.91-8.46c-.2 1.44-1.36 4.79-.48 1.67.21-.56.32-1.09.48-1.67zm-3.77 21.14a6 6 0 0 1 .63-2.14 9.34 9.34 0 0 1-.63 2.14zm2.6-8.29c.29 0 .12.58-.1 1.26a2.33 2.33 0 0 1 .1-1.28zm-3.39 13.23c.25 0-.5 1.45-.25 1.48-.39.72.05-1.33.25-1.48zm-6.51 31.21c.39.23-.43 2.43-.75 2.89a11.75 11.75 0 0 1 .75-2.89zm-46.36 120c.14.38-.3 1.55-.37 2.22a5.88 5.88 0 0 1 .37-2.26zM65 1173c.06.07.11-.07.16-.21 1.2-3.56 2.73-9.22 3.71-11.85-1.72 5.8-3.27 11.46-5.07 15.59-1.06 2.44-2.25 4.24-2.11 6.63a3.51 3.51 0 0 1-.12-2.1c.51-2.41 2.33-4.44 3.09-6.86a31.87 31.87 0 0 1 .73-3.15A13.37 13.37 0 0 1 65 1173zm52-170.81c.39 0-.22 1.06-.33 1.46a2.22 2.22 0 0 0 .67-1.36c0 .39.16.43 0 1 1.14-2.07 1.1-2.94 1.87-4.89.08.09-.08.49 0 .53a33.87 33.87 0 0 0 2-6.66c.17.09 0 .66-.18 1.25.31-.13.75-2.35.77-1.07.5-1.74.25-1.51.81-3.13a23.13 23.13 0 0 1-.84 4.15 4.24 4.24 0 0 0 .52-1.14c.15.43-.38 1-.49 1.67a93.76 93.76 0 0 0 3.12-9.18 34.79 34.79 0 0 1-1.21 4.82c.54-1.13 1-3 1.57-4.46-.24 1.5.29-.19.61-.85-2.16 7.59-2.78 10.08-5 18.46a23.86 23.86 0 0 0 1-3.58c.06-.3.48-.75.32-.17.18-.1 0-1.22.5-1.4.31 1.13-1 4.53-1.21 6.37.16-.07.29-.73.48-.38.29-1-.48.23.09-1.27.36 1.28-.59 3.25-1 4.63-.34 1.19-.59 2.62-1.16 4.32.61-.85 1.12-3.52 1.69-5.2.19-.41 0 .17 0 .5-.81 3.16-2.26 8.68-3.08 11.52.74-1 .84-2.59 1.47-4.74.09.07 0 .45-.12.74a132.84 132.84 0 0 0 3.63-13.43c.26-1.24.3-2.2.56-3.2a16.19 16.19 0 0 0 .83-4.41 7.57 7.57 0 0 0 .64-3.17c.16 0 .1.47.26.07.3-.75-.18-.42-.13-.81s.74-1.29.64-1.89c.36.28.48-1.65.81-3.12-.28.46-.52 1.51-.82 1.57.4-2.37 1.32-4.38 2-6.92a59.12 59.12 0 0 1-1.87 6.44c.37-.19.68-1.65 1-2.55-1.3 10.78-5.62 29.69-9.8 43.18-.47-.2-1.45 2.6-2.06 4.57 0-.61-.19-.26-.3-.86.23-.36.34-1.41.69-2.38-.52.85-1.19 4.17-1.88 6.17.17.1.28-.83.43-1.16s-.49 2-.44 2.45a19.4 19.4 0 0 0 1.19-3.79c.39.45-1.46 4.63-1.56 6-.32.74-.18-.3 0-.76a64.67 64.67 0 0 0-2 6.65c.26-.68.94-2.85 1.54-5 0 1.54-1.33 4.29-1.85 6.7-.3 0-.12-.59.09-1.27-.42.5-.54 1.78-.23 1.75a6.85 6.85 0 0 0-.61 2.4c.88-3.59 2.58-7.23 3.52-10.87-.13 0-.24.58-.36.93-.19-.48.79-2.61 1.23-4.55a2.89 2.89 0 0 1 0 .76c.66-1.41 1.23-4.48 1.89-5.91-2.54 8.94-4.87 17.78-8 26.63 0-1.41 1.09-4.26 1.4-6.06-.35.8-1.24 3.86-1.54 5 .06-1.74 1.48-4.69 1.84-7-3.43 10.91-6 19.8-9.13 31.74 1.53-4.82 2.24-8.05 3.38-12a1.08 1.08 0 0 1 0 .77c.82-2.5 2.11-7.61 3.06-10.23.14.23-.35 1.35-.47 1.93a35 35 0 0 0 1.35-4c-1.27 6.29-3.11 12.53-4.62 19.34-.16.07-.29.73-.47.38-4.39 14.73-8.42 30.34-12.47 42.92-.12.5.09.54 0 1-2.62 7.32-4.35 16.6-7.29 24.78-.9 2.52-1.23 5.39-2.31 7.34-1.75 6.82-4.6 17.69-7 22.53l-.56 1.91a5.16 5.16 0 0 0-.92 1.28c0 1.35-.89 3-1.62 5 0 .34 0 .5.2.57-.07-1 .17-.57.62-2.14a15.52 15.52 0 0 1-.59 2.67c0-.64-.64.38-.37-.62a22.39 22.39 0 0 0-1.86 5.14c-.22-.29.14-.53.11-1-.6 1.2-1.33 1.93-1.45 3.72-.54-.56-1.46 3-2.28 2.18-.17-.09-.28.84-.43 1.17-.32-.45-1.16 1.66-1.77.78.48-1.73-.87-2.09-1-3.4-.36.06-.13 1.27-.45.9a11.36 11.36 0 0 0 .35-4 9.21 9.21 0 0 1 1.25-2.74 27.07 27.07 0 0 1 1-6.42c.2-.65.41-1.11.56-1.65a1.21 1.21 0 0 0 0-.76c.08-.28.39-.66.52-1.15a15 15 0 0 0 .13-2c.09-.43.62-1.51.72-1.86.44-1.44.71-3 1.15-4.58 2.47-9 5.84-20 8.56-30.1.75-2.77 1.55-5.7 2.34-8.37 3.3-11 6.41-21.87 9.47-33.19.08-.3.85-2.56 1.33-4.27 5.88-21.23 13.65-49.53 20.72-72.59.21-.13.27-.69.32-.16.15-.4.07-.47 0-.53.49-1.15.56-1.18 1-2.29 1.12-2.56 2.28-6.71 3.27-8.1-1.5 4-3.36 8.61-4.57 12.9 1.31-2.44 2.51-7.24 4-8.93.16-1.52.92-2.15.81-3.13.8.06 1.18-3.57 1.8-4.81zm7.78-14.81l-.7 2.39c.24.43.81-2.47.72-2.36zm-2.89 13.39c0-.76.46-1.15.25-1.48-.14.78-.62 1.38-.23 1.51zm-13.64 25.26a8.71 8.71 0 0 1-.55 1.9c.3.2.71-1.77.57-1.87zm.77-2.63c-.1.51-.56 1.54-.4 1.69a3 3 0 0 0 .38-1.66zm-37.8 158.16c.36-1.1 1.42-3.41.87-3.63a18.65 18.65 0 0 0-.87 3.63zm46.94-182.63c0-.37.31-.49.42-1.43.37-.14-.16 1-.25 1.48-.03-.17-.07-.33-.17-.05zm2-3.81a.14.14 0 0 1 .16-.21 11.88 11.88 0 0 1-.54 2.17c-.35-.22.57-1.4.4-1.96zm5-5.79c.25.34-.41 1.41-.31 1.71-.39.66.09-1.04.3-1.71zm-57.54 201.78c.06-.53 1.18-2.57 1.28-2.21a25.49 25.49 0 0 0-1.28 2.21zM165.74 966.43c-.27.05-.5.84-.75 1.34.37.3.33-.77.75-1.34zm-54.38 187.19c.17-.33.34-.72.54-.61a6.05 6.05 0 0 1-.22 2c-.53.13.12-1.38-.32-1.39zM167.29 963c.3-.08.53-1.33.83-1.3-.38.72-.56 1.7-.79 2.09-.21.02.11-.71-.04-.79zm7.07-18.37c.24-1.71 1.32-3.65 1.62-5-.21 1.67-1.14 3.21-1.62 5zm2.91-8.46c-.2 1.44-1.36 4.79-.48 1.67.21-.56.32-1.09.48-1.67zm-3.77 21.14a6 6 0 0 1 .63-2.14 9.34 9.34 0 0 1-.63 2.14zm2.6-8.29c.29 0 .12.58-.1 1.26a2.33 2.33 0 0 1 .1-1.28zm-3.39 13.23c.25 0-.5 1.45-.25 1.48-.39.72.05-1.33.25-1.48zm-6.51 31.21c.39.23-.43 2.43-.75 2.89a11.75 11.75 0 0 1 .75-2.89zm-46.36 120c.14.38-.3 1.55-.37 2.22a5.88 5.88 0 0 1 .37-2.26zM115 1135c.06.07.11-.07.16-.21 1.2-3.56 2.73-9.22 3.71-11.85-1.72 5.8-3.27 11.46-5.07 15.59-1.06 2.44-2.25 4.24-2.11 6.63a3.51 3.51 0 0 1-.12-2.1c.51-2.41 2.33-4.44 3.09-6.86a31.87 31.87 0 0 1 .73-3.15 13.37 13.37 0 0 1-.39 1.95zm52-170.81c.39 0-.22 1.06-.33 1.46a2.22 2.22 0 0 0 .67-1.36c0 .39.16.43 0 1 1.14-2.07 1.1-2.94 1.87-4.89.08.09-.08.49 0 .53a33.87 33.87 0 0 0 2-6.66c.17.09 0 .66-.18 1.25.31-.13.75-2.35.77-1.07.5-1.74.25-1.51.81-3.13a23.13 23.13 0 0 1-.84 4.15 4.24 4.24 0 0 0 .52-1.14c.15.43-.38 1-.49 1.67a93.76 93.76 0 0 0 3.12-9.18 34.79 34.79 0 0 1-1.21 4.82c.54-1.13 1-3 1.57-4.46-.24 1.5.29-.19.61-.85-2.16 7.59-2.78 10.08-5 18.46a23.86 23.86 0 0 0 1-3.58c.06-.3.48-.75.32-.17.18-.1.05-1.22.5-1.4.31 1.13-1 4.53-1.21 6.37.16-.07.29-.73.48-.38.29-1-.48.23.09-1.27.36 1.28-.59 3.25-1 4.63-.34 1.19-.59 2.62-1.16 4.32.61-.85 1.12-3.52 1.69-5.2.19-.41.05.17-.05.5-.81 3.16-2.26 8.68-3.08 11.52.74-1 .84-2.59 1.47-4.74.09.07-.05.45-.12.74a132.84 132.84 0 0 0 3.63-13.43c.26-1.24.3-2.2.56-3.2a16.19 16.19 0 0 0 .83-4.41 7.57 7.57 0 0 0 .64-3.17c.16 0 .1.47.26.07.3-.75-.18-.42-.13-.81s.74-1.29.64-1.89c.36.28.48-1.65.81-3.12-.28.46-.52 1.51-.82 1.57.4-2.37 1.32-4.38 2-6.92a59.12 59.12 0 0 1-1.87 6.44c.37-.19.68-1.65 1-2.55-1.3 10.78-5.62 29.69-9.8 43.18-.47-.2-1.45 2.6-2.06 4.57 0-.61-.19-.26-.3-.86.23-.36.34-1.41.69-2.38-.52.85-1.19 4.17-1.88 6.17.17.1.28-.83.43-1.16s-.49 2-.44 2.45a19.4 19.4 0 0 0 1.19-3.79c.39.45-1.46 4.63-1.56 6-.32.74-.18-.3 0-.76a64.67 64.67 0 0 0-2 6.65c.26-.68.94-2.85 1.54-5 0 1.54-1.33 4.29-1.85 6.7-.3 0-.12-.59.09-1.27-.42.5-.54 1.78-.23 1.75a6.85 6.85 0 0 0-.61 2.4c.88-3.59 2.58-7.23 3.52-10.87-.13 0-.24.58-.36.93-.19-.48.79-2.61 1.23-4.55a2.89 2.89 0 0 1 0 .76c.66-1.41 1.23-4.48 1.89-5.91-2.54 8.94-4.87 17.78-8 26.63 0-1.41 1.09-4.26 1.4-6.06-.35.8-1.24 3.86-1.54 5 .06-1.74 1.48-4.69 1.84-7-3.43 10.91-6 19.8-9.13 31.74 1.53-4.82 2.24-8.05 3.38-12a1.08 1.08 0 0 1 0 .77c.82-2.5 2.11-7.61 3.06-10.23.14.23-.35 1.35-.47 1.93a35 35 0 0 0 1.35-4c-1.27 6.29-3.11 12.53-4.62 19.34-.16.07-.29.73-.47.38-4.39 14.73-8.42 30.34-12.47 42.92-.12.5.09.54 0 1-2.62 7.32-4.35 16.6-7.29 24.78-.9 2.52-1.23 5.39-2.31 7.34-1.75 6.82-4.6 17.69-7 22.53l-.56 1.91a5.16 5.16 0 0 0-.92 1.28c0 1.35-.89 3-1.62 5 0 .34 0 .5.2.57-.07-1 .17-.57.62-2.14a15.52 15.52 0 0 1-.59 2.67c0-.64-.64.38-.37-.62a22.39 22.39 0 0 0-1.86 5.14c-.22-.29.14-.53.11-1-.6 1.2-1.33 1.93-1.45 3.72-.54-.56-1.46 3-2.28 2.18-.17-.09-.28.84-.43 1.17-.32-.45-1.16 1.66-1.77.78.48-1.73-.87-2.09-1-3.4-.36.06-.13 1.27-.45.9a11.36 11.36 0 0 0 .35-4 9.21 9.21 0 0 1 1.25-2.74 27.07 27.07 0 0 1 1-6.42c.2-.65.41-1.11.56-1.65a1.21 1.21 0 0 0 0-.76c.08-.28.39-.66.52-1.15a15 15 0 0 0 .13-2c.09-.43.62-1.51.72-1.86.44-1.44.71-3 1.15-4.58 2.47-9 5.84-20 8.56-30.1.75-2.77 1.55-5.7 2.34-8.37 3.3-11 6.41-21.87 9.47-33.19.08-.3.85-2.56 1.33-4.27 5.88-21.23 13.65-49.53 20.72-72.59.21-.13.27-.69.32-.16.15-.4.07-.47 0-.53.49-1.15.56-1.18 1-2.29 1.12-2.56 2.28-6.71 3.27-8.1-1.5 4-3.36 8.61-4.57 12.9 1.31-2.44 2.51-7.24 4-8.93.16-1.52.92-2.15.81-3.13.85.06 1.23-3.57 1.85-4.81zm7.78-14.81l-.7 2.39c.24.43.81-2.47.72-2.36zm-2.89 13.39c0-.76.46-1.15.25-1.48-.14.78-.62 1.38-.23 1.51zm-13.64 25.26a8.71 8.71 0 0 1-.55 1.9c.3.2.71-1.77.57-1.87zm.77-2.63c-.1.51-.56 1.54-.4 1.69a3 3 0 0 0 .38-1.66zm-37.82 158.13c.36-1.1 1.42-3.41.87-3.63a18.65 18.65 0 0 0-.85 3.66zm46.94-182.63c0-.37.31-.49.42-1.43.37-.14-.16 1-.25 1.48-.01-.14-.05-.3-.15-.02zm2-3.81a.14.14 0 0 1 .16-.21 11.88 11.88 0 0 1-.54 2.17c-.33-.19.59-1.37.42-1.93zm5-5.79c.25.34-.41 1.41-.31 1.71-.37.69.11-1.01.32-1.68zm-57.53 201.78c.06-.53 1.18-2.57 1.28-2.21a25.49 25.49 0 0 0-1.27 2.24z"/></g></g></svg>