<svg xmlns="http://www.w3.org/2000/svg" xmlns:xlink="http://www.w3.org/1999/xlink" viewBox="0 0 115.43 80.1"><defs><style>.cls-1{fill:none;}.cls-2{clip-path:url(#clip-path);}.cls-3{fill:#f59f1f;}</style><clipPath id="clip-path" transform="translate(0 -2.87)"><rect class="cls-1" x="104.16" width="29.57" height="105.96" rx="1.37"/></clipPath></defs><title>ui_tools_paint</title><g id="Laag_2" data-name="Laag 2"><g id="Vensters_edited" data-name="Vensters edited"><g class="cls-2"><path class="cls-3" d="M20.19,67.27a10.13,10.13,0,0,0-1.26,1C20.05,67.49,22,66,20.19,67.27Zm-4.88,3.57a3,3,0,0,1-.84.71C14.4,71.45,15,71.11,15.31,70.84Zm6.23-4.44c.67-.54,1.2-.91,2.07-1.49a5.91,5.91,0,0,1-.56.57C23.33,65,21.82,66.35,21.54,66.4ZM14,71.93c0,.09-.45.37-.43.47s.18-.21.52-.37a4.23,4.23,0,0,1-.82.75c.11-.15,0-.15-.19,0C12.93,72.67,13.49,72.28,14,71.93Zm11.68-8.31a15.82,15.82,0,0,1,2.07-1.49A19.92,19.92,0,0,1,25.63,63.62Zm-4.75,3.47C21,67,22.17,66,22.2,66.2,21.65,66.64,21.39,66.71,20.88,67.09Zm.22,0c.23.1-2,1.49-3.05,2.3C18.9,68.53,20.11,67.94,21.1,67.1Zm11.46-8.31.78-.56c.23,0-.47.41-.72.62Zm1.35-.87c.18-.19,1.47-1.2,1.58-1.08Zm13.78-9.76a19,19,0,0,1-2.52,1.93C45.93,49.42,46.56,49,47.69,48.16Zm12.36-8.74c0,.33-1.41.95-2.3,1.71C57.72,41,59.4,39.92,60.05,39.42Zm2.71-2c-.25.48-1.41,1.07-1.88,1.46C60.92,38.66,62.21,37.93,62.76,37.47ZM12.24,74.08c-.75.77-1.84,1.14-2.71,2A17.49,17.49,0,0,1,12.24,74.08ZM53.39,44.32A9.29,9.29,0,0,1,52,45.42,7.29,7.29,0,0,1,53.39,44.32ZM0,83c.53-.31.7-.53,1.32-.9C1.22,82.19,0,83.12,0,83ZM113.23,4.45a22.31,22.31,0,0,1,2.2-1.58A11.85,11.85,0,0,1,113.23,4.45ZM16.29,74.89c.06,0-.1.19,0,.23-.61.24-1.52.85-2.27,1.25A15.3,15.3,0,0,1,16.29,74.89ZM10.1,79.62a7.5,7.5,0,0,1,1.29-.93A4.42,4.42,0,0,1,10.1,79.62ZM23.5,70.4c.42-.53,1.85-1.24,0,0ZM113.15,5.81a3.77,3.77,0,0,1,1-.74C114.05,5.31,113.56,5.44,113.15,5.81ZM31.83,64.51a5.33,5.33,0,0,1-1.14.87A5.21,5.21,0,0,1,31.83,64.51ZM109.07,8.86a11.94,11.94,0,0,1,1.39-1.06,17.78,17.78,0,0,1-2.21,1.81c.13-.28.71-.52,1.24-1C109.43,8.59,109.23,8.75,109.07,8.86ZM37.77,60.23a28.26,28.26,0,0,1-3,2.33A27.7,27.7,0,0,1,37.77,60.23ZM58.08,45.65a23.55,23.55,0,0,1-2.82,2.08C55.94,47.07,56.77,46.64,58.08,45.65ZM23.86,70.57c.37-.39,1.41-1,2-1.52C25.53,69.44,24.49,70.08,23.86,70.57ZM76.35,33.08c-.14.36-.8.66-1.5,1.19A5.53,5.53,0,0,1,76.35,33.08ZM91.53,23a19.56,19.56,0,0,1-1.78,1.33A11,11,0,0,1,91.53,23ZM72.33,37.17c.34-.29.37-.2.67-.44C73,36.89,72.37,37.36,72.33,37.17ZM19.05,68.36a18,18,0,0,1,1.52-1.15s-.14.14-.23.22.07,0,.15-.06A7.24,7.24,0,0,1,19.05,68.36Zm-6.32,5.31c.17-.08,0,.15.57-.3-.05-.12-.64.3,0-.2-.08,0-.35.21-.55.34a.54.54,0,0,1,.2-.25c-.08,0-.23.16-.23.22-.5.17.39-.56.74-.85s.13.08.11.13c.48-.38.7-.59.86-.46-.33.24-.18.09-.19,0-.42.27-.4.39-.87.68A17.94,17.94,0,0,0,17,70.41c0-.1.71-.33.9-.65-.17,0-.51.18-1,.55a14.33,14.33,0,0,1,1.65-1.25c0,.08-.41.33-.3.38.44-.27.36-.34.43-.47,2.93-2.06,5.23-3.77,8.45-6-.53.28,0-.1.3-.38.1,0,0,.14-.2.25.28,0,.76-.54.72-.62a4.19,4.19,0,0,0,1-.59c1.44-1,.86-.64-.71.63.49-.24,1.42-1,2.09-1.46-.08.26-.35.4-.75.59.93-.15,3.29-2.32,5.18-3.46A28.9,28.9,0,0,0,32,59.84c.15-.29.51-.4,1-.78-.53,0-2.23,1.7-2.89,1.76,3.8-2.62,7.14-4.8,10.54-7.22.27-.22.24-.06.44-.21,2.43-2,4.82-3.31,8.46-6-.19-.07.45-.29.71-.63s-.23.29-.14.32a14.81,14.81,0,0,1,2.55-1.89c-.62.49-1.07.71-1.42,1,1.55-1,3.72-2.6,5.07-3.59-1,.6-2.31,1.64-.83.49.37-.29.74-.62,1.39-1.06.28-.09,0,.14.24,0,1.77-1.36,3.23-2.34,4.51-3.51,0,.09-.56.41-.59.53.45-.14,1.07-.87,1.45-1,.17-.14,0-.16,0-.23.59-.36.28-.26.87-.68-.06.14-.43.39-.4.5,1.35-1,3-2.06,4.52-3.25-.05,0-.26.14-.42.24.21-.35,1.31-.85,1.91-1.43-.78.35-2.82,2-4,2.66-1.24.82,1.51-1.15,1.91-1.43,3.23-2.26,6.61-4.38,10.25-7.06a44.53,44.53,0,0,1-3.69,2.77c.38-.08,1.65-1.23,1.67-1,.4-.29.27-.38.84-.72,0,.07-.18.21-.17.28a12.66,12.66,0,0,1,1.29-.93c-.08,0-.35.21-.54.34.29-.31,1.72-1.32,1.32-.9,4-2.86,9.39-6.17,14.3-9.87-.14,0-.79.58-1,.58a8.09,8.09,0,0,1,1-.74A11.24,11.24,0,0,0,90,18.77c-.58.42-1.23.92-1.93,1.4,1.7-1.48,3.8-2.87,6.14-4.54,0,.09-.2.34.22,0-.29.33-1.24.91-1.78,1.34,1.3-.86,2.82-2,4.09-2.79-.12,0-.69.49-.84.49,1.63-1.15,4.54-3.08,5.49-3.84a15.17,15.17,0,0,1,2-1c.8-.49,1.9-1.62,2.47-1.51a2.26,2.26,0,0,0-.54.34c.25-.05.8-.46,1-.49-.6.21,1.73-1.57,1.78-1.33.41-.4.57-.47,1-.82a1,1,0,0,1-.3.38,2.31,2.31,0,0,0,1.22-.77c.58-.36.69-.13,1.56-.85.3.1,1-.23,1.71-.69,0,.16-.91.64-1,.81.69-.37.56-.08,1.24-.51,0,.06-.35.32-.39.28-.23.25.58-.23.69-.17A10.19,10.19,0,0,1,115,3.6a54.1,54.1,0,0,1-5.73,4.78,5.43,5.43,0,0,1-1,.52c-.24.19-.27.3-.59.53.06,0,.59-.33,0,.07a8.77,8.77,0,0,0,1.09-.68c.08.18-1.17,1.1-2.08,1.71A24.65,24.65,0,0,1,103.63,13c-.13.19-.28.37-.37.54A30.56,30.56,0,0,0,106,11.35c-.16.37.55-.3,1-.55-.63.73-2.88,2.06-3.79,2.89,1.17-.68-.77,1.2-1.76,1.6,0,.06-.26.35-.66.69,0-.08.1-.19.33-.35a44.66,44.66,0,0,0-4.64,3.13c0-.2.78-.71,1.34-1.13-3.73,2.49-9,6.71-13.35,9.78-.68.48-1.41.9-2,1.33a5.35,5.35,0,0,1-.89.43c-2.13,1.55-3.26,2.28-5.23,3.65-.14.11,0,.09,0,0-1.9,1.41-4.72,3.31-6.51,4.59,2.48-1.88,6.48-4.7,9.71-6.94A78.19,78.19,0,0,0,73,35c-1.52,1.07-3,2.11-4.45,3.1s-3.05,2.31-3.9,2.76c-5.18,3.76-8.9,6.3-13.47,9.64.32-.14,1.3-.89,2.1-1.45A22.53,22.53,0,0,1,51,50.77c-.4.27-1.85,1.25-1.09.67.59-.45.82-.51,1.17-.83a32.09,32.09,0,0,0-3.49,2.51c-1.07.52-3.87,2.73-6.26,4.4-3.2,2.25-6.76,4.93-10.52,7.47-.19.16.16,0-.07.16a4.73,4.73,0,0,1-.6.27c-.19.16,0,.19-.46.44,0,0,.13-.14.23-.22-1,.59-2.68,1.93-3.51,2.25-.27.48-2.43,1.74-3.58,2.64-.19-.21.53-.48,1.1-.9-1.47.8-1.67,1.16-3.6,2.38a15.9,15.9,0,0,0,2.31-1.45,22.08,22.08,0,0,1-3.77,2.66c.48-.21,1-.5,1.59-.82-1,.78-2.16,1-3.2,1.87.76-.69,1.67-1,2.58-1.86-2.27,1.3-4.56,3-6.73,4.1-.42.26-.17.27-.59.53.26-.35-.51.18-.79.3,0-.11.66-.42.94-.62,0-.22-.71.46-.86.46.15-.26.79-.55,1.06-.71a5.13,5.13,0,0,0-2,1.1c.09-.48-1.37.6-1.78.85.07-.18.8-.6,1.13-.87-.2.06-.53.3-.73.36,0-.29.9-.78,1.15-1.1-.71.39-1.63,1-2.44,1.54.14,0,.66-.46.63-.23-1,.54-2.48,1.52-2.61,1.34.14-.12,0-.09,0,0,1-.78,2.09-1.24,3.16-2.16-.33,0-.57.4-1.19.8.47-.54-.17.07-.25,0,.71-.59.94-.53,1.32-.9,0-.08-.18,0-.15.06.56-.82,3.46-2.76,4.62-3.87-.33.11-.76.64-1.09.68.13.18-.4.27-1.11.9C11.75,74.56,12.5,74.08,12.73,73.67Zm89.14-63c.36-.27.88-.37,1.09-.68C102.6,10.28,102.06,10.42,101.87,10.7Zm-5.36,7.64c-.56.44-1.09.64-1.26,1C95.72,19,96.62,18.36,96.51,18.34Zm-14,10.24a16.09,16.09,0,0,1,2-1.36A15.22,15.22,0,0,0,81.84,29C82,28.87,82.48,28.76,82.52,28.58ZM24.86,64.66l.08.1c.32-.18.84-.66.46-.44C25.38,64.5,25.14,64.39,24.86,64.66Zm3.73-2.47a7.72,7.72,0,0,0-1.51.93C27.71,62.92,27.87,62.59,28.59,62.19Zm-4.36,3.2c0,.13,1.45-.86,1.19-.81A6.18,6.18,0,0,0,24.23,65.39Zm12-8.43c.35-.41,1.19-.74,1.21-1C36.68,56.42,36.05,56.92,36.22,57ZM15.92,71.54c-.11.06-.18.08-.19,0a12.56,12.56,0,0,1-1.55,1.12C14.35,72.77,15.83,71.57,15.92,71.54ZM34.31,58.39l1.43-1c-.06-.1.15-.29-.25,0C35.68,57.43,34.06,58.46,34.31,58.39Zm4.37-3.2c-.32,0-.74.46-1.12.65C37.64,56,38.4,55.29,38.68,55.19ZM99.13,12.62c.54-.47,1.23-.73,1.26-1C100.05,11.91,98.79,12.75,99.13,12.62ZM107.87,7a10.81,10.81,0,0,0-1.27,1C107.24,7.44,107.61,7.37,107.87,7Zm-.22.48c-.45.25.52-.4.3-.38-.66.57-1.3.89-1.78,1.33A9,9,0,0,0,107.65,7.45ZM38.4,59.5a10.56,10.56,0,0,0-1.26,1A9.6,9.6,0,0,0,38.4,59.5Zm60-42.85c.23-.16.61-.5.57-.31.64-.46,2-1.43,1.56-1.34C100.4,15.31,99.05,16,98.41,16.65Zm6.65-4.91c-1.49,1.08-.84.89,0,0ZM79.82,30.31c.34-.25.78-.53.72-.63-.34.3-.94.59-.91.65S79.81,30.25,79.82,30.31Zm23.29-16.46c-.16.11-.11,0,0-.06a10.53,10.53,0,0,1-1.33.89c.43-.33.09-.21.62-.5-.13-.15-1.48.87-1.58,1.09.29-.18.82-.66.94-.62-.54.4.16,0-.28.41A12.55,12.55,0,0,0,103.11,13.85ZM47,53.46c0,.2-1.19.9-1.23,1C45.34,54.52,46.79,53.78,47,53.46ZM64.38,36.68c.05-.25.54-.38.85-.72,0,0,.08,0,.19,0A6.28,6.28,0,0,1,64.38,36.68ZM14.6,72c0-.06.11-.11.13-.09a12.57,12.57,0,0,1,1.26-1c0,.14-.72.54-.33.35.05.09-.43.32-.52.37s-.2.2-.2.25.55-.49.32-.12c.45-.26,0-.18.46-.44,0,.18-.53.56-1.08.94C14.75,72,14.81,71.86,14.6,72ZM56.4,42c.1.16-.25.48-.89.91-.33.14,1-.74.79-.78C53.85,44,53,44.49,50.59,46.18c-.19-.08.68-.55,1-.81,0,0-.14.16-.23.22C52.47,44.86,54.64,43.21,56.4,42ZM5.21,79.52c1-.66,2-1.2.6-.27-.38.25-.69.37-1.22.77,0,0,0-.07.1-.13s-.07,0-.16.06c.37-.4,1.12-.7,1.71-1.17C6.09,79.05,5.6,79.18,5.21,79.52ZM87.45,20.44c.32-.33-.52.61-.88.68A9.51,9.51,0,0,1,87.45,20.44ZM109.36,5.79c.15-.11.22-.18.23-.22.34-.28.23,0,.5-.15C110.12,5.47,109.32,6,109.36,5.79Zm-96,70.76c.31-.41.73-.36,1.23-.78C14.26,76.13,13.75,76.21,13.31,76.55ZM25.6,68.94c-.16.12-.07.16.06.07-.63.43-1.41,1-2.23,1.54.15-.27,1.6-1,1.31-1.15C25.05,69.19,26.26,68.58,25.6,68.94Z" transform="translate(0 -2.87)"/></g></g></g></svg>