<svg xmlns="http://www.w3.org/2000/svg" viewBox="0 0 414.86 624.01"><defs><style>.cls-1{fill:none;}.cls-2{fill:#f59f1f;fill-rule:evenodd;}.cls-3{fill:#dc1f86;}</style></defs><title>wind_locations_paint</title><g id="Laag_2" data-name="Laag 2"><g id="Vensters_edited" data-name="Vensters edited"><rect class="cls-1" x="-148.52" y="291.39" width="711.9" height="41.23" transform="translate(-167.13 320.87) rotate(-57.74)"/><path class="cls-2" d="M25.13,605.4a2.46,2.46,0,0,0,1.13-1.56C25.91,604.39,25.25,604.68,25.13,605.4Z"/><path class="cls-2" d="M25.41,603.43c.28-.6,1-.84,1.13-1.56C26.1,602.34,25.44,602.62,25.41,603.43Z"/><path class="cls-2" d="M29.43,600.1c.54-.45.33-.64.81-1.54-.36.17-.52.49-.79.73C29.34,599.73,29.57,599.64,29.43,600.1Z"/><path class="cls-2" d="M46,588.27l.73-.5c0-.55.39-.78.44-1.29A2.49,2.49,0,0,0,46,588.27Z"/><path class="cls-2" d="M27.48,600.44c0,.43,1-.6,1-1.09-.25-.2-.36.36-.92.62C27.65,600.1,27.71,600.24,27.48,600.44Z"/><path class="cls-2" d="M47.75,585.87c.44-.69.69-.53,1.1-.75,0-.47-.36-.48-.9-.18C47.89,585.25,47.82,585.56,47.75,585.87Z"/><path class="cls-2" d="M36.28,591.1c.09.41,1-.79.94-1.44C36.6,589.9,36.83,590.82,36.28,591.1Z"/><path class="cls-2" d="M52.76,579.5c.2-.25.42-.84.42-.48.39-.24.27-.89.44-1.29.44-.08.93-.6,1.52-1.24-.54-.41.31-1.6.76-2.69a3.76,3.76,0,0,1-1.26,1.45c.38.28,0,.48-.31,1.4a.57.57,0,0,0-.5.14,2.49,2.49,0,0,1-.95,1.44C52.73,578.82,52.61,579.37,52.76,579.5Z"/><path class="cls-2" d="M38,588.93l.73-.5a.55.55,0,0,1,.16-.7C38.89,587.31,37.93,588.38,38,588.93Z"/><path class="cls-2" d="M37.57,585.27a3.72,3.72,0,0,0,.86-1.78C38,584,37.25,585,37.57,585.27Z"/><path class="cls-2" d="M64.12,565.64c.55-.35,1.08-1.32.81-1.54A5.8,5.8,0,0,0,64.12,565.64Z"/><path class="cls-2" d="M41.24,580c.43-.56,1.16-.89,1.18-1.79A4.67,4.67,0,0,0,41.24,580Z"/><path class="cls-2" d="M57.92,564.71c.63-.68.26-.82.73-1.88a2.48,2.48,0,0,1-.6.61C58.31,564.05,57.36,564.68,57.92,564.71Z"/><path class="cls-2" d="M44.32,573.16c-.07-.39-.91.88-1.47,1C42.8,574.93,43.86,573.58,44.32,573.16Z"/><path class="cls-2" d="M48.91,567.27a6.27,6.27,0,0,0,1.05-1.9,23.69,23.69,0,0,1-1.68,1.93C48,568,49.19,566.54,48.91,567.27Z"/><path class="cls-2" d="M69.76,552.9c.27.55.77-1,1.08-1.32C70.65,551.09,70.06,552.57,69.76,552.9Z"/><path class="cls-2" d="M69.2,550.51c-.53.22-.4,1-1,1.1,0,.46.15.6.53.43C68.7,551.27,69.54,550.77,69.2,550.51Z"/><path class="cls-2" d="M79.87,543.26a4,4,0,0,0,1.37-1.92A10.13,10.13,0,0,0,79.87,543.26Z"/><path class="cls-2" d="M42.2,568.66c.47-.16.55-.65,1-.85.24-.79-.23-.48-.77-.08C42.34,568,42.27,568.35,42.2,568.66Z"/><path class="cls-2" d="M47,565.18c.6-.25.84-.79,1.21-1.22C48.18,563.58,47,564.55,47,565.18Z"/><path class="cls-2" d="M44.87,565.06a.45.45,0,0,0,.24-.35c1.28-1.16,1.89-2.87,3.09-4.09.3-1-.25-.64-.19-1.25-.73.65-.19.82-.63,1.41-.61.54-.47,0-.91.63.34.31-.43,1.27-.6,2-.53.21-.72.69-1.16,1C44.32,565.29,45.27,564.15,44.87,565.06Z"/><path class="cls-2" d="M75.39,542.35c-.33.3.21-.88.39-1.06-.1-.66-.39.73-.79.73-.32.85.13.53.11.92a12.66,12.66,0,0,0,1.21-1.22C76.42,541.06,75.7,541.87,75.39,542.35Z"/><path class="cls-2" d="M30.67,572.74c.54-.48,1.24-.83,1.31-1.69A5.42,5.42,0,0,0,30.67,572.74Z"/><path class="cls-2" d="M30.09,572.54c.05.46.85-.74.89-1.2C30.34,571.46,30.46,572.2,30.09,572.54Z"/><path class="cls-2" d="M32.27,570.46c.15-.59-.13-.52-.11-.91-.26.25-.38.61-.66.84C31.53,570.77,31.86,570.68,32.27,570.46Z"/><path class="cls-2" d="M76.67,540.09c.38.38,1.06-1.32,1.63-1.7C78.18,537.55,77,539.43,76.67,540.09Z"/><path class="cls-2" d="M23.61,573.58a6.75,6.75,0,0,0,1.07-2.71A10.5,10.5,0,0,0,23.61,573.58Z"/><path class="cls-2" d="M81.55,533.61c-.22-.18-1.1.51-1.21,1.21C80.54,535,81.51,534.38,81.55,533.61Z"/><path class="cls-2" d="M41.38,561.11c.64-.38,1.76-2.58.73-1.89C42.11,560.05,41.58,560.45,41.38,561.11Z"/><path class="cls-2" d="M53.86,552c.44.16,1.53-1.5,1.65-2.51-.33.3-.3.05-.26-.22C54.39,549.88,54.61,551.35,53.86,552Z"/><path class="cls-2" d="M32.09,565.64a3.61,3.61,0,0,0,1.55-2C33.24,564.37,32.32,564.72,32.09,565.64Z"/><path class="cls-2" d="M84,530.37c.19-.26.39-.51.37-.25.44-1.38,1.61-2.18,2-3.57C85.34,528.26,84,528.47,84,530.37Z"/><path class="cls-2" d="M46.83,553.44c.57-.18.45-.92.63-1.41a2.67,2.67,0,0,1-.61.6C47,552.74,46.93,553,46.83,553.44Z"/><path class="cls-2" d="M86.63,526.19c0,.62.45-.49.74-.5-.63,0,.38-.64.49-1.52-.62.13-.26,1.07-.89,1.2A1.23,1.23,0,0,1,86.63,526.19Z"/><path class="cls-2" d="M88.18,524.15c.87-1.06,1.55-.9,1.87-2.06-1,.93-.25-.66-1.14.18C89.36,522.67,88.31,523.4,88.18,524.15Z"/><path class="cls-2" d="M44.34,550.58c.63-.77,1.19-2.11.36-1.63C44.47,549.8,44.23,550,44.34,550.58Z"/><path class="cls-2" d="M92.19,518.06c.77-.47,1-1.39,1.55-2,.39-.24.26.32.11.92,1-1.11.29-1.57,1.49-3.19-.52.13-.42.26-1.11.75-.26,1,.27-.22.69-.27C94.08,515.57,92.8,516.54,92.19,518.06Z"/><path class="cls-2" d="M71,528.87a3.28,3.28,0,0,0,1-2.24C71.46,527.39,70.88,528.28,71,528.87Z"/><path class="cls-2" d="M58.68,536.68c.45-.64.23-.14.74-.5,0-.44-.24-.37-.35-.56C58.81,535.86,58.79,536.31,58.68,536.68Z"/><path class="cls-2" d="M70.32,520.85a6.06,6.06,0,0,0,1.34-2.49C71.29,519.2,70.1,520.4,70.32,520.85Z"/><path class="cls-2" d="M55.16,525.81c.45-.27.65-.75,1-1.09.27-.72-.9.75-.63,0C55.28,525,55.27,525.44,55.16,525.81Z"/><path class="cls-2" d="M45.46,532.21a4.35,4.35,0,0,0,1.15-2.37C46.22,530.59,45.26,531.84,45.46,532.21Z"/><path class="cls-2" d="M84.57,503.84l.73-.49a.33.33,0,0,1,.11-.47C85.42,502.39,84.51,503.39,84.57,503.84Z"/><path class="cls-2" d="M56.53,520.33c.73-.6,1-1.59,1.87-2.06.05-.45-.39-.13-.58-.2.2-.6,1-1.18.62-1.42-.37.34-.34,1-.89,1.2C57.81,518.55,56.77,519.26,56.53,520.33Z"/><path class="cls-2" d="M85.29,499.2c.19-.3.53-.48.66-.84.19-.72-.48-.38-.82.15C84.73,499.42,85.68,498.29,85.29,499.2Z"/><path class="cls-2" d="M63.11,509.72c.37.2,2-2.08,1.65-2.51A8.11,8.11,0,0,1,63.11,509.72Z"/><path class="cls-2" d="M59.73,509.44a2.69,2.69,0,0,0,1.05-1.9A10.27,10.27,0,0,0,59.73,509.44Z"/><path class="cls-2" d="M70.06,501.63a4.29,4.29,0,0,0,1.18-1.79A4.67,4.67,0,0,0,70.06,501.63Z"/><path class="cls-2" d="M74.84,495.61c.39-.32.5-.87.89-1.2,0-.27-.42.12-.69.27C75,495,74.91,495.3,74.84,495.61Z"/><path class="cls-2" d="M76.41,492.76c.55-.28.62-.95,1.07-1.32C77.48,491.1,76.33,492.13,76.41,492.76Z"/><path class="cls-2" d="M102.75,474.07c.08-.22,0-.17-.14-.11.09-.29.38-.42.61-.6.2-.49-.32-.6.26-1.17.16-.81-.72.91-.5.14C102.65,472.92,101.8,474.8,102.75,474.07Z"/><path class="cls-2" d="M103.58,471.72c.3-.13.39-.41.48-.71.26-.2.52-.4.49-.14.27-.25.29-.69.39-1.06l-.91.62C104,471,103.63,471.21,103.58,471.72Z"/><path class="cls-2" d="M107.55,468.63a3.67,3.67,0,0,0,.81-1.54A1.91,1.91,0,0,0,107.55,468.63Z"/><path class="cls-2" d="M83.75,483.62c.59-.71.07-1-.29-.79C82.86,483.73,83.65,483.32,83.75,483.62Z"/><path class="cls-2" d="M82,484.4c.72-.85,1.79-2,1.56-2.85C83.13,482.56,82.13,483.12,82,484.4Z"/><path class="cls-2" d="M84.51,482.31a10.27,10.27,0,0,0,1-1.9c-.47.54-.79,1.19-1.31,1.68C84.24,482.32,84.58,482,84.51,482.31Z"/><path class="cls-2" d="M87.64,480.18c.9-1.67,1.37-1.87,0-1.38A1.8,1.8,0,0,0,87.64,480.18Z"/><path class="cls-2" d="M111,463.15a3.2,3.2,0,0,0,1.18-1.79A4.16,4.16,0,0,0,111,463.15Z"/><path class="cls-2" d="M117.33,454.86c.73-2,2-3.22,2.11-4.61a32.34,32.34,0,0,0-2.32,4.16c-.21.11-.07-.32,0-.57C116.05,454.87,116.56,455.33,117.33,454.86Z"/><path class="cls-2" d="M94.05,468.9c.81-.8-.29-.74.26-1.17C93.91,467.33,93.7,469.08,94.05,468.9Z"/><path class="cls-2" d="M94.45,467.84a3,3,0,0,0,.86-1.78A3.67,3.67,0,0,0,94.45,467.84Z"/><path class="cls-2" d="M122.22,446.19l.74-.5c.12-.43-.11-.34,0-.81C122.76,445.34,122.32,445.63,122.22,446.19Z"/><path class="cls-2" d="M104,457.19c0-.39-.43-.07-.11-.92C103.26,457.06,103.1,458.47,104,457.19Z"/><path class="cls-2" d="M114.32,427.61a1.47,1.47,0,0,0,.73-1.89A7.9,7.9,0,0,0,114.32,427.61Z"/><path class="cls-2" d="M126.43,409.68c.76-.57.11-.95,1-1.67.49-.16-.28.83-.26,1.17a2.17,2.17,0,0,0,.73-1.88c-.34.45-.53.58-.74.5.17-1.05,1.2-1.42,1.34-2.49-.28.41-.49.89-1,1.09a4.48,4.48,0,0,1-1.65,2.51C126.06,409.12,126.84,408.49,126.43,409.68Z"/><path class="cls-2" d="M130.78,402.77l.74-.5c.2-.88.35-.81.31-1.4-.66.46-.74,1.92-.84,1A.77.77,0,0,0,130.78,402.77Z"/><path class="cls-2" d="M132.88,400.35c-.19-.13,0-.89.18-1.51l-.55.38a1,1,0,0,1-.29.59c.24.22.29,0,0,.81C132.53,400.37,132.52,400.64,132.88,400.35Z"/><path class="cls-2" d="M135,397.7c.14-.8.74-1.23.92-2-.67.65-.87,1.69-1.74,2.17C134.29,398.43,134.57,397.72,135,397.7Z"/><path class="cls-2" d="M136.26,394.29c-.19.65-.16,1,.34.56a2.62,2.62,0,0,0,.34-.82C136.82,394,136.58,394.06,136.26,394.29Z"/><path class="cls-2" d="M136.81,393.92c.33-.25.32,0,.68-.27.13-.42-.18-.39.16-.69,0-.28-.42.11-.69.26Z"/><path class="cls-2" d="M137,392.41c.06.22,1.4-.85,1.44-1.57A6.13,6.13,0,0,0,137,392.41Z"/><path class="cls-2" d="M144.49,382.56c0-.62.37-1,.49-1.52-.53.21-.5.88-1,1.09C143.9,382.63,143.84,383.14,144.49,382.56Z"/><path class="cls-2" d="M147.94,376.85a2.5,2.5,0,0,0,.95-1.43l-.74.5Z"/><path class="cls-2" d="M150.25,373.5c.55-.65,1-1.36,1.55-2,.22-.71-1.05.87-.82.16-.36.39-.12.44-.15.7C150.67,372.74,150.2,372.91,150.25,373.5Z"/><path class="cls-2" d="M151.06,370.58c.39-.32.36-1,.76-1.31-.31-.11-.66.34-1.16,1C150.58,370.68,151.23,370,151.06,370.58Z"/><path class="cls-2" d="M154.76,367.27c.33-1.39,1.4-2.16,2.12-3.22.05-1-1.33.95-2,1.14.27.46.48.21-.18,1.51-.79.54-.93.27-1.52,1.23C153.49,368.38,153.84,368,154.76,367.27Z"/><path class="cls-2" d="M154,366.39c.6-.7.94-1.62,1.6-2.28A3.43,3.43,0,0,0,154,366.39Z"/><path class="cls-2" d="M156.17,362.36c.32-.2.45-.55.78-.73.13-.66-.69.12-.48-.67a2.89,2.89,0,0,0-.57,1.18C156.61,361.56,156.45,361.43,156.17,362.36Z"/><path class="cls-2" d="M159.52,357.11c.36-.16.52-.49.79-.74-.25,0-.11-.55-.59-.19C159.93,356.43,159.64,356.48,159.52,357.11Z"/><path class="cls-2" d="M201.64,296.22a6.27,6.27,0,0,0,1.57-2.85c-.61.69-1.32,1.31-1.86,2.06C201.35,295.84,201.57,295.92,201.64,296.22Z"/><path class="cls-2" d="M211.82,277.82c.55-.2.52-.87.89-1.2C212.71,276.19,211.75,277.27,211.82,277.82Z"/><path class="cls-2" d="M224.12,259.76c.26.21,1.28-1.32,1.41-2.14A17.19,17.19,0,0,0,224.12,259.76Z"/><path class="cls-2" d="M230,251.05c.37-1,1.39-2.59,1.31-3.07C230.7,248.81,229.75,250.45,230,251.05Z"/><path class="cls-2" d="M240.86,233a18.48,18.48,0,0,0,1.36-1.92C242,230.82,240.92,232.16,240.86,233Z"/><path class="cls-2" d="M253.91,215c-.12-.18,0-.73-.1-.92a2.88,2.88,0,0,0-.58,1.19C253.57,215,253.55,215.26,253.91,215Z"/><path class="cls-2" d="M317.11,169.65c1.11-1.29,1.45-3.22,2.56-4.51C318.7,165.45,317.75,168.16,317.11,169.65Z"/><path class="cls-2" d="M319.59,164.79a2.67,2.67,0,0,0,1.05-1.89A6.67,6.67,0,0,0,319.59,164.79Z"/><path class="cls-2" d="M274.44,180.24c0-.24-.13-.32-.44-.1a19.91,19.91,0,0,0,1.75-3,14.53,14.53,0,0,0-2.36,3.58C274,180.2,274,180.54,274.44,180.24Z"/><path class="cls-2" d="M279.14,175.26c-.21-.14.13-1.11-.48-.66C278.2,175.33,278.56,175.66,279.14,175.26Z"/><path class="cls-2" d="M276.82,175.85c0,.27.42-.12.69-.27.18-.58.17-.88.07-1C277.19,174.86,277.31,175.6,276.82,175.85Z"/><path class="cls-2" d="M303.17,131.81a2,2,0,0,0,.5-1.52,2.9,2.9,0,0,0-.58,1.18C303.27,131.36,303.17,131.66,303.17,131.81Z"/><path class="cls-2" d="M304.08,128.42a1.49,1.49,0,0,0,.31-1.39C303.88,127.79,303.83,128.24,304.08,128.42Z"/><path class="cls-2" d="M306.6,125.53a34.42,34.42,0,0,0,2.93-4.77c-.54.1.16-.83.37-1.63C308.51,121.31,308,123,306.6,125.53Z"/><path class="cls-2" d="M309.87,119.93c.61-.51.75-1.41,1.1-2.13A3.63,3.63,0,0,0,309.87,119.93Z"/><path class="cls-2" d="M311.44,117.09a12,12,0,0,0,1.42-2.15C312.55,114.89,311.56,116.12,311.44,117.09Z"/><path class="cls-2" d="M313.2,115.49a7.38,7.38,0,0,1,1.45-1.57c0-.72.25-1.09-.43-.9C314.58,113.52,313.42,114.61,313.2,115.49Z"/><path class="cls-2" d="M310.21,111.39c.16.46.84-.93.94-1.43-.36.17-.52.49-.79.74C310.24,111.12,310.55,111.08,310.21,111.39Z"/><path class="cls-2" d="M318.2,105c-.08.22,0,.17.13.1l.37-.24c0-.74,1.49-2.39,1.78-3.79-.23.18-.32.17-.32,0-.37,1-1,1.8-1.25,2.83-.92.64,0-.6-.3-.79-.49.24-.14,1.17-.62,1.42C317.88,104.87,319,104.1,318.2,105Z"/><path class="cls-2" d="M312.2,108.06a14,14,0,0,0,1.91-3.67A24,24,0,0,0,312.2,108.06Z"/><path class="cls-2" d="M321,100.1c.35-.6.81-.24,1.34-1.11-.47.11-.53-.17-.06-1.15A6.71,6.71,0,0,0,321,100.1Z"/><path class="cls-2" d="M321.36,98.47a7.75,7.75,0,0,0,1.39-2.73A9.66,9.66,0,0,0,321.36,98.47Z"/><path class="cls-2" d="M326.61,90.35c0-.3-.54.3-.46-.09-.8,1.19-.92,2.92-2.09,3.8C324.81,94.62,325.6,91.33,326.61,90.35Z"/><path class="cls-2" d="M323.56,94.2c1-1.09,1.42-2.69,2-4.13C324.52,91.14,324.19,92.79,323.56,94.2Z"/><path class="cls-2" d="M324.39,90.48c.29.39.82-1.33,1-1.9C324.86,89,324.91,90,324.39,90.48Z"/><path class="cls-2" d="M325.26,90.08a6.23,6.23,0,0,0,1.8-3.21C326.71,88.14,325.6,88.8,325.26,90.08Z"/><path class="cls-2" d="M329.14,85.27c-1,.81-.48-.69.13-1.28.57-.27.07.7-.13,1.28.63-.22.48-1.07,1.07-1.33-.38-.79.51-3.7,1-5-.51-.32-1.21,2.73-1,3-.48-.19-1,1.29-1.05.51-.46,1.68-.68,3.21-1.25,5.6A5,5,0,0,0,329.14,85.27Z"/><path class="cls-2" d="M331.6,79.84c0,.27.41-.12.68-.27a8.66,8.66,0,0,1,.68-1.65c-.07-.15-.37,0-.22-.45-.29.31-.53.66-.83,1C331.77,79.07,332.44,79,331.6,79.84Z"/><path class="cls-2" d="M333.54,78.12c.33-.57,1-2,.13-1.27C333.38,77.65,333.67,77.57,333.54,78.12Z"/><path class="cls-2" d="M333.46,76.4c.1.58.55-.79,1-.86-.15-.37-.3-.17.07-1C333.91,74.93,333.86,75.81,333.46,76.4Z"/><path class="cls-2" d="M19,612.53c-.33.14.06-.81-.58-.2-.07.4-.33.64-.39,1.06,1-1.43.8,1.55.92-.63a29.07,29.07,0,0,1,3.33-4.44c.17-.93.43-1.09.89-1.2,0-.22-.33.09-.26-.22.31-.79.4,0,.92-.62-.22-.41.06-.75.15-2.08a6.15,6.15,0,0,0-1,2.24c-.72.23-.83,1-1.12,1.55-1.38.69-2.21,2.75-2.89,3.16-.24,1,1.1-.52,1.29-.88C20.13,611.24,19.15,611.54,19,612.53Z"/><path class="cls-2" d="M31.72,598.94a11.64,11.64,0,0,0,1.89-2.86c-.57.55-.41,0-.87.39C33.09,597.25,32,598,31.72,598.94Z"/><path class="cls-2" d="M34.73,594.52c.34-.52.31-.83-.21-.45.09-.29.38-.42.61-.61.29-.8,0-.72.12-1.27a14.84,14.84,0,0,0,2-3.33c1.54-.77,1.81-2.57,2.86-3.73.48.51-1.13,2.16-.75,2.69,1.09-2.16,2.35-3,3.27-5.59a1.76,1.76,0,0,0,1.31-1.68c.61-.25.78.26.38,1.13.37-.15.36-.62.65-.84-.45.17.08-1.15-.66-.54,1.17-1,1.5-2.63,2.41-3.82-.79,1.87-1.19,3.15-1.41,3.54.84-.15,1.53-2.79,2.15-4,.4.2,1.11-1.12,1.49-1.8,0-.23-.33.09-.26-.22a4.53,4.53,0,0,0,.28-.59c.16,0,.08.41.45.09,1-1.49,1.7-3.2,2.62-4.75.14-.06.13.11.32,0-.91,1.71-1,2.42-1.83,4,1.12-1,1.68-2.48,2.67-3.6,0-.62-.44.49-.73.5a3.62,3.62,0,0,1,.39-1.06c.74-.67.69.19,1.24-.64.11-.43-.12-.34,0-.81-.18.13-.21.39-.29.59-.43.29-.89-.22-.74.51-1.06.77-.39-.62.13-1.28-.38,1.06.91-.84.76.07.44-.37.28-1.23.68-1.64.61-.33-.06,1.1-.36,1.63-.11.59.64-.16.53.43.6-.52.73-1.43,1.36-1.92.27.27-.26.89-.18,1.51.81-.35.74-1.42,1.5-1.81,0-.51-.65.72-1.1.75a9.55,9.55,0,0,1,1.12-1.55c-.8.58-.67,0-.84-.42.07-.21.23-.36.29-.59.66-.69,0,.66.63,0,.08-1.13,3.16-5.07,3.46-4.34.07-.67.6-1.18.31-1.4.82-.78.61,0,1.19-.41-.66.84-1,2-1.71,2.74.65-.3,2.06-2.36,2.68-3.6.36-.24.09.48.63,0a4.83,4.83,0,0,1,1.7-2.74c-.27-.37.27-1.1-.42-.9.64-.3.65-1.32,1.55-2-.83.14.76-1.63.41-1.86,1-1.14-.1,1.07.71.31A3.09,3.09,0,0,1,69,547.3c.2.06.24.37.35.56-1,2-2.46,3.56-3,5.23.53-.21.41-1,1-1.1.78-2.94,3.48-4.31,4.4-7.14,2.16-1.74,4.19-6.47,5.61-7,.53-.68,1-1.39,1.55-2-.26-.78.92-1.72,1.39-2.72.15,0,.07.41.44.09-.3-.34.53-1.63.76-1.31.9-2.29,2.78-3.79,3.83-6-.56.42,0-.68.07-1,.37-.2-.17,1,.11.92,1.43-1.41,2.1-3.43,3.17-5.13.48.45,1.83-1.54,1.73-2.17.48-.15.55-.64,1-.85-.15-1.48,3.31-4.34,4-6.9,1.78-1,2.47-4.87,4-5.51a9.46,9.46,0,0,0-1,1.66c.64-.11,1.29-2.31,2.36-3.58.44-.52,2.19-2.24,1.83-2.63.09-.49.68-.55,1-.86.56-1.47,1.62-2.54,2.14-4a72.53,72.53,0,0,0,4.8-6.82c41.26-59.21,79.6-120.81,117.88-182.45.5-.4.37.16.35.56-3.39,4.21-5.51,9.45-8.83,13.72.06.54-.13.76-.5,1.52-.25.08.14-.35.16-.7-.63.59-.6,1.72-1.42,2.15-.17.68.43.17.29.79-1.91,1.46-3.67,4.7-5,7.52a29.53,29.53,0,0,0-3.87,6.2c-.23.18-.32.17-.32,0-1.66,3.5-5,7.62-5.84,10.1-.51.37-.28-.14-.74.5,0,.26.3,0,.5-.14-3.06,3.75-4.28,7.64-7.54,11.46.21.71-1.54,2.46-2.18,3.46-1.07,1.67-1.37,3.19-2.22,3.69a11.14,11.14,0,0,1-2.83,4.3c-.4.91.55-.23.16.68,0,.29-.95,1-.74.5-.27,1.25-1.2,1.95-1.62,3.08-.33.3-.31.06-.27-.21-.46,1.55-1.51,2.61-2.14,4-.6-.25-.12.06-1,.86.17.14,0,.7-.26,1.16-.13-.07-.36,0-.69.27,0,1.24-1.87,2.48-2.43,4.62-.32.23-.44.15-.45-.09-1.2,2.24-4.54,7.08-4.55,7.85-.63,1.14-1.77,1.86-2,3.33-1,.76-2.32,2.41-2.26,3.12-4.62,6.6-8.24,13.08-13,19.93-.14.41.08.28,0,.57-.56.41-.61.66-1.4,1.35-2,4.08-6.17,8.72-8.33,13.58-.33.25-.32,0-.68.26a43.07,43.07,0,0,1-3.17,5.13c.24.07,1.09.11.22,1.83-.58.27-.48-.26-1.24.64-.38.1.14-1.32.63-1.42.1-.91-1.26.85-.84,1-2,1.87-2.74,4.74-4.75,6.59.14.87-1,2.28-2.07,3-.15.44.05.34.27.22-1.55,1.85-2.71,4-4.28,5.87,0,.26.25.15.22.45-2.14,2.75-4.29,7.15-6.35,8.86,0,.23.19,0,.32,0-2.23,3.13-4.12,6.55-6.63,9.45-1.2,2.53-4,6.11-5.9,9-.3.81.41.1.11.91a2.09,2.09,0,0,1-.47.72c-.29-1.27-1.8,1.95-2.65,2.79.14.62.59-.76,1-.86s-.33,1-.44,1.29c-1.66.52-2.69,3.35-4.2,4.84-.3.81.4.1.1.91-.1.29-.39.41-.47.72-.23.1,0-.48,0-.81a2.5,2.5,0,0,0-1,1.67c.12.13.66-.39.4.32.37-.25.37-.8.84-1-.12.81-.88,1.11-.92,2-.78.28-1,1-1.44,1.58-.43-.11.85-1.13.86-1.78-1.21.81.15-.62.26-1.16-1.62,1.35-1,1.62-2.39,3-.06.42.59-.28.64,0s-.27.34-.42.49c0,.41.17.29.5-.15-.22,1.2-.95,2-1.18,3.17-.49.45-.71.75-.86.4-.51.78-.47,2-1.21,2.6-.4.31.1-.78.08-1-.58.44-.56,1.21-.26,1.16-.15.7-1,.86-1.13,1.56-.27.1,0-.63-.63,0,0,1.22-1.7,4.07-2.23,3.69-.47.81-1.21,1.4-1.33,2.49-1.18.55-1.5,2.5-2.29,2.54.19,1.58-2.6,3-3,5-1.16,1.35-1.93,3-3.15,4.32-.51.35.58-.93-.26-.22-1,2.9-3.38,4.59-4.59,7.27.33-.19.46-.55.79-.73s0,.38.27.22c-.77,1-1.8,1.84-2.52,2.9,0,.32.32-.2.55-.38.45-.12-.59.77-.45,1.29-.21-.08-.4,0-.73.5.15,1.54-2.13,2.64-2.57,4.52-.6.5-.77.35-.53-.43-.55.28-.62.95-1.07,1.32,0,.28.42-.12.69-.27a3.91,3.91,0,0,1-.69,1.65c-.31.16-.33-.11-.16-.68a24.06,24.06,0,0,1-2.41,3.81c-.26.1,0-.62-.63,0,.23,1.26-2.76,4.7-3.24,6.16-.6.15-1.45,1.65-1,.29-.57.71-.43.92-.25,1.16-.45.79-1.26.44-1.63,1.7.46-.17.47-.71.84-1-.09.29-.06.38.08.34-1.2,1.77-2.76,3.25-3.41,5.48-.34-.35-.39-.16-1.13.17-.16.71.52.14,1,0-.09,1.4-1.58,1.65-1.75,3-1,.9-.2-.85-.85-.42-.19.85.29.69.37,1.13-.21.88-.72.51-.84,1-.23.1,0-.48,0-.81-.51.56-1,1.69-.5,1.52-1.27.9-.85,1.2-1.94,1.72a5.58,5.58,0,0,1-1.65,2.51c.07.3.68-.21.29.79l.92-.62c.44-.65-.14-.59.71-1.08.15-.44,0-.34-.27-.22.75-1.09,2.88-4.66,3.13-3.5.39-.23.26-.89.44-1.29.67-.4.57.27.24,1,.33-.31,1.49-2.16.68-1.65.41-.86,1.21-1.39,1.33-2.49.37-.2-.17,1,.11.92.68-.41,1.37-2.66,1.63-1.7.46-.33.21-.8,0-.58a6.87,6.87,0,0,1,1.5-1.81c0-.26-.25-.14-.22-.44.17-.52.6-.8.77-1.31.13,0,.18.23.21.45a21.35,21.35,0,0,1,2.93-4.77c.46-.26-.34.57-.2.93.54-.38.59-1.16,1.25-1.45a4,4,0,0,1-1.54,2.05c.2,1-1.71,2.39-2.1,3.79,1.74-2.23,3-4.46,4.38-6.34,0-.61-.44.5-.74.5.39-1.44,1.35-.72,1.73-2.16-.29.3-.54.66-.83,1,0-.76.71-.88.67-1.64.42-.38.28.09.22.44.22-.27.31-.66.65-.84-.26-.66,2-3.54,3.12-4.89.53-.06-.68.7-.57,1.18a64.77,64.77,0,0,1,4.9-7.28c.23-.1,0,.48,0,.8.84-.5.75-1.44.5-1.52.62-1.13.39.31,1.23-.64.5-1.12-.77.46-.58-.2,1-1.48,1.58-3.3,3-4.42-.12-.92.54-1.41,1-2.48.56-.55.4,0,.86-.39a15.29,15.29,0,0,1,2-3.57c.42-.06-.45,1.08-.63,1.42a6.7,6.7,0,0,0,1.8-3.2c.61-.57.22.39.82-.17-.1.68-.79,1.31-.49,1.53a30.24,30.24,0,0,0,3.24-6.17c.86-.84,0,1,.71.31a29,29,0,0,1,4-5.52,3.41,3.41,0,0,1,1.42-2.14c.1-.46-.44,0-.16-.68,1.35-1,2.76-4.86,3.51-4.57,1.39-2.29,3.84-5.1,4.53-7,1.12-.83,1.47-2.29,2.71-3,.13-1.09,1-1.59,1.07-2.71.56-.55.4,0,.87-.39a142.64,142.64,0,0,1,8.51-12.33c-.1-.24,0-.82-.44-.09a77.63,77.63,0,0,0,7-10.28c.38-1,1.42-1.41,1.91-2.29,0-.22-.33.09-.26-.21a13.24,13.24,0,0,0,2.59-3.94l1.11-.75a81.4,81.4,0,0,1,7.26-10.88c0-.16-.14-.1-.08-.34,4.44-6.1,8.3-12.68,12.63-18.87.21-1.3,3.45-5.36,5.24-8.12,1-1.5,1.48-2.86,2.54-3.7l.21-.94c1-.34,1.34-2.47,2.62-3.36,1.49-3.38,4.92-7.3,6.86-11.2l.74-.5c2.54-5,6.12-9.15,8.62-14.17,1.74-1.7,2.41-4.27,4.14-6,.39-1.52,1.64-2.33,2.09-3.8a78.6,78.6,0,0,0,6.47-10.14c5-7.33,9.28-15.19,14.23-22.53l.21-.93c.14-.37.32-.24.31,0,2.33-4.13,4.22-7,6.55-11.18l.74-.5c.44-.78-.32-.66.67-1.65.26-.08-.13.35-.15.7.4-.43.84-1.26.63-1.41,18.79-29.42,35.58-58.91,53.74-88.59.05-.23.11-.46.16-.7,2.73-3.83,4.6-8.35,7.52-12,.36-.77.28-1.71.81-1.54a8.67,8.67,0,0,1,2-3.34c.07-.31.14-.62.2-.93a22.5,22.5,0,0,0,2.52-4.28c4.58-6.45,8-13.87,12.89-20l.21-.94a7.66,7.66,0,0,0,2.22-3.69c.34-.25.33,0,.69-.27-.21-.85.5-1.23,1-1.66a32.2,32.2,0,0,1,3.61-6.41c.32-.23.44-.15.45.09.42-.51-.09-1,.87-1.78,0-.22-.19,0-.32,0,.23-.64.82-1,.86-1.77.34-.3.31-.06.27.21a12.89,12.89,0,0,1,1.49-3.19c.67-.24-.21.74-.31,1.4,1.07-2.43,2.31-4.73,3.45-7.09l.92-.63c.2.4.16-.63-.5.14a26.85,26.85,0,0,1,1.59-3.65c.46,0,1.17-1.41.87-.4.5-.53,0-.89,1.18-1.79.26-1-.5.29-.73.5.46-1.55,1.59-2.55,2-4.14.2-.1.06.32,0,.58.31-.3.32-.84.84-1-.6,0,.25-.75.36-1.63,2.53-2.77,3.33-7.32,5.87-9.53-.26-1,1.1-2.9,1.69-4.12.42.35-.88,1.65-1,2.47.32-.2.45-.55.78-.73-.47,1.17-.74,2.51-1.28,3.64-.66-.61-1.73,2.7-2,3.33a22.38,22.38,0,0,0,4.24-7.83c.24-.1,0,.47,0,.8.63-1.18,2.11-3.51,1.51-4,.31-.79.57-.26.93-.63.87-2.38,1.71-3.7,2.66-6.36a39.42,39.42,0,0,0,4.63-8.89,18,18,0,0,0,2.69-5.79c2.53-3.32,4.61-10.61,8.54-14.51-1.61.52,1.23-3,.27-3.35.68-.92.52-2.52,1.63-3.09a35.09,35.09,0,0,1,7.1-11.55c.09-.65.21-1.35-.19-1.26a3.63,3.63,0,0,1,1.44-1.57,3.55,3.55,0,0,1,.86-1.77c-.22-.52.16-1,0-1.62-.41.22-.35.81-.71,1.08a28.06,28.06,0,0,1,6.08-9.08c-.28-.72.27-1.84,1.12-2.94a35,35,0,0,1,3.21-9.51l1.11-.75c-.65,0,.68-1.84.93-2.81.14,0,.29,0,.27.22a40.84,40.84,0,0,0,3.6-7.8c1.6-2.85,3.71-6.69,4.29-9.45,1.26-1.81,2.61-5.82,3.24-7.54a55.43,55.43,0,0,0,2.53-7.85c-.45.69-.69.53-1.11.75.11-.65.58-1,.68-1.65-.7.79-.69,1.36-1.31,1.68-.09,1.23-1.75,2.29-1.44,3-.14.53-.8.63-1.15,1-.64,1.23-1.33,2.41-2.05,3.56a35.94,35.94,0,0,0,1-3.62c-2.55,4.44-6.16,10.39-8.4,16A3.57,3.57,0,0,1,368,56.69c.09.12.25.13.45.09a14,14,0,0,0-.87,1.78c-1.13.34-1.44,3.15-1.61,4.46-.57.35-.3-.59-.19-1.26-.24.56-.93,1.2-1.16,1,.28-1.11.65-1.09.6-2-.47.25-.12,1.18-.76,1.3-.3.77.13.43-.07,1a2.11,2.11,0,0,1-.48.72c-.22-.17.06-1.11-.18-1.26A5.34,5.34,0,0,0,364,62c.16.72.82-1.06,1.18-1.79.34-.25.33,0,.69-.27.8-1.74.28-2.55,1.06-4.09.35,0-.29,1.58-.33,2.21.43-.65,1.16-2.12.6-2,1.34-1.56,1.89-3.77,2.69-5.79-.9.91-1.08,2.43-1.6,3.66-.25-1.13.94-3.46,2.07-4.37a11.36,11.36,0,0,1,2.25-4.5c1.84-5,4.84-9.08,6.85-14-.94.7-1.32,1.85-2.41,2.43a7.42,7.42,0,0,1-2.21,2.89c-.13.41.09.28,0,.57-.95.42-1,1.55-1.73,2.16-.4.24-.27-.31-.11-.91-.89.74-1.19,2-1.89,2.87-.63.6-.08-.6-.58-.21-1.1,1.26-1.07,2.41-2,4.14-.68.19.23-1.88.44-2.67a2.66,2.66,0,0,1-.79.74c-.05.22.18,0,.32,0-.3.85-.85,1-.68,1.65-.34.25-.33,0-.69.26a16.37,16.37,0,0,1-2.22,3.7c-.11.57.06.72.52.43A3.29,3.29,0,0,1,365,50.4a2.65,2.65,0,0,1-1.26.07c.85-1.52,1.71-4.09,1.4-4.92a44.11,44.11,0,0,1,4.17-6.79c-.92.17.33-1.37,1-2.24.46,0-.62.93-.62,1.42.91-.72.95-2.16,1.49-3.19.62-.55.06.67.68-.27-.33-.55,1.25-3,2.2-4.26.25-1.39,1.26-2.5,2-4.14-.38-.47-.94,1.23-1.31,1.68.52-1.44,1.95-4.88,3.85-6.77.39-1.93,4.3-6.74,3.34-8,1-1.21.72-2.15,1.62-3.08.26.14-.29.82.11.91,1.38-3.24,2.49-6.6,1.66-7.46-.65.53-1.64,1.59-1.79,1-1.31,1.32-2.78,3.84-3.94,3.67-.08,1-1.09,2.21-.75,2.69.22-.19.25-.53.34-.83.49-.16.12.21,0,.81a2.6,2.6,0,0,0-1.2,1.21c-.5.41-.54.09-.35-.55-.35.43-.56.91-.39,1.05-1.22.78-2.41,3.65-3.27,5.6-1.92,1.55-2.38,4.29-3.22,6.73l-.37.26c-.2-1.38,1.06-3.42,1.22-4.8-.42.21-.49.7-1,.86-1.21,3.65-2.71,5.36-4.13,8.75-.14.05-.13-.11-.32,0A11.76,11.76,0,0,0,367.47,26c-.51.32-.58,1-1.07,1.33.43,0,.19.52-.39,1.05a.48.48,0,0,1,.53.44c-.84.93-2.1,3.48-1.23,3.4-.07.6-.56-.12-.79.74-.21,0,.32-.82-.16-.69-.52.7-.4,1.73-.05,1.62-.21.56-.62.14-1.05.52-.42,1.11.19.64,0,1.38-.15.58-.62.46-.5.14-.62.66-.07.8-.08,1-.17.2-.82.81-1.1.75,0-.62.37-1,.49-1.52-.93.89-.74,1.73-.41,1.86a8,8,0,0,0-1.46,3.77c-.8.79-.3-.38-.77-.07.36-.82.78-1.58,1.15-2.37-.72.48-1,.27-.79-.65-.44.36-.56.91-.39,1.06-.39-.15-.58.84-1.11.75a11.08,11.08,0,0,1-1.72,3.55c-.37.11.26-1.23.76-1.31.07-.22,0-.17-.13-.11,0-.15.07-.31.1-.47A5.07,5.07,0,0,0,356,44.43c-.51.15-.52-.45-1-.29,0,.59-.11.52-.31,1.4-.6.55-.62.22-1.06.52-.18.54,0,.53,0,.8-.47.4-.31-.15-.87.4a24.22,24.22,0,0,1-2,3.33c-.61.25.11-.56.13-1.27-.53.39-.48,1.26-1.13,1.55.12.08,0,.57.21.45-1.95,2.44-3,5.61-4.92,8.1,0,.25.29,0,.5-.14a4.07,4.07,0,0,1-.5,1.52c-1.53-.1-2,3.75-3.16,5.12-.68-1.18.84-2.92,1.35-4.68-.72.62-.83,1.9-1.5,1.81-.1.47-.2.94-.31,1.4-.4.36-.45.17-.68.27.32-.47.33-1.2.81-1.54-.48,0,.12-.58-.11-.92-1.06.42-.42,2.23-1.52,2.62-.14,1.09-.31,2.22-.41,3.24-.65.59-.59.07-.53-.43-.72.33-.86,1.13-1.31,1.69.26,0,.33.32.06,1.14.31-.29.32-.84.84-1a3.76,3.76,0,0,1-1.18,1.79c-.16.7-.31,1.4-.47,2.1-.59,0-.1-.59-.92.62-.74.72-.09-.68-.76-.07.5.75-.35,1.59-.54,3.14-.81,1-1.52,2.07-2.39,3,.11,1.31-.44,2.45-.88,4-.72.67,0-.88-.29-.79A10.62,10.62,0,0,0,330,88.45c1.25-1.58.66-2.76,1.19-4,.32-.23.44-.15.45.09.43-.38.46-1.4.08-1,1.52-1.13,1.76-5.25,3.84-6.77,0,1.83-1.73,4.63-3,6.37.22,1.84-1.5,4.34-2.89,6.73a3,3,0,0,0-.49-2c0,.71-.47,1.08-.55,1.76-1.78,1.07-1,2.52-2.67,3.6a32.71,32.71,0,0,1-1.31,3.06c.44-.4.17.26.45.09a6.58,6.58,0,0,0-.68,1.65c-.78.63-.29-.5.08-1-.42-.06-1.36,2.3-1,2.47-.49.7-.69,1.64-1.55,2-.69,1-.67,2.57-1.54,3.43-.82.37-.5-1-.53-1.82-.8,1.34-.58,2.31-1.83,4-.68.44-.52,0-1,.86-.14.78.81-1,.68-.27a6.64,6.64,0,0,0,1-1.67c.53,0,.39.13,1-.86.21-.11.06.32,0,.58-.2.58-1,.67-1.21,1.21.12.09,0,.57.21.45a12.88,12.88,0,0,1-1.18,1.79c-.35.13-.31-.09,0-.57s.22-.07.55-.37c-.14-.25-.17-.66-.71-.31-.5,3.26-2.08,5.64-3.13,8.46-.26.2-.53.39-.5.14a11.57,11.57,0,0,1-1.46,3.76c-.46-.09.62-2.18.33-2.2.63-.28.76-.86.06-.24a40.8,40.8,0,0,1-3,5.81c-.85.26.91-2.12.38-2.44-.43.72-.72.84-.63,1.42-1.89,2.11-3.55,7.15-5,9.71-.53.39.56-1.67-.3-.79a4.43,4.43,0,0,1-.7,2.46,5.82,5.82,0,0,0,1.13-1.56c.14-.06.13.11.31,0-.46,1.28-1.63,2-1.85,3.44-.34.25-.33,0-.69.27-.23,1.09-1,1.76-1.39,2.72-.31.23-.43.15-.44-.09-.38.34-.35,1-.9,1.2-.15.44.05.34.27.22-2.21,3.29-3.52,5.63-5.45,9-.31.17-.33-.11-.16-.68-.38.51-.57,1.18-1,1.67-.38,1,.62-.11.3.79a4.55,4.55,0,0,0-1.52,2.61c-.47.4-.31-.15-.87.4,0,.43.4.11.35.55-1,.72-.5.86-1.29,2.26-.46.4-.3-.15-.86.39,0,.23.12.32.44.09-.53,1.29-2.57,3.42-3,3.05-.83,1.88,1.29-1.07,1,.28-.4.62-.47.3-1.15,1-.28,1-1.18,1.85-.89,2.58-.5.79-1,1.73-1.63,1.7-.08.39-.17.78-.25,1.16.79-.39-.14-.44.65-.83.2.86-1.88,3.25-2.54,5.08-.11-.45-.44-.46,0-1.38-1.19,1-.42,1.85-1.18,3.17-1,.5-1.13,1.65-1.51,2.62a7.26,7.26,0,0,0-2.07,3c-.47,0,.5-1,.49-1.52-.44.21-.09-.8-.48-.67-.22,1.29-1.08,2.77-1.19,4-.32.2-.49.72-1.08,1.32-.65.1,1.32-2.21-.06-1.14.09-.76.78-1,.87-1.78-.67.3-1.08,2.22-1.5,1.81-.13.77-.66,1.34-1,2.48-.53-.46-.68,1-1.63,1.7a26.11,26.11,0,0,1-1.59,3.65c.27.23,1.06-.53,1.21-1.22.41.45-.89,1.84-1.34,2.5-.32,0-.23-.64-.11-.92-.3,0-.65.48-1,.29.58.5-.51,1.18-.7,2.45.62-.13.5-.88,1-1.09-.36.62-.51,1.42-1.18,1.79-.25.08.14-.35.15-.7-.3.16-.56.72-.55.38-.64.51.29.56-.52.94.35,0,.81-.2.66.54-.56.87-.27-.11-.87.4-.16.6.12.54.34.55-.17.32-.47.54-.52.95-.91.72-.23-1-1-.52.06.33,0,.78.3.79-.1.84-1.07,1-1,1.9-.6.55-.62.22-1.05.52a6.59,6.59,0,0,1-1.47,2.38c.19.79-.81,2-1.44,3-.46.39.34-1.13-.4-.33-.09,1.12-.89,1.86-1.62,3.08-.33.86.54-.09.35.56-.61,1.11-.53-.11-1.24.65-.29.49-.34.73-.21.93-1.9,1.19-1.94,3.92-3.54,5.37.07,1-.26,1.3-.75,2.69-.2.33-.62.35-1,1.09-.48-.05.51-1.2.55-1.75a5.84,5.84,0,0,0-1.44,2.95c-.71.81-.6.28-1.24.65-.37.78-.84,1.05-.68,1.64l-.73.51c.57-.05-.52,2-1.47,2.38.14.93-.41,1.28-1.1,2.13-.23.91.13,0,.5-.14-.1.56-.54.84-.76,1.3-.78.46-.47,0-.53-.43a5.11,5.11,0,0,1-2,2,1,1,0,0,1,.28-.59c-.33-.07-1.28,1.69-1.78,2.4,1.43-1.74,1.66-1.08,3-2.81-.51,2.12-1.67,1.64-2.39,3,.33.17,1.51-.95,1.69-.55-.58.29-1.33,1.56-2,1.71,0,.72.26,1,.27,1.6-.36-.56-.91.36-1.6.9-.42.21.13-1-.53-.44,0,.48-.09.65.29.79-.29.49-1,1-.34.83a6.81,6.81,0,0,1-1.39,1.34c-.23-.13,1-1.66.36-1.63-.38,1.14-2.59,5.91-2.88,4.53-.37.52-.41,1.32-1,1.66.16,1.25-1.6,2.79-1.81,4.6-.66,0-1.08,1.31-1.23.64-.51.53.05.72-.36,1.63a14.87,14.87,0,0,0-2.52,4.28c-.48-.13-1.14,1.14-.94,1.43-.7.25-.83,1-1.39,1.35.33,0,.51-.28,1-.29a3.83,3.83,0,0,1-1.58,1.47c-.68.9.09.78-1.18,1.79.07.15.37-.05.21.45a7.18,7.18,0,0,1,1.73-2.17c-.86,1.31-1.76,2.6-2.59,3.94-.14.06-.13-.11-.31,0,.26-.7,1.28-1.63.91-2-.83.79-.81,2-2.07,3a1.39,1.39,0,0,1-.34.83c0,.23.13.32.45.09-.28,1-1,1.54-1.34,2.49-.56.54-.4,0-.86.39-.28.82.59-.13,0,.81-.62.54-.06-.67-.68.26-.22.59.28.1.21.45-2.63,2.19-4,6.17-5.87,8.15-.33.2.06-.71-.16-.68-.8.91-.86,2.42-2.07,3,0,.23.12.32.44.09,0,.56-.39.78-.44,1.29-.42.38-.27-.09-.21-.45-.53.4-.67,1.11-1.13,1.56,0,.25.29,0,.5-.14,0,.54-.47.72-.57,1.18-.16,0-.07-.4-.45-.09l-.21.93c-.46.4-.3-.15-.87.4-1,1.82-2.05,3.64-3.22,5.35l.55-.37c-.32.47-.33,1.2-.81,1.54s-.28-.1-.21-.45a13.1,13.1,0,0,0-1.91,3.67c-.47.07-.81.45-1.08,1.33.87-.73.34.1.16.68.94-1.74,1.79-2.15,2.78-4.06,0-.29-.16.13-.37.24-.05-.6.64-.58.58-1.18a6.27,6.27,0,0,0,1.47-1c-1.65,1.88-2.93,5.16-4.38,6.34,0,.16.14.11.08.34-.31.8-.15-.35-.68.27-.16,1.52-1.19,2.33-2,3.33.18.59-.34,1.32-.91,2-.11-.47,0-1.31-.56-1,.26-.59,1-1.42.68-1.65-.41.73-.48.7-1,.86.11.52-.27.95-.13,1.27-.29.69-.93,1.08-1.05,1.9-1,.35-1.74,2.16-2.36,3.58-.44-.27-.82.4-1.12,1.57-.21,0-.32-.05-.22-.46-1,1.05-1.3,2.61-2.22,3.7-.08.42.57-.26.39.32s-.8.44-.7,1.07c-.32.23-.44.15-.45-.09-.44.53.4.25-.39,1.06-.44.35-.68.41-.64,0-.39,1.06-1.82,2.42-1.62,3.09-.46.39-.3-.16-.87.39.42.32-.55,1-.52.95-.77,1.31-.49,2.12-1.81,3.21.25.53-.92,1.88-1.38,2.72-.16,0-.07-.41-.45-.09.08.89-.92,1.44-1.07,2.7.1.5,1-.64,1-1.09.27-.28-.23,1.06-.44,1.29.1.59.61-.75.84-1s0,.47,0,.8-1.09.71-1.17,1.79c-.47.35-.91.66-.82.16-.67.47-.75,1.42-1.5,1.81.07.3.44.29-.07,1-.24-.78.28-2.4.88-4-.44.56-1,1-1.44,1.57,0,.37.19.65-.39,1.06,0,.27.24.15.21.45-.34.94-.46.34-1.16,1,.67.29-1.33,3.52-2.17,3.46.34.26-.5.76-.5,1.52.63-.4.68-1.27,1.31-1.68.25.22-1,1.56-1.41,2.15.09.17.1.46-.08,1s-.48.26-.26-.21c-.52.55-.08.93.34.55.18-.49.62-.78.63-1.41.25-.07.39,0,.63,0-.35,1-1.31,1.5-1.65,2.51-.38,0,.06-1.82-.79-.65.51.06,0,.4-.26,1.17-.47-.2.22-.74-.87.39.22.27.26.41-.13,1.27-.71-.09-.69,1.48-1.67,1.94,1.34-2.22,2-4.24,3.93-6.43-1.05.54.86-1.81.09-1.85-.32.19-.45.55-.78.73.22.67-1.09,1.94-1.55,2,.73-.22-.2,1.11.61.77-.34.47-.43,1.12-.95,1.44s1-1.42-.21-.45c-.06-.6.64-.58.58-1.18-.34.25-.33,0-.69.26-.23,1.39-.78,1.43-1.26,1.46.55.45-1.31,2.45-1.91,3.67,0,.57.22.07.69-.27-.33,1.54-2,3.21-2,4.14-.63.61-.24-.34-.58-.2a23.2,23.2,0,0,1,1.89-2.86c0-.47-.14-.61-.53-.44a1,1,0,0,1-.47.72c0,.15.07.31.26.22-1.06.69-2.41,3.69-2.43,4.62-.4-1-1.18,1.05-2,1.14a1.82,1.82,0,0,1-.53,1c.15.62.6-.76,1-.86s0,1.09-.21,2.32c-.91.54.11-1.06-.19-1.26-.85.7-.42.73-.86,1.77.36-.18.39.14.58.2-.17.5-.75.67-.76,1.31.78-.56.73-1.79,1.73-2.16a9.14,9.14,0,0,1,1.31-3.07c.38-.19-.42.9-.58,1.18,0,.52.86-.75.48-.72,1.49.76-3.14,5.29-4.53,8.43.26-.2.53-.39.5-.14.47-.26.35-1,.89-1.2.26,0-.42,1.65-1,1.9.57-.14,0,1.72-.78,2.11-.21.16.41-1.29.81-1.54-.56-.06-.14-.69-.37-1.13-.67.66-.61.35-1.34,1.11.69-1.4,1.45-2,2-3.91-.82.52-.28-.31-1.24.64.25.15.92-.35.43.9a39.51,39.51,0,0,0-2.36,3.58c.44-.35.68-.41.63,0a14.39,14.39,0,0,0,1.13-1.56c.17.18-.16,1-.31,1.4-.33.3-.31.05-.26-.22-.86.9.21.56-.68,1.65-.25-.08-.17-.68-.48-.67-.32,1.66-2.41,3.71-2.77,5.46-.33.13-.19-.45-.82.15-.28.78-.89,1.3-1,2.25.45-.37.7-.45.87-.4-.39,1-1.06,1.7-1.39,2.72-.53.21-.38-1.19.55-1.75-.47.25-.23-.58-.71-.31,0,1.1-.73,1.78-1.41,3.53.55-.2.42-.94.89-1.2.31.29-.64,1.1-.73,1.88-.34.26-.32,0-.68.27.47,1-1.4,2.09-1.68,3.31-.83.13.54-1.65.28-2-.18.13-.2.39-.28.59-.66.7,0-.65-.64,0-.21.79-1.07,1.59-.49,1.52-.1.84-.92,1.09-1.18,1.79-.27,0-.32-.51.21-.93-.56-.22-1.14,2.6-1.92,2.29-.1.47-.21.94-.31,1.4.41-.36.45-.17.69-.27-.3.82-.56.64-1,.86-.18,1.52-1.4,2.2-2.91,4-.31,1.35-2.4,3.27-3.17,5.12.31.28.58-.7,1-1.09.19.53-1.06,2.25-1.62,3.08-.54.05.74-1.13.25-1.16-.52.44-.91.8-1.1.75-.15.53-.25,1.64-.39,2.44-.43.89-.76.35-1.29.87-.32.4-.8,2.07-1.12,1.56a14.87,14.87,0,0,1-2.52,4.28c-.74.67,0-1-.71-.3-.48,1.18.6,0,.24,1s-.91.61-1.47,1c-.18.59-.69.91-.94,1.43-.09-.27-.38-.25-1,.29a.55.55,0,0,1-.16.7c-.09.57.39-.54.74-.5-.08.67-.61,1-1,1.43-.07.52.69-.49.79-.74.2.07.23.38.35.56-.44.7-.7.53-.58,1.18-.82.55-.11-.37-.35-.55-.67.6-.27.78-.25,1.16-.44.93-1.16,1.63-1.65,2.51-.24-.1-.06-.84-.25-1-.62.72-1.64,1.05-2,2.18a4,4,0,0,0-2.32,2c.45-.37.87-1,1.11-.75a4.5,4.5,0,0,1-1,1.66c-.1.46.44,0,.16.68.43-.71,1.66-1.74,1.42-2.14.22,0,.51-.05.34.55-.37.65-.66.14-.76,1.31-.65.69,0-.66-.62,0,.49.18-.16,1.15-.87,1.78,0,.64.47,0,.74-.5-.07.4-.34.64-.39,1.06-.3.08-1.15,1-1.06.51-.24.29-.63,1.83-.89,1.2-.51.5,0,1.38-.78,2.12-.24.1,0-.48,0-.81-.63.87-2.08,2.22-1.89,2.87-.11.3-1.06,1.48-.73.5-1,1.61-1.9,4-1.46,5.14a6.79,6.79,0,0,0-.76,1.31c-.69.54,0-1-.89-.18.29-1.06.47-.92.94-1.43.33-1,.22-1.36-.43-.9,0,.22.19,0,.32,0a3,3,0,0,1-1,1.67c-.47.26.34-.58.2-.94-.59.26-.44,1.11-1.07,1.33.44.83-1.32,2.45-2.49,3.47-.15.77,0,1.62.84.42-.54,0,.07-.62.58-1.18.24-.1-.08.39-.29.59.5-.06,1.49-2.08,2.2-2.89-1.43,3.26-4.67,7.38-6.68,11.07-.2.11-.06-.31,0-.57a2.2,2.2,0,0,0-.82,1.54c-.62-.05-.53.68-1.2,1.22-.51.41.46-1.43-.35-.56,0,1-.49,1.17-1.47,2.39a2.4,2.4,0,0,1-1.28,2.25c-.09.85-.69,1.27-.78,2.12-2.18,1.17-3.72,5.13-6.32,8,.35.15.06,1.17-.58,1.19-.32.84,0,.77.11.91a2.19,2.19,0,0,1-.47.72c-.15-.25-.49-.19-.24-1-.94.83.39.7-.81,1.54.29.66-.09.84-.73,1.89-.4.23-.27-.32-.11-.92-.76,2-2.8,4.38-2.8,6.25-.41,1-.63.8-1.07,1.33-.53.33-.1-.78-.72-.31-.25.8,0,.8.3.79-.65.82-.29.76-.68,1.65-.71.25-.41-1.26.15-2.08-.35.29-.33,0-.13-.11a8,8,0,0,0-3.26,4.79c-.6.51.19-1.12-.52-.44,0,.93-1.63,2.37-2.36,3.59-.12.43.11.33,0,.8-.15,0-.07-.4-.44-.09-.41.67,0,.29-.21.93-.19.08,0-.37-.27-.21-.78.55-1.06,1.52-.68,1.65a.9.9,0,0,0-.42.48c-.2.11-.06-.32,0-.57-1.11,1.66-3.32,3.88-3.53,5.37-1.44,1.34-.67,1.3-1.55,2-.07,1.33-.53,1.83-1,3.28.45-.27.65-.75,1-1.09-.12.73-.82,1-1,1.66-.21.12-.06-.31,0-.57-.78,1.11-1.79,2-2.57,3.14-.21.1-.06-.32,0-.58a4.6,4.6,0,0,0-1,1.67c.36,1.15-3,3.93-3.69,6.07,1.48-2,2.91-4.05,4.46-6a9.18,9.18,0,0,1-1.41,2.15c.13.53.68-.87,1-1.09-.11.47-.21.93-.31,1.4-.34.25-.33,0-.69.26-.81,1.64-.14,2.06-1.59,3.66-.34,0,.5-1.41.6-2-.19-.07-.64.24-.58-.2a4.62,4.62,0,0,1-1.18,3.17c-.31.17-.33-.11-.16-.68-.72.56-.34,1.86-1.25,2.83-.67.61,0-.78-.77-.07-.07.22,0,.17.14.11.2.1-.6,1-.08,1-.27.27-1.15,1.4-.63,1.41-.32.37-.44.93-.89,1.2-.27-.15.31-1.59-.14-1.49-.21.51-.52,1.23-.73,1.89-.46.39-.3-.16-.86.39-.62,1.15-1.42,2.14-2.13,3.22-.4.25.37-.75.26-1.17-1.11,1.22-.38,2.25-1.8,3.21-.18.41-.05,1.06-.45,1.29-.09.57.39-.53.74-.49,0,.23-.1.46-.16.69-.95.87-1.4,2.16-2.38,3-.37-.23.55-1.73,1.23-2a4.79,4.79,0,0,1,.68-1.65c-.36.6-1.78,1.61-1.89,2.86-.68.57-.27-.51-.95,0,0,1.07-1.41,3.16-2.48,4.86-.52.22.28-.62.2-.93-.49.77-.5.24-1.1.75-.43,1.12-1.24,1.92-1.62,3.08-1.29,1-.77,1.37-1.6,3.66a12.56,12.56,0,0,1,1.47-2.39c.16-.44,0-.34-.26-.21a3.8,3.8,0,0,1,.94-1.43c.39-.33-.19.7-.34.82.37-.07,2.15-1.36,2.28-2.54.78-.27,2.07-2.29,2.68-3.6.47-.27.49.07.65-.84a18,18,0,0,0,4-5.28c.5.29,1.39-1.89,1.47-1a8.31,8.31,0,0,1,.87-1.78c-.33.2-.46.55-.79.73.17-.41.4-.77.57-1.18.2-.05.31,0,.22.45.52-.31.68-.91,1.2-1.22.14-.41-.08-.28,0-.57.47-.26.91-.55.9-1.2.29-.22.67-.37.78-.74.46-.39-.34,1.14.4.33-.06-1.11,2.21-4,3-4.42.58-.53-.07-.38.2-.94a3.59,3.59,0,0,0,.29-.59c.6-.55.45,0,1-.51.34-1.51,2.24-3.53,3.49-5.14,0-.63.37-1,.49-1.53-.88.67-.22.9-1,1.67.07-.6,0-.43-.58-.2.32-1.5,1.23-2.34,1.78-2.4-.07.67-.93.71-.94,1.43.53-.79,1.16-.86.94-.05.75-1.14,1.69-2.12,2.44-3.24.16.62.11.34.87-.39a3.57,3.57,0,0,1-1.44,1.57c-.08.43.57-.25.4.33a21.47,21.47,0,0,1,1.36-1.92c.11-.58-.52,0-1,.28a16.61,16.61,0,0,0,1.8-3.2c-.08-.28-.5-.06-.52-.44.6-1.14.36.26,1-.51.25-.09-.14.35-.16.7,1.15-.69,2.41-3.29,3.73-4.12.52-1.78,1.75-3,2.7-4.4.66-.22-.35,1.21,0,1.61,1-.88.44-1.7,1.26-1.45q0-.75-.66-.54a16.48,16.48,0,0,1,2.54-3.71c-.26-.79.75-1.87,1.39-2.72.2-.11.06.32,0,.57s-.51.51-.79.74c-.09.29,0,.38.08.34,0,.15-.07.31-.11.46.61-.52.65-1.49,1.5-1.8-.1.56-.54.84-.76,1.3.22.51.87-.92,1.21-1.22-.2,1.62,1-1.3,1.86-2.05-.25-.1-.49-.63,0-1.38,0,.76.64-.2,1.08.05a.93.93,0,0,1,.29-.59c-.59,0,.24-1.13,0-1.61.37-.45,1.76-1.67,2.07-3,.61-.51.39.23.53.43a22.47,22.47,0,0,1,2.05-2.19l.21-.93-.74.5c-.06,1-.92,1.27-1.36,1.92.26-1.07,1.23-1.57,1.52-2.62.8.67,1.63-1.67,3-2.8-.44.46-.6,1.15-1.12,1.55.3.32,1.14-1.25,1.49-1.8-.07-.31-.29-.38-.29-.8.54-1,.67-.21,1.05-.51a1,1,0,0,1,.47-.72c-.4-.35.16-1.2,1.18-1.79-.8.2,0-.38.18-1.51,1-.73-.52,1.54.66.54-.29-.69.29-1.27.29-2,.89-.63-.36,1.27,0,1.15a2.81,2.81,0,0,0,.73-1.88c.82-.59-.23.72.16.68,1.51-1.2,1.26-2.11,2.1-3.8.43-.3.45,0,1-.52.2-1,1-1.56,1.34-2.49.33-.09.26.43.52.44,0,.34-.26.51-.34.82-.53.5-.24-.24-.39-.32a14.85,14.85,0,0,1-1.57,2.85,8.28,8.28,0,0,0,1.73-2.17c.59-.46-.62,1,0,.57-.68.73-1.17,1.62-1.79,2.4,0,.23.33-.09.27.22-.31.79-.4,0-.92.62a1.75,1.75,0,0,1-.53.95c.79.73-1.34,1.6-1.43,3-.61.51-.31-.47-.87.39-.07.73.64.26.56,1,.51-.32.58-1,1.07-1.33,0-.25-.29,0-.5.15a4.16,4.16,0,0,1,1.18-1.79c.32.08-.26.65-.08,1a12.37,12.37,0,0,0-1.28,2.25c-.6.51-.31-.47-.87.39.23,1.92-3,5.28-4.5,7.62-.26,0,.11-1-.29-.79,1.51-2.07,3.16-4,4.51-6.23,0-.52-.77.61-.71,1.07-.59.37-1,1.15-.82.16-.34.64-.67,1.29-1,1.9-.27,0,0-.79-.76-.07,0,.86-.23.95-.86,1.77-.61.56-.21-.4-.82.16a11.77,11.77,0,0,0-2,3.9c-.1-.1-.47.21-.45-.09.15-.65.38.22.47-.71-1,.86-1.44,2.12-2.39,3l-.36,1.64c-.41.22-.61.1-1.23.64,0,1.09.74-.12,1.13-.18-.2.85-1.32.95-1.36,1.92-.83.63-.07-1.14-1-.29,0,.22.18,0,.31,0a19.14,19.14,0,0,1-2.78,4.07c-.19.95.87,0,1.24-.65-.31.76-.11,1.94-.84,2.35-.46.13.41-.8,0-.8s-.31.84-.84,1c0,.61.39.21-.13,1.28q-.61.47-.39-.33c-.93.78,0,1.31-.92,2-.38.11.24-1.29-.48-.67-.29.81,0,.73-.12,1.28a2.31,2.31,0,0,1-.47.71c-.24-.13.41-1.13-.06-1.14-.57.93-.64.55-1.53,1.23a29,29,0,0,0-2.93,4.76c.19-1.4-2.17,2.66-3.18,3.75-.3-.36,1.15-1.63,1.21-2.6-1.29,1.2-1.43,3-2.55,3.7,0,.26.3,0,.5-.14,0,.74-.6,1-.67,1.65-1.55.82-2.09,3.09-3.13,3.51-.77,1.88-1.78,2.58-2.19,4.26.45-.63.22-.13.73-.5-.86,2.32-2,2.3-2.63,2,0,.66.49.5.56,1a25.56,25.56,0,0,1-1.73,2.16c-.36.13.46-1.06.49-1.52.28-.07-2,2.52-2.25,3.11-.34.37-.7.08-.26-.21-.34-.23-.48.71-.71,1.07,0,.25.29,0,.5-.14-.94,1.49-3.24,3.12-4.17,5.41l-.92.62c-.11.47-.57.64-.58,1.18-1.72,1-2,3.11-3.72,4.12a11.57,11.57,0,0,1-3.52,4.57c.43-1.16.32-1.33.65-2.23-1.15,1.8-1.88,4-2.88,4.53.6.4,0,1.9,1,1.91-.66.84-1.42,1.59-2.1,2.42.65.38,2.38-3.11,3.05-2.47-.08.48-.67.55-1,.86.33.47-.93,1.48-1,2.47-.15-.29-.31-.56-1.13.18.37.18.07.8-.23,1.74-.62.35-1.63,1.11-1.26,1.45-.61.51-.61,0-1.11.75-.49.16-.13-.21,0-.81A8.27,8.27,0,0,0,46.19,538c-.63.44,0-1-.66-.54-.11.4.27,1.08-.5,1.53.09.23-.05.8.59.19-.52,1.14-.47.93-.37,1.64,0,.54-.83.42-.84,1-.28,1,.56-.24.87-.39-.26.52-.76.85-.94,1.43-.42.23.13-1-.53-.43.14.45-.71,1.37-.66.84-.18,1.49-1.64,3.13-3.14,4.32.12.18,0,.74.11.91.63-.65.42-.3,1.1-.75.2-.55-.17-.26-.45-.09a27.79,27.79,0,0,1,3.41-4.1c-.59,1.45-1.94,2.27-2.54,3.71a15.35,15.35,0,0,1,1.63-1.7c-.32.84-1.14,1.28-1.15,2.37-.42.22-.17-.58-.77-.08-.07.4-.33.65-.39,1.06-.42.38-.28-.1-.21-.45-.37.25-.38.8-.84,1,.26.49-.74,1.47-.42,1.87-.86.8-.42-.38-1.13.18-.27.89-1.61,2.34-1.91,2.29-.49,1.3-.91,1-1.42,2.15-.52.22.29-.62.21-.93-1,.78-1.33,2-2.2,2.88,0,.55,0,.69.24,1-.46.55-1.09,1.79-.79,2.12-.66.69,0-.66-.63,0-.43.47-.54,1.21-1.13,1.56-.27.82.19.49-.26,1.17-.6.41.11-1.19-.18-1.26.07-.58,1-.48.89-1.2-.43-.08-1.32,1.37-1.6,2.27-.57.55-.41,0-.87.4-.36,1.08-1.3,3.14-1.81,3.2-.27.26-.1.42.08.34a3.78,3.78,0,0,1-1.49,1.81c0,.62-.47.9-.5,1.52.29-1,1.48-1.18,1.6-2.27.68-.26.32.6,1.37-.53-.23,1.39-.91,1.31-1.13,1.56-.14,1,.71-.53,1-.29a1.11,1.11,0,0,1,.71-1.07c.06-.67.51-1,.26-1.17-.54.47-.69,1.11-.92.63.16-.52.83-.61.89-1.2.47-.11,0,.76.82-.16-.7,0,.54-.79.94-1.43.15,0,.43.45,0,.8.32-.51,1.52-1.31,1.91-2.29,1-.22,1.37-1.63,2.26-1.73.49-1,.12-1.13.79-2.12.23-.1,0,.48,0,.81.94-.43,1.19-1.42,1.87-2.06,0-.42-.18-.3-.5.14,0-.76.83-1.27.49-1.52a.63.63,0,0,0,.74-.5c.49-.16.13.21,0,.8.87-.76,1.18-2,2.29-2.53-.49-.89,1.19-1.08,1.15-2.37.3.51.66-.63,1-.52A3.83,3.83,0,0,1,41,553.64c.17,1-1.39,2.36-2.44,3.24.15.23.31.45,0,1.38.5-2.23,4.33-4.39,4.22-7A25,25,0,0,1,45.23,548c0-.41-.18-.3-.5.14.1-.47.2-.93.31-1.4a2.67,2.67,0,0,1,.84-1c-.14.71-.73,1.06-.73,1.88.53-.39.86-.95,1.39-1.34l.21-.94a4.83,4.83,0,0,1,.65-.84c.4-.24.27.32.11.92,1-1.24-.18-1.23,1-2.48,0-.23-.13-.32-.45-.09a2.78,2.78,0,0,1,.58-1.18c.12,1.17,2.1-1.48,3-2.23-.53,1.18-2.66,3.49-2.09,3.79-.7,1.09-1.64,2-2.26,3.12.31.41,1-1.21,1.45-1.58-.38,1-.53.88-.55,1.76-.87,0-.76,1-1.6.9-.35,1.09.17.87.61.77-.34.78-.77.47-1.11.75-.12.54-.47.9-.49,1.52-.57.55-.41,0-.87.39-.2,1.06-.29.48-.9,1.21-.34,1-1.06,1.7-1.38,2.72-.64.61-.25-.35-.58-.2.46-1,1.84-2.33,1.2-2.6a8.66,8.66,0,0,0-.68,1.65.57.57,0,0,0-.5.14c-.22,1-.3,1.2-1,1.67-.43,1.21.56.27.14,1.49a3.59,3.59,0,0,0-.29.59c-.61.5-.39-.23-.53-.43-.63.22-.66.93-1.21,1.22-.16.44,0,.34.26.21-.54,1.2-1.87,1.77-2,3.33-1.51,1.77-2.19,3.48-3.69,4.69-.06.87-.71,1.26-1.05,1.9.18.47.42.27.24,1a6.81,6.81,0,0,1,1.47-1c-.07-.65-.19-.25,0-1.14.42-.86,1.16-1.44,1.33-2.49.55-.27,0,1.15.14,1.49.45-.3,1.11-1.83,1.39-1.35.89-1.11,1.2-2.69,2.49-3.47-.27.88-.86,1.5-1.15,2.36.37-.42.61-1,1.21-1.21-.15-.42,0-.59.47-.72.43-1.76,2-2.55,2.78-4.06.6-.62.21.3.16.68.55-.28.62-1,1.07-1.33a2.34,2.34,0,0,0-1.55.66c-.13,0-.18-.23-.21-.44a9.82,9.82,0,0,1,.89-1.2c.27-.1,0,.62.63,0,.19-.54,0-.53,0-.81s.4-.4.47-.71c.57-.21-.1.5.16.68-.18.68-.94.88-1,1.66,3.95-5.31,7.58-10.88,11.7-16.06-.32-.8,1.15-2.37,1.78-2.4,0-.6-.71-.26-.74-.88.54-1.14,1-.62,1.49-1.81.21-.11.06.32,0,.58.67-.84.95-2,1.71-2.74,0,1.64,1.8-1.82,3.28-2.83.34-.83-.32-.13-.63,0,1-1.42.63-.72,1.68-1.93,0-.31-.54.3-.45-.09a2.79,2.79,0,0,1,.84-1c-.1-.16-.11-.46.07-1,.31-1,.72-.27,1-1.43.31-.16.33.12.16.68,1.61-2,1.59-1.49,3.14-4.31.21,0,.32,0,.22.44.71-2,2.19-3.35,3-5.22.14,0,.29,0,.27.21a6.24,6.24,0,0,0,.83-2.35c.51-.46.64-.35.4.33,1.26-2.28,3.41-3.83,4.11-6.56.61-.56.21.4.82-.16-.11.47-.57.64-.58,1.19,1-1.77,2-4.19,3.69-6.08-.11-.5-1.13,1.25-.76-.07a6.57,6.57,0,0,0,2-2.18c-.07-.88-.53.72-1,1.09.14-.9.75-1.42,1.11-2.14a1.44,1.44,0,0,1,.42.91c1.09-1.89,1.46-3.6,3.09-5.47.18-.08,0,.38.26.21s.46-.54.79-.73c.18-.86-.06-.52.31-1.4.17.05.43,0,.87-.39a20.6,20.6,0,0,1,1.7-2.74c.45-.28-.13.74-.34.83.86-.36,1.38-2.26,1.31-3.07.79-.79.42.18.29.79.83-1.25,1.1-3,2.15-4,.38-.34,0,.88-.34.82.43,0,1-.59,1.57-1.46-.16.29-.61,1.15,0,.57-.16.42-.62.6-.57,1.18.63-.39.78-1.2,1.31-1.68-.33.09-.35-.66.26-1.16,0-.3-.26.25-.55.37a8,8,0,0,0,.88-2.58c.74-.71.1.68.77.07.13-.7.73-1.61.41-1.86a35,35,0,0,0,3-4.19c-.15-.14-.44-.07-.11-.92.76-.27.28.91,1.36-.53,0,.69-.54,1-.81,1.54.39.21,1-1.71,1.6-2.28-.07-.15-.37.05-.21-.45.52-.46.68-.93,1.34-1.1.29-.81-.17-.47.13-1.28.3-.57,1.27-.57,1.36-1.91.46-.4.3.15.87-.4a2.81,2.81,0,0,1-.76,1.31c2.42-2.15,4.58-6.91,6.92-10,.2.11.17.57.06,1.15.51-.59.73-1.42,1.36-1.91.16-.61-.12-.54-.35-.56,1-1.58,3.59-4,3.75-6.3.65-.29-.17.8.11.91.77-1.14.92-1.41,1.6-2.27,0-.27-.25-.15-.22-.45.65-1.28,2.72-2.66,2.55-3.71.43-.3.45,0,1-.52.27-.6.31-1.39,1-1.66-.15-1.39,2.19-3,2.62-4.75,0,.24.7-.45.63,0,.45-1,.79-2.11,1.84-2.64a3.46,3.46,0,0,1,.44-1.29.57.57,0,0,0,.5-.14c-.1-.33.54-1.31.47-.72a6.9,6.9,0,0,1,1.65-2.5c-.43,0-.14-.5.27-1.17.2-.11.05.32,0,.57.7-.81,1.14-1.82,1.84-2.63-.14,1-.68.88-.5,1.53a5.72,5.72,0,0,0,1.13-1.57c.23-.09,0,.49,0,.81-.44.66-1.3,1-1.36,1.92.43-.86.74-.09,1.15-1,.45,0,0,.72-.31,1.4-.37.19-.23-.38-.35-.56-.63.55-.45,1.06-.49,1.52a4.94,4.94,0,0,1-1.31,1.69c.94-1.28.22-1.33,1-2.25,0-.52-.87,1.06-.4-.32.24-.86.31.48.55-.37.33-1.17-.08-.24-.63,0a2.19,2.19,0,0,1,.47-.72c-.76.58-1.9,3.22-3,4.43.64-.07-.37.74-.07,1a13.47,13.47,0,0,0,1.39-2.73c1.17.28-1,3-1.39,4.11-1.2,1.06-.7-.47-1.58.09.4.4-.9,1.09-.91,2,.3-.61,1.49-2.07,1.52-1.23-1.09.65-.38,1.12-1.6,2.27-.68.57-.27-.52-.94.05-.09.39-.18.78-.26,1.17.26-.2.53-.4.5-.14-.78,1.94-2,3.51-2.91,5.34.67-.28.78-1,1.26-1.46-.43,1.19-1.44,3.13-2.25,3.12a3,3,0,0,0,.68-1.65c-.12-.4-.65.8-.69.27-.67,1.18-.76,2.56-1.89,2.87,0,.63-.44.92-.76,1.3.12.08,0,.57.22.45-1.09,1.13-2.11,3.79-3.1,4.09-.48.8-.87,1.66-1.33,2.49-.14-.06-.19-.24-.21-.45-.59.56-.06.67-.26,1.16-.7.55-.64-.06-.67-.54-.65.73-1.17,1.86-1.81,1.83.11.45.83,0,.56,1,.94-1-.31-.88.91-2,.42,0,.4.38.06,1.14-.78,1.48-2.32,2.33-3,3.86-.7.21.17-.77.31-1.4a4.26,4.26,0,0,0-1,1.9.6.6,0,0,0,.51-.15c-.24.54-.59.54-.34.83-.94.79-.91,2.38-2.21,2.88.23.36-.72,1.9-1.18,1.79.19,1.05-1,2.72-1.9,3.67-.14.42.08.29,0,.58-.83.75-1.32,2-1.76,1.59L102.5,478c-1,1.05-.2-.72-.9-.18a4.85,4.85,0,0,1-1.47,2.38c.15.29-.12,1.21,0,1.62-.59.28,0-1.29-.79-.65.64.52-.91,2.8-1.92,3.67-.47,1,0,1.23-.78,2.12-.21-.23,0-1.13-.63,0-.32,0-.2-.63,0-1.38a.48.48,0,0,0-.23.36l-.37.25c-.2.71.26.43.06,1.15-.41,1.07-.86.52-1.71,1.36-.17.86-1,1.22-1.23,2a3.41,3.41,0,0,0,1.55-2c.15.12.59-.18,1-.52-.58.72-.22.87-1.13,1.56-.39.91.56-.23.16.68-.84.52-1.86,2.26-2.81,3.49,0,.36.91-.88,1.08-1.32.68.17-.55,1.88-1.2,2.6-.67.27.8-1.28.21-.94-.94.63-.23.9-1,1.67,0-1.56-1.71,2.82-3.12,3.51a30,30,0,0,1-1,3.28c-.53-.57-1.92,2.75-2,3.33-.27.2-.54.4-.51.14,0,.46-.71,1-.91,2-.87.18-.83,1.24-1.52,2.62-.33.13-.18-.44-.81.15-1.12,2.52-2.22,3.47-3.51,5.95-.35.13-.21-.45-.69.27.51.46-.59,1.42-1.31,1.68.65,0,.18,1.35-.65,2.23-.54,0,.74-1.13.26-1.17-.32.19-.45.55-.79.73,0,.41.45.09,0,.81-.25.13.09-.65-.22-.45-.92,1-1,1.53-.67,1.65-.48,1-.42-.34-.92.63.4.14,0,1-.42,1.86-.6,0-.38.55-1.15,1,.28.23-.34,1.11-.82,1.54-.2-.07.17-.44-.21-.45.24.61-2.07,3-1.17,3.17-.62.51-.46,1.64-1.1,2.13-.63.28.18-.76.18-1.51-.54.57-.83,1.35-1.37,1.92.65,1-1.35,3.09-1.64,3.89-.22-.26.26-1.21.36-1.63.33-.3.31-.06.27.21.67-.66.17-.71.68-1.65-.87,1.13-1,1.49-2.18,2.08-.33.86.36.16.34.56-1.19.68-3.42,5.27-4.61,6.7-.11.27-.72,1.69-.13,1.27-.32,1.16-1.44,1.54-.92,2-.52.39-.31-.35-.52-.44.12-.35.5-.5.79-.73.1-.77-.71.09-.06-1.15a10.76,10.76,0,0,0-1,2.47.62.62,0,0,0-.5.15c-.16.77.41-.25.58.2-.23.64-.83,1-.86,1.77a91.08,91.08,0,0,0,5.82-7.92c.66-.68,0,.67.63,0,.44-.68.15-.6.26-1.16.74-.51.24.86.08,1.72-1,1.51-2.75,2.74-3.61,5-.34.55-1,.87-1.26,1.45.63-.26.49-.15-.34.83-.28.73.26.22.16.68-1.4.94-1.21,1.56-2,2.76-.47.39-.31-.16-.87.39.34.16.17.87-.49,1.52-.47.39.33-1.13-.4-.32a.93.93,0,0,1-.47.71c.09.12.08.4,0,.81a21.46,21.46,0,0,1-2.88,3.15c.36.76-.92,1.08-1.1,2.13-.5.17.37-.75.26-1.16a8.74,8.74,0,0,1-1.37,1.91c-.17.41,0,1.07-.44,1.3.5,0,.32.23,0,1.38.82-1.44,1.62-1.67,2.07-3,.74-.42,0,.63.58.2.28-.88.11-1.09-.24-1a9,9,0,0,0,.62-1.41c.47.3,1-1,1.31-1.69.59-.23-.25,1,0,1.39a1.56,1.56,0,0,0,.44-1.3,4.32,4.32,0,0,0,1.58-1.46c-.19-.13,0-.89.18-1.51.37,0,.41.4,1.13-.17.12-.64.65-.94.94-1.44,0,.32.48,0,.59.2a44.26,44.26,0,0,1,3.9-5.62c.29-1.42,1.58-2,2-3.33,1.94-1.34,2.62-4.93,4.36-5.53,0-.56.39-.79.44-1.3a6.6,6.6,0,0,0,1.34-1.11c-.32.86-1,1.24-.73,1.89-.16-.6-.46.3-1,.85,0,.67.36-.07.73-.5a7.34,7.34,0,0,1-1.52,2.62c-.34.22.32-1,.58-1.18-.55,0-1.39,2.16-2.07,3,.53-.21.49-.88,1-1.09-1.17,1.58-1.24,2.46-2.15,4-.5.4.47-1.43-.34-.56l-.21.93a14.79,14.79,0,0,0-2.75,4.64c.31-1.33-.71.47-1.39,1.35.1.24,0,.81.45.09-.31,1.64-1.21,1.22-1.52,2.61-.53.35-.56-.07-.71-.31a2.05,2.05,0,0,0-.37,1.64c-.32.87-1.84,1.8-1.46,2.38-.21.32-1.19,1.37-1.16,1a11.32,11.32,0,0,1-2.69,4.41,4.52,4.52,0,0,0,.59-2c-.54.47-1,1-1.57,1.47-.27.58.83-.17.21.45.13.6.53-.82.71-1.08.54.19-.55,2.53-1.62,3.08-.82,1.17-.74,3.07-2,3.91-.06.31-.13.62-.2.93-.53.5-.25-.24-.4-.32-.58.62-.53,1.77-1.28,2.25-.5.17.27-.82.26-1.16C46,573.2,45,575.3,43.65,576.19a4.64,4.64,0,0,0-.91,2c.38-.33.56-.35.44.09-.8.45-1.63,2.74-2.85,3.72A2.1,2.1,0,0,1,41,580.6c-.46.17-1.72,2.07-2.38,3-.22,1.09.41-.62.92-.63-.18.79-.78,1.21-.92,2,.21-.05.31,0,.21.45.5-.32.46-.64.74-.5a2.79,2.79,0,0,0-.34.83c-1.11.51-1.14.88-2.13,1.84.07-.86,1-1,1.05-1.9-.53.22-.63.77-1.16,1,.52-.15-.35,1.67-.83,2.35-.21.11-.06-.32,0-.57-.63.22-.65.93-1.21,1.21-.06.42.59-.28.63,0-.58,1.44-1.75,2.42-2.41,3.82.35.28.55-1,1.08-1.33.14,0,.13.11.32,0-.73.8-.64,1.26-1.15,2.36.41.25.86-.71.75-1.31.73-.68-.11,1.12.64,0C34.57,593.85,33.82,595.15,34.73,594.52ZM82.9,528.93c.16-.88.87-1.31,1.36-1.92A4,4,0,0,1,82.9,528.93Zm38.47-52.86c-.07.79-1.13,1.83-.13,1.27a10.32,10.32,0,0,1-2.07,3c0-.72.3-.68.18-1.51.28-.22.66-.37.78-.73s-.27,0-.26-.21C120.42,477.32,120.5,476.37,121.37,476.07ZM364,52.06c.2-.78-.19-.82.62-1.41C364.85,50.79,364.55,51.74,364,52.06Zm-8.09-4.4a6.86,6.86,0,0,0,.76-2.69c.56-.18.67-.73.76-1.31a3,3,0,0,1,1.37-.53c.34-1.14-.36-.7-.8-.65,1.11-1.36,1.68-.75,1.48.38-1.31.86-1.23,2.85-2.28,3.93-.71.42.3-.82-.16-.69C356.85,46.79,356.2,47.85,355.93,47.66Zm-68.77,114c-.2.85-.93,1.27-1.24,2A3.59,3.59,0,0,1,287.16,161.7Zm-35.45,57.54c-.43.13-1.16,1.39-1.28.87C251.06,219.85,251.65,218.37,251.71,219.24ZM223.78,262c.37-.43.45-1.1,1.08-1.33C224.81,261.19,223.91,262.41,223.78,262ZM59.43,512.22a8.28,8.28,0,0,1-1.73,2.17C58.16,513.74,59.05,512,59.43,512.22Zm14.32-11.71c.26.29-1.9,3.42-2,2.53C72.7,502.41,72.8,501.11,73.75,500.51ZM31.31,562.8c0-.28-.16-.27,0-.81.33-.18.46-.54.79-.73C32,561.9,31.86,562.52,31.31,562.8ZM96.5,487.42c-1,1.66-1.54,2.37-2.54,3.71A11.72,11.72,0,0,1,96.5,487.42ZM73.81,522c-.4.52-1.27,2.07-1.5,1.81C72.66,523.3,73.51,521.73,73.81,522ZM61.67,539.4c.11.06.17,1.06-.44,1.29C60.84,540.87,61.34,539.53,61.67,539.4Zm-24,48.16c-.34.31,0,.28-.16.7-.78.2-.48,1.26-1.26,1.45C36.31,588.82,37.45,587.39,37.69,587.56ZM56,563.66c-.3.5-.4,1.15-.95,1.44A1.89,1.89,0,0,1,56,563.66Zm18.38-23c.23.26-.52,1.4-1.17,1.79A3.18,3.18,0,0,1,74.35,540.68Zm3.49-5.15c-.23.75-1.35,2.19-1.68,1.94C76.81,536.9,77,536,77.84,535.53Zm-38.1,25.89a41,41,0,0,1,2.36-3.58A8,8,0,0,1,39.74,561.42Zm53-38c.24.33-.58,1.56-1.23,2A2.88,2.88,0,0,1,92.71,523.45ZM67.87,540.33c-.41.59-.58,1.37-1.18,1.79C66.82,541.48,67.6,540,67.87,540.33ZM38.55,560.45c-.37.1-.82,1.48-1,.86C38,560.88,38.51,559.62,38.55,560.45Zm.63-1.41c.59,0,.45-.5,1-1.09-.08.38.49-.22.45.09-.61.84-.7.41-.94,1.43l-.55.38C39.17,559.57,39,559.58,39.18,559Zm3.1-2.7c-.36.62-.51,1.42-1.18,1.79A2.24,2.24,0,0,1,42.28,556.34ZM64,538.81a2.89,2.89,0,0,1,.57-1.18c-.31,1,.68,1-.28,2C63.76,539.66,64.62,538.34,64,538.81ZM45.74,550.62l-.21.94-.55.37C45,551.29,45.42,551,45.74,550.62Zm-11.23,7.63c-.65-.08-.44.76-1.07,1.33C32.93,559.34,34.9,556.77,34.51,558.25Zm31.94-23.49c1-.93,1.33-2.84,2.39-3-.34-.42.48-1.65,1.09-2.13-1,1.79-.36,1.86-1.14,3.74-1,.26-.36.7-1.1.75-.5,1-1.41,3.06-1.94,3.1.15-.12.73-1.15.34-.83a4.76,4.76,0,0,1-1.32,1.69,1.85,1.85,0,0,1,1.08-1.33C66,536,66.8,535.08,66.45,534.76Zm20.9-13.21c.32.29-.44,1.25-.86,1.77C86.23,523.08,86.84,522,87.35,521.55ZM62.93,538l.73-.5a1.71,1.71,0,0,1-.57,1.18C63.48,537.72,62.53,538.86,62.93,538Zm-23.7,14.52c0,.78-1,.82-1,1.66-.56.43-.44-.43-1.05.52C37.53,553,38.48,553.49,39.23,552.47ZM50,545c-.15.7-.23,1.46-.86,1.78C49.43,546.2,49.36,545.32,50,545Zm-7.23,5.11c-.8.34-.09-1.84.7-2.46.26.2.11.85-.12,1.28C43,548.66,42.71,549.52,42.73,550.09Zm32.09-25.57c-.36-.24-.6.62-.58,1.19-.33.45-.52.58-.73.5-.51,1.52-1.8,2.38-2.28,3.92-.54.45-.55-.53-.79.73-.6.47-1.16.07-.29-.78,0,.26-.07.51.26.21-.67-.74.94-2.64,1.52-4l.92-.62c.43-.74.52-1.78,1.28-2.26.2.67-.8,2.37-1.49,3.19.21-.1,0,.18-.11.47.42-.58,1.09-1,1.45-1.58a4.19,4.19,0,0,1,1.44-3C74.46,524,75,523.83,74.82,524.52ZM50.59,543.57c.08-.43-.58.24-.4-.33.53-.12.31-.85.84-1-.13.72.19.75,0,1.62l-.56.37C50.48,544,50.54,543.8,50.59,543.57Zm54.5-37.83c.38-.11-.15,1.32-.63,1.41C104.64,506.66,104.52,505.92,105.09,505.74Zm-10,5c.18.78-1.68,2.23-1.13,1.56C94.35,511.84,94.45,511.1,95.06,510.77ZM46.84,543.54c-.06.31-.14.62-.2.93-.21.11-.53.39-.5.14C46.47,544.32,46.08,544,46.84,543.54Zm5.94-5.62c-.12.43.06.42.45.09-.09.39-.17.77-.26,1.16-.41.5-.93.89-1.39,1.35C52.05,539.71,52.36,538.77,52.78,537.92ZM47,543.07c0-.51-.27-.53-.48-.67.37-.25.38-.79.84-1-.48,1.82,1.08-1.11,1.18-.41-.67.56-1.32,2.57-1.91,2.29Zm8.88-7.62c-.67-.09-.8,1.17-1.5,1.81C54,536.32,55.65,534.53,55.83,535.45Zm1.07-1.32c.5-.61.56.13.74-.5,0-.44-.4-.12-.35-.56l.74-.5c-.06.35-.2.82.21.45a2.12,2.12,0,0,1-.62,1.41c0-.27.06-.51-.27-.21-.3.76.13.42-.07,1C56.49,535.89,57,534.5,56.9,534.13Zm5-3.61a3.46,3.46,0,0,1-1.6,2.27A5.37,5.37,0,0,1,61.92,530.52Zm-13.27,9.81c.43-1,1.43-1.59,1.84-2.64a6.48,6.48,0,0,1-1.34,2.5C49.18,539.94,48.92,540.13,48.65,540.33ZM77,519.45l-.21.94a1.48,1.48,0,0,0-.94,1.43l-.55.37A10.25,10.25,0,0,1,77,519.45ZM51.77,536.82c-.5.42-.71,1.07-1.26,1.45C50.56,537.64,51.59,536.42,51.77,536.82Zm49.58-34.68c-.44,1.1-1.37,1.81-1.88,2.86C99.25,504.32,100.61,502.91,101.35,502.14Zm-54,37.11c-.23,0-.1-.57-.11-.92a6.67,6.67,0,0,1,.94-1.43c.33,0,.35.41.48.66a6.53,6.53,0,0,1,1.25-2.83c1-.38,1.36-1.15,2.37-2.2,0,.82-1.55,2.53-2.36,3.58.32-.22.43-.14.45.09-.71,1.08-1,1.3-.92.63-.47.89-1.91,3.64-3,3.85C47.15,540,46.75,540,47.33,539.25Zm9.36-7c.15.55.13,1-.73,1.89C56.76,533,55.84,533.45,56.69,532.29Zm-6.92,5.1c.37-.34.58-.82,1-1.09C50.7,537,49.72,538.16,49.77,537.39ZM78.69,517a1.88,1.88,0,0,0,.52-1l.92-.62c.48-1.46,1-1.54,1.62-3.08-.1.46.44,0,.17.68a4.76,4.76,0,0,0-1.42,2.15c.41-.11.68,0,.43.9a8.49,8.49,0,0,1-1.4,1.34c.14-.72.67-1.11.73-1.88C79.8,515.57,79.05,517.05,78.69,517Zm.68-.27a2.56,2.56,0,0,1-1.31,1.68A5.38,5.38,0,0,1,79.37,516.68Zm-26,16.49c.66-.7,0,.65.63,0a2.43,2.43,0,0,1-.94,1.43C52.87,534.44,53.05,533.63,53.37,533.17Zm54.84-37.28a2.28,2.28,0,0,1-.81,1.54A2.78,2.78,0,0,1,108.21,495.89ZM52.13,533.81c.36-.29.35,0,.68-.27a1.59,1.59,0,0,1-.89,1.2Zm15.45-11.89c.33-.24.57-.34.69-.27a5.38,5.38,0,0,1-1.6,2.28C66.76,523.08,67.52,522.78,67.58,521.92Zm-12.85,9.33c.88-.75,1.15-2,2-2.76-.69.91-.83,2.26-1.75,3C55.06,531.16,54.72,531.47,54.73,531.25ZM59,528.14c.07-.31.13-.62.2-.93.3-.1.74-.4.82-.16C59.51,527.26,59.54,527.93,59,528.14Zm-5.61,3.41c0-.38-1.12.89-.76-.08.58-.89.28.23,1.05-.51-.09.39-.17.77-.26,1.16-.29.09-.91,1.21-.92.63C52.73,532.27,53.16,532,53.41,531.55Zm30-21c-.66.65-.17.9-1,1.67C82.4,511.6,83.13,510.13,83.38,510.59Zm-21,12.88a10.9,10.9,0,0,1-1.23,2A3.82,3.82,0,0,1,62.4,523.47Zm51.21-35c-.18.5-.29,1.05-.76,1.31C112.59,489.58,113,488.72,113.61,488.46ZM67.26,519.17a9.32,9.32,0,0,1-1.5,1.81C65.87,520.22,67.07,519,67.26,519.17ZM86,506.65a20.15,20.15,0,0,1,1.78-2.4C87.55,505.23,86.23,507.44,86,506.65ZM56.36,523.21c-.23.92.13,0,.5-.14,0,.64-.68.73-.76,1.31.76-.3,1-1,1.58-1.47.22-.06,1.1-.36.34.56,0-.58-.53.62-.92.63-.07,1-1,1.38-1.28,2.25a3.11,3.11,0,0,0-1.58,1.47c-.08.38.48-.22.45.09-1.41,1.29-1.09.17-1.19-1,.38-.32.3.06.45.09.09-.39.54-.48.66-.84-.33.23-.56.34-.69.26.22-.82.76-1.11.26-1.16.28-.42.48-.89,1-1.1,0,.36-.4.79-.15.71A12.71,12.71,0,0,1,56.36,523.21Zm5.78-3.53c-.25-.18.24-.74.45-1.29.6,0,1-1.24,1.68-1.94-.14,1.14.51-.77,1.1-.75-.36.9-1.17,1.43-1.6,2.28-.52,1.7.49,1.93-.72,3.26C63.49,520,63.49,518.15,62.14,519.68Zm55.09-37.63c.25,0-.3,1.17.34.56.44-1.13-.07-.82,0-1.38.34-.19.47-.55.79-.74.15.95-.21,1.75-.12,2.65a9.77,9.77,0,0,0-2.55,2.33A10,10,0,0,1,117.23,482.05Zm-28.42,20.3a2.29,2.29,0,0,1-.87,1.78A14,14,0,0,1,88.81,502.35ZM52.92,526.74c-.08.43.57-.25.4.32C52.84,528,52.25,527.5,52.92,526.74ZM65.24,517c-.13.62-.27,1.24-.41,1.86-.24.17-.32.47-.6.61C63.82,519.38,64.51,517.67,65.24,517Zm24.64-16c.47-.34.68-.83.69-.26-.37.25-.38.79-.84,1Zm-13.49,8c1-.73,0,1.11-.49,1.52C75.92,509.91,76.37,509.63,76.39,509Zm-18.56,13.2c.23-.36,1-.86.82-.16C58.19,522.4,57.75,522.7,57.83,522.21Zm32.36-22.58c0,.13,0,.25.14.11a1.88,1.88,0,0,1,.52-1,3.53,3.53,0,0,1-1,1.9C89.91,500.31,89.93,499.87,90.19,499.63Zm-1.6-.49c-.63.41-.55,1.39-1.19,1.79C87.5,500.25,88.31,498.76,88.59,499.14ZM49.91,524.83c.07.56.61-.64.29-.6.46-.35.49,0,.58.21-.61.75-.31.72-1.18,1.78A2.11,2.11,0,0,1,49.91,524.83Zm75.73-54.64c-.07.67-.61,1-.94,1.44A1.72,1.72,0,0,1,125.64,470.19ZM83.83,498a1.57,1.57,0,0,1-.89,1.2A1.59,1.59,0,0,1,83.83,498Zm16.25-11.24c.75-.66.46.64-.21.94C100,487.06,99.67,487.44,100.08,486.77Zm-13.91,8.46c.24-1,1.46-2.64,2-2.52-.89.47-1,1.6-1.47,2.38C86.68,494.64,86.32,495.57,86.17,495.23ZM132,461.33a6.14,6.14,0,0,1-1.59,2.28C130.7,462.72,131.51,461.21,132,461.33ZM61.53,509.8c-.35.3-1.22,1.54-1.34,1.11C60.32,510.45,61.44,509.4,61.53,509.8Zm13.6-12c.73-.33,1-1.05,1.58-1.47-.19.85-1,1.2-1,2.24-.42.21-.49.7-1,.86A5.37,5.37,0,0,0,75.13,497.79Zm26.29-18.46c.65-.53,1-.65.72.3-.42.52-.89.42-1.4,1.35C100.74,480.24,101.35,480,101.42,479.33Zm-30.87,18a5.14,5.14,0,0,1-1,2.24C69.79,498.74,69.86,497.79,70.55,497.34Zm16.22-10.43a1.57,1.57,0,0,1-.89,1.2A1.57,1.57,0,0,1,86.77,486.91Zm-6,3.32a3.32,3.32,0,0,1-1.23,2A6.72,6.72,0,0,1,80.72,490.23ZM85,486.55c.89-.74,1.15-2,1.88-2.87.1,1-.84,1.94-1.67,3.31,0,.27.18.29-.29.6C84.81,487.42,84.8,487.13,85,486.55ZM99.88,475a8.44,8.44,0,0,1-1.57,2.84A8.1,8.1,0,0,1,99.88,475ZM72.66,492.73a5.58,5.58,0,0,1-.81,1.55c0-.52-.5-.27-.42-.9C72.11,492.76,72.06,493.24,72.66,492.73ZM71,495.82c-.52,0-.66.57-1.34,1.11.74-1.28.64-2.83,1.62-3.09C70.75,495,71.09,495.1,71,495.82ZM73.38,493c-.52.16-1,1.73-1.21,1.22a4.69,4.69,0,0,1,1.49-1.81c-.11.43.06.42.45.09a4.94,4.94,0,0,1-1,1.9C73.1,494.07,73.84,492.93,73.38,493Zm12.09-9.4c-.46.37-.53,1-1.08,1.32C84.42,484.41,85.41,483.26,85.47,483.64Zm-1.42,2.15c.19-.65-.67.3-.34-.56C84.34,484.54,84.6,485.18,84.05,485.79Zm4-3.1a5.85,5.85,0,0,1,.68-1.64c.59-.25.83-.79,1.21-1.22-.38.88-.14.54-.31,1.4-.47.11-.73.27-.9,1.2C88.38,482.66,88.14,482.77,88,482.69Zm28.52-20.76c0,.73-.67,1.41-.36,1.63l-.37.25a.47.47,0,0,1-.24.36A2.9,2.9,0,0,1,116.54,461.93Zm24.72-15.61c.4-.39.51-.95.79-.74C142,446.29,141.14,447,141.26,446.32ZM74.11,491.16a5.29,5.29,0,0,1-1.26,1.45C72.78,491.89,74.1,490.91,74.11,491.16ZM111.7,464a5.3,5.3,0,0,1-1.42,2.15A5.3,5.3,0,0,1,111.7,464ZM79.17,484.55c-.33.31,0,.28-.16.7-.56.72-1,.45-1.31,1.69.18.26.86-.94.82-.16-.46.71-.86,1-1.34,1.11C77.44,486.62,78.52,484.58,79.17,484.55Zm26.61-17.09c.6-.7.73-1.8,1.6-2.27a19.4,19.4,0,0,1-1,2.24C106,467.78,105.73,467.84,105.78,467.46Zm-15.2,9.34a3,3,0,0,1,1-.86C91.54,476.68,90.44,477.48,90.58,476.8ZM81,481.92a.78.78,0,0,0,0,.58,2.77,2.77,0,0,1-1,.85A2.54,2.54,0,0,1,81,481.92Zm12.07-8.59c-.33.55-.26,1.43-.86,1.77A3.68,3.68,0,0,1,93.07,473.33Zm4.54-4.28c-.13,1-.67.88-.49,1.52-.33.24-.56.34-.69.27A2.53,2.53,0,0,1,97.61,469.05Zm-2.72,3.83c.75-.49.68-1.65,1.54-2C96.42,471.76,95.23,473.14,94.89,472.88Zm-11.44,7.18c0,.76-.59,1-1.08,1.33C82.46,480.73,83.08,480.5,83.45,480.06ZM95,471c0,.69-.55,1-.82,1.53C93.87,472.33,94.41,471.36,95,471Zm.88-2.59c-.33,1.16-.57,1.57-.28,2-.42.65-.52.26-.87.39a6.43,6.43,0,0,1,.68-1.65c-.23.18-.51.7-.55.38a4.69,4.69,0,0,1,1.86-2.06c0,.27.16.26,0,.8C96.06,468.89,96.2,468.31,95.87,468.45Zm2.5-2.09a13.87,13.87,0,0,1-2.23,3.69C95.62,469.38,97.35,467.41,98.37,466.36ZM81,478.92a18.79,18.79,0,0,1-1.83,2.64A6.39,6.39,0,0,1,81,478.92Zm5.53-3.75c.13.21.42.54-.26,1.17A1.08,1.08,0,0,1,86.57,475.17Zm-2.35,0c.81-.86-.16,1,.34.56s.36-1.18,1-1.43a9,9,0,0,1-1.76,3C83.62,476.81,84.39,475.94,84.22,475.18Zm15.88-9.6c.36-1.5,1.8-2.27,1.9-1.49C101.37,464.43,101.31,464.21,100.1,465.58Zm-.74-.89c-.08.39-.17.78-.26,1.17-.2.11-.53.4-.5.14C99.07,465.75,98.72,464.81,99.36,464.69Zm-7.89,4.58c.5-.41.37.16.35.55-.24.18-.32.47-.61.61C91.3,470,91.39,469.65,91.47,469.27ZM88,471.07c.5-.21.74,0,.6.77C87.76,472.49,87.54,471.76,88,471.07ZM98,465c0-.78,1-1.39,1.21-1.22C99,464.91,98.77,464.37,98,465Zm-8.15,3a2.63,2.63,0,0,0,.78-.74c-.41,1-.8,1-.73,1.88-.6-.05-.66.83-1.39,1.35C88.81,469.48,89.64,469,89.89,468Zm4-4.48c-1.21.77-2,3.35-2.81,3.49C91.76,466,93.22,462.78,93.85,463.49Zm-.71,1.08c-.1.46.44-.05.16.68-.26.24-.42.57-.79.73C92.94,465.11,92.5,465.26,93.14,464.57Zm3.93-6.43c.53-.21.5-.88,1-1.1a3.85,3.85,0,0,1-.82,1.55C97.31,458.28,97.07,458.4,97.07,458.14Zm15-12.56c-.38.65-1.28,2.73-1.5,1.81C111.19,447.08,111.79,445.31,112.05,445.58ZM131,432.94c.73-.69.48.64-.08,1C131.07,433.37,130.65,433.7,131,432.94Zm-19.59,12.91c-.08.58-.52.86-.89,1.2.2-.57-.29-.88.13-1.27C110.67,446.07,111.15,445.77,111.36,445.85Zm-.24-1c.79-.77.74.42.11.91C111.08,445.61,110.8,445.68,111.12,444.83Zm-7.94,4.8c.73-.23.59-1.17,1.26-1.45a13.08,13.08,0,0,1-1.57,2.85C103,450.57,103.08,450.1,103.18,449.63Zm7.41-5.23-.21.93-.55.37C109.84,445.07,110.28,444.78,110.59,444.4Zm3.45-2.15c.27-1.19.74-.62,1.44-1.57C115.19,441.37,114.33,442.41,114,442.25Zm1.86-2.06.74-.5c0,.57-.76,1.92-1,1.44A.77.77,0,0,0,115.9,440.19Zm18.69-13.09a4.79,4.79,0,0,1-1,1.09,55.25,55.25,0,0,1,5.08-7.42c0,1.12-1.17,1.25-1.28,2.26.47-.34.67-.84.68-.27-.51.8-.58.24-1.28.88-.18,1.05-1.2,1.41-1.34,2.49.37-.43.61-1,1.21-1.22,0,.51-.45.74-.44,1.29-.53.57-.43-.56-.87.4-.19.64.67-.31.34.55a2.7,2.7,0,0,1-.84,1C134.66,427.92,134.94,427,134.59,427.1Zm-21.48,14.39c.92-.53,1.16-1.62,1.92-2.29,0,.69.59.24,0,1.39-.74.71-.48-.09-.76-.08a8,8,0,0,0-.87,1.78C112.8,442.78,112.93,442.19,113.11,441.49Zm-7,4.18c-.18.78-.29,1.6-.91,2C105.46,447,105.48,446.1,106.09,445.67Zm14.2-9.05-.21.93-.55.38A1.63,1.63,0,0,1,120.29,436.62Zm1.95-6.67a1.7,1.7,0,0,1,.65-.84c-.5,1.57-1.79,1.58-2.36,2.2-.08.38-.17.77-.26,1.16a12.18,12.18,0,0,0-2.91,4,2.17,2.17,0,0,1,0,1.62c-.57-.33-.25.81-1.07,1.32a14.82,14.82,0,0,0,.78-3.5c1.35-.69,2-3.26,2.93-4.76,0,.27-.48,1.35-.07,1,.24-.81.74-1.41,1-2.25-.22.19-.51.71-.55.38.66-.48,1.27-2.43,1.73-2.16-.76.73-1.13,2.49-.28,2-.43-.48,1.39-2.61,1.65-2.51C122.94,428.24,121.47,430,122.24,430Zm-.19-1.26c-.16-.1.17-1,.5-1.52,0,.49.58-.77,1-.86A7.33,7.33,0,0,1,122.05,428.69Zm-15.83,17.09a13.19,13.19,0,0,1,1.84-2.63C107.63,444.1,106.77,445.81,106.22,445.78Zm7.15-5.45c-.31.3-.32.84-.84,1C112.36,440.75,113.41,439.87,113.37,440.33Zm2.44-3.24c-.1.58-.89,2-1.13,1.56C115.14,438.2,115.35,437.54,115.81,437.09Zm-6.76,4.39c.2.16-.25,1.2-.81,1.55A2.77,2.77,0,0,1,109.05,441.48ZM140.15,419c.21.38-.66,1.12-.13,1.28C139.25,421,139.59,419.35,140.15,419Zm1.23-2c.29.24-.39,1.08-.42,1.87l-.55.37A3.91,3.91,0,0,1,141.38,416.94Zm-22.32,15.37c-.23.48-.87,2-1.13,1.56C118.36,433.39,118.51,432.69,119.06,432.31ZM114.77,434a1.65,1.65,0,0,1-.76,1.31A1.64,1.64,0,0,1,114.77,434Zm9.85-8.47c.34-.46.6-1,.94-1.43-.15.76.1,1-.54,1.75C125.1,425.45,124.44,426.14,124.62,425.56Zm3.07-3.28a2.64,2.64,0,0,0,.79-.73c0,.16-.07.31-.1.47.11-.07.21-.12.13.1-1,.75.12.48-.08,1-.37.34-.48.9-1,1.1A10,10,0,0,0,127.69,422.28Zm-2.6,1.18c.26-.15.69-.54.68-.27-.67.74-.84,1.89-1.78,2.4C124.39,424.5,125,424.22,125.09,423.46Zm55-37.39c.6-.5.48.09.3.78a2.94,2.94,0,0,0-.61.61C179.62,387.34,179.8,386.54,180.11,386.07Zm-33.62,22.65A3.36,3.36,0,0,1,147.8,407c-.12.74.36,1.19-.6,2C147.28,408.28,147.3,407.73,146.49,408.72Zm-15.89,9.61c-.44.68-.78.66-.87.39-.51,1.51-2.09,3.6-3,3.85a12.46,12.46,0,0,0,2.7-4.41c0,.37.35.29.76.08-.24-.3-.22-.38.27-1.17.37-.32.29.07.44.09-.12-.66.14-.48.58-1.18-.62.29.05-.86.57-1.19.24.17-.33.9-.36,1.64C130.76,417.61,130.51,417.54,130.6,418.33Zm-14.65,9c.9-.72.71-1.91,1-2.47.85-.49.07.58.19,1.25-.5.14-.44.75-.57,1.19C116.15,427.61,115.91,427.67,116,427.29Zm13.23-9.58c.63-.68,1.14-1.45,1.73-2.17a6.85,6.85,0,0,1-.87,1.78C130.16,416.91,129,418.74,129.18,417.71Zm-7.92,4c.18.13,0,1.17-.5,1.52C121,422.75,120.85,422,121.26,421.71Zm-2,0c0,.62-.47.9-.5,1.53.47-.35.68-.84.69-.27-.45.48-1.28,2.06-1.63,1.7A6.2,6.2,0,0,1,119.23,421.7ZM132.67,414c.52-.06.82-1.67,1-1.09C133.43,413.42,132.72,414.81,132.67,414Zm-4.92,1.76c-.38.8-.89,1.48-1.29,2.26C126.32,417.77,127.38,415.5,127.75,415.71Zm-6.81,4.63a.73.73,0,0,0,0,.58c-.42.32-1.23,1.72-1.4,1.34C120.2,421.76,120.22,420.77,120.94,420.34Zm16.55-14a45.74,45.74,0,0,1-2.57,4.52c.33-.14.78-.46.58.2-.7-.23-.63.65-1.57,1.46.17-.87.52-1.4-.14-1.49C135.31,410.41,136.08,407.82,137.49,406.32Zm50.22-31.95c-.49.51-.49,1.44-1.18,1.79C186.75,375.58,187.47,374,187.71,374.37ZM154.79,396a1.11,1.11,0,0,0,.71-1.08c.87-.38.14,1.87-.75,2.69C155.16,396.28,155.1,396.32,154.79,396Zm-31.36,20.92a26,26,0,0,1-2.13,3.22c.06-.23.11-.47.16-.7C122.22,418.64,122.66,417.62,123.43,416.87Zm18.25-11.81c-.5.71-1.47,2.46-1.92,2.29C140.4,406.76,141.13,404.81,141.68,405.06Zm-2.51.71c.92-.72,1.3-1.88,2.16-2.65a8.2,8.2,0,0,1-2.31,3.35A.53.53,0,0,0,139.17,405.77Zm-14.93,9.56c-.09.38.48-.22.45.09-.45.37-.53,1-1.08,1.32A2.13,2.13,0,0,1,124.24,415.33Zm2.44-3.24a3.41,3.41,0,0,1-1.05,1.89A5.45,5.45,0,0,1,126.68,412.09Zm11.75-7.2c.37-1.27.83-1.2,1.63-1.7-.11.42-.12.7,0,.81l-.36.25C139.56,403.65,139.12,404.07,138.43,404.89Zm-13.86,8.23c.71-.89,1-2.09,2-2.75-.55,1,.08,1-.41,1.86-.78.86-.6-.52-1,.28,0,.39.43.07.11.92C124.75,413.78,124.72,413.36,124.57,413.12Zm3.76-3.54c.09.17.1.46-.08,1-.63.22-.65.93-1.21,1.22,0-.16.07-.31.11-.47C127.76,411,127.68,410.42,128.33,409.58Zm14.24-10.67c-.56.83-1.46,3.67-1.88,2.87C141.6,401.05,141.63,399.61,142.57,398.91Zm4.6-4.51a3.74,3.74,0,0,1-.81,1.54C146.16,395.78,146.61,394.75,147.17,394.4Zm-.61-.77c-.87,1-2.15,4.11-2.81,3.49C144.84,396.26,145.81,393.85,146.56,393.63Zm5.78-4.92a2.81,2.81,0,0,1-.81,1.54C151.32,390.08,151.86,389.12,152.34,388.71Zm-1.82.44c1.23-.55,1.44-1.95,2.34-2.78,0,.93-1.63,2.66-2.41,3.82C150.65,389.58,150.22,389.91,150.52,389.15Zm0-.57c1.06-.77.26-1.56,1.34-2.49-.41,1.15-.16.63-.13,1.27C151.38,387.9,150.52,389.41,150.49,388.58Zm4.15-6a3,3,0,0,1-.87,1.78C153.54,384.15,153.93,382.88,154.64,382.59Zm-12.86,8c0,.89-.64,1.32-1.05,1.9A5.5,5.5,0,0,1,141.78,390.54Zm-.51.15c0,.53-.94,1.76-1.07,1.32C140.68,391.67,140.62,390.88,141.27,390.69Zm2.5-2.1c-.07.41.59-.28.64,0a1.69,1.69,0,0,1-.76,1.31C143.91,389.2,143.05,389.46,143.77,388.59Zm-1.5-.95c0,.16-.19,1,.24,1a1.94,1.94,0,0,1,1-1.09c-.41,1-.6,2.26-1.44,2.95C142.66,388.91,140.84,389.08,142.27,387.64Zm17.85-10.75c.08.55-.81,1.68-.89,1.2C159.61,377.75,159.58,377.08,160.12,376.89ZM145,385.76a1.67,1.67,0,0,1-.76,1.31A1.64,1.64,0,0,1,145,385.76Zm12.22-7.91c.5-.9,1.44-2.55,2-2.53.21-.82,1.38-1.76,1-2.23l.73-.5c0,.66-.5,1-.26,1.16-.84.89-1.19,1.42-.91,2-.64.67-.37-.06-.63,0-.09.39-.18.78-.26,1.17C157.89,377.54,158.28,376.49,157.25,377.85Zm4.65-6.13c1-.68-.1,1.74-.79,2.12,0-.3-.21-.19-.21-.45C161.62,372.19,161.92,373,161.9,371.72Zm.83-2.35c.83-.68.48.42.37,1.14-.29.22-.27.69-.65.84C162.43,370.35,162.94,370.2,162.73,369.37Zm4.47-3.23a3,3,0,0,1-1,1.67A2.52,2.52,0,0,1,167.2,366.14Zm49.75-39c.15-.53.89-2,1.12-1.55-.47.34-.62,1.16-.44,1.29C217.31,327.15,217.07,327.26,217,327.18ZM172.51,355.6c1.08-.72-.23,2.43-.73,1.89C172.46,356.85,171.94,356.58,172.51,355.6Zm46.19-31.39c.5-1.06,1.51-3.16,2.25-3.11-1,1.13,0,.81-.17,1.5-.69.48-.77,0-1.08-.05C219.65,323.37,219.09,324.49,218.7,324.21Zm3.59-5.6c-.37.43-.49,1.06-.94,1.43C220.86,319.82,222.39,317.69,222.29,318.61ZM166.8,351.76a3.77,3.77,0,0,1-1.18,1.8A2.77,2.77,0,0,1,166.8,351.76Zm1.72-3.54c-.21-.89.55-.87.95-1.44-.66.19-.33-.9-.32-1.36.86-.65-.13,1.53.74.88,0-.28-.17-.27,0-.81.17-.26,1.14-1.21,1.11-.75-.91.84-2.15,5.61-2.6,3.94-.48.72-1.27,2.62-1.78,2.4C166.66,350.46,167.92,348.36,168.52,348.22Zm0-1.62a11.24,11.24,0,0,1-1.57,2.85A6.9,6.9,0,0,1,168.57,346.6ZM229,305.92c.68-.64,1.22-2.85,1.83-2.63C230.26,304.1,229.7,306.06,229,305.92Zm-58.59,37.24c.27-.15.7-.54.68-.27-.79.73-1,1.16-.86,1.78C169.5,344.93,170.13,343.91,170.43,343.16Zm3-2.81c.52-.21.4-1,1-1.09C174.24,339.88,173.32,341.1,173.4,340.35Zm-2.4.25c.43-.35.68-.42.63,0-.22.19-.51.32-.6.61s-.11.46-.29.59C170.83,341.37,170.91,341,171,340.6Zm63.78-43.74c0,.27.16.27,0,.8-.55.2-.65.76-1,1.1A3.1,3.1,0,0,1,234.78,296.86ZM177.51,333.8c.06.22.67-.68.79-.73,0-.31-.22-.2-.21-.45.56-1,1.13-1,.95-.06a32.55,32.55,0,0,1-2,2.76A12.45,12.45,0,0,1,177.51,333.8Zm59.92-39.73-.73.5C236.75,293.77,237.78,293.07,237.43,294.07Zm-56.59,35.28A2.91,2.91,0,0,1,182,327.8a3,3,0,0,1-1,1.66C181,329.33,181,329.21,180.84,329.35Zm60.72-44c.37-.34.58-.82,1-1.09-.1.33.59.19,0,.81.07-.51-.37-.21-.55.37.24-.05.37.06.4.33-.37.25-.38.79-.84,1C242,285.65,241.17,286.37,241.56,285.32Zm-57.84,38.12c.64-.67,1.52-2.6,2-2.52a10.3,10.3,0,0,0-1,1.66c.33-.18.46-.53.79-.73-.21.59-.63,1.44-.36,1.63A2.11,2.11,0,0,1,183.72,323.44Zm60.2-41.7c0,.39.27.32.11.91C243.57,282.93,243.16,282.44,243.92,281.74ZM186.52,320c.87-.64,1.11-.34,1.22.17a2.67,2.67,0,0,0-.61.6C187.15,320.13,186.18,321.05,186.52,320Zm58.79-39.55a1.66,1.66,0,0,1-.76,1.31A1.65,1.65,0,0,1,245.31,280.4Zm-57.45,37.06a12.2,12.2,0,0,1-1.89,2.87c.6-1.08.61-1.38,1.1-2.13,0,.15.1.16.32,0A.94.94,0,0,1,187.86,317.46Zm1.21-1.22c0,.3.34,0,.44.1a7.94,7.94,0,0,1-1.93,3.1c.2-.72-.26-.44-.06-1.16C188.1,317.66,188.46,316.85,189.07,316.24Zm58.73-40.7c-.23.81-.35,1.45,0,1.38-.52.4-.67,1.11-1.12,1.56.23-1.36-.6.31-.53-.43C247,277.42,247.13,276.28,247.8,275.54ZM189.16,314.4c.36-.29.35,0,.69-.27.05-.24-.09-.18-.08-.34.67-.65.53-.09.34.56-.22.18-.51.31-.6.6.2-.1.12.24,0,.58l-.55.37C189.32,314.71,189.31,314.94,189.16,314.4Zm2.58-1.76a8,8,0,0,1,1.18-1.79C192.86,311.72,192.17,312.92,191.74,312.64Zm2.07-4.37a4.86,4.86,0,0,1,1-1.66c0,.73-.55,1-.81,1.54.13,0,.36-.24.32,0C194.05,308.31,193.93,308.3,193.81,308.27Zm3.17-3.74c-.53.48-.67,1.29-1.31,1.68C195.82,305.58,196.73,304.17,197,304.53Zm-.1.47a.92.92,0,0,0,.28-.59c.44-.35.69-.42.64,0-.28.24-.4.6-.66.84C197.21,304.91,196.87,305.22,196.88,305Zm2.78-4.07a6.55,6.55,0,0,1-1.76,3C198.24,302.71,199.16,302,199.66,300.93Zm-.38-1.13c.24.72-.57,1.8-1.2,2.6A4.8,4.8,0,0,1,199.28,299.8Zm3.81-3.78c.23-.09.28.1.68-.26a3.75,3.75,0,0,1-1.46,2.38C202.89,297.19,203.26,296.19,203.09,296Zm6-11.37c-.09.57.38-.54.73-.5,0,.49-1,1.52-1,1.09C209.13,285,208.75,284.92,209.06,284.65Zm47.65-74.55c.42-.4.66-.94,1.21-1.22a7.76,7.76,0,0,1-1,2.48l-.55.37C256.87,210.6,256.82,210.81,256.71,210.1Zm4.23-5.64c-.84.52-1,2-1.4,1.34C260,205.49,260.69,204,260.94,204.46Zm65.55-55.24c-.61,2,1.28-1.66.79.65-.69.38-.59.19-1.15,1A1.34,1.34,0,0,1,326.49,149.22Zm-.38,2.44c-.23.18-.52.31-.61.61s.7.37.06,1.15c-.25,0-.11-.55-.58-.2.56-1-.07-1.34.52-2.33C325.88,150.87,326.37,150.69,326.11,151.66Zm-54.28,34.71a4.46,4.46,0,0,1,1-1.67c.24.17-.34.89-.36,1.63C271.93,186.84,272.2,186.12,271.83,186.37Zm56.36-39.89c.56-.33.57.16.9.18-.45.37-.35,1.18-.94,1.44C328.13,147.32,328.25,147.25,328.19,146.48ZM274.5,182.77c-.7.77-.1.9-.8,1.54C273.43,184.36,274.21,182.18,274.5,182.77ZM328.61,146a1.46,1.46,0,0,1,.71-1.08,1.17,1.17,0,0,1-.21.94C329.14,145.6,328.88,145.8,328.61,146ZM307,128.61c-.64.49-.65,1.49-1.23,2C305.79,129.8,306.7,128.29,307,128.61Zm1.75-3a13.88,13.88,0,0,1-1.83,2.63A4.5,4.5,0,0,1,308.76,125.64Zm.5-1.53-.21.94-.55.37C308.5,124.78,308.94,124.5,309.26,124.11Zm48.39-49.7c.6-.41.55.18.42.9-.38,1-1.22,2.23-1.78,3.78-.21.11-.53.39-.5.14A31.2,31.2,0,0,1,357.65,74.41Zm3.11-4.89c.34-.2.59-.27.64,0-.72,1.26-1.27,2.64-2.1,3.8C359.74,72,360.32,70.81,360.76,69.52ZM329.27,90.33a3.92,3.92,0,0,1-1,2.47A6.82,6.82,0,0,1,329.27,90.33ZM363.64,63.6c-.65,1.83-1.39,3.28-1.3,4.45l-.74.5C362.16,67.36,362.06,65.44,363.64,63.6ZM335.4,76.06a3.28,3.28,0,0,1,.4-1.06c.91-.67.23,1.09,1.39,0-.37.71-.5,1.62-1.23,2C336.74,75.9,336.49,75.22,335.4,76.06Zm37.1-25.6c.52-.39.31.34.53.43-.37.33-.48.89-1,1.09C372.12,51.43,372.47,51.08,372.5,50.46Zm-10.19,3c.41-.44.16-1.15.18-1.5.63-.66.36.06.63,0a.86.86,0,0,1,.42-.48c-.51,1-1.08,1.68-.36,1.63C362.89,53.47,362.46,53.6,362.31,53.42Zm-11.12,2.21c-.46.26-.34,1-.89,1.2C350.22,56.28,351.12,55.16,351.19,55.63Zm3.3-5a6.71,6.71,0,0,1-1.56,2.85C353.49,52.55,353.68,51.33,354.49,50.62Zm2.5-3.48c-.19.59-.37,1.18-.95,1.44A2.45,2.45,0,0,1,357,47.14Zm-1.56-.72c.52-.3.64-.49.47-.72.75-.63,0,1.18-.44,1.3A.83.83,0,0,0,355.43,46.42Zm23.42-30.17c.24.2-.19,1.24-.55,1.76A1.9,1.9,0,0,1,378.85,16.25Z"/><path class="cls-2" d="M106.68,440.92c0,.32.37-.42.31,0,.66-2.49,2.45-4.06,3.43-6.29a31.26,31.26,0,0,0-3.43,4.91c0,.25.29,0,.5-.14A10.69,10.69,0,0,1,106.68,440.92Z"/><path class="cls-2" d="M51.32,581.07c.56-.45.64-1.3,1-1.9A4.11,4.11,0,0,0,51.32,581.07Z"/><path class="cls-2" d="M71,547.54c-.18.54,0,.53,0,.8.27-.24.28-.68.39-1.05a.57.57,0,0,0,.5-.14C71.86,546.5,71.4,547.17,71,547.54Z"/><path class="cls-2" d="M43.43,566.64c-.4.8.79-1.09,1.1-.75,0-.44-.23-.37-.34-.56C43.47,566,44.15,566,43.43,566.64Z"/><path class="cls-2" d="M55.18,558.06c-.15.53,0,.64.4.32-.18-.14,0-.62.39-1C56,556.81,55.41,557.93,55.18,558.06Z"/><path class="cls-2" d="M52.18,558.91c-.16,0-.07-.4-.45-.09-.18.58-.17.88-.08,1,.36-.26.3-.86.71-1.07C52.39,558.55,52.21,558.78,52.18,558.91Z"/><path class="cls-2" d="M78.6,540.56c.73-.4.12-.58.2-.93.18-.63.25.1.74-.5a5.79,5.79,0,0,1,1.76-3c0-.27-.15-.4-.17-.68a12.2,12.2,0,0,1-2.4,3.82C78.76,539.93,78.37,540.37,78.6,540.56Z"/><path class="cls-2" d="M49.41,559.41a40.48,40.48,0,0,0,3.38-6.06c-.31.17-.57.72-.56.38-.64.69-.2.55-.62,1.41-.25-.41-1.84,2.65-1.63,1.7C49.43,557.1,49.31,558.8,49.41,559.41Z"/><path class="cls-2" d="M87,532.85c.61-.33,2-2.44,2.54-3.7C88.74,530.4,87.86,531.6,87,532.85Z"/><path class="cls-2" d="M22.45,574.56c.25.18-.28.7-.31,1.4a3.16,3.16,0,0,0,.86-1.77C23,573.9,22.75,574.44,22.45,574.56Z"/><path class="cls-2" d="M52.48,554.75c.35-.72,1-1.24,1.1-2.13C52.84,553,52.84,554,52.48,554.75Z"/><path class="cls-2" d="M82,532.32c-.21.58.28.09.21.45.4-.33.51-.88.76-1.31C83,531,82.53,532.34,82,532.32Z"/><path class="cls-2" d="M38.1,559c0-.22-.18,0-.32,0,0-.52.45-.74.45-1.29A4,4,0,0,0,36.94,560C37.55,559.39,37.53,559,38.1,559Z"/><path class="cls-2" d="M55.14,542.05c.43-1.06.67-.68,1.31-1.68a5.15,5.15,0,0,1-.05-1.15C56.05,540.16,55,541.63,55.14,542.05Z"/><path class="cls-2" d="M96.31,512.89c-.46.13.51-1,.07-1-.46.26-.34,1-.89,1.2.39.05-.12,1.13.8.65a3.71,3.71,0,0,1,.81-1.55C97.17,511.64,96.55,512.75,96.31,512.89Z"/><path class="cls-2" d="M98.7,509.88c.76-.66.81-1.9,1.78-2.4.13-.77-.5.36-.45-.09A25.67,25.67,0,0,0,98.7,509.88Z"/><path class="cls-2" d="M100.84,505.85c-.33.25-.32,0-.68.27a9.82,9.82,0,0,1-2.07,3c.67.26,1.36-1.82,2.36-2.2a2.08,2.08,0,0,1,1.31-1.68,14,14,0,0,0,.84-2.36c-.3.31-.54.67-.84,1-.22.59.28.1.21.45a4,4,0,0,0-.29.59c-.27.1,0-.62-.63,0C100.76,505.41,100.7,505.65,100.84,505.85Z"/><path class="cls-2" d="M42.57,535.35c0,.25.15,0,.18-.12.27-.2.53-.39.5-.14.27-.24.28-.69.39-1.06C43.23,534.43,42.94,534.93,42.57,535.35Z"/><path class="cls-2" d="M55.79,519.44c0,.44,2.05-1.93,2.26-3.11-.24.21-.74,1.54-.84,1C56.58,517.88,56.61,519,55.79,519.44Z"/><path class="cls-2" d="M62.8,511.12c.61-.65,1.33-.6,1.68-1.93-.67-.21-1.39,1.91-1.84,1.25C62.24,511.35,63.19,510.21,62.8,511.12Z"/><path class="cls-2" d="M95.88,483.89c0,.59.55-.6.79-.74.13-.42-.18-.39.15-.7.08-.22,0-.17-.13-.11l-.37.25c.23-.11-.08,1.27-.15.7C95.86,483.58,96.24,483.6,95.88,483.89Z"/><path class="cls-2" d="M76.72,491.36c.25.19,1.18-1.4,1.68-1.93.26.52,1.5-.72,2-1.14-.41-.26-1.12-.06-1.71,0,.58.66-.85,1.05-1.6,2.27C77.19,490.74,77.13,491,76.72,491.36Z"/><path class="cls-2" d="M81.87,486.48c.43,0,1.48-1.9,2.15-2.65.11-.73-.94,1.16-.87.39A5.53,5.53,0,0,1,81.87,486.48Z"/><path class="cls-2" d="M79.63,487.41c-.31.86.28.11.37-.25.31-.22.44-.15.44.09.26-.25.39-.61.66-.84-.33.24-.93.13.16-.7,0-.28-.42.12-.69.26A2.48,2.48,0,0,1,79.63,487.41Z"/><path class="cls-2" d="M86,478.54c-.26.25-.38.61-.65.85-.3.8.4.1.11.91C85.78,479.7,85.63,479.56,86,478.54Z"/><path class="cls-2" d="M88.25,468.28c.21.26-.08.32-.21.94.61-.56,0,.65.82-.16,0-.23.11-.47.16-.7-.4.2-.8.36,0-.58C89.08,467.22,88.6,468.32,88.25,468.28Z"/><path class="cls-2" d="M101.61,458.81c-.39.4.12.23.18-.12.21,0,.23.26.16.68.47-.52.49-1.66-.06-1.15A.94.94,0,0,1,101.61,458.81Z"/><path class="cls-2" d="M123.48,444.74c.22-.19.16-.3.06-.23.13-.72,1-.8,1-1.67-.72.33-.87,1.13-1.31,1.68C123.21,444.75,123.55,444.43,123.48,444.74Z"/><path class="cls-2" d="M100.41,448.74a4.28,4.28,0,0,0-1.55,2.05c.92-.54,1.35-1.47,2.18-2.08-.22-.76.85-1.79,1.25-2.83C102.2,446.07,100.16,448.25,100.41,448.74Z"/><path class="cls-2" d="M102.4,446.79c.68-.91,1-2.14,1.89-2.86-.64-.77,2-2.69,2.51-4.28-.1-.1-.47.2-.45-.1-.45.83-.62,1.88-1.59,2.28a17.13,17.13,0,0,1-2.18,3.46c0,.27.42-.13.69-.27C103,445.66,102.44,446,102.4,446.79Z"/><path class="cls-2" d="M99.58,447.52c.88.31,3.51-3.82,3.75-4.92C102.19,444.23,100.9,446.92,99.58,447.52Z"/><path class="cls-2" d="M109.16,434.68a25.34,25.34,0,0,0,1.54-2C110.43,432.43,109.48,434,109.16,434.68Z"/><path class="cls-2" d="M115.79,425.22a30.81,30.81,0,0,0,3.85-5.38c-.86.45-.93,1.54-1.57,1.46.39.52-1,1.4-1.15,2.37-.63.53-.14-.89-.82.16C116.67,423.78,116.41,424.35,115.79,425.22Z"/><path class="cls-2" d="M114.89,425c.37.29,1.08-1.49,1.55-2,0-.57-.53.62-.92.63C115.39,424.47,115.58,424.35,114.89,425Z"/><path class="cls-2" d="M119.88,419.48a20.12,20.12,0,0,0,2.67-3.6C121.35,415.8,120.51,418.2,119.88,419.48Z"/><path class="cls-2" d="M133.14,400.57a14.85,14.85,0,0,0,1.23-2l-.55.38C133.82,399.66,133.22,399.89,133.14,400.57Z"/><path class="cls-2" d="M138.87,389.55c-.1.46-.2.93-.31,1.4.71-.84.17-1.27,1.1-2.14C139.73,388.3,139.11,389.42,138.87,389.55Z"/><path class="cls-2" d="M146,379.38c.83.18.36-1.33,1.62-1.7a.8.8,0,0,1,0-.58C146.77,377.63,146.53,378.64,146,379.38Z"/><path class="cls-2" d="M157,362.2c-.39.4.12.23.18-.13.37-.19.23.38.35.56.42-.57.5-1.43,1.18-1.79-.18-1.26.88-1.89,1.44-3,.39-.91-.56.23-.16-.68-.49,1.16-1.44,1.95-1.81,3.21-.34.25-.33,0-.69.27C157.7,360.83,157.31,361.71,157,362.2Z"/><path class="cls-2" d="M176.4,333.16c.93-.71.89-2.21,1.89-2.86,0-.28-.42.12-.69.27C177.5,331.68,176.51,332.06,176.4,333.16Z"/><path class="cls-2" d="M188.32,314c.26.19,1.78-2.07,1.6-2.27A15.19,15.19,0,0,1,188.32,314Z"/><path class="cls-2" d="M201.44,297.15c0-.41-.23-.49-.3-.79a3.74,3.74,0,0,0-.81,1.54c.46-.17.46-.73.71-1.07S200.43,298.09,201.44,297.15Z"/><path class="cls-2" d="M244.92,226.63c.29.39.94-1.23,1.44-1.58.08-.22,0-.17-.13-.1l-.37.25C245.74,225.83,245.21,226.13,244.92,226.63Z"/><path class="cls-2" d="M310.27,181.42c.72-1,1.28-2.07,2.07-3-.12-.73,1-1.92,1.57-2.85,0-.16-.13-.11-.08-.34-.16.15-.15,0-.13-.11C312.69,177.33,311.25,179.19,310.27,181.42Z"/><path class="cls-2" d="M309.58,119.15c.44-1.09-.5-.07-.06-1.16-.15.15-.23.37-.42.49,0,.15-.07.31-.1.47C309.78,118.13,308.8,120,309.58,119.15Z"/><path class="cls-2" d="M315.22,111.35c1-.7-.59-.29.26-1.16,0-.52-.77.62-.71,1.07C315.16,110.93,315.33,110.92,315.22,111.35Z"/><path class="cls-3" d="M325.47,150.88a14.56,14.56,0,0,0,1-2.5C325.46,150.42,323.88,154.29,325.47,150.88Zm4.15-9.42a4.66,4.66,0,0,1,.61-1.78C330.45,139.8,329.92,140.76,329.62,141.46Zm-5.43,11.82a34.28,34.28,0,0,1-1.78,3.95,10.67,10.67,0,0,1,.31-1.32C322.73,156.82,323.78,153.58,324.19,153.28Zm6.49-14.59c-.14-.13.33-.95.19-1.08s-.07.47-.44,1a5.67,5.67,0,0,1,.53-1.82c0,.31.07.28.28-.19C331.55,136.74,331.06,137.78,330.68,138.69Zm-10.19,22.15a22.4,22.4,0,0,1-1.78,3.95C319,163.62,320,162.19,320.49,160.84Zm4-9.16c0,.29-1,2.67-1.2,2.44C323.76,153,324.11,152.68,324.53,151.68Zm-.36.16c-.48,0,1.71-3.93,2.51-6C326.23,147.88,324.89,149.74,324.17,151.84Zm-9.82,22c-.23.5-.45,1-.67,1.49-.4.12.32-1,.5-1.55Zm-1.28,2.41c-.08.44-1.11,3-1.42,2.93C312.36,177.7,312.51,177.42,313.07,176.24ZM301,202.31c.09-.93,1.29-3.29,2.06-5C302.55,199,302,200.1,301,202.31ZM290.2,225.67c-.3-.54,1.28-2.59,1.92-4.47C292.28,221.31,290.73,224.38,290.2,225.67Zm-2.33,5.18c-.12-1,1.15-2.79,1.5-3.76C289.59,227.54,288.28,229.7,287.87,230.85ZM331.17,134c.39-1.8,1.77-3.23,2.33-5.19C333.64,129.51,332,132,331.17,134Zm-35.35,78.8a13.75,13.75,0,0,1,1.06-2.78A11.36,11.36,0,0,1,295.82,212.78ZM341.66,110.5c-.53.89-.58,1.38-1.2,2.43C340.47,112.64,341.42,110.26,341.66,110.5ZM240.79,322a30.54,30.54,0,0,1-1.89,4.2C238.87,325.35,240.24,323.22,240.79,322Zm82.91-186.2c-.17,0,0-.36-.22-.37a43.12,43.12,0,0,0,2.36-3.73C325.52,133,324.76,133.81,323.7,135.82Zm5-12.25a10.56,10.56,0,0,1-1.12,2.47A6.8,6.8,0,0,1,328.74,123.57Zm-12,24.94c-.12,1.15-1.7,3.37,0,0Zm-77.25,171.3a5.94,5.94,0,0,1-.89,2C238.53,321.31,239.2,320.72,239.48,319.81Zm70-155.57a7.29,7.29,0,0,1,.91-2.25A8.06,8.06,0,0,1,309.44,164.24ZM242.87,311.85a18.51,18.51,0,0,1-1.14,2.75,25.44,25.44,0,0,1,1.68-4.57c.08.54-.6,1.37-.95,2.53C242.57,312.56,242.73,312.14,242.87,311.85ZM304.32,175.6a41.05,41.05,0,0,1,2.42-6A42,42,0,0,1,304.32,175.6Zm-17.56,38.72c.16-1.38,1.61-3.56,2.36-5.46C288.73,210.42,287.83,211.75,286.76,214.32ZM316,148.51a38.31,38.31,0,0,1-1.7,4A43.22,43.22,0,0,1,316,148.51ZM270.38,248.3c-.16-.67.6-1.66,1.17-3A8.22,8.22,0,0,1,270.38,248.3Zm-14,27.65a30.87,30.87,0,0,1,1.48-3.49A16.07,16.07,0,0,1,256.37,276Zm16.2-37.21c-.24.72-.4.6-.64,1.2C271.85,239.66,272.3,238.47,272.57,238.74Zm53.6-90.49a26.35,26.35,0,0,1-1.25,3c-.08,0,.07-.33.14-.53s-.12.07-.2.22A11,11,0,0,1,326.17,148.25ZM330.8,135c-.2.26-.16-.23-.61.93.21.13.72-1,.14.34.15,0,.35-.6.53-1a.91.91,0,0,1-.06.56c.15-.05.2-.44.14-.53.63-.66,0,1.18-.28,1.91s-.32,0-.33-.12c-.37,1-.51,1.47-.92,1.39.28-.63.2-.28.28-.19.39-.76.24-.92.69-1.76-1,1.09-3,6-3.11,6.92.1.15-.81,1.07-.78,1.72.29-.1.64-.68,1-1.63.31-.27-1,2.34-1.37,3.24-.14-.09.31-.84.09-.84-.43.77-.22.82-.2,1.08-2.57,5.53-4.51,10-7.4,16,.58-.85.16.12-.09.83-.18,0-.07-.25.06-.56-.4.3-.65,1.45-.5,1.55a6.68,6.68,0,0,0-.95,1.66c-1.3,2.65-.72,1.68.5-1.54a41.07,41.07,0,0,0-1.86,3.92c-.15-.48.15-.9.59-1.51-1.35,1-2.89,6.21-4.76,9.47a41.64,41.64,0,0,0,2.51-5.12c.06.57-.4,1-.81,2,.87-.39,1.82-4.39,2.83-5-3.4,7.08-6.51,13.09-9.48,19.54-.2.56-.32.29-.5.68-1.78,5.1-4.32,9-7.4,16,.38,0-.43.81-.5,1.54-.38.64.07-.63-.11-.61-.89,2.15-.65,2.59-2.14,5,.5-1.25,1-2,1.22-2.71-1.42,2.81-3.29,7-4.42,9.6,1-1.74,2-4.39.83-1.43a26.74,26.74,0,0,1-1.14,2.75c-.36.37-.08-.24-.44.13-1.42,3.51-2.76,6.19-3.6,9-.14-.12.47-1.09.39-1.29-.58.57-.81,2.2-1.3,2.68-.13.35.11.28.22.37-.59,1-.19.64-.7,1.76,0-.28.27-1,.11-1.11-1.15,2.6-2.73,5.59-3.89,8.64.11,0,.27-.42.42-.71,0,.71-1.23,2.36-1.59,3.73.9-1.16,2.45-5.37,3.67-7.28,1.15-2.27-1.24,3-1.59,3.73-2.85,6.07-6.1,12-9.18,19.07.27-1.56,2.16-4.94,3.07-7.22-.55.42-1.38,3.21-1.67,2.84-.35.77-.06.81-.61,1.79-.07-.12.06-.48,0-.58a18.17,18.17,0,0,1-1.11,2.47c.14,0,.35-.6.53-1-.15.71-1.41,3.42-1.2,2.44-3.41,7.59-8.73,17-12.79,26.66.26-.08.67-1.53.94-1.67a10.83,10.83,0,0,1-.89,2c.54-.25,1.62-3,2.14-4.11s1-2.4,1.67-3.7a124.22,124.22,0,0,1-5.18,11.91c0-.18,0-.69-.36.15a30.81,30.81,0,0,1,1.48-3.48c-1.22,2.35-2.49,5.3-3.7,7.56.24,0,.6-1.31.84-1.42-1.42,3.07-4.12,8.37-4.84,10.3,0,.59-1.77,2.4-2.22,3.22-.77,1.38-1.38,4-2.42,4.29a4.63,4.63,0,0,0,.53-1c-.37.27-.83,1.35-1.19,1.57.75-.79-1.14,3.83-1.48,3.49a17.48,17.48,0,0,1-.72,2,1.55,1.55,0,0,1,.08-.84c-.36.26-1.27,1.52-1.16,2.16-.57,1-1,.75-1.64,2.57-.61.07-1.31,1.09-2.05,2.41-.11-.29.8-1.71.73-2-.73,1.11-.83.56-1.47,1.77-.08-.1.22-.78.33-.75.11-.58-.7.81-.94.81a15.19,15.19,0,0,1-.92,2.25c.54-3,2.72-8.23,4.25-12a7.42,7.42,0,0,1,1.1-1.6,8.78,8.78,0,0,1,.4-1.3c-.14,0-.62,1-.17-.06a12.29,12.29,0,0,0-1.05,1.91c-.33-.21.74-2.64,1.56-4.31a37.45,37.45,0,0,1,2.45-6.3,11,11,0,0,0,0-1.13c-.71,1.85-1.91,4.25-2.11,5.55-.13-.71-.58.89-1,1.63.26-1.63,2.49-5.48,3.09-7.49-1.18,2,0-2.48,1.17-3.89-.11-.07.05-.76.34-1.6.06.15,0,.38-.17.8,1.31-1.83,2.79-5.34,4.23-8.52.26.28-.51,1.72-1,2.81,3.43-6.81,7.44-17.5,11.33-25.76.6-1.28,1.35-2.51,1.84-3.64a6.66,6.66,0,0,1,1-1.36c1.81-4.1,2.87-6.13,4.62-9.81.11-.29,0-.17-.08,0,1.59-3.7,4.17-8.88,5.73-12.29-2.05,4.9-5.56,12.44-8.43,18.49,2-3,3.81-7.77,5.89-12.22,1.34-2.87,2.71-5.69,3.95-8.34s2.51-6,3.42-7.37c4.44-9.93,7.79-16.83,11.66-25.64-.35.48-1.17,2.41-1.86,3.92a32.8,32.8,0,0,1,1.92-4.47c.36-.75,1.68-3.42,1.06-1.92-.47,1.17-.79,1.45-1,2.22a47.83,47.83,0,0,0,3-6.66c1.19-1.64,3.4-7.3,5.51-11.79,2.82-6,5.76-13,9.18-19.93.14-.4-.24.16-.06-.31a7.77,7.77,0,0,1,.7-.89c.14-.41-.17-.31.28-1.05.07,0-.07.32-.14.52,1.06-1.73,2.3-5.11,3.3-6.26,0-1,2.12-4.62,3-7,.53.19-.35,1.18-.84,2.29,1.55-2.42,1.49-3.13,3.34-6.55a22.37,22.37,0,0,0-2.23,4.08c.28-1.87,2.24-5.06,3.31-7.13-.56.72-1.13,1.59-1.72,2.53.76-2,2.43-3.29,3.22-5.43-.49,1.69-1.62,2.93-2.22,4.94,2.32-3.81,4.27-8.2,6.61-11.67.4-.74,0-.56.39-1.3-.05.75.64-.67,1-1.08.08.19-.63,1.16-.86,1.7.22.35.64-1.28.91-1.39,0,.53-.72,1.47-1,1.94a7.65,7.65,0,0,0,2-3.27c.35.82,1.58-2,2-2.72a12.54,12.54,0,0,1-.92,2.25c.25-.25.55-.89.8-1.14.36.45-.65,1.93-.7,2.62.75-1.16,1.56-2.89,2.33-4.32-.23.09-.58,1.24-.77.87,1.05-1.63,2.41-4.33,2.83-4.14-.11.28,0,.17.08,0-.77,2-2.07,3.59-2.84,5.86.48-.34.5-1.08,1.09-2.19-.2,1.22.2-.23.44-.12-.53,1.47-1,1.56-1.2,2.43.12.13.28-.17.2-.21-.05,1.73-2.7,7-3.41,9.68.41-.42.55-1.59,1.06-1.91-.41-.17.35-.73.83-2.28C331.46,132.83,330.74,134.17,330.8,135ZM252.66,303.37c-.3.7-1,1.27-1,1.92C251.91,304.6,252.65,304,252.66,303.37Zm.57-16.2c.45-1.13,1.11-1.85,1-2.5A8.86,8.86,0,0,0,253.23,287.17Zm11.89-27a23.7,23.7,0,0,1-1.75,3.68,21.75,21.75,0,0,0,2.39-4.88C265.59,259.34,265,259.87,265.12,260.17Zm55.52-101.58-.25-.09c-.31.54-.65,1.69-.28,1.05C320,159.25,320.47,159.25,320.64,158.59Zm-3.44,6.79a11.43,11.43,0,0,0,1.47-2.62C317.86,163.55,317.94,164.2,317.2,165.38Zm3.7-8.42c-.21-.17-1.45,2.49-1.09,2.19A8.76,8.76,0,0,0,320.9,157Zm-10.57,22.59c-.12.92-1.15,2.09-.87,2.56C310.16,180.76,310.66,179.49,310.33,179.55Zm17.56-38.73c.1-.18.19-.26.27-.18a18.82,18.82,0,0,1,1.34-3C329.13,137.66,328,140.71,327.89,140.82Zm-16,35c-.4.91-.81,1.81-1.22,2.72.19.11.05.57.44-.12C310.71,178.38,312.26,175.52,311.91,175.81Zm-3.7,8.43c.51-.25.72-1.29,1.14-1.89C309.05,182.19,308.57,183.87,308.21,184.24Zm-53.13,114c-.38,1.15-1.24,2.1-1,2.5C254.32,300,255.48,297.74,255.08,298.22Zm-8.22,15.68a16.08,16.08,0,0,0,1-2.5C247.38,312.66,246.85,313.06,246.86,313.9Zm-.16-.93c.47-.74-.42,1-.09.84.48-1.41,1.17-2.41,1.48-3.49C247.67,311.25,246.82,312.15,246.7,313Zm57.36-135.74a14.8,14.8,0,0,0,1-2.5A15.14,15.14,0,0,0,304.06,177.23ZM252,291.3c-.22.43-.48,1.27-.61.93-.55,1.23-1.73,3.8-1.12,3.33C250.13,295,251.62,292.87,252,291.3Zm-5.62,12.9c1.29-2.86.43-2.05,0,0Zm21.35-48.84c-.3.65-.71,1.44-.51,1.54.23-.73.9-1.64.78-1.73C267.85,255.36,267.75,255.43,267.68,255.36Zm-20.42,44c.15-.29.16-.12.16.06a15,15,0,0,1,1.2-2.44c-.35.86.08.4-.48,1.27.38.14,1.5-2.51,1.42-2.93-.28.49-.63,1.66-.86,1.69.45-1-.33.05,0-.86A18.56,18.56,0,0,0,247.26,299.36Zm49.21-105.93c-.22-.32,1-2.35.94-2.53C298.06,190.46,296.5,192.76,296.47,193.43Zm-10.41,39.93c.18.42-.47,1-.61,1.79-.08-.08-.17,0-.28.18A9.06,9.06,0,0,1,286.06,233.36Zm43.54-94.2c.07.08-.06.26-.11.24a22,22,0,0,1-1,2.5c-.2-.19.6-1.41.17-.8-.19-.11.35-.84.44-1s.13-.47.06-.55-.38,1.2-.39.43c-.46.76.18.29-.28,1-.2-.26.27-1.28.76-2.31C329.27,139.15,329.34,139.47,329.6,139.16Zm-36.2,79.63c-.33-.16-.09-1,.48-2.13.39-.46-.9,2-.45,1.85,2-4.83,2.85-6.3,5-10.83.39,0-.51,1.39-.73,2-.06,0,.05-.36.14-.53C296.75,211.22,295,215.51,293.4,218.79Zm43.42-98.85c-1,1.86-1.95,3.43-.69.9a24.41,24.41,0,0,0,1.17-2.17c.09,0,0,.13,0,.28s.12-.07.19-.21c-.16.91-1.06,2-1.53,3.17C335.89,121.36,336.56,120.78,336.82,119.94Zm-71,156.89a4.43,4.43,0,0,1,.7-1.76A12.08,12.08,0,0,1,265.78,276.83Zm-20.09,40.09c-.15.28-.18.45-.14.52-.28.7-.42.12-.67.62C244.79,318,245.54,316.59,245.69,316.92Zm81.09-186c-.07.88-.8,1.12-1.17,2.17C325.67,132.3,326.42,131.77,326.78,130.91Zm-11.92,21.52c.12-.32-.05-.31-.16-.06.55-1.17,1.22-2.67,2-4.17.06.55-1.49,2.89-.89,2.84C315.49,151.6,314.17,153.51,314.86,152.43Z"/></g></g></svg>