<svg xmlns="http://www.w3.org/2000/svg" xmlns:xlink="http://www.w3.org/1999/xlink" viewBox="0 0 258.03 657.27"><defs><style>.cls-1{fill:none;}.cls-2{clip-path:url(#clip-path);}.cls-3{fill:#dc1f86;fill-rule:evenodd;}.cls-4{fill:#f59f1f;}.cls-5{fill:#553f92;}</style><clipPath id="clip-path" transform="translate(-115.24)"><rect class="cls-1" y="45.64" width="419.25" height="584" rx="4.27"/></clipPath></defs><title>wind_editsounds_paint</title><g id="Laag_2" data-name="Laag 2"><g id="Vensters_edited" data-name="Vensters edited"><g class="cls-2"><rect class="cls-1" x="-95.85" y="308.02" width="680.22" height="41.23" transform="translate(-260.76 454.09) rotate(-71.22)"/><path class="cls-3" d="M140.32,641.89a2.24,2.24,0,0,0,.71-1.69C140.83,640.78,140.27,641.19,140.32,641.89Z" transform="translate(-115.24)"/><path class="cls-3" d="M140.11,640c.12-.62.75-1,.71-1.7C140.51,638.82,139.94,639.23,140.11,640Z" transform="translate(-115.24)"/><path class="cls-3" d="M143.17,636c.41-.53.16-.66.41-1.61-.31.23-.38.57-.58.85C143,635.69,143.19,635.56,143.17,636Z" transform="translate(-115.24)"/><path class="cls-3" d="M156.23,621.46l.58-.62c-.14-.52.19-.82.11-1.31A2.31,2.31,0,0,0,156.23,621.46Z" transform="translate(-115.24)"/><path class="cls-3" d="M141.38,636.75c.12.4.84-.78.72-1.24-.3-.13-.26.42-.74.78A.3.3,0,0,1,141.38,636.75Z" transform="translate(-115.24)"/><path class="cls-3" d="M157.36,618.84c.26-.75.53-.65.88-.94-.15-.43-.47-.37-.91,0Z" transform="translate(-115.24)"/><path class="cls-3" d="M147.57,626.15c.19.36.79-1,.56-1.55C147.59,625,148,625.77,147.57,626.15Z" transform="translate(-115.24)"/><path class="cls-3" d="M160.63,611.81c.13-.28.2-.88.28-.54.32-.3.05-.89.12-1.3.4-.17.75-.76,1.16-1.48-.63-.27-.1-1.56.07-2.68a3.5,3.5,0,0,1-.86,1.62c.43.19.13.45,0,1.38-.13,0-.25,0-.45.24a2.26,2.26,0,0,1-.56,1.54C160.44,611.17,160.45,611.72,160.63,611.81Z" transform="translate(-115.24)"/><path class="cls-3" d="M148.71,623.75c.19-.21.39-.41.59-.62a.51.51,0,0,1,0-.69C149.16,622,148.5,623.25,148.71,623.75Z" transform="translate(-115.24)"/><path class="cls-3" d="M147.39,620.41a3.38,3.38,0,0,0,.4-1.84C147.51,619.14,147,620.21,147.39,620.41Z" transform="translate(-115.24)"/><path class="cls-3" d="M168.19,596.44c.44-.45.72-1.47.4-1.62A5.35,5.35,0,0,0,168.19,596.44Z" transform="translate(-115.24)"/><path class="cls-3" d="M149.64,614.71c.27-.62.89-1.08.7-1.93A4.16,4.16,0,0,0,149.64,614.71Z" transform="translate(-115.24)"/><path class="cls-3" d="M162,596.87c.44-.77.05-.83.25-1.92a2.58,2.58,0,0,1-.44.7C162.2,596.17,161.43,597,162,596.87Z" transform="translate(-115.24)"/><path class="cls-3" d="M150.94,607.65c-.17-.36-.67,1-1.18,1.24C149.9,609.63,150.59,608.14,150.94,607.65Z" transform="translate(-115.24)"/><path class="cls-3" d="M153.92,601.16a5.75,5.75,0,0,0,.54-2,20.25,20.25,0,0,1-1.14,2.16C153.23,602.06,154,600.43,153.92,601.16Z" transform="translate(-115.24)"/><path class="cls-3" d="M170.51,583.31c.39.46.5-1.1.71-1.47C170.92,581.43,170.72,582.93,170.51,583.31Z" transform="translate(-115.24)"/><path class="cls-3" d="M169.38,581.19c-.46.31-.15,1-.72,1.24.08.44.29.54.62.29C169.09,582,169.77,581.36,169.38,581.19Z" transform="translate(-115.24)"/><path class="cls-3" d="M177.9,572.15a3.64,3.64,0,0,0,.85-2.09A9.75,9.75,0,0,0,177.9,572.15Z" transform="translate(-115.24)"/><path class="cls-3" d="M147.78,603.88c.42-.25.37-.72.73-1,0-.78-.34-.4-.76.1Z" transform="translate(-115.24)"/><path class="cls-3" d="M151.59,599.6c.52-.36.62-.91.87-1.4C152.31,597.86,151.38,599,151.59,599.6Z" transform="translate(-115.24)"/><path class="cls-3" d="M149.48,600a.43.43,0,0,0,.14-.39c.95-1.35,1.12-3.08,2-4.47.06-1-.4-.55-.49-1.14-.54.76,0,.81-.26,1.46-.46.63-.46.05-.73.78.41.22-.1,1.27-.09,2-.45.31-.53.8-.87,1.16C149,600.28,149.64,599,149.48,600Z" transform="translate(-115.24)"/><path class="cls-3" d="M173.35,572.24c-.24.35,0-.87.12-1.08-.26-.59-.2.77-.58.86-.1.86.25.46.33.83a11.92,11.92,0,0,0,.87-1.39C174,570.82,173.53,571.72,173.35,572.24Z" transform="translate(-115.24)"/><path class="cls-3" d="M137.66,610.13c.4-.56,1-1,.85-1.86A4.77,4.77,0,0,0,137.66,610.13Z" transform="translate(-115.24)"/><path class="cls-3" d="M137.05,610.06c.16.42.64-.87.56-1.31C137,609,137.33,609.67,137.05,610.06Z" transform="translate(-115.24)"/><path class="cls-3" d="M138.64,607.66c0-.59-.25-.46-.33-.83-.19.28-.22.64-.42.92C138,608.1,138.3,608,138.64,607.66Z" transform="translate(-115.24)"/><path class="cls-3" d="M174,569.85c.45.28.7-1.46,1.15-1.93C174.87,567.16,174.23,569.16,174,569.85Z" transform="translate(-115.24)"/><path class="cls-3" d="M131.05,612.4a6,6,0,0,0,.37-2.76A9.49,9.49,0,0,0,131.05,612.4Z" transform="translate(-115.24)"/><path class="cls-3" d="M177.15,562.75c-.25-.12-.93.71-.87,1.4C176.52,564.26,177.3,563.49,177.15,562.75Z" transform="translate(-115.24)"/><path class="cls-3" d="M145.14,597c.53-.49,1.07-2.78.24-1.91C145.59,595.83,145.18,596.31,145.14,597Z" transform="translate(-115.24)"/><path class="cls-3" d="M155,585.84c.46.06,1.11-1.72,1-2.7-.25.35-.29.12-.31-.15C154.94,583.72,155.52,585.05,155,585.84Z" transform="translate(-115.24)"/><path class="cls-3" d="M137.29,603.18a3.26,3.26,0,0,0,1-2.24C138.09,601.75,137.28,602.27,137.29,603.18Z" transform="translate(-115.24)"/><path class="cls-3" d="M178.71,559.21c.13-.29.25-.56.29-.32.1-1.38,1-2.37,1.1-3.77C179.49,557,178.28,557.42,178.71,559.21Z" transform="translate(-115.24)"/><path class="cls-3" d="M148.52,588.65c.5-.29.2-1,.26-1.46a2.19,2.19,0,0,1-.44.69C148.46,588,148.52,588.24,148.52,588.65Z" transform="translate(-115.24)"/><path class="cls-3" d="M180.24,554.74c.12.58.31-.56.59-.63-.61.15.21-.68.1-1.53-.57.26,0,1.06-.57,1.31A1.19,1.19,0,0,1,180.24,554.74Z" transform="translate(-115.24)"/><path class="cls-3" d="M181.23,552.5c.57-1.18,1.28-1.17,1.3-2.32-.69,1.07-.4-.57-1.05.4C182,550.86,181.17,551.76,181.23,552.5Z" transform="translate(-115.24)"/><path class="cls-3" d="M145.42,586.49c.41-.86.63-2.23,0-1.6C145.34,585.73,145.17,586,145.42,586.49Z" transform="translate(-115.24)"/><path class="cls-3" d="M183.61,546c.63-.6.61-1.52,1-2.24.32-.31.33.24.33.84.7-1.26-.11-1.54.65-3.31-.47.24-.33.34-.88.94,0,1,.2-.26.6-.39C184.82,543.21,183.82,544.39,183.61,546Z" transform="translate(-115.24)"/><path class="cls-3" d="M165.85,560.53a2.93,2.93,0,0,0,.38-2.3C165.89,559.05,165.55,560,165.85,560.53Z" transform="translate(-115.24)"/><path class="cls-3" d="M155.84,570.45c.28-.7.19-.18.59-.63-.06-.42-.32-.29-.47-.45C155.76,569.66,155.85,570.08,155.84,570.45Z" transform="translate(-115.24)"/><path class="cls-3" d="M163.19,553.17a5.57,5.57,0,0,0,.68-2.62C163.72,551.42,162.86,552.79,163.19,553.17Z" transform="translate(-115.24)"/><path class="cls-3" d="M149.78,561c.36-.35.44-.84.72-1.24.08-.74-.69.9-.6.16C149.7,560.22,149.79,560.64,149.78,561Z" transform="translate(-115.24)"/><path class="cls-3" d="M142,569a3.86,3.86,0,0,0,.52-2.46C142.32,567.36,141.71,568.74,142,569Z" transform="translate(-115.24)"/><path class="cls-3" d="M172.77,534.23l.58-.62c-.09-.11-.19-.22,0-.46C173.23,532.69,172.59,533.82,172.77,534.23Z" transform="translate(-115.24)"/><path class="cls-3" d="M149.76,555.58c.55-.72.56-1.69,1.29-2.32-.05-.43-.4,0-.61-.07.05-.6.63-1.3.26-1.46-.28.4-.09,1-.57,1.32C150.56,553.65,149.72,554.53,149.76,555.58Z" transform="translate(-115.24)"/><path class="cls-3" d="M172.32,529.73c.11-.32.4-.56.43-.93,0-.71-.55-.25-.75.32C171.84,530.06,172.48,528.79,172.32,529.73Z" transform="translate(-115.24)"/><path class="cls-3" d="M153.5,544.26c.41.11,1.44-2.37,1-2.7A7.42,7.42,0,0,1,153.5,544.26Z" transform="translate(-115.24)"/><path class="cls-3" d="M150.18,544.71a2.46,2.46,0,0,0,.54-2A8.66,8.66,0,0,0,150.18,544.71Z" transform="translate(-115.24)"/><path class="cls-3" d="M158.23,535.22a4.06,4.06,0,0,0,.7-1.93A4.16,4.16,0,0,0,158.23,535.22Z" transform="translate(-115.24)"/><path class="cls-3" d="M161.36,528.57c.3-.38.27-.92.56-1.31,0-.26-.37.2-.59.4Z" transform="translate(-115.24)"/><path class="cls-3" d="M162.18,525.57c.46-.38.36-1,.71-1.46C162.8,523.79,162,525,162.18,525.57Z" transform="translate(-115.24)"/><path class="cls-3" d="M183,502.52c0-.23-.06-.16-.15-.08,0-.29.26-.47.43-.7.08-.5-.46-.49,0-1.14,0-.8-.47,1-.45.24C182.62,501.46,182.27,503.39,183,502.52Z" transform="translate(-115.24)"/><path class="cls-3" d="M183.23,500.14a.87.87,0,0,0,.28-.77c.21-.24.42-.48.45-.24.2-.28.1-.7.12-1.07l-.73.77C183.49,499.36,183.16,499.65,183.23,500.14Z" transform="translate(-115.24)"/><path class="cls-3" d="M186.3,496.4a3.29,3.29,0,0,0,.41-1.61A1.76,1.76,0,0,0,186.3,496.4Z" transform="translate(-115.24)"/><path class="cls-3" d="M167,515.45c.39-.78-.18-1-.48-.67C166.19,515.75,166.85,515.2,167,515.45Z" transform="translate(-115.24)"/><path class="cls-3" d="M165.54,516.56c.49-.95,1.23-2.29.81-3C166.16,514.6,165.33,515.33,165.54,516.56Z" transform="translate(-115.24)"/><path class="cls-3" d="M167.43,514.07a8.66,8.66,0,0,0,.54-2,14.78,14.78,0,0,1-.85,1.85C167.16,514.14,167.42,513.77,167.43,514.07Z" transform="translate(-115.24)"/><path class="cls-3" d="M169.93,511.42c.46-1.76.86-2-.35-1.29C169.52,511,169.79,511.06,169.93,511.42Z" transform="translate(-115.24)"/><path class="cls-3" d="M188.25,490.55a2.88,2.88,0,0,0,.69-1.92A3.87,3.87,0,0,0,188.25,490.55Z" transform="translate(-115.24)"/><path class="cls-3" d="M192.36,481.45c.22-2,1.15-3.44.91-4.77a29,29,0,0,0-1.22,4.39c-.18.14-.14-.29-.17-.53C191.13,481.72,191.73,482.05,192.36,481.45Z" transform="translate(-115.24)"/><path class="cls-3" d="M173.35,499.5c.58-.92-.47-.63,0-1.15C172.83,498.06,173.05,499.74,173.35,499.5Z" transform="translate(-115.24)"/><path class="cls-3" d="M173.47,498.42a2.69,2.69,0,0,0,.39-1.84A3.38,3.38,0,0,0,173.47,498.42Z" transform="translate(-115.24)"/><path class="cls-3" d="M195,472.29l.58-.62c0-.43-.19-.3-.17-.76C195.27,471.38,194.91,471.74,195,472.29Z" transform="translate(-115.24)"/><path class="cls-3" d="M180.07,486.43c-.07-.37-.43,0-.33-.83C179.32,486.47,179.52,487.82,180.07,486.43Z" transform="translate(-115.24)"/><path class="cls-3" d="M182.78,456.55a1.37,1.37,0,0,0,.24-1.92A7,7,0,0,0,182.78,456.55Z" transform="translate(-115.24)"/><path class="cls-3" d="M190.06,437.2c.59-.69-.13-.91.55-1.77.44-.26-.06.84,0,1.15a2,2,0,0,0,.24-1.92c-.21.5-.36.66-.58.63-.09-1,.8-1.58.67-2.62a2,2,0,0,1-.72,1.24,4.06,4.06,0,0,1-1,2.7C189.56,436.75,190.17,436,190.06,437.2Z" transform="translate(-115.24)"/><path class="cls-3" d="M192.56,429.81l.59-.62c0-.87.15-.83,0-1.38-.52.57-.24,2-.58,1.08A.73.73,0,0,0,192.56,429.81Z" transform="translate(-115.24)"/><path class="cls-3" d="M194,427.1c-.21-.08-.18-.84-.2-1.44l-.44.46a.91.91,0,0,1-.13.62c.28.15.27-.11.17.76C193.66,427.19,193.72,427.45,194,427.1Z" transform="translate(-115.24)"/><path class="cls-3" d="M195.42,424.17c-.06-.78.42-1.31.39-2.08-.48.75-.42,1.77-1.14,2.4C194.89,425,195,424.29,195.42,424.17Z" transform="translate(-115.24)"/><path class="cls-3" d="M195.77,420.72c0,.64.08.93.47.45a2.57,2.57,0,0,0,.12-.85C196.23,420.29,196,420.43,195.77,420.72Z" transform="translate(-115.24)"/><path class="cls-3" d="M196.21,420.25c.26-.31.32-.05.59-.39,0-.43-.26-.33,0-.69-.05-.26-.37.2-.59.39C196.2,419.79,196.2,420,196.21,420.25Z" transform="translate(-115.24)"/><path class="cls-3" d="M196,418.8c.12.19,1.15-1.09,1-1.78A5.64,5.64,0,0,0,196,418.8Z" transform="translate(-115.24)"/><path class="cls-3" d="M200.84,408c-.13-.59.12-1,.1-1.54-.46.32-.26.94-.72,1.24C200.29,408.18,200.35,408.68,200.84,408Z" transform="translate(-115.24)"/><path class="cls-3" d="M202.77,401.92a2.3,2.3,0,0,0,.56-1.54c-.2.2-.39.41-.59.62Z" transform="translate(-115.24)"/><path class="cls-3" d="M204.17,398.29c.37-.72.66-1.49,1-2.24,0-.7-.8,1-.75.32-.26.45,0,.45,0,.69C204.39,397.49,204,397.75,204.17,398.29Z" transform="translate(-115.24)"/><path class="cls-3" d="M204.23,395.39c.3-.39.11-1,.41-1.39-.32,0-.55.46-.87,1.17C203.8,395.58,204.26,394.81,204.23,395.39Z" transform="translate(-115.24)"/><path class="cls-3" d="M207,391.51c0-1.37.82-2.32,1.25-3.47-.2-1-1.05,1.18-1.62,1.48.38.38.52.1.2,1.45-.64.68-.84.45-1.17,1.48C206,392.81,206.29,392.4,207,391.51Z" transform="translate(-115.24)"/><path class="cls-3" d="M206.07,390.83c.4-.78.51-1.71,1-2.46A3.1,3.1,0,0,0,206.07,390.83Z" transform="translate(-115.24)"/><path class="cls-3" d="M207.15,386.6c.26-.25.3-.6.58-.84,0-.65-.64.26-.63-.53a2.61,2.61,0,0,0-.26,1.23C207.38,385.76,207.19,385.67,207.15,386.6Z" transform="translate(-115.24)"/><path class="cls-3" d="M209.09,381c.31-.22.39-.57.59-.85-.24.07-.25-.49-.62-.06C209.33,380.26,209.06,380.37,209.09,381Z" transform="translate(-115.24)"/><path class="cls-3" d="M234.8,315.07a5.72,5.72,0,0,0,.82-3,26.3,26.3,0,0,0-1.29,2.32C234.43,314.77,234.66,314.81,234.8,315.07Z" transform="translate(-115.24)"/><path class="cls-3" d="M240.12,295.69c.47-.3.28-.92.56-1.32C240.57,294,239.91,295.19,240.12,295.69Z" transform="translate(-115.24)"/><path class="cls-3" d="M247.55,276.18c.31.14.91-1.51.84-2.31A16,16,0,0,0,247.55,276.18Z" transform="translate(-115.24)"/><path class="cls-3" d="M251.05,266.78c.11-1,.71-2.71.51-3.14C251.22,264.54,250.7,266.28,251.05,266.78Z" transform="translate(-115.24)"/><path class="cls-3" d="M257.12,247.54a16.21,16.21,0,0,0,.85-2.08C257.74,245.29,257,246.78,257.12,247.54Z" transform="translate(-115.24)"/><path class="cls-3" d="M265.31,228c-.16-.15-.17-.7-.33-.84a2.61,2.61,0,0,0-.26,1.23C265,228,265,228.29,265.31,228Z" transform="translate(-115.24)"/><path class="cls-3" d="M315.17,172.18c.76-1.45.61-3.33,1.37-4.77C315.68,167.91,315.43,170.64,315.17,172.18Z" transform="translate(-115.24)"/><path class="cls-3" d="M316.37,167.11a2.47,2.47,0,0,0,.55-2A6.23,6.23,0,0,0,316.37,167.11Z" transform="translate(-115.24)"/><path class="cls-3" d="M276.6,191.08c-.07-.22-.2-.27-.45,0a19.56,19.56,0,0,0,1-3.15,13.33,13.33,0,0,0-1.4,3.85C276.16,191.14,276.26,191.45,276.6,191.08Z" transform="translate(-115.24)"/><path class="cls-3" d="M279.92,185.43c-.25-.08-.16-1.07-.63-.52C279,185.69,279.45,185.92,279.92,185.43Z" transform="translate(-115.24)"/><path class="cls-3" d="M277.82,186.47c.06.26.38-.2.6-.4,0-.58-.05-.85-.19-1C277.93,185.46,278.23,186.13,277.82,186.47Z" transform="translate(-115.24)"/><path class="cls-3" d="M292.45,139.67a1.88,1.88,0,0,0,.1-1.54,2.74,2.74,0,0,0-.27,1.23C292.43,139.22,292.41,139.52,292.45,139.67Z" transform="translate(-115.24)"/><path class="cls-3" d="M292.49,136.3a1.44,1.44,0,0,0,0-1.38C292.14,135.75,292.2,136.18,292.49,136.3Z" transform="translate(-115.24)"/><path class="cls-3" d="M294.21,133.06a31.23,31.23,0,0,0,1.66-5.09c-.5.21-.05-.81-.05-1.6C295,128.7,295,130.43,294.21,133.06Z" transform="translate(-115.24)"/><path class="cls-3" d="M296,127.13a5.46,5.46,0,0,0,.53-2.23A3.26,3.26,0,0,0,296,127.13Z" transform="translate(-115.24)"/><path class="cls-3" d="M296.81,124.13a10.88,10.88,0,0,0,.84-2.32C297.34,121.83,296.69,123.2,296.81,124.13Z" transform="translate(-115.24)"/><path class="cls-3" d="M298.12,122.27a6.45,6.45,0,0,1,1-1.78c-.14-.68,0-1.08-.63-.75C299,120.12,298.11,121.39,298.12,122.27Z" transform="translate(-115.24)"/><path class="cls-3" d="M294.23,119.05c.26.4.58-1,.56-1.54-.32.23-.39.58-.58.86C294.19,118.79,294.47,118.69,294.23,119.05Z" transform="translate(-115.24)"/><path class="cls-3" d="M300.36,111.36c0,.22.06.16.15.07l.3-.3c-.18-.7.85-2.56.79-3.93-.17.22-.27.23-.31.09-.12,1-.47,1.88-.51,2.91-.73.8-.12-.57-.48-.68-.41.33.16,1.13-.26,1.46C300,111.32,300.9,110.38,300.36,111.36Z" transform="translate(-115.24)"/><path class="cls-3" d="M295.33,115.51a12.65,12.65,0,0,0,.94-3.84A22.92,22.92,0,0,0,295.33,115.51Z" transform="translate(-115.24)"/><path class="cls-3" d="M301.87,106.2c.19-.64.72-.39,1-1.32-.43.2-.55,0-.34-1.06A6.13,6.13,0,0,0,301.87,106.2Z" transform="translate(-115.24)"/><path class="cls-3" d="M301.82,104.6a7.19,7.19,0,0,0,.67-2.85A8.73,8.73,0,0,0,301.82,104.6Z" transform="translate(-115.24)"/><path class="cls-3" d="M304.89,95.89c-.05-.29-.45.39-.46,0-.49,1.28-.18,2.93-1.09,4C304.2,100.27,304.15,97,304.89,95.89Z" transform="translate(-115.24)"/><path class="cls-3" d="M302.89,100.14c.72-1.24.71-2.83.93-4.3C303.07,97.06,303.15,98.68,302.89,100.14Z" transform="translate(-115.24)"/><path class="cls-3" d="M302.78,96.47c.37.31.46-1.42.54-2C302.88,95,303.16,95.9,302.78,96.47Z" transform="translate(-115.24)"/><path class="cls-3" d="M303.52,95.92a5.75,5.75,0,0,0,1-3.38C304.44,93.8,303.54,94.65,303.52,95.92Z" transform="translate(-115.24)"/><path class="cls-3" d="M306.08,90.59c-.77,1-.62-.54-.19-1.22.49-.38.24.64.19,1.22.56-.34.21-1.1.72-1.46-.57-.67-.42-3.58-.31-4.89-.57-.19-.5,2.81-.21,3.06-.5-.08-.61,1.42-.89.71,0,1.67.13,3.14.18,5.5A4.54,4.54,0,0,0,306.08,90.59Z" transform="translate(-115.24)"/><path class="cls-3" d="M307.12,85c.06.26.38-.2.6-.4a7.65,7.65,0,0,1,.25-1.68c-.11-.14-.35.11-.32-.38-.21.35-.36.73-.57,1.08C307.1,84.23,307.73,84,307.12,85Z" transform="translate(-115.24)"/><path class="cls-3" d="M308.58,83c.17-.61.45-2-.19-1.22C308.3,82.56,308.56,82.43,308.58,83Z" transform="translate(-115.24)"/><path class="cls-3" d="M308.07,81.37c.25.53.34-.85.73-1-.23-.32-.33-.1-.18-1C308.15,79.9,308.32,80.74,308.07,81.37Z" transform="translate(-115.24)"/><path class="cls-3" d="M136.17,649.86c-.29.21-.14-.77-.61-.07,0,.39-.16.68-.12,1.08.61-1.55,1.15,1.29.74-.78a26.3,26.3,0,0,1,2.12-4.86c-.07-.91.15-1.11.57-1.32-.05-.21-.3.16-.31-.15.1-.8.38-.09.73-.77-.31-.34-.12-.72-.36-2a5.51,5.51,0,0,0-.39,2.3c-.64.37-.56,1.09-.7,1.69-1.16.94-1.46,3-2,3.56,0,1,.93-.71,1-1.09C136.93,648.42,136.06,648.9,136.17,649.86Z" transform="translate(-115.24)"/><path class="cls-3" d="M145.1,634.46a10.87,10.87,0,0,0,1.12-3.09c-.41.64-.4.09-.75.55C146,632.58,145.16,633.46,145.1,634.46Z" transform="translate(-115.24)"/><path class="cls-3" d="M146.92,629.68c.2-.56.09-.85-.31-.38,0-.29.26-.48.43-.7.08-.81-.18-.67-.19-1.22a13.4,13.4,0,0,0,1.1-3.54c1.3-1,1.12-2.78,1.85-4.09.59.37-.56,2.27-.07,2.68.53-2.25,1.54-3.29,1.79-5.92a1.65,1.65,0,0,0,.85-1.86c.52-.36.81.08.64,1,.33-.21.19-.66.42-.92-.39.25-.2-1.1-.77-.37.89-1.16.81-2.78,1.39-4.08-.31,1.91-.38,3.19-.49,3.6.77-.31.79-2.93,1.08-4.22.43.09.8-1.29,1-2,0-.22-.3.15-.31-.15a3.25,3.25,0,0,0,.13-.62c.16,0,.17.37.46,0,.59-1.59.85-3.35,1.36-5,.12-.09.15.07.3-.09-.46,1.79-.39,2.48-.78,4.15.84-1.18,1-2.68,1.7-3.94-.12-.58-.31.56-.59.63a3.09,3.09,0,0,1,.12-1.07c.55-.79.71,0,1-.87,0-.43-.2-.29-.18-.76-.14.16-.11.4-.13.61-.34.37-.92,0-.59.63-.83,1-.53-.5-.19-1.22-.11,1.07.67-1,.75-.09.33-.45,0-1.22.26-1.69.5-.43.2,1.05,0,1.61,0,.57.58-.28.61.29.45-.61.36-1.49.85-2.08.33.19,0,.88.19,1.45.7-.5.36-1.49,1-2-.15-.48-.45.81-.88.93a8.64,8.64,0,0,1,.71-1.69c-.63.71-.64.17-.92-.22a3.87,3.87,0,0,0,.13-.61c.47-.79.14.62.61-.16-.2-1.08,1.8-5.42,2.28-4.79-.1-.65.29-1.24-.05-1.38.6-.91.59-.12,1-.63-.42.92-.46,2-1,2.92.55-.42,1.4-2.64,1.7-3.93.29-.31.21.43.6-.16a4.41,4.41,0,0,1,1-2.93c-.35-.29,0-1.08-.63-.75.54-.42.3-1.38,1-2.24-.77.3.33-1.69-.06-1.84.74-1.28.17,1,.76.14a2.75,2.75,0,0,1,.4-1.84c.21,0,.31.3.47.45-.52,2.07-1.5,3.86-1.65,5.54.46-.31.15-1,.72-1.24,0-2.93,2.3-4.78,2.49-7.62,1.67-2.08,2.46-7,3.71-7.73.34-.74.62-1.51,1-2.24-.44-.68.46-1.81.67-2.84.15,0,.17.37.45,0-.37-.26.11-1.64.42-1.38.3-2.34,1.74-4.14,2.22-6.4-.44.51-.19-.63-.18-1,.31-.26.07,1,.33.84,1-1.62,1.19-3.65,1.8-5.47.57.32,1.38-1.83,1.14-2.39.42-.25.37-.73.73-1-.51-1.36,2.13-4.76,2.2-7.31,1.47-1.31,1.19-5.08,2.54-6a8.48,8.48,0,0,0-.55,1.77c.58-.24.67-2.44,1.4-3.85.29-.58,1.56-2.56,1.12-2.85,0-.48.52-.66.73-1,.18-1.5.94-2.72,1.08-4.23a66.17,66.17,0,0,0,3-7.4c25.29-64.16,47.17-129.94,69-195.75.38-.48.39.07.47.45-2.24,4.66-3,10-5.16,14.71.2.5.07.74-.1,1.53-.22.13.05-.35,0-.69-.46.69-.16,1.74-.84,2.32,0,.67.46.07.48.68-1.49,1.76-2.4,5.17-2.94,8.09a27.29,27.29,0,0,0-2.22,6.62c-.17.22-.26.23-.3.08-.74,3.63-3,8.21-3.15,10.7-.4.44-.31-.07-.59.62,0,.25.27-.09.45-.24-2,4.16-2.26,8.06-4.47,12.33.37.62-.88,2.63-1.25,3.7-.63,1.79-.54,3.28-1.25,3.92a10.18,10.18,0,0,1-1.67,4.63c-.16.93.48-.33.32.6.12.26-.68,1.11-.59.62,0,1.23-.68,2.09-.81,3.23-.24.35-.28.12-.31-.14-.06,1.55-.82,2.76-1.08,4.23-.63-.11-.1.07-.72,1,.19.09.21.64,0,1.14-.13,0-.34.11-.59.4.27,1.17-1.2,2.71-1.22,4.84-.25.28-.38.23-.45,0-.62,2.34-2.65,7.58-2.47,8.31-.33,1.2-1.25,2.11-1.11,3.54-.74.91-1.64,2.75-1.41,3.4-2.84,7.15-4.74,14-7.67,21.41,0,.42.15.25.16.53-.43.5-.42.74-1,1.55-.92,4.24-3.82,9.48-4.71,14.48-.26.31-.32.05-.59.39a40.25,40.25,0,0,1-1.8,5.47c.25,0,1.08-.13.66,1.67-.5.38-.53-.14-1,.86-.34.18-.19-1.27.26-1.46-.12-.87-1,1.06-.57,1.08-1.46,2.17-1.48,5-3,7.18.35.78-.41,2.34-1.26,3.24-.05.45.13.31.3.15-1,2.06-1.62,4.34-2.68,6.4.06.24.27.08.32.37-1.39,3-2.38,7.6-4,9.64,0,.22.19,0,.3-.08-1.38,3.41-2.36,7-4.08,10.26-.53,2.62-2.32,6.55-3.49,9.63-.09.82.42,0,.33.83a2,2,0,0,1-.28.77c-.59-1.13-1.25,2.21-1.87,3.17.29.55.39-.83.72-1s-.07,1-.11,1.3c-1.46.83-1.77,3.7-2.86,5.41-.09.82.41,0,.33.84,0,.28-.29.46-.28.76-.2.15-.14-.44-.18-.75a2.3,2.3,0,0,0-.55,1.77c.15.09.54-.51.46.21.3-.31.17-.82.58-1.08.08.79-.58,1.23-.39,2.08-.69.42-.7,1.17-1,1.77-.45,0,.54-1.23.4-1.84-1,1,0-.62,0-1.14-1.23,1.61-.53,1.72-1.57,3.32,0,.39.51-.39.61-.17s-.18.37-.29.54c.1.39.24.24.45-.24.08,1.17-.43,2.06-.36,3.22-.37.52-.5.85-.74.55-.29.84,0,2-.52,2.69-.32.38-.09-.74-.18-1-.45.54-.25,1.25,0,1.15,0,.69-.73,1-.7,1.69-.24.15-.15-.58-.61.17.28,1.15-.64,4.17-1.24,3.92-.25.86-.83,1.57-.67,2.62-1,.76-.83,2.65-1.59,2.86.57,1.44-1.77,3.34-1.65,5.31-.79,1.51-1.12,3.23-2,4.71-.41.43.33-1-.3-.15-.21,2.92-2.14,5-2.65,7.78.27-.25.31-.61.58-.85s.12.35.31.14c-.49,1.13-1.27,2.1-1.72,3.25.12.29.27-.25.44-.47.41-.21-.37.84-.11,1.31-.22,0-.37.12-.58.62.52,1.4-1.41,2.92-1.37,4.77-.46.59-.66.5-.62-.29-.46.38-.37,1-.71,1.46.05.26.37-.2.59-.39a3.59,3.59,0,0,1-.25,1.69c-.26.21-.35,0-.32-.61a22.54,22.54,0,0,1-1.39,4.08c-.23.15-.15-.59-.6.17.53,1.13-1.51,5-1.62,6.46-.54.26-1,1.84-.9.47-.38.79-.19,1,0,1.15-.24.83-1.11.67-1.15,1.94.4-.27.28-.78.57-1.09,0,.29,0,.38.16.3-.73,1.92-1.86,3.63-1.94,5.85-.41-.25-.42-.06-1,.41,0,.7.53,0,.9-.25.26,1.33-1.12,1.88-1,3.16-.71,1-.39-.75-.92-.21,0,.83.45.58.64,1,0,.87-.57.62-.57,1.08-.21.14-.14-.44-.18-.76-.35.62-.51,1.78-.1,1.53-1,1.11-.53,1.3-1.46,2a5.13,5.13,0,0,1-1,2.7c.15.26.61-.35.48.68l.74-.78c.26-.7-.29-.53.41-1.16,0-.45-.12-.31-.3-.15.45-1.18,1.62-5,2.15-3.94.32-.3,0-.89.11-1.3.55-.52.62.13.48.9.24-.35.91-2.34.26-1.68.18-.9.82-1.57.67-2.62.31-.26.07,1,.33.84.55-.53.67-2.78,1.15-1.94.36-.4,0-.79-.16-.53a6.21,6.21,0,0,1,1-2c-.07-.24-.28-.08-.32-.37,0-.52.38-.88.41-1.39.14,0,.24.18.32.38a19,19,0,0,1,1.66-5.09c.38-.34-.19.61,0,.92.43-.47.29-1.21.86-1.62a3.65,3.65,0,0,1-1,2.24c.44.88-1.07,2.6-1.09,4,1.12-2.46,1.76-4.81,2.67-6.86-.12-.58-.31.56-.59.63,0-1.44,1.12-1,1.14-2.4-.22.35-.36.74-.58,1.09-.21-.71.47-1,.25-1.69.31-.44.3,0,.32.37.15-.3.13-.69.43-.92-.42-.57,1.09-3.75,1.8-5.24.5-.17-.48.79-.26,1.23a58.72,58.72,0,0,1,2.94-7.86c.2-.14.14.44.18.76.68-.65.37-1.51.1-1.53.33-1.19.46.21,1-.87.2-1.15-.64.6-.61-.06.6-1.59.71-3.42,1.82-4.78-.33-.83.18-1.43.38-2.53.4-.63.39-.08.74-.55a13.8,13.8,0,0,1,1.09-3.77c.4-.15-.17,1.1-.26,1.46a6.11,6.11,0,0,0,1-3.38c.45-.66.31.32.75-.33.07.65-.44,1.39-.1,1.54a27.93,27.93,0,0,0,1.62-6.46c.62-1,.21.9.76.14a26.22,26.22,0,0,1,2.54-6,3.17,3.17,0,0,1,.84-2.31c0-.46-.41.13-.32-.61,1-1.26,1.47-5.13,2.27-5,.78-2.43,2.46-5.58,2.65-7.54.87-1,.85-2.46,1.86-3.41-.13-1,.56-1.69.37-2.76.41-.63.39-.08.74-.55a128.84,128.84,0,0,1,5.2-13.34c-.16-.21-.17-.77-.45,0a70.85,70.85,0,0,0,4.2-11.1c.13-1,1-1.62,1.29-2.55-.05-.21-.3.16-.31-.14A12.36,12.36,0,0,0,209.6,489c.29-.31.58-.63.88-.93a74.64,74.64,0,0,1,4.33-11.72c0-.16-.15-.07-.16-.3,2.8-6.65,4.91-13.63,7.56-20.35-.11-1.26,2-5.74,3.07-8.71.57-1.6.72-3,1.54-4l0-.92c.86-.53.69-2.6,1.71-3.7.61-3.48,2.95-7.88,3.87-11.94l.59-.62c1.23-5.21,3.66-9.86,4.84-15.09,1.26-2,1.28-4.51,2.53-6.48,0-1.5,1-2.53,1.09-4a72.52,72.52,0,0,0,3.76-10.86c3-7.92,5.22-16.19,8.2-24.1l0-.92c0-.38.25-.29.3-.08,1.23-4.36,2.36-7.43,3.57-11.86.2-.2.39-.41.59-.62.23-.82-.46-.55.25-1.69.22-.13-.05.36,0,.69.29-.49.5-1.36.26-1.46,10.92-31.52,19.88-62.67,30.13-94.3,0-.23,0-.46,0-.69,1.7-4.16,2.39-8.8,4.3-12.86.16-.79-.14-1.65.41-1.61a7.9,7.9,0,0,1,1.1-3.55l0-.91a21,21,0,0,0,1.38-4.54c2.84-7,4.28-14.68,7.52-21.5l0-.91a7.08,7.08,0,0,0,1.24-3.93c.27-.31.32-.05.6-.39-.41-.76.18-1.27.55-1.77a29.1,29.1,0,0,1,1.91-6.77c.25-.28.39-.23.46,0,.28-.56-.33-.89.4-1.84,0-.22-.19,0-.31.08.07-.65.56-1.09.4-1.85.25-.35.28-.11.31.15a12,12,0,0,1,.65-3.3c.59-.37,0,.73.05,1.37.43-2.5,1.07-4.91,1.59-7.37l.73-.78c.29.33,0-.63-.45.24a25.65,25.65,0,0,1,.65-3.76c.43-.13.77-1.56.74-.55.35-.61-.24-.84.7-1.93,0-1-.42.38-.59.62.07-1.55.91-2.72.93-4.3.17-.14.13.29.16.53.23-.34.11-.85.58-1.08-.56.18.06-.75,0-1.6,1.76-3.13,1.41-7.56,3.32-10.16-.49-.92.35-3,.63-4.23.49.25-.45,1.74-.38,2.53.27-.25.3-.6.58-.85-.17,1.2-.1,2.52-.34,3.68-.78-.43-1,2.9-1.1,3.54a20.51,20.51,0,0,0,2.17-8.23c.2-.14.14.44.18.76.31-1.24,1.16-3.73.47-4.06.11-.8.48-.36.74-.78.26-2.42.75-3.83,1-6.52a36.3,36.3,0,0,0,2.29-9.3,16.76,16.76,0,0,0,1.18-6c1.62-3.65,1.84-10.92,4.67-15.39-1.42.82.44-3.12-.55-3.21.43-1-.12-2.46.81-3.23a32.06,32.06,0,0,1,4-12.32c-.07-.62-.13-1.3-.49-1.13a3.28,3.28,0,0,1,1-1.78,3.21,3.21,0,0,1,.4-1.84c-.35-.44-.1-1-.36-1.53-.34.29-.14.84-.41,1.16a25.68,25.68,0,0,1,3.63-9.79c-.44-.6-.19-1.77.37-3A31.75,31.75,0,0,1,339,69l.88-.93c-.62.12.21-1.87.21-2.83.14,0,.27-.08.31.14a37.1,37.1,0,0,0,1.57-8.06c.84-3,1.94-7,1.82-9.75.77-2,1.09-6,1.28-7.75a50.6,50.6,0,0,0,.51-7.89c-.26.74-.54.64-.88.94-.06-.64.31-1.06.25-1.69-.49.89-.33,1.42-.86,1.85.22,1.17-1.12,2.51-.66,3.07,0,.53-.62.76-.87,1.16-.31,1.29-.69,2.54-1.1,3.78a34,34,0,0,0,0-3.6c-1.38,4.69-3.4,11-4.18,16.76a3.26,3.26,0,0,1-.71,1.47c.11.1.28.06.45,0a13.65,13.65,0,0,0-.4,1.84c-1,.56-.61,3.26-.46,4.52-.47.45-.43-.48-.49-1.14-.09.58-.6,1.32-.87,1.17,0-1.1.35-1.16.08-2-.39.34.18,1.14-.41,1.39-.1.77.23.37.19,1a2.1,2.1,0,0,1-.28.77c-.26-.12-.23-1-.49-1.14,0-.22.13-.39.13-.61.32.64.53-1.17.7-1.93.26-.31.32,0,.59-.4.35-1.8-.35-2.44,0-4.05.34,0,.1,1.54.21,2.14.26-.7.6-2.24.09-2,.92-1.75.91-3.94,1.18-6-.65,1-.44,2.5-.64,3.76-.52-1,.06-3.44.92-4.53a10.44,10.44,0,0,1,1.07-4.69c.55-5.09,2.45-9.53,3.18-14.52-.73.85-.82,2-1.73,2.79a6.64,6.64,0,0,1-1.42,3.16c0,.42.15.25.17.53-.81.6-.61,1.67-1.14,2.4-.32.3-.33-.24-.33-.84-.67.89-.66,2.1-1.12,3.09-.46.7-.22-.55-.6-.07-.77,1.41-.45,2.47-.93,4.3-.61.32-.24-1.81-.23-2.59a2.66,2.66,0,0,1-.59.85c0,.22.19,0,.31-.09-.08.86-.57,1.17-.26,1.69-.26.31-.31,0-.59.4a15.27,15.27,0,0,1-1.24,3.93c0,.56.24.66.61.29a2.93,2.93,0,0,1-.11,1.3,2.63,2.63,0,0,1-1.2.33c.45-1.6.65-4.18.15-4.9a41.11,41.11,0,0,1,2.35-7.24c-.84.35,0-1.35.39-2.3.43-.14-.38,1-.26,1.46.7-.87.39-2.22.65-3.3.47-.64.23.61.6-.39-.46-.46.45-3.13,1.07-4.47-.09-1.35.6-2.6.93-4.29-.49-.37-.6,1.35-.85,1.85.15-1.46.69-5,2-7.16-.09-1.89,2.49-7.21,1.26-8.21.68-1.35.17-2.16.81-3.23.28.09-.08.84.33.84C341,6,341.2,2.65,340.19,2c-.5.63-1.2,1.83-1.48,1.33-.94,1.52-1.74,4.19-2.9,4.27.17,1-.5,2.3-.07,2.68.17-.23.11-.55.13-.85.43-.26.17.17.17.76a2.45,2.45,0,0,0-.86,1.39c-.39.49-.49.2-.47-.44-.23.47-.32,1-.12,1.07-1,1-1.43,3.92-1.79,5.93-1.47,1.86-1.23,4.52-1.45,7l-.29.31c-.53-1.24.18-3.42,0-4.75-.36.29-.31.76-.73,1-.27,3.68-1.29,5.59-1.84,9.06-.12.09-.15-.07-.3.09a10.94,10.94,0,0,0,.34-3.91c-.42.41-.33,1.05-.72,1.47.42-.1.31.45-.12,1.07a.49.49,0,0,1,.62.29c-.58,1.06-1.16,3.71-.35,3.46.09.57-.56,0-.58.85-.2,0,.11-.84-.32-.61-.33.76,0,1.7.35,1.53-.07.56-.56.25-.89.7-.13,1.13.34.57.35,1.29s-.48.57-.45.24c-.44.75.13.77.18,1-.11.23-.59.94-.88.94-.13-.59.12-1,.11-1.54-.69,1-.3,1.79.05,1.84a7.47,7.47,0,0,0-.49,3.84c-.57.91-.37-.29-.75.09.15-.84.36-1.64.53-2.46-.58.61-.89.46-.93-.44-.33.43-.31,1-.11,1.07-.42-.06-.35.91-.89.94a9.74,9.74,0,0,1-.79,3.69c-.33.18,0-1.21.41-1.39,0-.22-.06-.15-.15-.08,0-.15,0-.3,0-.45a4.66,4.66,0,0,0-.68,2.38c-.45.25-.61-.31-1.06-.05.18.54,0,.51,0,1.37-.45.64-.54.34-.89.71-.05.55.12.5.18.76-.36.47-.34-.08-.75.55a22,22,0,0,1-1.1,3.54c-.53.36,0-.54-.19-1.22-.41.48-.15,1.29-.7,1.7.13,0,.1.54.31.37-1.29,2.7-1.55,5.9-2.76,8.63,0,.24.27-.09.44-.24a3.85,3.85,0,0,1-.1,1.53c-1.51.23-1,3.93-1.8,5.47-.95-1,.09-2.92.15-4.67-.54.73-.33,1.95-1,2,0,.46,0,.92,0,1.38-.31.42-.4.25-.6.39.2-.51,0-1.19.41-1.62-.45.14,0-.56-.33-.83-.92.61.14,2.17-.82,2.77.12,1.06.24,2.15.4,3.13-.49.68-.55.18-.62-.3-.62.46-.56,1.24-.85,1.86.25,0,.4.23.33,1.06.23-.34.11-.85.58-1.08a3.48,3.48,0,0,1-.7,1.92l.06,2.07c-.57.11-.24-.53-.73.78-.54.82-.26-.62-.76.09.67.6.06,1.57.25,3-.53,1.11-.95,2.27-1.57,3.33.43,1.2.18,2.39.13,3.89-.53.79-.18-.83-.48-.68a10.13,10.13,0,0,0,.16,5c.82-1.74,0-2.72.18-4,.25-.28.38-.23.45,0,.33-.44.1-1.41-.18-1,1.19-1.37.42-5.29,2.05-7.15.45,1.72-.54,4.7-1.31,6.6.66,1.67-.38,4.38-1.15,6.91a2.89,2.89,0,0,0-1-1.82c.15.67-.19,1.11-.09,1.76-1.46,1.38-.38,2.58-1.7,3.94a29.87,29.87,0,0,1-.51,3.14c.32-.47.22.22.46,0a5.48,5.48,0,0,0-.25,1.69c-.61.76-.41-.4-.19-1-.42,0-.75,2.44-.37,2.53-.31.76-.27,1.68-1,2.24-.42,1.08,0,2.55-.64,3.53-.7.52-.73-.82-1-1.59-.44,1.43,0,2.29-.78,4.15-.55.56-.49.16-.73,1,.06.76.53-1.16.59-.4a5.83,5.83,0,0,0,.55-1.76c.51-.12.41,0,.73-1,.18-.15.14.28.17.53-.05.58-.78.83-.87,1.39.14.05.11.54.32.38a12.55,12.55,0,0,1-.7,1.92c-.31.2-.32,0-.17-.53s.19-.11.44-.46c-.2-.2-.33-.58-.76-.14.32,3.16-.62,5.73-.95,8.58-.2.25-.41.48-.45.24a10.72,10.72,0,0,1-.48,3.84c-.47,0,.06-2.18-.22-2.14.54-.4.52-1,0-.23a36.42,36.42,0,0,1-1.49,6.07c-.75.42.37-2.17-.22-2.36-.25.75-.5.93-.26,1.45-1.31,2.38-1.67,7.45-2.41,10.15-.42.48.13-1.69-.48-.68a4.06,4.06,0,0,1-.08,2.45,5.11,5.11,0,0,0,.71-1.7c.12-.08.15.07.3-.08-.13,1.29-1.1,2.19-.95,3.61-.26.31-.32.05-.59.4,0,1.07-.53,1.85-.67,2.84-.25.28-.39.24-.46,0-.28.4-.08,1-.56,1.31,0,.45.12.32.31.15-1.33,3.55-2,6-3,9.62-.26.22-.35,0-.32-.6-.25.56-.27,1.22-.56,1.77-.13,1,.57-.23.48.67a4.12,4.12,0,0,0-.82,2.77c-.36.48-.34-.07-.75.56.06.42.42,0,.47.45-.82.88-.27.9-.68,2.38-.35.47-.33-.08-.74.55.07.21.2.27.45,0-.19,1.32-1.64,3.74-2.17,3.49-.34,1.94,1-1.27,1.07,0-.24.66-.38.37-.87,1.17,0,1-.69,2-.23,2.6-.29.85-.57,1.84-1.15,1.94,0,.38,0,.76,0,1.14.67-.53-.25-.39.42-.92.4.76-1,3.44-1.2,5.3-.22-.41-.54-.34-.34-1.29-.91,1.16,0,1.82-.36,3.22-.81.66-.69,1.77-.82,2.77A6.58,6.58,0,0,0,279,189c-.44.14.23-1.06.1-1.53-.38.29-.28-.73-.62-.52.09,1.25-.37,2.82-.18,4-.26.25-.29.78-.71,1.47-.61.23.72-2.36-.34-1.07-.11-.72.5-1.11.4-1.84-.58.42-.5,2.3-1,2,.06.74-.31,1.39-.38,2.53-.63-.31-.4,1.11-1.15,1.94a24,24,0,0,1-.65,3.76c.32.15.9-.73.87-1.4.51.33-.4,1.91-.67,2.62-.31.08-.38-.55-.33-.84-.31,0-.51.59-.9.48.68.35-.21,1.21-.08,2.45.57-.26.27-.93.73-1.24-.2.66-.14,1.44-.7,1.93-.22.13.05-.36,0-.69-.25.22-.36.79-.44.47-.49.62.42.47-.27,1,.34-.1.74-.37.77.36-.33.93-.28,0-.74.55,0,.6.25.48.47.45-.09.34-.33.6-.27,1-.71.87-.47-.87-1.07-.28.13.3.22.72.47.68.12.8-.79,1.12-.54,2-.44.64-.54.33-.89.7a6,6,0,0,1-.83,2.55c.38.69-.28,2.06-.66,3.07-.35.46.05-1.13-.47-.22.19,1.06-.4,1.93-.81,3.22-.1.88.5-.2.48.45-.32,1.17-.54,0-1,.87-.16.52-.15.75,0,.91-1.54,1.53-.92,4.09-2.1,5.78.29.89.06,1.27-.06,2.68-.11.35-.52.46-.73,1.24-.47.05.2-1.24.1-1.76a5.33,5.33,0,0,0-.66,3.07c-.48.91-.51.39-1,.86-.16.82-.55,1.17-.25,1.69l-.58.63c.54-.16,0,2-.83,2.54.35.84-.08,1.29-.54,2.23,0,.9.12,0,.44-.24.05.54-.31.9-.41,1.38-.64.59-.45.08-.61-.29a4.79,4.79,0,0,1-1.45,2.24.89.89,0,0,1,.13-.61c-.34,0-.82,1.86-1.13,2.62.95-1.93,1.33-1.36,2.17-3.25,0,2.09-1.2,1.88-1.56,3.32.36.09,1.22-1.21,1.49-.87-.49.39-.9,1.74-1.45,2,.14.68.48.83.65,1.44-.49-.45-.79.54-1.33,1.18-.35.29-.12-1-.62-.29.13.44.07.62.48.68-.17.51-.71,1.11-.13.84a6.35,6.35,0,0,1-1,1.55c-.25-.07.6-1.78-.05-1.61-.09,1.15-1.05,6.08-1.67,4.86-.23.56-.07,1.32-.55,1.77.46,1.12-.86,2.94-.62,4.68-.64.13-.72,1.45-1,.86-.36.6.23.66.05,1.6a13.79,13.79,0,0,0-1.38,4.54c-.49,0-.81,1.31-.55,1.54-.62.39-.56,1.09-1,1.55.32-.07.43-.36.9-.47a3.5,3.5,0,0,1-1.16,1.7c-.44,1,.27.72-.7,1.93.1.13.34-.12.31.38a6.49,6.49,0,0,1,1.14-2.4c-.51,1.41-1.07,2.8-1.53,4.24-.12.08-.16-.07-.3.08.08-.71.84-1.79.39-2.07-.61.91-.29,2.05-1.27,3.23a1.25,1.25,0,0,1-.12.85c.07.22.2.27.45,0,0,1-.61,1.67-.68,2.61-.4.63-.39.08-.74.56-.06.83.54-.25.18.76-.47.64-.23-.61-.6.39-.06.6.29,0,.32.38-2,2.6-2.35,6.62-3.67,8.87-.27.25-.11-.68-.32-.61-.54,1-.23,2.45-1.27,3.24.08.21.21.27.46,0,.14.52-.19.81-.11,1.3-.31.44-.29,0-.32-.37-.41.48-.38,1.17-.7,1.7,0,.24.27-.1.44-.24.13.51-.27.77-.26,1.23-.15,0-.17-.37-.46,0l0,.92c-.35.47-.33-.08-.74.55-.54,1.93-1.09,3.85-1.79,5.7.14-.16.29-.31.44-.47-.2.51,0,1.19-.41,1.61s-.29,0-.31-.37a11.67,11.67,0,0,0-.94,3.84c-.44.17-.68.6-.72,1.47.66-.86.35,0,.32.61.48-1.84,1.2-2.4,1.69-4.4-.08-.26-.13.16-.3.31-.2-.55.47-.68.27-1.23.61-.44.51-.5,1.17-1.24-1.13,2.11-1.56,5.45-2.66,6.86,0,.15.15.07.16.3-.11.81-.24-.3-.6.39.22,1.46-.57,2.44-1.1,3.55.31.51,0,1.3-.39,2.07-.21-.41-.28-1.23-.78-.83.1-.61.57-1.53.25-1.69-.22.77-.3.76-.73,1,.24.47,0,.95.19,1.22-.11.7-.64,1.21-.55,2-.84.52-1.15,2.38-1.39,3.85-.49-.17-.7.53-.71,1.7-.18.08-.31,0-.31-.38-.68,1.18-.62,2.72-1.25,3.92,0,.42.49-.35.46.22s-.67.59-.41,1.16c-.26.28-.39.23-.46,0-.29.59.45.14-.12,1.07-.33.42-.55.53-.6.17-.12,1.07-1.17,2.65-.81,3.23-.35.47-.33-.09-.74.55.48.21-.29,1-.27,1-.42,1.38,0,2.09-1,3.38.37.45-.42,2-.67,2.84-.15,0-.17-.36-.45,0,.29.82-.54,1.55-.37,2.77.22.44.77-.82.72-1.24.19-.32,0,1-.11,1.3.24.52.4-.83.57-1.08s.14.44.17.76-.88.89-.69,1.92c-.37.42-.71.8-.75.33-.53.57-.38,1.47-1,2,.14.27.49.18.18,1-.42-.68-.31-2.31-.12-3.89-.28.61-.69,1.17-1,1.77.05.36.34.57-.11,1.08,0,.25.26.09.31.37-.1,1-.36.42-.87,1.17.71.12-.42,3.57-1.25,3.7.38.16-.3.81-.11,1.53.51-.51.35-1.34.85-1.85.29.14-.58,1.66-.83,2.3.13.14.21.42.18,1s-.41.34-.31-.15c-.36.62.15.89.47.45.05-.5.41-.86.26-1.46.22-.11.38,0,.6-.16-.1,1-.9,1.68-1,2.69-.37.07-.39-1.71-.92-.44.5-.05.12.37,0,1.15-.5-.09,0-.74-.74.55.28.21.35.33.19,1.22-.71.06-.31,1.53-1.14,2.16.75-2.36.91-4.39,2.21-6.85-.87.73.4-1.87-.36-1.75-.26.25-.3.61-.58.85.38.58-.57,2.05-1,2.24.65-.36.08,1.08.78.6-.21.5-.15,1.13-.56,1.54s.58-1.54-.32-.38c-.2-.55.47-.68.27-1.23-.27.31-.32,0-.6.4.12,1.35-.4,1.5-.86,1.62.65.31-.66,2.58-.94,3.84.15.54.23,0,.59-.39.07,1.51-1.18,3.43-.92,4.3-.47.71-.33-.27-.61-.06a20.18,20.18,0,0,1,1.12-3.08c-.08-.45-.29-.54-.62-.3a.85.85,0,0,1-.28.77c.07.14.14.28.31.15-.86.88-1.42,4-1.21,4.84-.63-.82-.89,1.24-1.63,1.49a1.67,1.67,0,0,1-.27,1c.29.54.39-.84.73-1s.26,1,.37,2.21c-.75.7-.15-1-.49-1.14-.65.84-.24.78-.4,1.85.3-.25.41,0,.61.06-.05.51-.56.79-.41,1.39.61-.69.26-1.83,1.14-2.4a8.22,8.22,0,0,1,.51-3.14c.31-.26-.19.93-.27,1.22.15.49.64-.88.28-.77,1.63.39-1.73,5.62-2.3,8.85.2-.24.41-.48.44-.24.39-.34.09-1,.57-1.31.26,0,0,1.64-.54,2,.51-.24.41,1.61-.24,2.14-.17.2.08-1.29.4-1.61-.55.07-.3-.61-.63-1-.49.76-.51.46-1,1.32.32-1.45.92-2.13.93-4.07-.66.65-.35-.23-1,.86.28.08.8-.53.64.75a36.81,36.81,0,0,0-1.4,3.85c.33-.42.55-.53.6-.16a12.7,12.7,0,0,0,.71-1.7c.2.14.07.94,0,1.38-.25.34-.28.11-.31-.15-.61,1,.35.48-.25,1.69-.26,0-.32-.61-.62-.53.1,1.62-1.42,4-1.34,5.69-.28.2-.29-.37-.75.32-.08.79-.54,1.4-.38,2.31.33-.44.56-.57.74-.56-.14,1-.61,1.82-.67,2.85-.47.3-.67-1,.09-1.76-.39.33-.36-.5-.76-.14.27,1-.27,1.82-.49,3.6.48-.3.18-1,.56-1.31.37.21-.34,1.16-.24,1.92-.26.31-.32,0-.6.39.7.8-.83,2.25-.8,3.46-.77.3.12-1.66-.21-1.91-.14.16-.1.41-.13.62-.47.79-.14-.62-.6.16,0,.79-.65,1.72-.11,1.54.11.8-.62,1.21-.7,1.92-.26.06-.43-.41,0-.91-.59-.09-.45,2.67-1.28,2.55,0,.45,0,.91,0,1.37.31-.42.4-.25.6-.39-.08.82-.39.71-.73,1,.2,1.46-.81,2.36-1.84,4.33,0,1.32-1.51,3.56-1.8,5.46.36.19.38-.77.72-1.24.31.46-.47,2.34-.81,3.23-.5.16.44-1.21,0-1.14-.39.52-.68.94-.88.93,0,.54.16,1.59.23,2.37-.2.93-.65.49-1,1.09-.22.44-.27,2.11-.7,1.7a13.79,13.79,0,0,1-1.38,4.54c-.55.78-.21-.92-.76-.14-.17,1.21.58-.12.48.91s-.73.76-1.18,1.25c0,.58-.43,1-.55,1.54-.16-.24-.43-.16-.9.47a.51.51,0,0,1,0,.69c.06.55.25-.58.59-.62.09.64-.35,1-.56,1.54.06.5.55-.6.58-.86.21,0,.31.31.47.45-.25.75-.54.64-.26,1.23-.66.68-.21-.32-.47-.44-.5.7-.08.79,0,1.14-.2,1-.71,1.77-1,2.7-.25-.05-.26-.78-.48-.91-.42.8-1.33,1.33-1.44,2.48a3.69,3.69,0,0,0-1.75,2.33c.34-.44.6-1.1.89-.94a4.1,4.1,0,0,1-.56,1.77c0,.45.41-.13.32.61.24-.76,1.17-2,.84-2.32.23,0,.48-.15.47.46-.2.68-.6.26-.41,1.38-.47.79-.13-.62-.6.16.52.06.13,1.11-.4,1.85.12.61.46-.09.59-.63,0,.4-.17.68-.12,1.08-.26.14-.85,1.19-.89.7-.16.33-.16,1.85-.56,1.32-.38.56.34,1.28-.24,2.14-.2.14-.14-.44-.18-.76-.39.94-1.46,2.51-1.11,3.08,0,.32-.67,1.62-.59.63-.55,1.72-.85,4.14-.14,5.12a5.89,5.89,0,0,0-.42,1.39c-.53.65-.27-.91-.9,0,0-1.05.23-1,.55-1.54.07-1-.12-1.32-.63-.75,0,.21.19,0,.31-.09a2.68,2.68,0,0,1-.56,1.77c-.38.35.19-.61,0-.92-.5.37-.16,1.14-.71,1.47.63.69-.67,2.58-1.55,3.78,0,.75.4,1.51.92.22-.52.13-.09-.6.26-1.24.21-.13,0,.39-.13.62.47-.16.93-2.27,1.42-3.17-.58,3.35-2.7,7.9-3.73,11.78-.18.15-.14-.28-.17-.53a2,2,0,0,0-.4,1.61c-.61.09-.35.75-.87,1.4-.39.49.1-1.43-.47-.45.26.93-.19,1.19-.83,2.54a2.21,2.21,0,0,1-.69,2.38c.13.82-.36,1.34-.23,2.15-1.81,1.56-2.33,5.6-4.13,8.88.38.07.35,1.08-.26,1.23-.1.86.16.73.33.84a2,2,0,0,1-.28.76c-.2-.2-.52-.07-.48-.91-.71,1,.54.58-.41,1.62.44.55.13.8-.24,1.92-.32.3-.34-.24-.33-.84-.25,2-1.63,4.69-1.17,6.45-.15,1-.41.88-.71,1.47-.42.42-.28-.71-.76-.14-.05.8.21.74.48.68-.43.91-.09.77-.26,1.69-.61.38-.69-1.1-.36-2-.26.35-.31.11-.16-.07a7.36,7.36,0,0,0-2,5.17c-.46.6-.09-1.08-.61-.3.19.88-1,2.56-1.4,3.86,0,.43.19.29.17.76-.15,0-.16-.37-.45,0-.23.72,0,.29,0,.92-.16.12-.12-.35-.31-.14-.62.68-.65,1.65-.25,1.69a.81.81,0,0,0-.29.54c-.17.14-.14-.29-.17-.53-.66,1.79-2.25,4.34-2.09,5.77-1.06,1.56-.33,1.36-1,2.24.25,1.27-.07,1.83-.2,3.3.36-.36.44-.85.72-1.25.06.71-.56,1.1-.56,1.77-.17.15-.13-.28-.16-.52-.48,1.2-1.24,2.27-1.72,3.47-.17.15-.13-.29-.16-.53a4.1,4.1,0,0,0-.56,1.77c.63,1-1.94,4.32-2.07,6.47.94-2.19,1.82-4.41,2.83-6.56a8.09,8.09,0,0,1-.84,2.31c.26.46.45-1,.72-1.24,0,.46,0,.92,0,1.38-.26.31-.31,0-.59.39-.38,1.71.36,2-.64,3.76-.33,0,.13-1.42.09-2-.21,0-.55.36-.61-.06a4.29,4.29,0,0,1-.36,3.22c-.26.22-.34,0-.32-.61-.56.67.12,1.82-.51,2.92-.5.7-.22-.73-.76.09,0,.22.06.16.15.07s-.33,1,.19,1c-.19.31-.77,1.55-.26,1.45-.23.42-.2,1-.57,1.31-.3-.08-.09-1.56-.5-1.36-.07.52-.2,1.26-.24,1.91-.35.47-.33-.08-.74.55-.31,1.21-.84,2.31-1.26,3.47-.33.32.17-.78,0-1.15-.78,1.38.18,2.19-1,3.39-.07.42.21,1-.11,1.3,0,.56.24-.58.59-.62,0,.23,0,.46,0,.69-.71,1-.83,2.32-1.57,3.32-.41-.14.12-1.74.7-2.16a4.26,4.26,0,0,1,.25-1.69c-.21.64-1.32,1.89-1.12,3.09-.52.67-.39-.43-.91.24.29,1-.58,3.26-1.2,5.08-.45.31.12-.64,0-.92-.29.83-.42.33-.88.94-.15,1.13-.73,2.06-.81,3.22-1,1.2-.4,1.45-.64,3.76a10.88,10.88,0,0,1,.83-2.53c0-.45-.13-.32-.31-.15a3.53,3.53,0,0,1,.56-1.54c.3-.39,0,.69-.13.84.35-.15,1.74-1.73,1.58-2.86.69-.42,1.43-2.58,1.7-3.94.39-.35.5,0,.43-.92a16.46,16.46,0,0,0,2.55-5.79c.56.17.88-2.06,1.17-1.25a8.27,8.27,0,0,1,.4-1.85c-.26.26-.3.62-.58.86.07-.42.2-.81.26-1.23.19-.09.32,0,.32.37.43-.39.44-1,.87-1.39,0-.41-.15-.24-.17-.53.39-.34.74-.7.57-1.31.23-.27.56-.49.58-.86.34-.46-.05,1.14.46.23-.33-1,1.14-4.24,1.82-4.78.44-.62-.15-.34,0-.92a3.87,3.87,0,0,0,.13-.61c.45-.65.45-.07.89-.71,0-1.48,1.29-3.77,2.11-5.55-.13-.59.12-1,.1-1.53-.69.81,0,.89-.55,1.77-.08-.58-.06-.42-.61-.07-.05-1.47.61-2.45,1.13-2.62.1.65-.72.86-.56,1.54.32-.85.92-1.06.91-.25.44-1.22,1.1-2.33,1.55-3.54.3.54.19.29.75-.56a3.37,3.37,0,0,1-1,1.79c0,.41.49-.36.46.21A22.12,22.12,0,0,1,162,525c0-.57-.51.07-.9.48a15,15,0,0,0,1-3.39c-.16-.24-.51.06-.62-.29.3-1.2.41.17.89-.7.22-.14-.05.35,0,.68.94-.88,1.52-3.59,2.59-4.64.06-1.78,1-3.16,1.52-4.69.59-.35,0,1.21.35,1.52.73-1,0-1.69.86-1.63-.13-.47-.39-.59-.77-.37a15.15,15.15,0,0,1,1.54-4c-.45-.69.26-1.92.67-2.85.18-.14.14.29.17.53s-.36.59-.58.86c0,.29,0,.37.16.3,0,.15,0,.31,0,.46.45-.61.25-1.53,1-2,0,.55-.32.91-.42,1.39.34.42.61-1.05.87-1.4.2,1.56.66-1.43,1.3-2.32-.27,0-.63-.48-.35-1.29.21.71.57-.32,1.06-.18a.88.88,0,0,1,.13-.61c-.56.16,0-1.11-.35-1.53a7.13,7.13,0,0,0,1.26-3.23c.46-.6.44.14.62.29a18.55,18.55,0,0,1,1.44-2.47l0-.92c-.19.21-.39.41-.59.62.18.92-.58,1.38-.84,2.08,0-1.05.8-1.72.82-2.76.94.45,1.16-1.92,2.18-3.26-.32.53-.3,1.21-.71,1.7.37.23.8-1.42,1-2-.14-.27-.37-.3-.48-.68.26-1.1.6-.34.89-.71a.9.9,0,0,1,.28-.77c-.47-.25-.14-1.16.7-1.92-.72.35-.07-.37-.2-1.45.83-.91-.12,1.54.77.36-.45-.59,0-1.25-.21-1.91.71-.78,0,1.27.34,1.07a2.64,2.64,0,0,0,.24-1.92c.65-.72-.05.73.33.61,1.15-1.44.69-2.25,1.08-4,.35-.37.45-.07.89-.71,0-1,.59-1.68.68-2.61.3-.16.36.34.62.29,0,.33-.13.54-.13.84-.39.58-.3-.17-.46-.22a13.76,13.76,0,0,1-.82,3,7.47,7.47,0,0,0,1.14-2.4c.46-.56-.35,1.06.17.53-.48.83-.73,1.77-1.13,2.63,0,.21.29-.16.3.14-.1.81-.37.1-.73.78a1.67,1.67,0,0,1-.27,1c.94.52-.9,1.78-.66,3.07-.46.61-.42-.37-.75.56.11.69.69.1.79.82.42-.41.32-1.05.71-1.47,0-.24-.27.09-.45.24a4,4,0,0,1,.7-1.92c.33,0-.09.67.18,1a10.89,10.89,0,0,0-.68,2.38c-.46.6-.41-.38-.74.55.69,1.75-1.65,5.59-2.48,8.08-.25,0-.14-1-.48-.68,1-2.25,2.07-4.44,2.83-6.79-.15-.48-.6.74-.42,1.16-.48.47-.69,1.29-.75.32-.17.67-.33,1.35-.55,2-.26.07-.21-.73-.75.09.23.81,0,.95-.4,1.85-.45.65-.3-.33-.75.32a10.86,10.86,0,0,0-.93,4.07c-.13-.07-.41.29-.46,0,0-.65.42.12.28-.77-.72,1-.87,2.3-1.56,3.32,0,.54,0,1.07,0,1.61-.35.29-.57.22-1,.86.24,1,.69-.27,1.05-.41,0,.84-1,1.16-.84,2.09-.64.76-.34-1.06-1.07-.06,0,.22.19,0,.3-.08a17.8,17.8,0,0,1-1.68,4.39c.05.94.84-.15,1-.86-.12.78.36,1.83-.24,2.38-.41.21.2-.84-.17-.76s-.09.85-.57,1.08c.14.57.43.11.19,1.22-.32.38-.48.31-.47-.22-.69.92.28,1.23-.39,2.07-.33.19-.08-1.26-.62-.52-.08.81.18.67.19,1.22a1.93,1.93,0,0,1-.28.77c-.26-.08.12-1.15-.34-1.07-.32,1-.48.66-1.16,1.48a25.47,25.47,0,0,0-1.66,5.08c-.17-1.35-1.44,2.95-2.15,4.18-.38-.28.71-1.77.52-2.69-1,1.39-.64,3.13-1.54,4,0,.24.27-.1.44-.24.19.69-.34,1-.25,1.69-1.28,1.09-1.25,3.33-2.15,3.94-.28,1.93-1.09,2.79-1.07,4.46.28-.69.18-.18.58-.62-.26,2.35-1.35,2.56-2,2.41.13.62.59.36.78.82a20.15,20.15,0,0,1-1.14,2.39c-.31.2.19-1.09.1-1.52.26-.12-1.33,2.79-1.41,3.39-.23.42-.65.22-.3-.15-.39-.14-.29.77-.42,1.16,0,.24.27-.09.44-.24-.54,1.59-2.35,3.61-2.69,5.94l-.74.78c0,.46-.39.72-.26,1.23-1.43,1.28-1.21,3.34-2.59,4.64a10.52,10.52,0,0,1-2.27,5c.13-1.17,0-1.31.08-2.22-.67,1.93-.84,4.13-1.67,4.85.68.25.49,1.77,1.42,1.58-.44.92-1,1.79-1.43,2.71.72.22,1.52-3.42,2.33-3,0,.47-.52.66-.73,1,.44.37-.53,1.59-.37,2.53-.22-.24-.44-.45-1.05.41.4.09.26.73.2,1.67-.51.47-1.3,1.39-.86,1.63-.46.6-.59.11-.88.93-.43.26-.18-.16-.17-.76a7.89,7.89,0,0,0-.84,2.55c-.49.54-.26-1-.77-.37,0,.4.53,1-.1,1.53.14.2.14.76.61.06-.22,1.17-.22,1,0,1.61.12.51-.7.57-.57,1.08,0,1,.48-.34.74-.55-.12.54-.53.95-.56,1.54-.35.3-.12-1-.62-.29.25.39-.34,1.43-.42.92.18,1.43-.82,3.28-2,4.71.16.14.17.69.33.83.45-.74.33-.37.88-.93.06-.56-.22-.21-.45,0a24.59,24.59,0,0,1,2.28-4.56c-.21,1.48-1.32,2.54-1.54,4a12.69,12.69,0,0,1,1.15-1.94c-.1.86-.78,1.44-.53,2.46-.35.3-.3-.5-.75.09,0,.39-.17.68-.12,1.08-.31.44-.29,0-.32-.38-.29.31-.17.82-.57,1.08.37.4-.35,1.53.06,1.84-.64.92-.51-.27-1,.4-.05.89-1,2.54-1.29,2.55-.15,1.33-.63,1.09-.84,2.31-.44.32.13-.64,0-.92-.72.94-.78,2.19-1.42,3.17.09.53.14.65.49.91-.31.61-.61,1.9-.24,2.14-.46.79-.13-.62-.6.17-.3.53-.23,1.25-.71,1.7-.06.82.3.41,0,1.14-.49.51-.19-1.13-.49-1.14-.07-.56.83-.65.56-1.31-.42,0-.93,1.56-1,2.47-.41.63-.39.08-.74.55-.08,1.1-.49,3.22-1,3.38-.2.3,0,.42.16.31a3.48,3.48,0,0,1-1,2c.13.59-.23.94-.1,1.53.05-1,1.14-1.42,1-2.47.59-.39.45.49,1.18-.79.13,1.35-.56,1.43-.7,1.7.1.94.56-.64.89-.48a1,1,0,0,1,.42-1.15c-.11-.64.26-1,0-1.15-.41.56-.39,1.18-.74.78,0-.51.65-.75.57-1.31.42-.2.21.71.75-.32-.68.15.32-.85.56-1.54.13-.08.52.33.17.76.19-.54,1.14-1.55,1.29-2.55.93-.42.92-1.81,1.75-2.1.22-1.06-.16-1.09.24-2.15.2-.14.14.45.18.76.79-.6.79-1.58,1.29-2.32-.1-.39-.25-.24-.45.24-.19-.71.5-1.37.1-1.53a.59.59,0,0,0,.59-.63c.44-.25.18.17.18.77.65-.9.64-2.1,1.58-2.86-.69-.73.89-1.26.53-2.46.41.42.49-.73.89-.71a3.54,3.54,0,0,1-1,2c.42.93-.76,2.5-1.56,3.55.21.18.41.36.34,1.29-.06-2.2,3.1-5,2.35-7.47a23.78,23.78,0,0,1,1.56-3.54c-.1-.39-.25-.25-.45.23,0-.46,0-.91,0-1.37a2.49,2.49,0,0,1,.57-1.09c0,.7-.44,1.15-.24,1.92.41-.48.6-1.07,1-1.55l0-.92a4.53,4.53,0,0,1,.43-.92c.32-.31.33.24.33.83.66-1.37-.48-1.11.37-2.53-.07-.21-.2-.27-.45,0a2.74,2.74,0,0,1,.26-1.23c.41,1.08,1.67-1.83,2.35-2.72-.22,1.22-1.72,3.83-1.09,4-.41,1.16-1.1,2.19-1.41,3.39.39.32.63-1.34,1-1.78-.12,1-.29.93-.09,1.76-.85.17-.49,1.1-1.33,1.18-.07,1.09.37.78.77.59-.12.81-.62.6-.88.94,0,.53-.23.94-.1,1.53-.41.63-.39.08-.74.55.07,1-.17.51-.57,1.31-.09,1-.61,1.82-.67,2.85-.46.7-.32-.28-.61-.07.21-1,1.21-2.57.52-2.69a8.4,8.4,0,0,0-.24,1.69c-.13,0-.25,0-.45.24,0,1,0,1.19-.55,1.77-.12,1.23.61.14.49,1.37a3.87,3.87,0,0,0-.13.61c-.46.6-.43-.13-.62-.29-.55.34-.4,1-.86,1.39,0,.45.13.31.31.15-.23,1.24-1.38,2.06-1.11,3.54-1,2-1.26,3.72-2.42,5.17.16.83-.36,1.33-.54,2,.29.4.47.17.48.91.67-.75.57-.8,1.18-1.25-.23-.59-.25-.2-.34-1.06.2-.89.78-1.59.68-2.61.46-.36.27,1.08.5,1.36.37-.37.62-1.94,1-1.55.59-1.22.49-2.78,1.55-3.78,0,.89-.46,1.59-.53,2.46.26-.48.36-1,.87-1.39-.25-.36-.19-.54.28-.77,0-1.74,1.35-2.82,1.68-4.4.44-.7.28.24.33.61.46-.38.36-1,.71-1.47a2.27,2.27,0,0,0-1.34.94c-.14,0-.23-.18-.31-.37a9.56,9.56,0,0,1,.56-1.31c.24-.15.15.58.6-.17,0-.54-.12-.5-.17-.76s.28-.46.28-.77c.5-.32,0,.49.32.61,0,.67-.69,1-.55,1.77,2.5-5.81,4.64-11.8,7.34-17.51-.5-.69.53-2.47,1.13-2.63-.19-.55-.75-.09-.93-.66.24-1.19.83-.8,1-2,.18-.14.14.29.17.54.44-.93.43-2.06,1-2.93.42,1.54,1.3-2.08,2.48-3.34.12-.85-.34-.06-.6.17a10.08,10.08,0,0,1,1.14-2.17c0-.29-.44.39-.45,0a2.41,2.41,0,0,1,.57-1.08c-.13-.14-.21-.41-.18-1,.06-1,.62-.41.56-1.54.26-.22.34,0,.32.6,1.06-2.2,1.17-1.73,2-4.7.18-.09.31,0,.31.37.2-2,1.29-3.6,1.65-5.54.13,0,.27-.08.31.15a5.76,5.76,0,0,0,.23-2.38c.37-.54.53-.47.46.22.65-2.4,2.35-4.3,2.36-7,.44-.65.3.33.75-.31,0,.45-.39.71-.27,1.22.53-1.86.89-4.34,2.07-6.46-.23-.45-.78,1.4-.75.09a6.06,6.06,0,0,0,1.44-2.48c-.28-.8-.33.79-.72,1.24a6.3,6.3,0,0,1,.54-2.23,1.45,1.45,0,0,1,.63.76c.59-2,.53-3.68,1.64-5.77.16-.12.11.35.31.14s.3-.61.58-.85c0-.84-.19-.48,0-1.38.18,0,.41-.12.75-.55a17.35,17.35,0,0,1,1-2.93c.36-.35,0,.73-.13.85.74-.52.77-2.4.51-3.15.57-.9.45.08.48.68.48-1.35.33-3,1.08-4.23.28-.39.25.82-.13.85.42-.08.81-.77,1.16-1.71-.08.31-.31,1.21.17.53,0,.43-.45.69-.26,1.23.51-.5.45-1.29.85-1.85-.3.15-.5-.55,0-1.15-.07-.27-.18.29-.44.47a7.41,7.41,0,0,0,.22-2.61c.54-.82.26.62.76-.08,0-.69.31-1.67-.06-1.84a31,31,0,0,0,1.83-4.55c-.17-.1-.43,0-.33-.84.67-.41.51.8,1.19-.79.13.67-.28,1.08-.4,1.62.42.11.58-1.82,1-2.47-.1-.13-.34.12-.31-.37.38-.55.42-1,1-1.32.08-.82-.28-.41-.19-1.23.16-.59,1.09-.8.84-2.07.35-.48.34.08.75-.56a2.62,2.62,0,0,1-.42,1.39c1.82-2.53,2.73-7.44,4.22-10.87.22.06.3.49.33,1.06.36-.66.36-1.48.85-2.08,0-.6-.25-.48-.47-.45.6-1.7,2.48-4.51,2.07-6.69.55-.41,0,.79.33.83.46-1.23.54-1.52,1-2.47-.06-.24-.27-.08-.31-.37.3-1.34,2-3.06,1.54-4,.34-.37.44-.07.89-.71.12-.62,0-1.37.55-1.77-.49-1.26,1.38-3.22,1.36-5,.1.22.57-.57.6-.16.18-1.05.25-2.14,1.13-2.86a2.93,2.93,0,0,1,.11-1.3c.12,0,.24,0,.45-.24-.19-.29.19-1.33.28-.77a6.26,6.26,0,0,1,1-2.69c-.42.09-.26-.44,0-1.15.17-.15.13.29.17.53.46-.91.65-1.94,1.12-2.85.1.92-.44,1-.1,1.53a5.31,5.31,0,0,0,.7-1.7c.2-.13.14.45.18.76-.26.71-1,1.18-.85,2.09.21-.9.7-.25.88-1.17.43-.08.2.67,0,1.38-.3.25-.31-.3-.47-.45-.48.65-.18,1.09-.1,1.53a4.6,4.6,0,0,1-.85,1.85c.59-1.39-.11-1.29.38-2.3-.15-.49-.58,1.17-.46-.22,0-.86.42.39.44-.46,0-1.16-.14-.21-.61.16a2,2,0,0,1,.28-.77c-.58.7-1,3.41-1.82,4.78.59-.2-.17.77.18,1a11.52,11.52,0,0,0,.67-2.85c1.2,0-.26,3-.32,4.14-.91,1.25-.8-.29-1.51.42.49.29-.6,1.21-.39,2.07.14-.64.93-2.25,1.17-1.48-.9.84-.09,1.13-1,2.47-.51.67-.38-.43-.9.24,0,.39,0,.77,0,1.15.21-.24.41-.48.45-.24-.27,2-1.07,3.71-1.5,5.62.58-.41.51-1.12.86-1.63-.13,1.21-.62,3.23-1.41,3.39a2.65,2.65,0,0,0,.25-1.68c-.21-.36-.43.88-.59.39-.36,1.25-.11,2.56-1.12,3.09.15.6-.2.95-.41,1.38.13.05.1.54.31.38-.77,1.29-1.1,4-2,4.47-.27.86-.44,1.75-.68,2.62-.14,0-.23-.18-.31-.38-.43.65.11.65,0,1.15-.54.66-.63.08-.77-.37-.45.82-.68,2-1.3,2.09.22.4.8-.19.79.82.67-1.1-.52-.75.39-2.06.39-.11.47.27.33,1.06-.39,1.55-1.67,2.66-2,4.25-.63.35,0-.76,0-1.38a3.94,3.94,0,0,0-.55,2c.13,0,.25,0,.45-.24-.09.55-.43.62-.12.84-.71.94-.3,2.42-1.42,3.17.3.29-.23,1.93-.7,1.93.44.94-.25,2.74-.94,3.84,0,.41.15.25.17.53-.63.88-.8,2.12-1.31,1.86,0,.54,0,1.07,0,1.61-.74,1.19-.37-.64-.91,0a4.56,4.56,0,0,1-.83,2.55c.21.24.18,1.16.35,1.52-.5.39-.28-1.22-.93-.44.76.36-.18,2.81-.94,3.84-.21,1.06.31,1.15-.23,2.15-.26-.17-.32-1-.61.16-.3.1-.34-.54-.34-1.29a.43.43,0,0,0-.14.39c-.1.1-.2.2-.29.31,0,.71.35.35.33,1.06-.13,1.1-.7.67-1.31,1.64,0,.85-.65,1.34-.69,2.15a3.11,3.11,0,0,0,1-2.24c.18.08.53-.29.89-.7-.38.79,0,.85-.71,1.69-.16.94.48-.32.32.61-.68.66-1.24,2.51-1.85,3.86.12.33.66-1,.71-1.47.7,0-.06,1.88-.52,2.69-.58.4.46-1.36,0-.92-.75.79,0,.89-.55,1.77-.33-1.47-1,3-2.15,3.95a24.64,24.64,0,0,1-.2,3.29c-.65-.42-1.17,3-1.1,3.54-.21.24-.42.48-.45.24.12.42-.44,1.1-.39,2.07-.79.36-.5,1.34-.83,2.77-.28.2-.28-.37-.74.32-.46,2.59-1.29,3.71-1.93,6.31-.31.2-.31-.38-.6.4.61.33-.22,1.45-.85,1.85.62-.18.5,1.23-.08,2.22-.51.16.44-1.21,0-1.15-.26.26-.3.62-.58.86.1.38.46,0,.18.76-.22.17-.08-.63-.32-.38-.64,1.14-.56,1.64-.25,1.69-.21,1-.48-.23-.73.78.42,0,.25.95.05,1.84-.58.12-.22.59-.87,1.16.33.16-.05,1.12-.41,1.62-.2,0,.06-.45-.31-.38.38.53-1.25,3.29-.35,3.22-.48.6-.05,1.64-.54,2.23-.54.39,0-.75-.2-1.45-.38.65-.46,1.43-.84,2.08.86.77-.56,3.18-.64,4-.27-.2-.05-1.19-.05-1.61.25-.34.29-.11.31.15.48-.76,0-.7.25-1.69-.56,1.24-.57,1.6-1.59,2.41-.11.87.39.07.47.45-1,.89-2,5.65-2.81,7.24,0,.28-.28,1.74.19,1.22,0,1.16-1,1.76-.39,2.08-.42.48-.39-.26-.62-.3,0-.36.36-.58.58-.85-.08-.75-.65.23-.34-1.06a9.62,9.62,0,0,0-.37,2.53.52.52,0,0,0-.45.24c0,.76.34-.32.61.06-.06.65-.55,1.09-.4,1.85a83.47,83.47,0,0,0,3.68-8.65c.46-.78.13.63.6-.16.26-.73,0-.6,0-1.15.59-.63.45.76.51,1.6-.62,1.63-2,3.15-2.26,5.47-.19.59-.72,1-.86,1.63.55-.38.44-.25-.12.84-.09.74.3.15.32.61-1.12,1.17-.78,1.72-1.27,3-.35.46-.33-.08-.74.55.36.07.37.78-.11,1.53-.35.46,0-1.13-.46-.22a.87.87,0,0,1-.28.77c.12.08.17.35.18.76a20,20,0,0,1-2,3.56c.54.63-.62,1.2-.53,2.23-.44.26.17-.78,0-1.15a8.25,8.25,0,0,1-.84,2.08c-.08.42.2,1-.12,1.31.5-.06.37.15.35,1.29.44-1.52,1.16-1.91,1.26-3.24.61-.55.11.6.61.06.05-.89-.16-1-.48-.9a7.83,7.83,0,0,0,.26-1.46c.52.19.71-1.16.85-1.85.51-.34,0,1,.34,1.29a1.43,1.43,0,0,0,.11-1.3,4,4,0,0,0,1.16-1.71c-.21-.08-.17-.84-.19-1.45.34-.12.5.29,1.05-.4-.05-.63.39-1,.56-1.54.1.29.45-.1.6.06a41.61,41.61,0,0,1,2.39-6.09c-.07-1.39,1-2.22,1.11-3.54,1.54-1.66,1.31-5.17,2.84-6.1-.14-.52.19-.81.11-1.3a6.32,6.32,0,0,0,1-1.32c-.09.87-.64,1.36-.24,1.91-.3-.52-.37.38-.73,1,.16.63.34-.15.59-.62a7,7,0,0,1-.82,2.77c-.28.28.06-1,.26-1.23-.52.14-.81,2.32-1.26,3.24.45-.31.26-.93.72-1.24-.74,1.73-.6,2.57-1.09,4.23-.38.49.1-1.43-.46-.45l0,.92a13.15,13.15,0,0,0-1.52,4.92c0-1.31-.57.59-1,1.55.15.21.16.78.45,0,.1,1.61-.87,1.4-.82,2.77-.43.44-.56.06-.77-.14a1.89,1.89,0,0,0,.05,1.61c-.1.89-1.34,2.08-.83,2.54-.12.34-.81,1.54-.87,1.17a10.39,10.39,0,0,1-1.52,4.69,4.22,4.22,0,0,0,.09-2c-.41.56-.76,1.15-1.17,1.71-.11.61.77-.34.32.38.28.53.31-.88.42-1.16.57.07.09,2.48-.81,3.23-.5,1.26,0,3-.93,4.07,0,.3,0,.61,0,.92-.39.58-.29-.18-.46-.22-.4.71-.08,1.77-.68,2.38-.44.27.06-.83,0-1.14-.57,2.26-1,4.42-2.1,5.55a4.24,4.24,0,0,0-.39,2.07c.29-.39.46-.44.45,0-.66.6-.9,2.92-1.84,4.09a2,2,0,0,1,.26-1.46c-.41.27-1.16,2.31-1.57,3.32.06,1.07.24-.66.74-.78,0,.77-.46,1.29-.39,2.07.18-.09.31,0,.31.38.4-.4.28-.69.59-.62a2.79,2.79,0,0,0-.13.84c-.94.71-.88,1.06-1.6,2.18-.15-.83.69-1.18.55-2-.46.31-.42.85-.88,1.16.46-.25.06,1.63-.23,2.38-.17.14-.13-.29-.17-.53-.55.33-.4,1-.86,1.39,0,.4.5-.39.6-.16-.22,1.47-1.1,2.63-1.39,4.08.41.19.29-1,.71-1.47.12-.08.16.07.3-.08-.5.91-.3,1.31-.53,2.46.46.15.66-.86.41-1.39.53-.79.17,1.07.61-.16C146.6,629.09,146.2,630.46,146.92,629.68Zm30.39-71.59c-.06-.86.52-1.42.84-2.09A3.59,3.59,0,0,1,177.31,558.09Zm24.15-57.63c.13.75-.64,2,.19,1.22a9.42,9.42,0,0,1-1.27,3.24c-.12-.68.13-.71-.19-1.45.21-.27.54-.49.58-.85s-.27.06-.31-.15C200.85,501.83,200.7,500.93,201.46,500.46ZM331.59,52.14c0-.78-.38-.74.26-1.45C332.08,50.77,332,51.73,331.59,52.14Zm-8.88-2.42a6.4,6.4,0,0,0,.07-2.68c.5-.29.47-.83.41-1.38a2.84,2.84,0,0,1,1.19-.79c.05-1.14-.51-.59-.92-.44.73-1.52,1.44-1.06,1.52,0-1.05,1.08-.49,2.93-1.24,4.16-.58.54.09-.83-.32-.61C323.39,48.71,323,49.84,322.71,49.72ZM284.32,171c0,.84-.58,1.38-.69,2.15A3.32,3.32,0,0,1,284.32,171Zm-20.08,61.37c-.39.21-.79,1.54-1,1.09C263.75,233.12,264,231.6,264.24,232.41Zm-16.47,45.91c.25-.48.16-1.13.71-1.47C248.57,277.37,248,278.71,247.77,278.32ZM150.56,547.38a7.83,7.83,0,0,1-1.13,2.39C149.71,549.07,150.16,547.27,150.56,547.38Zm10.95-14c.32.22-1,3.6-1.28,2.78C161,535.39,160.74,534.15,161.51,533.39Zm-25.67,67.29c-.05-.26-.22-.22-.17-.76.28-.24.31-.6.58-.86A1.78,1.78,0,0,1,135.84,600.68Zm44.41-84.34c-.61,1.77-.91,2.54-1.54,4A10.59,10.59,0,0,1,180.25,516.34Zm-13.4,37.21c-.26.57-.72,2.2-1,2C166.05,555,166.48,553.32,166.85,553.55Zm-7.46,18.82c.12,0,.43,1-.11,1.3C159,573.92,159.1,572.56,159.39,572.37Zm-11.33,50.17c-.24.36,0,.27,0,.69-.7.34-.15,1.28-.85,1.62C147.05,624,147.79,622.43,148.06,622.54Zm11.78-26.24c-.17.52-.1,1.16-.56,1.54A1.7,1.7,0,0,1,159.84,596.3Zm12.1-25.41c.28.2-.16,1.42-.69,1.93A3,3,0,0,1,171.94,570.89Zm2.11-5.55c-.05.74-.78,2.33-1.15,2.17C173.38,566.83,173.35,565.91,174.05,565.34Zm-30.41,32.28a34,34,0,0,1,1.4-3.85A7.49,7.49,0,0,1,143.64,597.62Zm41.79-46.74c.31.26-.18,1.59-.69,2.16A2.65,2.65,0,0,1,185.43,550.88ZM165.6,571.94c-.25.63-.22,1.4-.7,1.92C164.87,573.23,165.25,571.64,165.6,571.94Zm-23.35,25c-.33.17-.43,1.55-.72,1C141.79,597.48,142,596.19,142.25,597Zm.26-1.46c.57-.14.31-.56.72-1.24,0,.38.41-.3.46,0-.39.92-.58.54-.56,1.54l-.45.47C142.63,596,142.46,596,142.51,595.5Zm2.33-3.18c-.19.66-.14,1.44-.7,1.92A2.05,2.05,0,0,1,144.84,592.32Zm16.64-21a2.74,2.74,0,0,1,.27-1.23c-.06,1,.89.75.21,1.91C161.48,572.17,162,570.76,161.48,571.33Zm-14.71,14.9,0,.92c-.14.16-.29.31-.44.47C146.21,587,146.57,586.66,146.77,586.23Zm-9,9.52c-.65.06-.24.8-.71,1.46C136.55,597.1,137.83,594.28,137.81,595.75ZM162.87,567c.78-1.1.58-2.95,1.56-3.32-.43-.32.07-1.64.54-2.23-.57,1.9.1,1.82-.19,3.75-.9.45-.18.73-.88.93-.23,1-.61,3.17-1.11,3.31.12-.14.42-1.22.13-.84a4.29,4.29,0,0,1-.86,1.86,1.66,1.66,0,0,1,.72-1.47C162.76,568.3,163.28,567.24,162.87,567Zm16.92-16.79c.38.21-.12,1.27-.39,1.85C179.09,551.9,179.41,550.76,179.79,550.23Zm-19.54,20.51.59-.62a1.6,1.6,0,0,1-.27,1.23C160.73,570.41,160.09,571.68,160.25,570.74ZM141,589.33c.14.75-.77,1-.55,1.77-.44.52-.53-.31-.89.71C139.44,590.22,140.47,590.45,141,589.33Zm8.51-9.27c0,.69.14,1.42-.39,1.85C149.25,581.31,149,580.5,149.46,580.06Zm-5.72,6.31c-.68.48-.54-1.7.08-2.45.29.13.3.77.19,1.22C143.6,585,143.58,585.84,143.74,586.37Zm24.69-30.71c-.41-.16-.42.7-.27,1.23-.21.5-.36.66-.58.63-.12,1.52-1.15,2.61-1.24,4.15-.41.53-.66-.38-.58.85-.47.56-1.1.3-.48-.67,0,.26.07.49.31.14-.82-.55.26-2.67.48-4.07.25-.25.49-.51.74-.77.24-.79.06-1.78.68-2.39.36.58-.19,2.4-.65,3.31.17-.14.09.15,0,.45a19.59,19.59,0,0,0,1-1.77,3.85,3.85,0,0,1,.66-3.08C168,555.22,168.44,555,168.43,555.66ZM149.72,578.6c0-.42-.49.36-.46-.22.48-.22.09-.86.57-1.08,0,.7.37.66.35,1.52-.14.16-.29.31-.44.47C149.74,579.06,149.73,578.83,149.72,578.6ZM193,531.69c.34-.18.18,1.27-.26,1.45C192.82,532.64,192.52,532,193,531.69Zm-8.44,6.82c.36.7-1.07,2.45-.71,1.7C184.17,539.67,184.08,539,184.59,538.51ZM146.1,579.36l0,.92c-.17.15-.41.48-.45.24C145.93,580.18,145.47,579.92,146.1,579.36Zm4.35-6.51c0,.43.17.38.46,0l0,1.15a17.13,17.13,0,0,1-1,1.55C150.18,574.68,150.26,573.74,150.45,572.85Zm-4.36,6c-.1-.48-.39-.43-.63-.52.3-.31.17-.82.58-1.08,0,1.81.77-1.27,1-.63-.51.67-.65,2.68-1.29,2.55Zm6.7-9c-.67.05-.49,1.26-1,2C151.27,571.09,152.39,569.07,152.79,569.9Zm.71-1.47c.33-.67.57,0,.59-.62-.06-.43-.41,0-.47-.45l.59-.63c0,.35,0,.82.31.38a2,2,0,0,1-.26,1.46c0-.27-.06-.5-.3-.15-.1.78.22.37.18,1C153.53,570.17,153.71,568.75,153.5,568.43Zm4-4.44a3.18,3.18,0,0,1-1,2.47A4.82,4.82,0,0,1,157.46,564Zm-10.4,12c.16-1.05,1-1.79,1.12-2.86a5.74,5.74,0,0,1-.67,2.62C147.47,575.5,147.27,575.74,147.06,576Zm22.27-25.54,0,.92a1.38,1.38,0,0,0-.56,1.54c-.15.15-.29.31-.44.47A9.36,9.36,0,0,1,169.33,550.44ZM149.21,572c-.38.5-.42,1.16-.86,1.63C148.24,573.06,148.93,571.7,149.21,572Zm39.33-42.93c-.16,1.13-.88,2-1.12,3.08C187.05,531.59,188,530,188.54,529.1Zm-43,46.14c-.23,0-.24-.51-.33-.83a5.79,5.79,0,0,1,.56-1.54c.31-.1.43.31.62.52a5.94,5.94,0,0,1,.52-2.92c.84-.56,1-1.36,1.74-2.56.19.77-.87,2.7-1.4,3.86.25-.28.38-.22.46,0-.42,1.15-.67,1.42-.74.78-.23.93-.95,3.81-2,4.24C145.52,575.94,145.14,576.06,145.52,575.24Zm7.32-8.48c.28.48.38.92-.24,1.92C153.08,567.39,152.31,568,152.84,566.76ZM147.42,573c.28-.4.35-.89.72-1.24C148.22,572.42,147.56,573.72,147.42,573Zm22.89-25.24a1.72,1.72,0,0,0,.27-1l.73-.77c.1-1.48.55-1.65.81-3.23,0,.45.41-.14.33.6a4.35,4.35,0,0,0-.84,2.31c.37-.18.65-.14.63.76a8,8,0,0,1-1,1.55c0-.7.37-1.18.25-1.92C171,546.22,170.67,547.77,170.31,547.75Zm.59-.4a2.37,2.37,0,0,1-.85,1.85A5,5,0,0,1,170.9,547.35Zm-21.05,20.92c.47-.78.14.63.6-.16a2.23,2.23,0,0,1-.55,1.54C149.69,569.57,149.66,568.78,149.85,568.27Zm43.78-46.46a2.14,2.14,0,0,1-.41,1.61A2.56,2.56,0,0,1,193.63,521.81Zm-44.81,47.33c.27-.35.33-.09.59-.4a1.45,1.45,0,0,1-.56,1.31Zm12-14.4c.26-.29.46-.43.6-.39a4.85,4.85,0,0,1-1,2.47C160.3,556,161,555.57,160.81,554.74ZM150.7,566.19c.67-.89.62-2.11,1.27-3-.44,1-.25,2.3-1,3.16C151,566,150.74,566.4,150.7,566.19Zm3.37-3.82,0-.91c.27-.15.61-.53.75-.32C154.33,561.45,154.53,562.07,154.07,562.37Zm-4.57,4.38c-.11-.35-.87,1.07-.75.09.34-1,.32.15.88-.7,0,.38,0,.76,0,1.14-.26.14-.59,1.32-.73.78A11.72,11.72,0,0,1,149.5,566.75Zm23.78-26c-.48.75.05.88-.56,1.77C172.58,542,172.91,540.42,173.28,540.8Zm-17.09,16.49a10.38,10.38,0,0,1-.69,2.15A3.54,3.54,0,0,1,156.19,557.29ZM197,513.71a1.88,1.88,0,0,1-.41,1.38C196.3,515,196.48,514.08,197,513.71Zm-37.19,38.53a8.57,8.57,0,0,1-1,2C158.74,553.52,159.58,552.07,159.82,552.24Zm15-15.68a20.28,20.28,0,0,1,1.13-2.62C176,534.91,175.25,537.25,174.81,536.56ZM150.3,558.32c0,.91.12,0,.45-.24.15.6-.48.83-.41,1.39.65-.45.72-1.17,1.16-1.71.2-.1,1-.57.47.45-.15-.54-.37.69-.74.78.19,1-.63,1.51-.68,2.39a2.77,2.77,0,0,0-1.16,1.7c0,.37.41-.3.45,0-1,1.51-1,.39-1.38-.66.28-.37.3,0,.45,0,0-.38.4-.56.43-.92-.26.29-.46.43-.6.39,0-.82.47-1.2,0-1.14.17-.46.24-.94.71-1.25.08.34-.19.82,0,.69A12.86,12.86,0,0,1,150.3,558.32Zm4.71-4.53c-.28-.12.05-.74.12-1.3.58-.13.65-1.37,1.14-2.17.14,1.1.31-.83.88-.93-.13.91-.77,1.58-1,2.46-.09,1.71,1,1.71.1,3.21C156.4,553.82,155.94,552.08,155,553.79Zm43.92-46.85c.24-.08,0,1.16.47.45.14-1.15-.27-.76-.35-1.29.28-.25.32-.61.58-.86.38.86.23,1.68.54,2.51a8.81,8.81,0,0,0-1.89,2.72A9.22,9.22,0,0,1,198.93,506.94Zm-22.44,25a2.06,2.06,0,0,1-.4,1.85A11.88,11.88,0,0,1,176.49,531.94Zm-28.64,30.41c0,.41.49-.36.46.22C148.07,563.53,147.39,563.2,147.85,562.35Zm9.49-11.74.06,1.83c-.19.21-.19.51-.43.7C156.56,553.16,156.8,551.41,157.34,550.61Zm19.86-20.14c.37-.41.45-.92.6-.39-.29.31-.17.82-.58,1.08C177.22,530.93,177.21,530.71,177.2,530.47Zm-11.06,10.32c.74-.87.33,1-.1,1.54C165.91,541.74,166.27,541.38,166.14,540.79Zm-14.66,16.28c.13-.38.75-1,.74-.32C151.86,557.17,151.51,557.55,151.48,557.07Zm25.68-28c0,.13,0,.25.15.07a1.68,1.68,0,0,1,.28-1,3.28,3.28,0,0,1-.55,2C177.05,529.8,177,529.38,177.16,529.1Zm-1.67-.12c-.5.51-.19,1.41-.7,1.93C174.72,530.25,175.13,528.68,175.49,529Zm-31,32.21c.21.51.43-.72.13-.62.37-.42.47-.13.61.07a20,20,0,0,1-.7,1.93A2.06,2.06,0,0,1,144.47,561.19Zm59.67-67.13c.09.64-.35,1-.56,1.54A1.58,1.58,0,0,1,204.14,494.06Zm-33.51,34.86a1.45,1.45,0,0,1-.57,1.31A1.47,1.47,0,0,1,170.63,528.92ZM183.55,515c.56-.78.6.5,0,.92C183.57,515.25,183.32,515.69,183.55,515ZM172.2,525.83c0-1,.76-2.79,1.28-2.78-.74.63-.54,1.7-.83,2.54C172.55,525.16,172.43,526.11,172.2,525.83Zm35.89-41.41a5.7,5.7,0,0,1-1,2.47C207.19,486,207.6,484.41,208.09,484.42ZM152,544.67c-.27.35-.8,1.7-1,1.32C151,545.53,151.81,544.31,152,544.67Zm10.18-14.12c.62-.46.68-1.19,1.16-1.71,0,.84-.67,1.34-.38,2.3-.36.29-.31.76-.73,1A5.16,5.16,0,0,0,162.18,530.55ZM183,507.72c.5-.64.84-.82.77.13-.28.57-.75.58-1,1.56C182.58,508.71,183.11,508.36,183,507.72Zm-25.37,23.37a4.7,4.7,0,0,1-.38,2.31C157.25,532.57,157.1,531.66,157.64,531.09Zm13.1-13.18a1.47,1.47,0,0,1-.57,1.31A1.45,1.45,0,0,1,170.74,517.91Zm-5,4.38a3,3,0,0,1-.69,2.16A6.29,6.29,0,0,1,165.71,522.29Zm3.21-4.35c.68-.88.62-2.11,1.12-3.08.32.9-.34,2-.81,3.46,0,.25.25.22-.13.61C169,518.8,168.89,518.53,168.92,517.94ZM180.47,504a7.69,7.69,0,0,1-.82,3A7.47,7.47,0,0,1,180.47,504Zm-21.91,22.31a5.36,5.36,0,0,1-.41,1.62c-.12-.49-.55-.14-.63-.75C158,526.47,158.1,526.94,158.56,526.33Zm-.81,3.23c-.51.14-.5.68-1,1.32.4-1.35-.08-2.77.81-3.22C157.26,528.82,157.61,528.88,157.75,529.56Zm1.57-3.09c-.46.25-.53,1.83-.87,1.39a4.36,4.36,0,0,1,1-2c0,.43.16.38.46,0a4.59,4.59,0,0,1-.55,2C159.31,527.49,159.74,526.27,159.32,526.47Zm9.36-11.36c-.35.44-.25,1.1-.72,1.47C167.86,516.06,168.53,514.77,168.68,515.11Zm-.84,2.32c0-.65-.58.42-.47-.45C167.81,516.2,168.22,516.74,167.84,517.43Zm3.07-3.74a5.42,5.42,0,0,1,.25-1.68c.51-.36.61-.92.87-1.4-.15.9,0,.54,0,1.38-.42.2-.64.4-.57,1.31C171.25,513.59,171,513.73,170.91,513.69Zm22.42-25.46c.15.7-.29,1.46,0,1.61l-.29.31a.44.44,0,0,1-.14.39A2.71,2.71,0,0,1,193.33,488.23Zm20-19.83c.3-.44.27-1,.58-.85C214.07,468.21,213.4,469,213.35,468.4Zm-53.79,56.15a4.49,4.49,0,0,1-.86,1.63C158.46,525.52,159.49,524.32,159.56,524.55Zm29.62-33.33a5,5,0,0,1-.84,2.32A4.89,4.89,0,0,1,189.18,491.22ZM162.83,517.3c-.25.36,0,.26,0,.69-.37.78-.84.62-.86,1.85.24.21.61-1.05.75-.32-.27.76-.57,1.16-1,1.32C161.66,519.6,162.21,517.46,162.83,517.3Zm21.48-21.62c.41-.78.26-1.83,1-2.47a17.39,17.39,0,0,1-.38,2.31C184.58,495.94,184.35,496.05,184.31,495.68Zm-12.38,11.95a2.84,2.84,0,0,1,.73-1C172.83,507.32,172,508.3,171.93,507.63Zm-8,6.82a.71.71,0,0,0,.17.53,2.72,2.72,0,0,1-.73,1A2.26,2.26,0,0,1,164,514.45Zm9.53-10.6c-.18.59.1,1.4-.39,1.85A3.41,3.41,0,0,1,173.48,503.85Zm3.34-5c.1.93-.44,1-.1,1.53-.26.29-.46.44-.6.4A2.28,2.28,0,0,1,176.82,498.89Zm-1.69,4.16c.6-.61.25-1.68,1-2.23C176.33,501.68,175.52,503.23,175.13,503.05Zm-9.28,9.14c.22.7-.32,1-.71,1.47C165.06,513,165.61,512.67,165.85,512.19Zm8.92-10.89c.13.67-.28,1.08-.41,1.62C174,502.75,174.29,501.73,174.77,501.3Zm.22-2.6c0,1.15-.16,1.59.21,1.91-.24.7-.43.35-.74.54a5.73,5.73,0,0,1,.25-1.68c-.17.22-.32.76-.44.47a4.39,4.39,0,0,1,1.3-2.33c.05.27.22.22.17.77C175.28,499.07,175.28,498.5,175,498.7Zm1.9-2.49a12.47,12.47,0,0,1-1.25,3.93C175,499.62,176.16,497.41,176.89,496.21Zm-13.64,15.42a16.39,16.39,0,0,1-1.12,2.85A5.89,5.89,0,0,1,163.25,511.63Zm4.41-4.68c.18.17.55.42,0,1.15A1,1,0,0,1,167.66,507Zm-2.26.51c.57-1,.08.93.47.45s0-1.18.56-1.54a8.16,8.16,0,0,1-1,3.15C165.22,509.11,165.75,508.13,165.4,507.46Zm13-12.35c0-1.48,1.18-2.5,1.46-1.79C179.31,493.77,179.2,493.58,178.37,495.11Zm-.93-.67c0,.38,0,.77,0,1.15-.18.14-.42.48-.45.24C177.42,495.49,176.85,494.69,177.44,494.44ZM171,500.39c.38-.48.39.07.47.45-.19.21-.2.5-.44.69Zm-3,2.42c.44-.29.71-.14.77.6C168.16,504.19,167.77,503.55,168,502.81Zm8.25-7.81c-.15-.73.63-1.51.87-1.39C177.12,494.72,176.79,494.26,176.24,495Zm-7.14,4.5a2.43,2.43,0,0,0,.58-.85c-.15,1-.54,1.08-.24,1.92-.6.08-.44.91-1,1.55C168.43,501.15,169.11,500.49,169.1,499.5Zm2.72-5c-1,1-1.07,3.55-1.85,3.86C170.42,497.23,171,493.94,171.82,494.48Zm-.42,1.16c0,.45.41-.14.33.6-.2.28-.27.62-.58.85C171.34,496.19,171,496.42,171.4,495.64Zm2.22-6.86c.46-.31.26-.93.72-1.24a3.36,3.36,0,0,1-.41,1.62C173.89,488.87,173.68,489,173.62,488.78ZM185,473.87c-.21.69-.57,2.82-1,2C184.53,475.45,184.68,473.66,185,473.87ZM200.13,458c.53-.8.62.5.18,1C200.35,458.41,200,458.82,200.13,458Zm-15.74,16.22a1.81,1.81,0,0,1-.56,1.31c0-.57-.49-.76-.19-1.22C183.79,474.62,184.17,474.23,184.39,474.26Zm-.48-.91c.57-.88.81.24.33.84C184.07,474.09,183.81,474.22,183.91,473.35Zm-6.48,6.18c.65-.37.28-1.22.86-1.63a11.76,11.76,0,0,1-.82,3C177.45,480.45,177.44,480,177.43,479.53Zm5.87-6.47c0,.31,0,.61,0,.92l-.44.47C182.73,473.85,183.09,473.49,183.3,473.06Zm2.79-2.73c0-1.18.57-.74,1-1.78C187,469.26,186.41,470.41,186.09,470.33Zm1.3-2.32.58-.63c.14.54-.26,2-.55,1.54A.71.71,0,0,0,187.39,468Zm14.82-16.21a4.83,4.83,0,0,1-.72,1.24,49.79,49.79,0,0,1,3.09-8c.28,1-.83,1.41-.69,2.39.37-.42.45-.93.6-.4-.31.86-.51.34-1,1.09.08,1-.81,1.58-.68,2.62.26-.48.35-1,.87-1.4.08.49-.26.79-.11,1.31-.37.64-.55-.44-.75.55,0,.64.58-.43.48.45a2.53,2.53,0,0,1-.58,1.08C202.48,452.55,202.53,451.66,202.21,451.8Zm-17.2,18c.76-.69.72-1.77,1.29-2.55.13.66.63.1.34,1.3-.53.82-.48,0-.75.09a7.35,7.35,0,0,0-.4,1.84C185,471.09,185,470.5,185,469.81Zm-5.75,5.4c0,.76.12,1.56-.38,2.07C179,476.58,178.79,475.73,179.26,475.21Zm11.48-11.48,0,.92-.44.47A1.51,1.51,0,0,1,190.74,463.73Zm.25-6.66a1.55,1.55,0,0,1,.43-.92c-.1,1.57-1.35,1.86-1.75,2.56,0,.37,0,.76,0,1.14a11,11,0,0,0-1.84,4.32,2.07,2.07,0,0,1,.35,1.53c-.63-.18-.05.81-.71,1.46a13.29,13.29,0,0,0-.11-3.44c1.14-.93,1.18-3.48,1.67-5.08.09.25-.14,1.37.18,1,0-.81.38-1.48.38-2.3-.17.22-.32.76-.44.47.52-.6.63-2.55,1.14-2.4-.55.85-.48,2.57.21,1.91-.52-.36.7-2.74,1-2.69C191.24,455.32,190.26,457.3,191,457.07Zm-.49-1.13c-.18-.07-.09-1,.1-1.54.12.47.38-.84.73-1A6.73,6.73,0,0,1,190.5,455.94Zm-11.08,19.34a12.34,12.34,0,0,1,1.12-2.85C180.37,473.41,180,475.19,179.42,475.28Zm5.56-6.61c-.23.34-.1.85-.58,1.08C184.11,469.27,184.9,468.22,185,468.67Zm1.56-3.55c0,.56-.37,2.06-.71,1.69C186.17,466.29,186.2,465.63,186.54,465.12Zm-5.45,5.54c.24.1,0,1.17-.4,1.61A2.56,2.56,0,0,1,181.09,470.66ZM205.58,443c.29.31-.37,1.18.19,1.22C205.2,445.09,205.13,443.49,205.58,443Zm.69-2.15c.34.15-.12,1.09,0,1.83-.14.16-.29.32-.44.47A3.62,3.62,0,0,1,206.27,440.86ZM188.5,460c-.11.5-.34,2.07-.71,1.7C188.09,461.11,188.07,460.43,188.5,460Zm-3.72,2.52a1.51,1.51,0,0,1-.41,1.39A1.54,1.54,0,0,1,184.78,462.47Zm7.43-10c.22-.5.34-1,.56-1.54,0,.75.33.9-.1,1.76C192.64,452.26,192.18,453,192.21,452.46Zm2.16-3.72a2.3,2.3,0,0,0,.58-.85c0,.15,0,.31,0,.46.09-.08.17-.15.15.07-.74.91.24.43.18,1-.27.4-.24.94-.72,1.24A9.39,9.39,0,0,0,194.37,448.74Zm-2.22,1.65c.22-.19.54-.65.59-.39-.47.83-.34,1.94-1.13,2.62C191.72,451.52,192.27,451.13,192.15,450.39Zm43.92-46.62c.45-.59.48,0,.47.68a2.32,2.32,0,0,0-.43.7C235.9,405.07,235.87,404.28,236.07,403.77Zm-26.89,28.31a3.12,3.12,0,0,1,.85-1.85c.07.72.64,1-.09,2C209.83,431.5,209.72,431,209.18,432.08Zm-13,12.34c-.26.74-.59.79-.74.55-.13,1.53-1.14,3.82-2,4.25a11.39,11.39,0,0,0,1.52-4.7c.11.35.41.2.75-.09-.3-.22-.31-.3,0-1.15.28-.37.3,0,.45,0-.27-.59,0-.49.27-1.23-.52.4-.16-.82.26-1.23.28.11-.1.9.05,1.61C196.18,443.72,195.92,443.71,196.21,444.42Zm-11.94,11.49c.69-.87.21-1.94.38-2.53.7-.64.21.53.49,1.13-.45.24-.24.79-.26,1.23C184.54,456.16,184.32,456.27,184.27,455.91Zm10.41-11.76c.44-.77.75-1.6,1.14-2.4a6.16,6.16,0,0,1-.4,1.85C195.43,443.19,194.8,445.14,194.68,444.15ZM188,449.56c.21.08.3,1.1-.1,1.53C188,450.6,187.7,449.93,188,449.56Zm-2,.42c.13.59-.23.94-.1,1.53.37-.41.44-.92.59-.39-.31.54-.72,2.2-1.15,1.93A5.78,5.78,0,0,1,186.06,450Zm11.07-10.09c.49-.17.38-1.74.72-1.24C197.74,439.23,197.39,440.69,197.13,439.89Zm-4.32,2.69c-.16.82-.49,1.57-.68,2.39C191.94,444.8,192.41,442.46,192.81,442.58Zm-5.43,5.77a.67.67,0,0,0,.17.53c-.32.39-.76,1.87-1,1.55C187,449.83,186.79,448.9,187.38,448.35Zm12.53-16.62a43.66,43.66,0,0,1-1.37,4.77c.28-.2.64-.59.61.06-.74-.06-.45.75-1.16,1.71-.05-.85.16-1.43-.5-1.37C198.81,436,198.91,433.42,199.91,431.73Zm40.62-40.51c-.35.58-.12,1.45-.7,1.92C239.9,392.56,240.2,390.93,240.53,391.22Zm-26.47,27.15a1,1,0,0,0,.42-1.16c.75-.54.59,1.71-.07,2.68C214.5,418.6,214.45,418.65,214.06,418.37Zm-25.13,26.2a24.77,24.77,0,0,1-1.26,3.47c0-.23,0-.46,0-.69C188.2,446.48,188.38,445.43,188.93,444.57Zm14.71-14.91c-.31.77-.81,2.62-1.29,2.55C202.82,431.53,203.05,429.55,203.64,429.66Zm-2.24,1.2c.71-.87.79-2,1.43-2.94a7.46,7.46,0,0,1-1.41,3.62A.49.49,0,0,0,201.4,430.86ZM189.33,443c0,.37.41-.31.46,0-.35.43-.25,1.08-.71,1.46A1.94,1.94,0,0,1,189.33,443Zm1.56-3.56a3.13,3.13,0,0,1-.54,2A5.12,5.12,0,0,1,190.89,439.4Zm9.58-9.21c0-1.27.5-1.3,1.15-1.94,0,.41.06.68.17.76-.09.11-.19.21-.29.31C201.26,428.79,200.93,429.27,200.47,430.19Zm-11.36,10.63c.47-1,.5-2.18,1.28-3-.29,1,.33.95.05,1.83-.54,1-.7-.35-.89.48.07.37.43,0,.33.83C189.45,441.4,189.32,441,189.11,440.82Zm2.76-4.11c.13.13.21.41.18,1-.55.34-.4,1-.87,1.39,0-.15,0-.3,0-.45C191.68,438.2,191.45,437.63,191.87,436.71Zm11.13-13c-.34.9-.51,3.75-1.12,3.08C202.58,425.92,202.26,424.56,203,423.71Zm3.33-5.19a3.43,3.43,0,0,1-.41,1.61C205.69,420,205.87,419,206.33,418.52Zm-.78-.6c-.6,1.11-1.07,4.31-1.85,3.86C204.53,420.75,204.88,418.29,205.55,417.92Zm4.37-5.82a2.54,2.54,0,0,1-.41,1.61C209.27,413.6,209.55,412.58,209.92,412.1Zm-1.65.8c1-.78.91-2.13,1.58-3.1.24.86-.93,2.83-1.39,4.09C208.5,413.27,208.17,413.67,208.27,412.9Zm-.16-.54c.82-.93-.14-1.51.67-2.61-.11,1.17,0,.62.19,1.22C208.79,411.55,208.33,413.14,208.11,412.36Zm2.52-6.47a2.69,2.69,0,0,1-.39,1.84C210,407.58,210,406.3,210.63,405.89ZM200.18,416c.17.84-.3,1.37-.55,2A5,5,0,0,1,200.18,416Zm-.45.24c.09.51-.48,1.85-.71,1.47C199.39,417.33,199.14,416.6,199.73,416.28Zm1.89-2.48c0,.4.5-.39.61-.17a1.49,1.49,0,0,1-.42,1.38C201.9,414.33,201.14,414.76,201.62,413.8Zm-1.68-.58c.09.14.07,1,.48.91a1.78,1.78,0,0,1,.72-1.24c-.14,1.06,0,2.24-.66,3.07C200.63,414.32,198.92,414.87,199.94,413.22Zm14.59-13.84c.21.51-.38,1.75-.57,1.32C214.24,400.3,214.05,399.68,214.53,399.38Zm-12.39,11.5a1.5,1.5,0,0,1-.41,1.38A1.5,1.5,0,0,1,202.14,410.88Zm9.86-10c.25-.94.75-2.69,1.28-2.78,0-.81.89-1.95.38-2.3l.58-.62c.12.63-.25,1,0,1.14-.59,1-.81,1.59-.39,2.07-.45.76-.37,0-.6.17l0,1.15C212.53,400.46,212.65,399.4,212,400.89Zm3-6.71c.85-.86.33,1.64-.23,2.14-.05-.29-.26-.13-.32-.38C214.82,394.66,215.3,395.32,215,394.18Zm.23-2.38c.63-.82.56.28.64,1-.23.27-.1.71-.43.93C215.15,392.77,215.6,392.52,215.2,391.8Zm3.52-4a2.77,2.77,0,0,1-.55,1.77A2.31,2.31,0,0,1,218.72,387.83Zm38.45-47c0-.53.37-2.05.7-1.69-.37.42-.32,1.22-.11,1.3C257.5,340.75,257.3,340.9,257.17,340.85Zm-35.91,36c.86-.91.37,2.31-.25,1.92C221.52,378,221,377.87,221.26,376.84Zm36.87-39.14c.22-1.1.68-3.28,1.41-3.39-.74,1.28.18.77.2,1.45-.55.59-.74.19-1.06.17C258.83,336.71,258.57,337.88,258.13,337.7Zm2.09-6c-.26.48-.22,1.1-.56,1.54C259.13,333.13,260.09,330.81,260.22,331.69Zm-45.41,42.75a3.43,3.43,0,0,1-.7,1.93A2.57,2.57,0,0,1,214.81,374.44Zm.79-3.68c-.42-.79.32-.93.56-1.54-.59.3-.53-.78-.64-1.22.67-.78.25,1.46.93.68-.06-.27-.23-.22-.18-.77.1-.28.81-1.37.89-.93-.67,1-.7,5.7-1.54,4.24-.29.77-.59,2.72-1.13,2.62C214.35,373.25,215.05,371,215.6,370.76Zm-.35-1.53a10.55,10.55,0,0,1-.81,3A6.28,6.28,0,0,1,215.25,369.23Zm48.34-50.84c.51-.74.48-2.92,1.13-2.85C264.35,316.42,264.29,318.38,263.59,318.39ZM216.2,365.62c.22-.19.54-.66.6-.4-.59.85-.66,1.3-.4,1.85C215.74,367.47,216.09,366.39,216.2,365.62Zm2.18-3.26c.45-.3.15-1,.72-1.24C219.07,361.75,218.48,363.08,218.38,362.36Zm-2.26.74c.34-.42.56-.54.6-.17-.17.22-.42.4-.43.7s0,.46-.13.61C216.15,363.86,216.13,363.48,216.12,363.1Zm50.81-54.41c.06.26.22.22.18.76-.48.3-.44.84-.72,1.24A2.83,2.83,0,0,1,266.93,308.69Zm-46.19,46.66c.1.2.48-.77.58-.85,0-.29-.26-.13-.32-.37.3-1.05.85-1.19.91-.25a30.72,30.72,0,0,1-1.28,3A11.7,11.7,0,0,1,220.74,355.35Zm48.06-49.84-.58.63C268.07,305.38,268.89,304.51,268.8,305.51Zm-45.94,45a2.64,2.64,0,0,1,.71-1.69,2.78,2.78,0,0,1-.55,1.76C223,350.43,223,350.32,222.86,350.49Zm47.79-54c.27-.39.35-.89.72-1.24,0,.33.62.06.17.76-.06-.49-.41-.11-.44.47.22-.09.37,0,.46.22-.29.31-.16.83-.57,1.08C271.11,296.67,270.53,297.52,270.65,296.45Zm-46.46,47.9c.45-.77.82-2.76,1.28-2.78a9.36,9.36,0,0,0-.56,1.77c.28-.24.32-.6.58-.85-.05.6-.25,1.48.06,1.6A2.17,2.17,0,0,1,224.19,344.35ZM272,292.6c.08.37.34.24.33.83C272,293.79,271.48,293.42,272,292.6Zm-46,47.89c.68-.79,1-.55,1.21-.1a2.28,2.28,0,0,0-.43.69C226.69,340.52,226,341.59,226,340.49Zm47-49.44a1.5,1.5,0,0,1-.41,1.38A1.5,1.5,0,0,1,273.06,291.05Zm-46.34,46.82A11.3,11.3,0,0,1,225.6,341c.31-1.14.25-1.43.53-2.23,0,.14.14.13.31-.09A.85.85,0,0,1,226.72,337.87Zm.86-1.39c0,.28.33-.08.46,0a7.32,7.32,0,0,1-1.11,3.31c0-.71-.36-.35-.34-1.07C227,338,227.15,337.17,227.58,336.48ZM274.26,286c0,.81,0,1.43.35,1.29-.41.48-.38,1.18-.71,1.7-.11-1.33-.5.41-.61-.3C273.9,287.91,273.81,286.81,274.26,286Zm-47,48.75c.28-.35.34-.09.6-.4,0-.23-.13-.14-.16-.3.48-.75.49-.2.47.45-.18.22-.42.4-.44.7.17-.15.17.19.17.53l-.44.46C227.45,335,227.49,335.21,227.22,334.73Zm2.06-2.19a7.31,7.31,0,0,1,.7-1.93C230.13,331.44,229.76,332.71,229.28,332.54Zm.92-4.53a4.64,4.64,0,0,1,.55-1.77c.18.69-.28,1.07-.4,1.62.11-.07.29-.31.3-.09A.52.52,0,0,1,230.2,328Zm2.15-4.17c-.4.56-.34,1.34-.86,1.85C231.48,325.06,232,323.55,232.35,323.84Zm0,.46a.86.86,0,0,0,.13-.62c.34-.42.56-.53.61-.16-.21.27-.24.64-.43.92C232.66,324.14,232.41,324.51,232.36,324.3Zm1.68-4.4a5.94,5.94,0,0,1-1,3.16C233.11,321.87,233.82,321,234,319.9Zm-.63-1c.4.63-.11,1.81-.53,2.69A4.35,4.35,0,0,1,233.41,318.92Zm2.74-4.34c.2-.13.3,0,.6-.39a3.51,3.51,0,0,1-.83,2.54C236.25,315.71,236.35,314.7,236.15,314.58Zm3-11.91c0,.55.24-.59.59-.63.12.46-.6,1.64-.72,1.24C239.26,302.93,238.89,303,239.12,302.67Zm27.7-79.88c.3-.46.4-1,.87-1.39a7.18,7.18,0,0,1-.38,2.53l-.44.47C267.09,223.23,267.1,223.43,266.82,222.79Zm2.69-6.17c-.68.66-.43,2.08-1,1.55C268.85,217.79,269.16,216.25,269.51,216.62Zm49.7-65.56c-.09,2,.83-1.82.93.44-.58.51-.53.31-.88,1.17A1.27,1.27,0,0,1,319.21,151.06Zm.23,2.37c-.18.22-.42.4-.44.7s.76.19.34,1.06c-.23.07-.24-.49-.61-.06.3-1.07-.4-1.24-.07-2.3C319,152.74,319.45,152.47,319.44,153.43Zm-43.86,43.94a4.14,4.14,0,0,1,.56-1.77c.27.11-.11.91.05,1.61C275.79,197.8,275.88,197.07,275.58,197.37Zm44.6-49.23c.46-.43.59,0,.91,0-.34.44,0,1.18-.56,1.54A15.25,15.25,0,0,0,320.18,148.14Zm-42.9,45.3c-.49.87.12.87-.4,1.61C276.63,195.16,276.85,193,277.28,193.44Zm43.19-45.85a1.33,1.33,0,0,1,.42-1.15,1.12,1.12,0,0,1,0,.92C320.88,147.12,320.67,147.36,320.47,147.59Zm-25.11-11.73c-.5.59-.26,1.53-.69,2.15C294.47,137.23,295,135.62,295.36,135.86Zm1-3.16a12.88,12.88,0,0,1-1.12,2.86A4.17,4.17,0,0,1,296.32,132.7Zm.11-1.53,0,.92c-.15.16-.3.31-.44.47C295.87,132,296.22,131.6,296.43,131.17Zm34.49-56.76c.49-.5.59.06.63.76-.12,1-.62,2.35-.78,3.91-.18.15-.42.48-.45.24A29.56,29.56,0,0,1,330.92,74.41Zm1.81-5.24c.28-.25.5-.37.6-.16a39.83,39.83,0,0,1-1.08,4C332.36,71.71,332.62,70.48,332.73,69.17ZM307.45,95.31a3.59,3.59,0,0,1-.38,2.53A6.47,6.47,0,0,1,307.45,95.31ZM334.06,63c-.18,1.84-.54,3.36-.17,4.44l-.58.62C333.55,66.86,333,65.09,334.06,63ZM309.87,80.65a2.84,2.84,0,0,1,.12-1.07c.72-.83.49,1,1.36-.26-.19.74-.09,1.62-.69,2.15C311.12,80.22,310.72,79.63,309.87,80.65Zm29.51-31.8c.41-.48.39.26.62.29-.28.4-.25.94-.72,1.24C339.26,49.84,339.51,49.44,339.38,48.85Zm-9.1,4.92c.29-.5-.13-1.11-.2-1.44.45-.76.37,0,.6-.17a.85.85,0,0,1,.29-.54c-.26,1-.63,1.8,0,1.6C330.85,53.7,330.47,53.91,330.28,53.77Zm-10.19,4.41c-.38.35-.08,1-.56,1.32C319.31,59,319.9,57.75,320.09,58.18Zm2-5.39a6,6,0,0,1-.82,3C321.55,54.82,321.44,53.63,322.05,52.79ZM323.6,49a1.82,1.82,0,0,1-.56,1.54A2.28,2.28,0,0,1,323.6,49Zm-1.68-.35c.43-.39.5-.59.28-.77.57-.75.28,1.11-.11,1.3A.77.77,0,0,0,321.92,48.66Zm15.2-33.19c.28.13.12,1.2-.1,1.76A1.75,1.75,0,0,1,337.12,15.47Z" transform="translate(-115.24)"/><path class="cls-3" d="M178.66,470.63c.07.3.26-.47.31-.08,0-2.48,1.36-4.33,1.76-6.62a28.9,28.9,0,0,0-2.11,5.32c0,.24.28-.09.45-.23A8.64,8.64,0,0,1,178.66,470.63Z" transform="translate(-115.24)"/><path class="cls-3" d="M159.62,613.59c.43-.55.31-1.36.55-2A3.7,3.7,0,0,0,159.62,613.59Z" transform="translate(-115.24)"/><path class="cls-3" d="M170.35,578c0,.55.11.51.17.76.2-.28.11-.7.12-1.07a.53.53,0,0,0,.45-.23C171,576.88,170.69,577.6,170.35,578Z" transform="translate(-115.24)"/><path class="cls-3" d="M148.47,601.72c-.19.84.5-1.18.88-.93,0-.42-.31-.3-.47-.45C148.34,601.08,149,601,148.47,601.72Z" transform="translate(-115.24)"/><path class="cls-3" d="M157.71,591.22c0,.52.14.6.46.21-.2-.1-.12-.59.12-1.07C158.23,589.86,157.9,591,157.71,591.22Z" transform="translate(-115.24)"/><path class="cls-3" d="M155,592.65c-.16,0-.17-.37-.46,0,0,.58.05.85.19,1,.27-.32.07-.87.42-1.16C155.13,592.26,155,592.52,155,592.65Z" transform="translate(-115.24)"/><path class="cls-3" d="M176,569.89c.6-.53,0-.57,0-.92,0-.63.26,0,.59-.62a5.33,5.33,0,0,1,1-3.16c-.09-.25-.23-.34-.32-.6a11.2,11.2,0,0,1-1.39,4.08C176,569.26,175.75,569.76,176,569.89Z" transform="translate(-115.24)"/><path class="cls-3" d="M152.47,593.69a36.86,36.86,0,0,0,1.77-6.38c-.25.22-.36.79-.44.47-.45.78-.06.55-.26,1.45-.33-.33-1.12,2.87-1.15,1.94C151.92,591.52,152.22,593.14,152.47,593.69Z" transform="translate(-115.24)"/><path class="cls-3" d="M182.25,560.89c.52-.44,1.28-2.7,1.55-4C183.3,558.23,182.75,559.54,182.25,560.89Z" transform="translate(-115.24)"/><path class="cls-3" d="M130.18,613.57c.28.12-.1.71,0,1.37a3,3,0,0,0,.4-1.84C130.54,612.83,130.43,613.39,130.18,613.57Z" transform="translate(-115.24)"/><path class="cls-3" d="M154.29,588.68a6.24,6.24,0,0,0,.53-2.22C154.21,587,154.47,587.94,154.29,588.68Z" transform="translate(-115.24)"/><path class="cls-3" d="M177.26,561.45c-.06.6.29,0,.32.38a4.07,4.07,0,0,0,.41-1.39C177.88,560,177.78,561.36,177.26,561.45Z" transform="translate(-115.24)"/><path class="cls-3" d="M141.45,595.67c0-.22-.18,0-.3.08-.07-.49.25-.78.11-1.3a3.72,3.72,0,0,0-.68,2.39C141,596.17,140.91,595.82,141.45,595.67Z" transform="translate(-115.24)"/><path class="cls-3" d="M153.75,576.23c.14-1.09.47-.78.85-1.86a5.58,5.58,0,0,1-.34-1.06C154.16,574.26,153.54,575.85,153.75,576.23Z" transform="translate(-115.24)"/><path class="cls-3" d="M186.31,540.23c-.41.22.24-1.07-.18-1-.39.35-.09,1-.57,1.31.39,0,.16,1.1.93.45a3.47,3.47,0,0,1,.4-1.62C186.83,538.88,186.51,540.06,186.31,540.23Z" transform="translate(-115.24)"/><path class="cls-3" d="M187.88,536.91c.57-.78.32-1.95,1.13-2.62-.07-.75-.4.44-.46,0A22.68,22.68,0,0,0,187.88,536.91Z" transform="translate(-115.24)"/><path class="cls-3" d="M189,532.69c-.26.3-.32,0-.59.39a9,9,0,0,1-1.27,3.24c.72.1.87-2,1.74-2.56a1.93,1.93,0,0,1,.85-1.85,11.26,11.26,0,0,0,.23-2.38c-.21.35-.36.73-.57,1.08-.07.6.29,0,.31.38a4.13,4.13,0,0,0-.13.61c-.23.15-.15-.59-.6.17C188.77,532.29,188.78,532.53,189,532.69Z" transform="translate(-115.24)"/><path class="cls-3" d="M140,572.6c0,.23.15,0,.15-.15.21-.25.41-.48.45-.24.19-.28.1-.7.11-1.08C140.38,571.59,140.22,572.12,140,572.6Z" transform="translate(-115.24)"/><path class="cls-3" d="M148.83,554.91c.08.41,1.5-2.24,1.41-3.39-.17.25-.33,1.6-.58,1.08C149.2,553.28,149.51,554.33,148.83,554.91Z" transform="translate(-115.24)"/><path class="cls-3" d="M153.54,545.64c.44-.74,1.14-.85,1.15-2.17-.69-.06-.86,2.08-1.47,1.56C153.06,546,153.7,544.7,153.54,545.64Z" transform="translate(-115.24)"/><path class="cls-3" d="M178.78,513.16c.17.55.39-.68.58-.86,0-.42-.26-.33,0-.69,0-.22-.06-.15-.15-.07l-.29.31c.19-.16.23,1.2,0,.69C178.69,512.87,179.06,512.81,178.78,513.16Z" transform="translate(-115.24)"/><path class="cls-3" d="M162.13,524.2c.29.12.8-1.57,1.15-2.17.38.44,1.27-1,1.62-1.48-.45-.16-1.09.18-1.66.33.73.51-.56,1.18-1,2.47C162.43,523.51,162.43,523.75,162.13,524.2Z" transform="translate(-115.24)"/><path class="cls-3" d="M165.9,518.54c.41-.12,1-2.1,1.43-2.94-.08-.71-.63,1.29-.74.55A5.07,5.07,0,0,1,165.9,518.54Z" transform="translate(-115.24)"/><path class="cls-3" d="M164,519.88c-.08.86.3,0,.29-.31.25-.28.39-.24.46,0,.19-.29.22-.65.43-.93-.27.29-.88.32,0-.69-.05-.26-.37.2-.59.4A2.28,2.28,0,0,1,164,519.88Z" transform="translate(-115.24)"/><path class="cls-3" d="M167.92,510.24c-.19.28-.22.65-.43.92-.09.82.42,0,.33.84C168,511.36,167.83,511.26,167.92,510.24Z" transform="translate(-115.24)"/><path class="cls-3" d="M167.6,500.14c.26.2,0,.31,0,.92.45-.65.2.6.75-.32,0-.23,0-.46,0-.69-.34.27-.68.51-.17-.53C168.13,499,167.94,500.1,167.6,500.14Z" transform="translate(-115.24)"/><path class="cls-3" d="M178.16,488.46c-.27.46.17.19.15-.15.2-.06.29.19.32.6.32-.59.07-1.66-.34-1.06A.83.83,0,0,1,178.16,488.46Z" transform="translate(-115.24)"/><path class="cls-3" d="M195.82,470.67c.16-.22.07-.32,0-.23-.05-.7.82-1,.55-1.77-.62.45-.56,1.24-.85,1.85C195.55,470.73,195.81,470.37,195.82,470.67Z" transform="translate(-115.24)"/><path class="cls-3" d="M174.53,479.28a4,4,0,0,0-1,2.24c.76-.7,1-1.66,1.6-2.4-.4-.67.38-1.86.51-2.92C175.61,476.4,174.17,478.87,174.53,479.28Z" transform="translate(-115.24)"/><path class="cls-3" d="M176,477c.43-1,.42-2.21,1.12-3.08-.8-.59,1.29-2.95,1.38-4.54-.13-.07-.41.29-.46,0-.23.87-.14,1.89-1,2.47a15.46,15.46,0,0,1-1.26,3.69c.06.26.38-.2.6-.4C176.31,475.84,175.83,476.28,176,477Z" transform="translate(-115.24)"/><path class="cls-3" d="M173.44,478.31c.92.1,2.44-4.33,2.41-5.41C175.15,474.68,174.57,477.46,173.44,478.31Z" transform="translate(-115.24)"/><path class="cls-3" d="M179.53,464.26c.37-.72.69-1.48,1-2.23C180.2,461.89,179.68,463.57,179.53,464.26Z" transform="translate(-115.24)"/><path class="cls-3" d="M183.61,454a29,29,0,0,0,2.4-5.86c-.73.6-.53,1.64-1.17,1.7.51.41-.65,1.53-.53,2.46-.47.63-.34-.81-.74.32C184.1,452.47,184,453.05,183.61,454Z" transform="translate(-115.24)"/><path class="cls-3" d="M182.7,454c.42.19.67-1.63,1-2.24-.14-.54-.36.69-.73.78C183,453.38,183.19,453.24,182.7,454Z" transform="translate(-115.24)"/><path class="cls-3" d="M186.14,447.76a18,18,0,0,0,1.7-3.93C186.66,444,186.44,446.43,186.14,447.76Z" transform="translate(-115.24)"/><path class="cls-3" d="M194.3,427.25a14.26,14.26,0,0,0,.7-2.15l-.44.46C194.74,426.25,194.21,426.6,194.3,427.25Z" transform="translate(-115.24)"/><path class="cls-3" d="M197.13,415.72c0,.46,0,.92,0,1.38.48-.94-.14-1.23.54-2.23C197.65,414.37,197.33,415.55,197.13,415.72Z" transform="translate(-115.24)"/><path class="cls-3" d="M201.49,404.7c.85,0,0-1.33,1.15-1.94a.75.75,0,0,1-.17-.53C201.82,402.9,201.85,403.89,201.49,404.7Z" transform="translate(-115.24)"/><path class="cls-3" d="M207.89,386.28c-.27.46.17.2.15-.15.31-.26.31.3.47.45.27-.63.14-1.45.7-1.93-.48-1.14.38-1.95.66-3.07.16-.94-.48.33-.32-.61-.19,1.19-.91,2.13-1,3.39-.26.31-.32.05-.59.4C208.25,384.85,208.1,385.76,207.89,386.28Z" transform="translate(-115.24)"/><path class="cls-3" d="M219.51,355c.72-.87.32-2.26,1.12-3.08-.06-.27-.38.2-.59.39C220.2,353.37,219.34,353.94,219.51,355Z" transform="translate(-115.24)"/><path class="cls-3" d="M226.31,334.51c.29.13,1.2-2.31,1-2.46A13.87,13.87,0,0,1,226.31,334.51Z" transform="translate(-115.24)"/><path class="cls-3" d="M234.83,316c-.1-.38-.33-.41-.47-.67a3.32,3.32,0,0,0-.41,1.61c.4-.26.27-.78.42-1.15S234.09,317.08,234.83,316Z" transform="translate(-115.24)"/><path class="cls-3" d="M259.49,240.76c.38.31.61-1.35,1-1.78,0-.22-.07-.15-.16-.07l-.29.31C260.09,239.84,259.65,240.24,259.49,240.76Z" transform="translate(-115.24)"/><path class="cls-3" d="M311.46,184.64c.45-1.06.72-2.21,1.27-3.23-.3-.66.43-2,.81-3,0-.16-.15-.08-.16-.31-.12.18-.14.06-.15-.07C312.79,180.31,311.86,182.35,311.46,184.64Z" transform="translate(-115.24)"/><path class="cls-3" d="M295.52,126.45c.16-1.11-.5,0-.34-1.07-.11.17-.13.39-.28.54,0,.16,0,.31,0,.46C295.46,125.45,295,127.38,295.52,126.45Z" transform="translate(-115.24)"/><path class="cls-3" d="M299.05,118c.83-.88-.64-.15,0-1.14-.15-.48-.59.74-.42,1.15C298.89,117.58,299.06,117.53,299.05,118Z" transform="translate(-115.24)"/><path class="cls-4" d="M175.24,579.43c.3-.08.72-1.19,1.09-1.89C176,577.13,175.81,578.65,175.24,579.43ZM275,315.92c-.26.46-.53,1-.71.88A12.41,12.41,0,0,1,275,314C275.58,313.79,274.56,315.93,275,315.92ZM172.84,584.28c-.33.12-.86,1.88-1.17,1.86.57-1,1-2.4,1.31-3C173.21,583.15,172.7,584.18,172.84,584.28Zm-11.6,25.93c-.65,2.4-2.21,5.14-2.83,7C159,614.92,160.33,612.73,161.24,610.21Zm-5,11.93c.54-2,2.52-6.74.89-2.35C156.86,620.57,156.56,621.32,156.26,622.14Zm8.8-29.68a12.51,12.51,0,0,1-1.15,3A20.11,20.11,0,0,1,165.06,592.46Zm-4.61,11.69c-.32.05,0-.82.38-1.78A4.63,4.63,0,0,1,160.45,604.15ZM167,585.53c-.26,0,.85-2,.59-2.08C168.2,582.44,167.27,585.32,167,585.53Zm14-43.84c-.35-.3,1-3.41,1.44-4.06A24.45,24.45,0,0,1,181,541.69Zm75.91-169.3a22.3,22.3,0,0,1,.9-3.11A11.49,11.49,0,0,1,256.91,372.39Zm10-30.37c-.05-.09-.13.1-.21.3-2.08,5-5,13-6.6,16.69,3.13-8.15,6.05-16.12,8.88-22,1.66-3.44,3.31-6,3.72-9.33a6.73,6.73,0,0,1-.36,2.93c-1.09,3.38-3.45,6.29-4.8,9.7-.72,1.84-.65,2.59-1.49,4.43A28.12,28.12,0,0,1,266.92,342ZM173.4,582.57c-.4,0,.48-1.48.68-2.05a4.48,4.48,0,0,0-1,1.92c.14-.55-.07-.6.26-1.43-1.67,2.93-1.82,4.15-3.08,6.89-.06-.12.2-.69.09-.73a69.43,69.43,0,0,0-3.64,9.37c-.16-.12.15-.91.47-1.74-.35.18-1.32,3.3-1,1.52-.92,2.45-.62,2.12-1.57,4.39a49.45,49.45,0,0,1,1.83-5.83,9.34,9.34,0,0,0-.8,1.62c-.06-.6.63-1.45.89-2.35-1.86,3.87-3.61,8.45-5.37,12.94.34-1.28,1.36-4.25,2.38-6.78-.82,1.6-1.78,4.27-2.66,6.28.59-2.09-.35.28-.84,1.23,4-10.69,5.22-14.19,9.46-26a51.39,51.39,0,0,0-1.9,5c-.13.41-.68,1.07-.38.24-.21.15-.33,1.71-.84,2-.06-1.57,2.1-6.37,2.73-8.94-.18.09-.47,1-.58.54-.54,1.45.55-.34-.39,1.78-.08-1.77,1.36-4.56,2.08-6.51.63-1.67,1.23-3.68,2.21-6.07-.84,1.21-2,5-3,7.32-.3.59,0-.23.17-.7,1.57-4.44,4.35-12.2,5.86-16.2-1,1.47-1.47,3.65-2.63,6.68-.07-.09.17-.64.3-1-1.77,4.15-5,13.09-6.87,18.89-.56,1.75-.83,3.09-1.32,4.49a32.87,32.87,0,0,0-1.88,6.2,15.29,15.29,0,0,0-1.41,4.45c-.16,0,0-.65-.24-.09-.49,1.06.09.57-.06,1.13a8.55,8.55,0,0,0-1.1,2.66c-.31-.38-.88,2.33-1.57,4.39.4-.65.9-2.13,1.22-2.22-1,3.32-2.38,6.16-3.68,9.73.75-2.6,2.38-6.41,3.43-9.06-.44.28-1.09,2.33-1.65,3.6,3.85-15.11,12.7-41.68,20.17-60.68.44.26,2.1-3.69,3.2-6.47-.14.85.13.37.11,1.19-.33.52-.68,2-1.27,3.36.74-1.22,2.2-5.87,3.38-8.7-.15-.12-.49,1.18-.72,1.65s1-2.81,1-3.45a41.17,41.17,0,0,0-2.12,5.34c-.3-.61,2.6-6.53,3-8.45.5-1,.11.41-.22,1.07,1.35-3.24,2.76-6.66,3.64-9.37-.42,1-1.63,4-2.75,7,.39-2.14,2.38-6,3.48-9.43.31-.05,0,.82-.39,1.78.55-.72,1-2.51.64-2.45a14.46,14.46,0,0,0,1.19-3.38c-1.75,5.05-4.36,10.2-6.17,15.31.15-.06.38-.81.59-1.31.08.66-1.43,3.68-2.34,6.41a6.37,6.37,0,0,1,.22-1.07c-1,2-2.32,6.3-3.34,8.33,4.71-12.59,9.17-25,14.48-37.5-.36,2-2.12,6-2.85,8.51.55-1.13,2.17-5.42,2.75-7-.46,2.42-2.62,6.6-3.52,9.79,6.09-15.36,10.8-27.87,16.82-44.67-2.7,6.78-4.19,11.32-6.27,16.81a1.9,1.9,0,0,1,.22-1.07c-1.43,3.52-4,10.71-5.55,14.4a17.14,17.14,0,0,1,.93-2.71c-.73,1.53-1.51,3.5-2.32,5.64,2.78-8.83,6.13-17.62,9.27-27.19.18-.1.47-1,.58-.55,8-20.73,15.76-42.69,22.88-60.42.23-.7,0-.75.26-1.44,4.42-10.32,8.36-23.35,13.3-34.88,1.52-3.56,2.52-7.58,4.1-10.34,3.39-9.59,8.87-24.89,12.49-31.74l1-2.68a10.23,10.23,0,0,0,1.25-1.83c.33-1.88,1.62-4.24,2.83-7,.12-.47.06-.69-.07-.79-.16,1.36-.32.81-1.14,3a31.09,31.09,0,0,1,1.23-3.76c-.11.9.75-.55.24.86a46.81,46.81,0,0,0,3.12-7.26c.16.41-.27.75-.34,1.4.89-1.69,1.82-2.74,2.36-5.24.43.75,2.21-4.27,2.87-3.14.16.13.49-1.17.72-1.64.23.61,1.59-2.36,2-1.16-.9,2.44.43,2.88.28,4.72.38-.1.42-1.78.67-1.29a23.56,23.56,0,0,0-1.3,5.66,18.75,18.75,0,0,1-1.93,3.87,56.48,56.48,0,0,1-2.57,9c-.36.9-.68,1.56-1,2.31a2.66,2.66,0,0,0-.22,1.07c-.14.39-.55.94-.8,1.62-.39,1.09-.39,2.19-.6,2.84s-1,2.13-1.18,2.62c-.79,2-1.42,4.18-2.25,6.44-4.66,12.71-10.7,28.15-15.86,42.36-1.41,3.9-2.92,8-4.36,11.78C236,421.74,230.23,437,224.43,453c-.15.43-1.48,3.61-2.37,6-11,29.87-25.63,69.69-38.31,102.17-.25.19-.43,1-.37.24-.25.56-.18.66-.09.73-.77,1.63-.85,1.68-1.6,3.24-1.75,3.63-3.92,9.46-5.27,11.43,2.49-5.68,5.48-12.14,7.73-18.18-1.92,3.45-4.28,10.21-6.19,12.63-.52,2.13-1.45,3-1.57,4.39C175.6,575.73,174.35,580.82,173.4,582.57Zm-11.51,21c.43-1.12.85-2.24,1.27-3.35C163,599.64,161.76,603.71,161.89,603.54Zm6.09-18.8c-.22,1.06-.74,1.61-.6,2.07C167.78,585.75,168.36,584.9,168,584.74ZM188,549a18.74,18.74,0,0,1,1-2.69C188.73,546,187.88,548.81,188,549Zm-1.4,3.69a12,12,0,0,0,.81-2.38A6.1,6.1,0,0,0,186.6,552.64Zm75.83-222.3c-.63,1.55-2.27,4.81-1.74,5.1A37.25,37.25,0,0,0,262.43,330.34Zm-91,256.87c-.08.52-.43.69-.76,2-.42.2.39-1.37.6-2.08C171.28,587.38,171.28,587.6,171.45,587.21Zm-3,5.39c.06.23-.13.35-.21.31a24,24,0,0,1,1.07-3.06C169.65,590.15,168.43,591.84,168.47,592.6ZM162,600.88c-.17-.47.76-2,.73-2.41C163.23,597.55,162.34,600,162,600.88Zm106.42-284c-.18.75-1.81,3.63-1.84,3.14C267.16,318.84,267.72,318.26,268.38,316.86Z" transform="translate(-115.24)"/><path class="cls-5" d="M309.55,101.19c-.32.1-.92,1.48-1.4,2.35C308.42,104,308.85,102.16,309.55,101.19ZM168.84,427.8c.33-.57.68-1.26.86-1.1a20.71,20.71,0,0,1-1.12,3.46C168,430.44,169.31,427.78,168.84,427.8ZM312.72,95.15c.36-.16,1.16-2.34,1.48-2.32-.74,1.28-1.36,3-1.78,3.68C312.18,96.56,312.85,95.27,312.72,95.15Zm15.69-32.21c1-3,3-6.39,3.92-8.67C331.39,57.08,329.71,59.82,328.41,62.94Zm6.85-14.8c-.85,2.5-3.56,8.35-1.25,2.91C334.42,50.08,334.83,49.15,335.26,48.14ZM321.94,84.82a20.34,20.34,0,0,1,1.62-3.74A30.53,30.53,0,0,1,321.94,84.82Zm6.44-14.49c.33-.08-.13,1-.66,2.18A7.48,7.48,0,0,1,328.38,70.33Zm-9.46,23.06c.26,0-1.17,2.53-.91,2.56C317.27,97.22,318.64,93.65,318.92,93.39Zm-20.69,54.23c.32.36-1.53,4.21-2.07,5A38.4,38.4,0,0,1,298.23,147.62ZM195.59,357.94a35.4,35.4,0,0,1-1.37,3.85A19.46,19.46,0,0,1,195.59,357.94Zm-14.66,37.58c0,.11.15-.13.26-.38,2.86-6.22,7-16.1,9.2-20.7-4.4,10.12-8.55,20-12.31,27.26-2.21,4.28-4.29,7.48-5.18,11.58a10.13,10.13,0,0,1,.79-3.61c1.6-4.18,4.46-7.84,6.34-12.06,1-2.28,1-3.21,2.17-5.48C182,392.91,181.35,394.39,180.93,395.52Zm131-298.25c.41,0-.7,1.83-1,2.53a7,7,0,0,0,1.31-2.39,7.81,7.81,0,0,1-.47,1.77c2.14-3.65,2.47-5.15,4.17-8.57,0,.14-.31.85-.2.91a112.41,112.41,0,0,0,5.1-11.62c.15.14-.28,1.12-.74,2.15.4-.24,1.84-4.1,1.3-1.91,1.3-3,.94-2.61,2.25-5.44-1.13,3-1.16,3.72-2.72,7.21a14.69,14.69,0,0,0,1-2c0,.73-.85,1.8-1.25,2.91,2.48-4.81,4.94-10.49,7.39-16-.53,1.58-2,5.25-3.42,8.39,1.08-2,2.45-5.3,3.65-7.8-.91,2.59.39-.36,1-1.53C323.71,79.07,321.94,83.4,315.88,98c1.13-2.5,1.93-4.11,2.69-6.24.2-.52.85-1.34.42-.31.25-.2.59-2.12,1.16-2.47-.16,1.92-3.08,7.89-4.1,11.06.21-.12.64-1.28.68-.69.77-1.8-.62.44.66-2.18-.17,2.15-2.05,5.63-3.09,8-.88,2.08-1.78,4.56-3.14,7.52,1-1.51,2.76-6.15,4.1-9.08.39-.73,0,.29-.27.87-2.26,5.5-6.24,15.11-8.37,20.07,1.25-1.84,2-4.53,3.67-8.28a5.29,5.29,0,0,1-.46,1.28c2.43-5.15,7.05-16.22,9.8-23.41.82-2.16,1.29-3.81,2-5.54A53.93,53.93,0,0,0,324.46,81a24.43,24.43,0,0,0,2.09-5.52c.17,0-.1.8.24.11.65-1.32,0-.7.21-1.39a12.72,12.72,0,0,0,1.52-3.3c.27.46,1.25-2.88,2.25-5.44-.5.82-1.23,2.65-1.58,2.77,1.47-4.11,3.35-7.63,5.2-12.06-1.15,3.22-3.38,7.94-4.84,11.23.49-.36,1.46-2.9,2.21-4.47-6.12,18.65-19.05,51.53-29.49,75.1-.41-.31-2.69,4.59-4.23,8,.27-1-.08-.44.06-1.45.4-.64,1-2.46,1.79-4.16-.95,1.52-3.12,7.27-4.74,10.78.15.15.67-1.46,1-2s-1.41,3.48-1.55,4.26a68.94,68.94,0,0,0,2.95-6.62c.22.74-3.62,8.09-4.33,10.47-.66,1.3-.05-.5.38-1.32-1.86,4-3.8,8.26-5.1,11.62.58-1.19,2.26-5,3.85-8.7-.71,2.64-3.32,7.5-4.94,11.68-.34.08.12-1,.65-2.19-.67.9-1.36,3.11-1,3a23.07,23.07,0,0,0-1.71,4.2c2.52-6.26,6-12.67,8.57-19a7.65,7.65,0,0,0-.8,1.62c0-.8,2-4.56,3.32-7.93a9.17,9.17,0,0,1-.37,1.31c1.33-2.49,3.29-7.81,4.64-10.33-6.67,15.6-13.05,31-20.32,46.5.65-2.43,3.05-7.43,4.16-10.54-.73,1.4-3,6.73-3.84,8.7.82-3,3.65-8.19,5-12.14-8.48,19.06-15.14,34.56-23.76,55.38,3.76-8.42,5.95-14,8.89-20.84a3.15,3.15,0,0,1-.38,1.31c2-4.36,5.61-13.26,7.79-17.85a25.81,25.81,0,0,1-1.36,3.36c1-1.9,2.07-4.35,3.21-7-4.13,10.93-8.85,21.82-13.45,33.66-.21.13-.64,1.28-.68.7-11.19,25.7-22.38,52.89-32.27,74.89-.34.86-.13.91-.47,1.77-6,12.82-12,28.92-18.73,43.24-2.08,4.41-3.69,9.38-5.71,12.83-4.87,11.87-12.72,30.82-17.43,39.35l-1.44,3.33a14.61,14.61,0,0,0-1.56,2.29c-.61,2.31-2.27,5.25-3.92,8.67-.19.58-.16.85,0,1,.36-1.67.44-1,1.61-3.75.27-.33-1.24,3.24-1.81,4.65.25-1.11-.85.7-.12-1a73.38,73.38,0,0,0-4.27,9c-.11-.49.39-.93.56-1.73-1.16,2.1-2.28,3.43-3.19,6.52-.34-.91-2.9,5.31-3.42,3.95-.15-.15-.67,1.46-1,2-.15-.74-2,3-2.26,1.5,1.27-3,0-3.51.38-5.76-.41.13-.69,2.2-.88,1.6a36.44,36.44,0,0,0,2.14-7,29.74,29.74,0,0,1,2.56-4.81,88.61,88.61,0,0,1,3.93-11.13c.5-1.13.93-1.95,1.34-2.88a3.56,3.56,0,0,0,.37-1.32c.21-.48.71-1.17,1.06-2,.57-1.36.72-2.69,1-3.5s1.33-2.65,1.6-3.26c1.09-2.51,2.06-5.17,3.24-8,6.62-15.74,15.07-34.88,22.43-52.49,2-4.83,4.16-9.94,6.19-14.6,8.38-19.2,16.49-38.16,24.75-57.9.22-.52,2.05-4.47,3.31-7.46,15.64-37,36.43-86.36,54.17-126.62.29-.25.59-1.22.42-.31.33-.7.28-.82.2-.91,1-2,1.11-2.08,2.11-4,2.33-4.51,5.41-11.74,7.08-14.21-3.38,7.06-7.4,15.08-10.58,22.57,2.48-4.3,5.88-12.67,8.2-15.71.84-2.62,1.94-3.77,2.25-5.44C308.65,105.73,310.67,99.45,311.9,97.27Zm14.89-26.14c-.6,1.38-1.19,2.77-1.79,4.16C325.06,76,327,70.92,326.79,71.13Zm-9,23.26c.38-1.3,1-2,.91-2.56C318.18,93.14,317.45,94.21,317.82,94.39ZM292,139a30.45,30.45,0,0,1-1.44,3.32C290.85,142.6,292.11,139.19,292,139Zm2-4.58a19.45,19.45,0,0,0-1.17,2.94A9.57,9.57,0,0,0,294,134.44ZM183.92,409.64c.87-1.93,3-6,2.53-6.31A58.6,58.6,0,0,0,183.92,409.64ZM314.57,91.51c.16-.64.55-.87,1.08-2.49.46-.27-.6,1.68-.92,2.56C314.77,91.3,314.81,91,314.57,91.51Zm3.86-6.72c0-.28.18-.44.26-.38a40,40,0,0,1-1.54,3.78C316.86,87.84,318.36,85.72,318.43,84.79Zm7.91-10.4c.12.57-1.06,2.46-1.09,3C324.56,78.52,325.83,75.51,326.34,74.39Zm-150.5,352c.3-.92,2.4-4.52,2.36-3.91C177.38,423.91,176.72,424.64,175.84,426.38Z" transform="translate(-115.24)"/></g></g></g></svg>